<?xml version='1.0' encoding='utf-8'?>
<svg xmlns="http://www.w3.org/2000/svg" baseProfile="full" height="260px" version="1.1" viewBox="0 0 560 260" width="560px" xml:space="preserve">

<path class="bond-0 atom-0 atom-1" d="M 86.2,13.8 L 67.3,24.9" style="fill:none;fill-rule:evenodd;stroke:#000000;stroke-width:2.0px;stroke-linecap:butt;stroke-linejoin:miter;stroke-opacity:1" />
<path class="bond-1 atom-1 atom-2" d="M 67.3,24.9 L 58.8,21.1" style="fill:none;fill-rule:evenodd;stroke:#000000;stroke-width:2.0px;stroke-linecap:butt;stroke-linejoin:miter;stroke-opacity:1" />
<path class="bond-1 atom-1 atom-2" d="M 58.8,21.1 L 50.3,17.4" style="fill:none;fill-rule:evenodd;stroke:#0000FF;stroke-width:2.0px;stroke-linecap:butt;stroke-linejoin:miter;stroke-opacity:1" />
<path class="bond-2 atom-2 atom-3" d="M 44.2,19.6 L 38.4,26.0" style="fill:none;fill-rule:evenodd;stroke:#0000FF;stroke-width:2.0px;stroke-linecap:butt;stroke-linejoin:miter;stroke-opacity:1" />
<path class="bond-2 atom-2 atom-3" d="M 38.4,26.0 L 32.7,32.5" style="fill:none;fill-rule:evenodd;stroke:#000000;stroke-width:2.0px;stroke-linecap:butt;stroke-linejoin:miter;stroke-opacity:1" />
<path class="bond-2 atom-2 atom-3" d="M 46.6,21.7 L 41.7,27.3" style="fill:none;fill-rule:evenodd;stroke:#0000FF;stroke-width:2.0px;stroke-linecap:butt;stroke-linejoin:miter;stroke-opacity:1" />
<path class="bond-2 atom-2 atom-3" d="M 41.7,27.3 L 36.7,32.9" style="fill:none;fill-rule:evenodd;stroke:#000000;stroke-width:2.0px;stroke-linecap:butt;stroke-linejoin:miter;stroke-opacity:1" />
<path class="bond-3 atom-3 atom-4" d="M 32.7,32.5 L 37.1,40.0" style="fill:none;fill-rule:evenodd;stroke:#000000;stroke-width:2.0px;stroke-linecap:butt;stroke-linejoin:miter;stroke-opacity:1" />
<path class="bond-3 atom-3 atom-4" d="M 37.1,40.0 L 41.6,47.5" style="fill:none;fill-rule:evenodd;stroke:#CCCC00;stroke-width:2.0px;stroke-linecap:butt;stroke-linejoin:miter;stroke-opacity:1" />
<path class="bond-4 atom-4 atom-5" d="M 46.5,50.8 L 55.8,48.7" style="fill:none;fill-rule:evenodd;stroke:#CCCC00;stroke-width:2.0px;stroke-linecap:butt;stroke-linejoin:miter;stroke-opacity:1" />
<path class="bond-4 atom-4 atom-5" d="M 55.8,48.7 L 65.2,46.6" style="fill:none;fill-rule:evenodd;stroke:#000000;stroke-width:2.0px;stroke-linecap:butt;stroke-linejoin:miter;stroke-opacity:1" />
<path class="bond-5 atom-5 atom-6" d="M 65.2,46.6 L 81.5,61.2" style="fill:none;fill-rule:evenodd;stroke:#000000;stroke-width:2.0px;stroke-linecap:butt;stroke-linejoin:miter;stroke-opacity:1" />
<path class="bond-6 atom-6 atom-7" d="M 81.5,61.2 L 77.2,82.6" style="fill:none;fill-rule:evenodd;stroke:#000000;stroke-width:2.0px;stroke-linecap:butt;stroke-linejoin:miter;stroke-opacity:1" />
<path class="bond-7 atom-7 atom-8" d="M 77.2,82.6 L 93.5,97.1" style="fill:none;fill-rule:evenodd;stroke:#000000;stroke-width:2.0px;stroke-linecap:butt;stroke-linejoin:miter;stroke-opacity:1" />
<path class="bond-7 atom-7 atom-8" d="M 80.7,81.4 L 94.3,93.4" style="fill:none;fill-rule:evenodd;stroke:#000000;stroke-width:2.0px;stroke-linecap:butt;stroke-linejoin:miter;stroke-opacity:1" />
<path class="bond-8 atom-8 atom-9" d="M 93.5,97.1 L 114.3,90.2" style="fill:none;fill-rule:evenodd;stroke:#000000;stroke-width:2.0px;stroke-linecap:butt;stroke-linejoin:miter;stroke-opacity:1" />
<path class="bond-9 atom-9 atom-10" d="M 114.3,90.2 L 130.7,104.8" style="fill:none;fill-rule:evenodd;stroke:#000000;stroke-width:2.0px;stroke-linecap:butt;stroke-linejoin:miter;stroke-opacity:1" />
<path class="bond-10 atom-10 atom-11" d="M 130.7,104.8 L 128.9,113.6" style="fill:none;fill-rule:evenodd;stroke:#000000;stroke-width:2.0px;stroke-linecap:butt;stroke-linejoin:miter;stroke-opacity:1" />
<path class="bond-10 atom-10 atom-11" d="M 128.9,113.6 L 127.1,122.4" style="fill:none;fill-rule:evenodd;stroke:#0000FF;stroke-width:2.0px;stroke-linecap:butt;stroke-linejoin:miter;stroke-opacity:1" />
<path class="bond-11 atom-11 atom-12" d="M 129.4,128.9 L 136.0,134.8" style="fill:none;fill-rule:evenodd;stroke:#0000FF;stroke-width:2.0px;stroke-linecap:butt;stroke-linejoin:miter;stroke-opacity:1" />
<path class="bond-11 atom-11 atom-12" d="M 136.0,134.8 L 142.7,140.7" style="fill:none;fill-rule:evenodd;stroke:#000000;stroke-width:2.0px;stroke-linecap:butt;stroke-linejoin:miter;stroke-opacity:1" />
<path class="bond-12 atom-12 atom-13" d="M 142.3,142.6 L 151.3,139.6" style="fill:none;fill-rule:evenodd;stroke:#000000;stroke-width:2.0px;stroke-linecap:butt;stroke-linejoin:miter;stroke-opacity:1" />
<path class="bond-12 atom-12 atom-13" d="M 151.3,139.6 L 160.4,136.5" style="fill:none;fill-rule:evenodd;stroke:#FF0000;stroke-width:2.0px;stroke-linecap:butt;stroke-linejoin:miter;stroke-opacity:1" />
<path class="bond-12 atom-12 atom-13" d="M 141.2,139.5 L 150.3,136.5" style="fill:none;fill-rule:evenodd;stroke:#000000;stroke-width:2.0px;stroke-linecap:butt;stroke-linejoin:miter;stroke-opacity:1" />
<path class="bond-12 atom-12 atom-13" d="M 150.3,136.5 L 159.3,133.4" style="fill:none;fill-rule:evenodd;stroke:#FF0000;stroke-width:2.0px;stroke-linecap:butt;stroke-linejoin:miter;stroke-opacity:1" />
<path class="bond-13 atom-14 atom-12" d="M 139.3,158.7 L 138.7,158.5" style="fill:none;fill-rule:evenodd;stroke:#000000;stroke-width:1.0px;stroke-linecap:butt;stroke-linejoin:miter;stroke-opacity:1" />
<path class="bond-13 atom-14 atom-12" d="M 140.4,155.2 L 139.1,154.9" style="fill:none;fill-rule:evenodd;stroke:#000000;stroke-width:1.0px;stroke-linecap:butt;stroke-linejoin:miter;stroke-opacity:1" />
<path class="bond-13 atom-14 atom-12" d="M 141.4,151.7 L 139.5,151.3" style="fill:none;fill-rule:evenodd;stroke:#000000;stroke-width:1.0px;stroke-linecap:butt;stroke-linejoin:miter;stroke-opacity:1" />
<path class="bond-13 atom-14 atom-12" d="M 142.5,148.2 L 139.9,147.6" style="fill:none;fill-rule:evenodd;stroke:#000000;stroke-width:1.0px;stroke-linecap:butt;stroke-linejoin:miter;stroke-opacity:1" />
<path class="bond-13 atom-14 atom-12" d="M 143.5,144.7 L 140.3,144.0" style="fill:none;fill-rule:evenodd;stroke:#000000;stroke-width:1.0px;stroke-linecap:butt;stroke-linejoin:miter;stroke-opacity:1" />
<path class="bond-14 atom-14 atom-15" d="M 138.3,162.2 L 153.0,178.3" style="fill:none;fill-rule:evenodd;stroke:#000000;stroke-width:2.0px;stroke-linecap:butt;stroke-linejoin:miter;stroke-opacity:1" />
<path class="bond-15 atom-15 atom-16" d="M 153.0,178.3 L 142.2,197.4" style="fill:none;fill-rule:evenodd;stroke:#000000;stroke-width:2.0px;stroke-linecap:butt;stroke-linejoin:miter;stroke-opacity:1" />
<path class="bond-16 atom-16 atom-17" d="M 142.2,197.4 L 146.5,204.7 L 145.0,205.4 Z" style="fill:#000000;fill-rule:evenodd;fill-opacity:1;stroke:#000000;stroke-width:0.5px;stroke-linecap:butt;stroke-linejoin:miter;stroke-miterlimit:10;stroke-opacity:1;" />
<path class="bond-16 atom-16 atom-17" d="M 147.7,213.4 L 150.7,212.1 L 146.5,204.7 L 145.0,205.4 Z" style="fill:#FF0000;fill-rule:evenodd;fill-opacity:1;stroke:#FF0000;stroke-width:0.5px;stroke-linecap:butt;stroke-linejoin:miter;stroke-miterlimit:10;stroke-opacity:1;" />
<path class="bond-17 atom-16 atom-18" d="M 142.2,197.4 L 120.8,193.0" style="fill:none;fill-rule:evenodd;stroke:#000000;stroke-width:2.0px;stroke-linecap:butt;stroke-linejoin:miter;stroke-opacity:1" />
<path class="bond-18 atom-18 atom-19" d="M 120.8,193.0 L 119.8,184.0" style="fill:none;fill-rule:evenodd;stroke:#000000;stroke-width:2.0px;stroke-linecap:butt;stroke-linejoin:miter;stroke-opacity:1" />
<path class="bond-18 atom-18 atom-19" d="M 119.8,184.0 L 118.8,175.0" style="fill:none;fill-rule:evenodd;stroke:#0000FF;stroke-width:2.0px;stroke-linecap:butt;stroke-linejoin:miter;stroke-opacity:1" />
<path class="bond-19 atom-19 atom-20" d="M 115.3,169.5 L 107.3,165.0" style="fill:none;fill-rule:evenodd;stroke:#0000FF;stroke-width:2.0px;stroke-linecap:butt;stroke-linejoin:miter;stroke-opacity:1" />
<path class="bond-19 atom-19 atom-20" d="M 107.3,165.0 L 99.3,160.4" style="fill:none;fill-rule:evenodd;stroke:#000000;stroke-width:2.0px;stroke-linecap:butt;stroke-linejoin:miter;stroke-opacity:1" />
<path class="bond-20 atom-20 atom-21" d="M 100.9,161.4 L 100.9,151.9" style="fill:none;fill-rule:evenodd;stroke:#000000;stroke-width:2.0px;stroke-linecap:butt;stroke-linejoin:miter;stroke-opacity:1" />
<path class="bond-20 atom-20 atom-21" d="M 100.9,151.9 L 100.8,142.5" style="fill:none;fill-rule:evenodd;stroke:#FF0000;stroke-width:2.0px;stroke-linecap:butt;stroke-linejoin:miter;stroke-opacity:1" />
<path class="bond-20 atom-20 atom-21" d="M 97.7,161.4 L 97.6,151.9" style="fill:none;fill-rule:evenodd;stroke:#000000;stroke-width:2.0px;stroke-linecap:butt;stroke-linejoin:miter;stroke-opacity:1" />
<path class="bond-20 atom-20 atom-21" d="M 97.6,151.9 L 97.5,142.5" style="fill:none;fill-rule:evenodd;stroke:#FF0000;stroke-width:2.0px;stroke-linecap:butt;stroke-linejoin:miter;stroke-opacity:1" />
<path class="bond-21 atom-20 atom-22" d="M 99.3,160.4 L 80.4,171.5" style="fill:none;fill-rule:evenodd;stroke:#000000;stroke-width:2.0px;stroke-linecap:butt;stroke-linejoin:miter;stroke-opacity:1" />
<path class="bond-22 atom-22 atom-23" d="M 80.4,171.5 L 81.3,180.2 L 79.7,180.2 Z" style="fill:#000000;fill-rule:evenodd;fill-opacity:1;stroke:#000000;stroke-width:0.5px;stroke-linecap:butt;stroke-linejoin:miter;stroke-miterlimit:10;stroke-opacity:1;" />
<path class="bond-22 atom-22 atom-23" d="M 78.9,188.9 L 82.2,188.8 L 81.3,180.2 L 79.7,180.2 Z" style="fill:#0000FF;fill-rule:evenodd;fill-opacity:1;stroke:#0000FF;stroke-width:0.5px;stroke-linecap:butt;stroke-linejoin:miter;stroke-miterlimit:10;stroke-opacity:1;" />
<path class="bond-23 atom-23 atom-24" d="M 77.5,195.2 L 69.6,199.8" style="fill:none;fill-rule:evenodd;stroke:#0000FF;stroke-width:2.0px;stroke-linecap:butt;stroke-linejoin:miter;stroke-opacity:1" />
<path class="bond-23 atom-23 atom-24" d="M 69.6,199.8 L 61.7,204.5" style="fill:none;fill-rule:evenodd;stroke:#000000;stroke-width:2.0px;stroke-linecap:butt;stroke-linejoin:miter;stroke-opacity:1" />
<path class="bond-24 atom-24 atom-25" d="M 63.3,203.5 L 55.2,198.9" style="fill:none;fill-rule:evenodd;stroke:#000000;stroke-width:2.0px;stroke-linecap:butt;stroke-linejoin:miter;stroke-opacity:1" />
<path class="bond-24 atom-24 atom-25" d="M 55.2,198.9 L 47.0,194.3" style="fill:none;fill-rule:evenodd;stroke:#FF0000;stroke-width:2.0px;stroke-linecap:butt;stroke-linejoin:miter;stroke-opacity:1" />
<path class="bond-24 atom-24 atom-25" d="M 61.7,206.4 L 53.6,201.7" style="fill:none;fill-rule:evenodd;stroke:#000000;stroke-width:2.0px;stroke-linecap:butt;stroke-linejoin:miter;stroke-opacity:1" />
<path class="bond-24 atom-24 atom-25" d="M 53.6,201.7 L 45.4,197.1" style="fill:none;fill-rule:evenodd;stroke:#FF0000;stroke-width:2.0px;stroke-linecap:butt;stroke-linejoin:miter;stroke-opacity:1" />
<path class="bond-25 atom-24 atom-26" d="M 61.7,204.5 L 61.9,226.4" style="fill:none;fill-rule:evenodd;stroke:#000000;stroke-width:2.0px;stroke-linecap:butt;stroke-linejoin:miter;stroke-opacity:1" />
<path class="bond-26 atom-26 atom-27" d="M 61.9,226.4 L 71.4,228.0" style="fill:none;fill-rule:evenodd;stroke:#000000;stroke-width:2.0px;stroke-linecap:butt;stroke-linejoin:miter;stroke-opacity:1" />
<path class="bond-26 atom-26 atom-27" d="M 71.4,228.0 L 80.9,229.6" style="fill:none;fill-rule:evenodd;stroke:#33CCCC;stroke-width:2.0px;stroke-linecap:butt;stroke-linejoin:miter;stroke-opacity:1" />
<path class="bond-27 atom-26 atom-28" d="M 61.9,226.4 L 54.5,247.0" style="fill:none;fill-rule:evenodd;stroke:#000000;stroke-width:2.0px;stroke-linecap:butt;stroke-linejoin:miter;stroke-opacity:1" />
<path class="bond-28 atom-28 atom-29" d="M 54.5,247.0 L 40.3,230.3" style="fill:none;fill-rule:evenodd;stroke:#000000;stroke-width:2.0px;stroke-linecap:butt;stroke-linejoin:miter;stroke-opacity:1" />
<path class="bond-29 atom-22 atom-30" d="M 80.4,171.5 L 61.4,160.7" style="fill:none;fill-rule:evenodd;stroke:#000000;stroke-width:2.0px;stroke-linecap:butt;stroke-linejoin:miter;stroke-opacity:1" />
<path class="bond-30 atom-30 atom-31" d="M 61.4,160.7 L 50.6,179.7" style="fill:none;fill-rule:evenodd;stroke:#000000;stroke-width:2.0px;stroke-linecap:butt;stroke-linejoin:miter;stroke-opacity:1" />
<path class="bond-31 atom-30 atom-32" d="M 61.4,160.7 L 72.2,141.7" style="fill:none;fill-rule:evenodd;stroke:#000000;stroke-width:2.0px;stroke-linecap:butt;stroke-linejoin:miter;stroke-opacity:1" />
<path class="bond-32 atom-30 atom-33" d="M 61.4,160.7 L 42.3,149.9" style="fill:none;fill-rule:evenodd;stroke:#000000;stroke-width:2.0px;stroke-linecap:butt;stroke-linejoin:miter;stroke-opacity:1" />
<path class="bond-33 atom-9 atom-34" d="M 114.3,90.2 L 118.7,68.8" style="fill:none;fill-rule:evenodd;stroke:#000000;stroke-width:2.0px;stroke-linecap:butt;stroke-linejoin:miter;stroke-opacity:1" />
<path class="bond-33 atom-9 atom-34" d="M 111.5,87.7 L 115.1,70.0" style="fill:none;fill-rule:evenodd;stroke:#000000;stroke-width:2.0px;stroke-linecap:butt;stroke-linejoin:miter;stroke-opacity:1" />
<path class="bond-34 atom-34 atom-35" d="M 118.7,68.8 L 127.3,65.9" style="fill:none;fill-rule:evenodd;stroke:#000000;stroke-width:2.0px;stroke-linecap:butt;stroke-linejoin:miter;stroke-opacity:1" />
<path class="bond-34 atom-34 atom-35" d="M 127.3,65.9 L 135.9,63.0" style="fill:none;fill-rule:evenodd;stroke:#FF0000;stroke-width:2.0px;stroke-linecap:butt;stroke-linejoin:miter;stroke-opacity:1" />
<path class="bond-35 atom-35 atom-36" d="M 143.0,65.0 L 149.4,70.7" style="fill:none;fill-rule:evenodd;stroke:#FF0000;stroke-width:2.0px;stroke-linecap:butt;stroke-linejoin:miter;stroke-opacity:1" />
<path class="bond-35 atom-35 atom-36" d="M 149.4,70.7 L 155.8,76.4" style="fill:none;fill-rule:evenodd;stroke:#000000;stroke-width:2.0px;stroke-linecap:butt;stroke-linejoin:miter;stroke-opacity:1" />
<path class="bond-36 atom-36 atom-37" d="M 155.8,76.4 L 176.6,69.5" style="fill:none;fill-rule:evenodd;stroke:#000000;stroke-width:2.0px;stroke-linecap:butt;stroke-linejoin:miter;stroke-opacity:1" />
<path class="bond-37 atom-37 atom-38" d="M 176.6,69.5 L 183.0,75.2" style="fill:none;fill-rule:evenodd;stroke:#000000;stroke-width:2.0px;stroke-linecap:butt;stroke-linejoin:miter;stroke-opacity:1" />
<path class="bond-37 atom-37 atom-38" d="M 183.0,75.2 L 189.4,80.8" style="fill:none;fill-rule:evenodd;stroke:#FF0000;stroke-width:2.0px;stroke-linecap:butt;stroke-linejoin:miter;stroke-opacity:1" />
<path class="bond-38 atom-38 atom-39" d="M 196.5,82.8 L 205.1,79.9" style="fill:none;fill-rule:evenodd;stroke:#FF0000;stroke-width:2.0px;stroke-linecap:butt;stroke-linejoin:miter;stroke-opacity:1" />
<path class="bond-38 atom-38 atom-39" d="M 205.1,79.9 L 213.8,77.1" style="fill:none;fill-rule:evenodd;stroke:#000000;stroke-width:2.0px;stroke-linecap:butt;stroke-linejoin:miter;stroke-opacity:1" />
<path class="bond-39 atom-39 atom-40" d="M 213.8,77.1 L 230.1,91.6" style="fill:none;fill-rule:evenodd;stroke:#000000;stroke-width:2.0px;stroke-linecap:butt;stroke-linejoin:miter;stroke-opacity:1" />
<path class="bond-40 atom-40 atom-41" d="M 230.1,91.6 L 238.7,88.7" style="fill:none;fill-rule:evenodd;stroke:#000000;stroke-width:2.0px;stroke-linecap:butt;stroke-linejoin:miter;stroke-opacity:1" />
<path class="bond-40 atom-40 atom-41" d="M 238.7,88.7 L 247.3,85.9" style="fill:none;fill-rule:evenodd;stroke:#FF0000;stroke-width:2.0px;stroke-linecap:butt;stroke-linejoin:miter;stroke-opacity:1" />
<path class="bond-41 atom-41 atom-42" d="M 254.5,87.8 L 260.9,93.5" style="fill:none;fill-rule:evenodd;stroke:#FF0000;stroke-width:2.0px;stroke-linecap:butt;stroke-linejoin:miter;stroke-opacity:1" />
<path class="bond-41 atom-41 atom-42" d="M 260.9,93.5 L 267.3,99.2" style="fill:none;fill-rule:evenodd;stroke:#000000;stroke-width:2.0px;stroke-linecap:butt;stroke-linejoin:miter;stroke-opacity:1" />
<path class="bond-42 atom-42 atom-43" d="M 267.3,99.2 L 288.0,92.3" style="fill:none;fill-rule:evenodd;stroke:#000000;stroke-width:2.0px;stroke-linecap:butt;stroke-linejoin:miter;stroke-opacity:1" />
<path class="bond-43 atom-43 atom-44" d="M 288.0,92.3 L 294.4,98.0" style="fill:none;fill-rule:evenodd;stroke:#000000;stroke-width:2.0px;stroke-linecap:butt;stroke-linejoin:miter;stroke-opacity:1" />
<path class="bond-43 atom-43 atom-44" d="M 294.4,98.0 L 300.9,103.7" style="fill:none;fill-rule:evenodd;stroke:#FF0000;stroke-width:2.0px;stroke-linecap:butt;stroke-linejoin:miter;stroke-opacity:1" />
<path class="bond-44 atom-44 atom-45" d="M 308.0,105.6 L 316.6,102.8" style="fill:none;fill-rule:evenodd;stroke:#FF0000;stroke-width:2.0px;stroke-linecap:butt;stroke-linejoin:miter;stroke-opacity:1" />
<path class="bond-44 atom-44 atom-45" d="M 316.6,102.8 L 325.2,99.9" style="fill:none;fill-rule:evenodd;stroke:#000000;stroke-width:2.0px;stroke-linecap:butt;stroke-linejoin:miter;stroke-opacity:1" />
<path class="bond-45 atom-45 atom-46" d="M 325.2,99.9 L 341.6,114.4" style="fill:none;fill-rule:evenodd;stroke:#000000;stroke-width:2.0px;stroke-linecap:butt;stroke-linejoin:miter;stroke-opacity:1" />
<path class="bond-46 atom-46 atom-47" d="M 341.6,114.4 L 350.2,111.6" style="fill:none;fill-rule:evenodd;stroke:#000000;stroke-width:2.0px;stroke-linecap:butt;stroke-linejoin:miter;stroke-opacity:1" />
<path class="bond-46 atom-46 atom-47" d="M 350.2,111.6 L 358.8,108.7" style="fill:none;fill-rule:evenodd;stroke:#FF0000;stroke-width:2.0px;stroke-linecap:butt;stroke-linejoin:miter;stroke-opacity:1" />
<path class="bond-47 atom-48 atom-47" d="M 376.6,119.6 L 376.0,120.2" style="fill:none;fill-rule:evenodd;stroke:#000000;stroke-width:1.0px;stroke-linecap:butt;stroke-linejoin:miter;stroke-opacity:1" />
<path class="bond-47 atom-48 atom-47" d="M 374.4,117.2 L 373.3,118.4" style="fill:none;fill-rule:evenodd;stroke:#000000;stroke-width:1.0px;stroke-linecap:butt;stroke-linejoin:miter;stroke-opacity:1" />
<path class="bond-47 atom-48 atom-47" d="M 372.3,114.7 L 370.7,116.5" style="fill:none;fill-rule:evenodd;stroke:#FF0000;stroke-width:1.0px;stroke-linecap:butt;stroke-linejoin:miter;stroke-opacity:1" />
<path class="bond-47 atom-48 atom-47" d="M 370.1,112.3 L 368.0,114.7" style="fill:none;fill-rule:evenodd;stroke:#FF0000;stroke-width:1.0px;stroke-linecap:butt;stroke-linejoin:miter;stroke-opacity:1" />
<path class="bond-48 atom-48 atom-49" d="M 378.7,122.0 L 376.9,130.9" style="fill:none;fill-rule:evenodd;stroke:#000000;stroke-width:2.0px;stroke-linecap:butt;stroke-linejoin:miter;stroke-opacity:1" />
<path class="bond-48 atom-48 atom-49" d="M 376.9,130.9 L 375.1,139.7" style="fill:none;fill-rule:evenodd;stroke:#0000FF;stroke-width:2.0px;stroke-linecap:butt;stroke-linejoin:miter;stroke-opacity:1" />
<path class="bond-49 atom-49 atom-50" d="M 377.4,146.2 L 384.0,152.1" style="fill:none;fill-rule:evenodd;stroke:#0000FF;stroke-width:2.0px;stroke-linecap:butt;stroke-linejoin:miter;stroke-opacity:1" />
<path class="bond-49 atom-49 atom-50" d="M 384.0,152.1 L 390.7,158.0" style="fill:none;fill-rule:evenodd;stroke:#000000;stroke-width:2.0px;stroke-linecap:butt;stroke-linejoin:miter;stroke-opacity:1" />
<path class="bond-50 atom-50 atom-51" d="M 390.7,158.0 L 411.5,151.1" style="fill:none;fill-rule:evenodd;stroke:#000000;stroke-width:2.0px;stroke-linecap:butt;stroke-linejoin:miter;stroke-opacity:1" />
<path class="bond-51 atom-51 atom-52" d="M 411.5,151.1 L 413.3,142.3" style="fill:none;fill-rule:evenodd;stroke:#000000;stroke-width:2.0px;stroke-linecap:butt;stroke-linejoin:miter;stroke-opacity:1" />
<path class="bond-51 atom-51 atom-52" d="M 413.3,142.3 L 415.1,133.5" style="fill:none;fill-rule:evenodd;stroke:#0000FF;stroke-width:2.0px;stroke-linecap:butt;stroke-linejoin:miter;stroke-opacity:1" />
<path class="bond-52 atom-52 atom-53" d="M 418.9,128.6 L 427.8,125.7" style="fill:none;fill-rule:evenodd;stroke:#0000FF;stroke-width:2.0px;stroke-linecap:butt;stroke-linejoin:miter;stroke-opacity:1" />
<path class="bond-52 atom-52 atom-53" d="M 427.8,125.7 L 436.6,122.7" style="fill:none;fill-rule:evenodd;stroke:#000000;stroke-width:2.0px;stroke-linecap:butt;stroke-linejoin:miter;stroke-opacity:1" />
<path class="bond-53 atom-53 atom-54" d="M 436.6,122.7 L 453.0,137.3" style="fill:none;fill-rule:evenodd;stroke:#000000;stroke-width:2.0px;stroke-linecap:butt;stroke-linejoin:miter;stroke-opacity:1" />
<path class="bond-54 atom-54 atom-55" d="M 453.0,137.3 L 473.8,130.3" style="fill:none;fill-rule:evenodd;stroke:#000000;stroke-width:2.0px;stroke-linecap:butt;stroke-linejoin:miter;stroke-opacity:1" />
<path class="bond-54 atom-54 atom-55" d="M 453.8,133.6 L 470.9,127.8" style="fill:none;fill-rule:evenodd;stroke:#000000;stroke-width:2.0px;stroke-linecap:butt;stroke-linejoin:miter;stroke-opacity:1" />
<path class="bond-55 atom-55 atom-56" d="M 473.8,130.3 L 490.2,144.9" style="fill:none;fill-rule:evenodd;stroke:#000000;stroke-width:2.0px;stroke-linecap:butt;stroke-linejoin:miter;stroke-opacity:1" />
<path class="bond-56 atom-56 atom-57" d="M 490.2,144.9 L 485.8,166.3" style="fill:none;fill-rule:evenodd;stroke:#000000;stroke-width:2.0px;stroke-linecap:butt;stroke-linejoin:miter;stroke-opacity:1" />
<path class="bond-56 atom-56 atom-57" d="M 493.0,147.4 L 489.3,165.1" style="fill:none;fill-rule:evenodd;stroke:#000000;stroke-width:2.0px;stroke-linecap:butt;stroke-linejoin:miter;stroke-opacity:1" />
<path class="bond-57 atom-57 atom-58" d="M 485.8,166.3 L 502.1,180.8" style="fill:none;fill-rule:evenodd;stroke:#000000;stroke-width:2.0px;stroke-linecap:butt;stroke-linejoin:miter;stroke-opacity:1" />
<path class="bond-58 atom-58 atom-59" d="M 502.1,180.8 L 522.9,173.9" style="fill:none;fill-rule:evenodd;stroke:#000000;stroke-width:2.0px;stroke-linecap:butt;stroke-linejoin:miter;stroke-opacity:1" />
<path class="bond-58 atom-58 atom-59" d="M 502.9,177.1 L 520.1,171.4" style="fill:none;fill-rule:evenodd;stroke:#000000;stroke-width:2.0px;stroke-linecap:butt;stroke-linejoin:miter;stroke-opacity:1" />
<path class="bond-59 atom-59 atom-60" d="M 522.9,173.9 L 527.3,152.5" style="fill:none;fill-rule:evenodd;stroke:#000000;stroke-width:2.0px;stroke-linecap:butt;stroke-linejoin:miter;stroke-opacity:1" />
<path class="bond-60 atom-60 atom-61" d="M 527.3,152.5 L 510.9,137.9" style="fill:none;fill-rule:evenodd;stroke:#000000;stroke-width:2.0px;stroke-linecap:butt;stroke-linejoin:miter;stroke-opacity:1" />
<path class="bond-60 atom-60 atom-61" d="M 523.7,153.7 L 510.2,141.6" style="fill:none;fill-rule:evenodd;stroke:#000000;stroke-width:2.0px;stroke-linecap:butt;stroke-linejoin:miter;stroke-opacity:1" />
<path class="bond-61 atom-61 atom-62" d="M 510.9,137.9 L 512.7,129.2" style="fill:none;fill-rule:evenodd;stroke:#000000;stroke-width:2.0px;stroke-linecap:butt;stroke-linejoin:miter;stroke-opacity:1" />
<path class="bond-61 atom-61 atom-62" d="M 512.7,129.2 L 514.5,120.5" style="fill:none;fill-rule:evenodd;stroke:#FF0000;stroke-width:2.0px;stroke-linecap:butt;stroke-linejoin:miter;stroke-opacity:1" />
<path class="bond-62 atom-55 atom-63" d="M 473.8,130.3 L 475.6,121.5" style="fill:none;fill-rule:evenodd;stroke:#000000;stroke-width:2.0px;stroke-linecap:butt;stroke-linejoin:miter;stroke-opacity:1" />
<path class="bond-62 atom-55 atom-63" d="M 475.6,121.5 L 477.4,112.7" style="fill:none;fill-rule:evenodd;stroke:#0000FF;stroke-width:2.0px;stroke-linecap:butt;stroke-linejoin:miter;stroke-opacity:1" />
<path class="bond-63 atom-63 atom-64" d="M 475.1,106.2 L 464.9,97.1" style="fill:none;fill-rule:evenodd;stroke:#0000FF;stroke-width:2.0px;stroke-linecap:butt;stroke-linejoin:miter;stroke-opacity:1" />
<path class="bond-63 atom-63 atom-64" d="M 472.9,108.6 L 462.7,99.5" style="fill:none;fill-rule:evenodd;stroke:#0000FF;stroke-width:2.0px;stroke-linecap:butt;stroke-linejoin:miter;stroke-opacity:1" />
<path class="bond-64 atom-64 atom-65" d="M 458.7,95.4 L 449.9,98.3" style="fill:none;fill-rule:evenodd;stroke:#0000FF;stroke-width:2.0px;stroke-linecap:butt;stroke-linejoin:miter;stroke-opacity:1" />
<path class="bond-64 atom-64 atom-65" d="M 449.9,98.3 L 441.0,101.3" style="fill:none;fill-rule:evenodd;stroke:#000000;stroke-width:2.0px;stroke-linecap:butt;stroke-linejoin:miter;stroke-opacity:1" />
<path class="bond-65 atom-65 atom-66" d="M 441.0,101.3 L 434.4,95.4" style="fill:none;fill-rule:evenodd;stroke:#000000;stroke-width:2.0px;stroke-linecap:butt;stroke-linejoin:miter;stroke-opacity:1" />
<path class="bond-65 atom-65 atom-66" d="M 434.4,95.4 L 427.7,89.5" style="fill:none;fill-rule:evenodd;stroke:#0000FF;stroke-width:2.0px;stroke-linecap:butt;stroke-linejoin:miter;stroke-opacity:1" />
<path class="bond-66 atom-66 atom-67" d="M 421.6,87.8 L 412.7,90.7" style="fill:none;fill-rule:evenodd;stroke:#0000FF;stroke-width:2.0px;stroke-linecap:butt;stroke-linejoin:miter;stroke-opacity:1" />
<path class="bond-66 atom-66 atom-67" d="M 412.7,90.7 L 403.9,93.7" style="fill:none;fill-rule:evenodd;stroke:#000000;stroke-width:2.0px;stroke-linecap:butt;stroke-linejoin:miter;stroke-opacity:1" />
<path class="bond-67 atom-67 atom-68" d="M 403.9,93.7 L 399.5,115.1" style="fill:none;fill-rule:evenodd;stroke:#000000;stroke-width:2.0px;stroke-linecap:butt;stroke-linejoin:miter;stroke-opacity:1" />
<path class="bond-68 atom-34 atom-69" d="M 118.7,68.8 L 102.3,54.3" style="fill:none;fill-rule:evenodd;stroke:#000000;stroke-width:2.0px;stroke-linecap:butt;stroke-linejoin:miter;stroke-opacity:1" />
<path class="bond-69 atom-5 atom-1" d="M 65.2,46.6 L 67.3,24.9" style="fill:none;fill-rule:evenodd;stroke:#000000;stroke-width:2.0px;stroke-linecap:butt;stroke-linejoin:miter;stroke-opacity:1" />
<path class="bond-69 atom-5 atom-1" d="M 62.1,44.0 L 63.8,26.9" style="fill:none;fill-rule:evenodd;stroke:#000000;stroke-width:2.0px;stroke-linecap:butt;stroke-linejoin:miter;stroke-opacity:1" />
<path class="bond-70 atom-69 atom-6" d="M 102.3,54.3 L 81.5,61.2" style="fill:none;fill-rule:evenodd;stroke:#000000;stroke-width:2.0px;stroke-linecap:butt;stroke-linejoin:miter;stroke-opacity:1" />
<path class="bond-70 atom-69 atom-6" d="M 101.6,58.0 L 84.4,63.7" style="fill:none;fill-rule:evenodd;stroke:#000000;stroke-width:2.0px;stroke-linecap:butt;stroke-linejoin:miter;stroke-opacity:1" />
<path class="bond-71 atom-19 atom-14" d="M 121.4,169.8 L 129.8,166.0" style="fill:none;fill-rule:evenodd;stroke:#0000FF;stroke-width:2.0px;stroke-linecap:butt;stroke-linejoin:miter;stroke-opacity:1" />
<path class="bond-71 atom-19 atom-14" d="M 129.8,166.0 L 138.3,162.2" style="fill:none;fill-rule:evenodd;stroke:#000000;stroke-width:2.0px;stroke-linecap:butt;stroke-linejoin:miter;stroke-opacity:1" />
<path class="bond-72 atom-29 atom-26" d="M 40.3,230.3 L 61.9,226.4" style="fill:none;fill-rule:evenodd;stroke:#000000;stroke-width:2.0px;stroke-linecap:butt;stroke-linejoin:miter;stroke-opacity:1" />
<path class="bond-73 atom-68 atom-48" d="M 399.5,115.1 L 378.7,122.0" style="fill:none;fill-rule:evenodd;stroke:#000000;stroke-width:2.0px;stroke-linecap:butt;stroke-linejoin:miter;stroke-opacity:1" />
<path class="bond-74 atom-68 atom-52" d="M 399.5,115.1 L 406.1,121.0" style="fill:none;fill-rule:evenodd;stroke:#000000;stroke-width:2.0px;stroke-linecap:butt;stroke-linejoin:miter;stroke-opacity:1" />
<path class="bond-74 atom-68 atom-52" d="M 406.1,121.0 L 412.8,126.9" style="fill:none;fill-rule:evenodd;stroke:#0000FF;stroke-width:2.0px;stroke-linecap:butt;stroke-linejoin:miter;stroke-opacity:1" />
<path class="bond-75 atom-65 atom-53" d="M 441.0,101.3 L 436.6,122.7" style="fill:none;fill-rule:evenodd;stroke:#000000;stroke-width:2.0px;stroke-linecap:butt;stroke-linejoin:miter;stroke-opacity:1" />
<path class="bond-75 atom-65 atom-53" d="M 443.8,103.8 L 440.2,121.5" style="fill:none;fill-rule:evenodd;stroke:#000000;stroke-width:2.0px;stroke-linecap:butt;stroke-linejoin:miter;stroke-opacity:1" />
<path class="bond-76 atom-61 atom-56" d="M 510.9,137.9 L 490.2,144.9" style="fill:none;fill-rule:evenodd;stroke:#000000;stroke-width:2.0px;stroke-linecap:butt;stroke-linejoin:miter;stroke-opacity:1" />
<path class="bond-77 atom-68 atom-70" d="M 396.8,113.4 L 397.5,112.6" style="fill:none;fill-rule:evenodd;stroke:#000000;stroke-width:1.0px;stroke-linecap:butt;stroke-linejoin:miter;stroke-opacity:1" />
<path class="bond-77 atom-68 atom-70" d="M 394.1,111.8 L 395.5,110.1" style="fill:none;fill-rule:evenodd;stroke:#000000;stroke-width:1.0px;stroke-linecap:butt;stroke-linejoin:miter;stroke-opacity:1" />
<path class="bond-77 atom-68 atom-70" d="M 391.3,110.1 L 393.5,107.6" style="fill:none;fill-rule:evenodd;stroke:#000000;stroke-width:1.0px;stroke-linecap:butt;stroke-linejoin:miter;stroke-opacity:1" />
<path d="M 33.0,32.2 L 32.7,32.5 L 32.9,32.9" style="fill:none;stroke:#000000;stroke-width:2.0px;stroke-linecap:butt;stroke-linejoin:miter;stroke-miterlimit:10;stroke-opacity:1;" />
<path d="M 77.4,81.5 L 77.2,82.6 L 78.0,83.3" style="fill:none;stroke:#000000;stroke-width:2.0px;stroke-linecap:butt;stroke-linejoin:miter;stroke-miterlimit:10;stroke-opacity:1;" />
<path d="M 92.7,96.4 L 93.5,97.1 L 94.6,96.8" style="fill:none;stroke:#000000;stroke-width:2.0px;stroke-linecap:butt;stroke-linejoin:miter;stroke-miterlimit:10;stroke-opacity:1;" />
<path d="M 129.9,104.0 L 130.7,104.8 L 130.6,105.2" style="fill:none;stroke:#000000;stroke-width:2.0px;stroke-linecap:butt;stroke-linejoin:miter;stroke-miterlimit:10;stroke-opacity:1;" />
<path d="M 139.0,163.0 L 138.3,162.2 L 137.8,162.4" style="fill:none;stroke:#000000;stroke-width:2.0px;stroke-linecap:butt;stroke-linejoin:miter;stroke-miterlimit:10;stroke-opacity:1;" />
<path d="M 152.3,177.5 L 153.0,178.3 L 152.5,179.3" style="fill:none;stroke:#000000;stroke-width:2.0px;stroke-linecap:butt;stroke-linejoin:miter;stroke-miterlimit:10;stroke-opacity:1;" />
<path d="M 142.8,196.4 L 142.2,197.4 L 141.2,197.2" style="fill:none;stroke:#000000;stroke-width:2.0px;stroke-linecap:butt;stroke-linejoin:miter;stroke-miterlimit:10;stroke-opacity:1;" />
<path d="M 121.9,193.2 L 120.8,193.0 L 120.7,192.5" style="fill:none;stroke:#000000;stroke-width:2.0px;stroke-linecap:butt;stroke-linejoin:miter;stroke-miterlimit:10;stroke-opacity:1;" />
<path d="M 99.7,160.6 L 99.3,160.4 L 98.3,161.0" style="fill:none;stroke:#000000;stroke-width:2.0px;stroke-linecap:butt;stroke-linejoin:miter;stroke-miterlimit:10;stroke-opacity:1;" />
<path d="M 81.4,171.0 L 80.4,171.5 L 79.5,171.0" style="fill:none;stroke:#000000;stroke-width:2.0px;stroke-linecap:butt;stroke-linejoin:miter;stroke-miterlimit:10;stroke-opacity:1;" />
<path d="M 62.1,204.3 L 61.7,204.5 L 61.7,205.6" style="fill:none;stroke:#000000;stroke-width:2.0px;stroke-linecap:butt;stroke-linejoin:miter;stroke-miterlimit:10;stroke-opacity:1;" />
<path d="M 54.9,246.0 L 54.5,247.0 L 53.8,246.2" style="fill:none;stroke:#000000;stroke-width:2.0px;stroke-linecap:butt;stroke-linejoin:miter;stroke-miterlimit:10;stroke-opacity:1;" />
<path d="M 41.0,231.2 L 40.3,230.3 L 41.4,230.1" style="fill:none;stroke:#000000;stroke-width:2.0px;stroke-linecap:butt;stroke-linejoin:miter;stroke-miterlimit:10;stroke-opacity:1;" />
<path d="M 155.5,76.1 L 155.8,76.4 L 156.9,76.0" style="fill:none;stroke:#000000;stroke-width:2.0px;stroke-linecap:butt;stroke-linejoin:miter;stroke-miterlimit:10;stroke-opacity:1;" />
<path d="M 175.6,69.8 L 176.6,69.5 L 176.9,69.8" style="fill:none;stroke:#000000;stroke-width:2.0px;stroke-linecap:butt;stroke-linejoin:miter;stroke-miterlimit:10;stroke-opacity:1;" />
<path d="M 213.3,77.2 L 213.8,77.1 L 214.6,77.8" style="fill:none;stroke:#000000;stroke-width:2.0px;stroke-linecap:butt;stroke-linejoin:miter;stroke-miterlimit:10;stroke-opacity:1;" />
<path d="M 229.3,90.9 L 230.1,91.6 L 230.6,91.5" style="fill:none;stroke:#000000;stroke-width:2.0px;stroke-linecap:butt;stroke-linejoin:miter;stroke-miterlimit:10;stroke-opacity:1;" />
<path d="M 267.0,98.9 L 267.3,99.2 L 268.3,98.9" style="fill:none;stroke:#000000;stroke-width:2.0px;stroke-linecap:butt;stroke-linejoin:miter;stroke-miterlimit:10;stroke-opacity:1;" />
<path d="M 287.0,92.6 L 288.0,92.3 L 288.4,92.6" style="fill:none;stroke:#000000;stroke-width:2.0px;stroke-linecap:butt;stroke-linejoin:miter;stroke-miterlimit:10;stroke-opacity:1;" />
<path d="M 324.8,100.0 L 325.2,99.9 L 326.0,100.6" style="fill:none;stroke:#000000;stroke-width:2.0px;stroke-linecap:butt;stroke-linejoin:miter;stroke-miterlimit:10;stroke-opacity:1;" />
<path d="M 340.7,113.7 L 341.6,114.4 L 342.0,114.3" style="fill:none;stroke:#000000;stroke-width:2.0px;stroke-linecap:butt;stroke-linejoin:miter;stroke-miterlimit:10;stroke-opacity:1;" />
<path d="M 378.6,122.5 L 378.7,122.0 L 379.8,121.7" style="fill:none;stroke:#000000;stroke-width:2.0px;stroke-linecap:butt;stroke-linejoin:miter;stroke-miterlimit:10;stroke-opacity:1;" />
<path d="M 390.4,157.7 L 390.7,158.0 L 391.7,157.7" style="fill:none;stroke:#000000;stroke-width:2.0px;stroke-linecap:butt;stroke-linejoin:miter;stroke-miterlimit:10;stroke-opacity:1;" />
<path d="M 410.4,151.4 L 411.5,151.1 L 411.6,150.7" style="fill:none;stroke:#000000;stroke-width:2.0px;stroke-linecap:butt;stroke-linejoin:miter;stroke-miterlimit:10;stroke-opacity:1;" />
<path d="M 452.2,136.5 L 453.0,137.3 L 454.0,136.9" style="fill:none;stroke:#000000;stroke-width:2.0px;stroke-linecap:butt;stroke-linejoin:miter;stroke-miterlimit:10;stroke-opacity:1;" />
<path d="M 486.0,165.2 L 485.8,166.3 L 486.6,167.0" style="fill:none;stroke:#000000;stroke-width:2.0px;stroke-linecap:butt;stroke-linejoin:miter;stroke-miterlimit:10;stroke-opacity:1;" />
<path d="M 501.3,180.1 L 502.1,180.8 L 503.2,180.5" style="fill:none;stroke:#000000;stroke-width:2.0px;stroke-linecap:butt;stroke-linejoin:miter;stroke-miterlimit:10;stroke-opacity:1;" />
<path d="M 521.9,174.3 L 522.9,173.9 L 523.1,172.8" style="fill:none;stroke:#000000;stroke-width:2.0px;stroke-linecap:butt;stroke-linejoin:miter;stroke-miterlimit:10;stroke-opacity:1;" />
<path d="M 527.1,153.5 L 527.3,152.5 L 526.5,151.7" style="fill:none;stroke:#000000;stroke-width:2.0px;stroke-linecap:butt;stroke-linejoin:miter;stroke-miterlimit:10;stroke-opacity:1;" />
<path d="M 404.3,93.5 L 403.9,93.7 L 403.7,94.7" style="fill:none;stroke:#000000;stroke-width:2.0px;stroke-linecap:butt;stroke-linejoin:miter;stroke-miterlimit:10;stroke-opacity:1;" />
<path d="M 103.1,55.0 L 102.3,54.3 L 101.3,54.6" style="fill:none;stroke:#000000;stroke-width:2.0px;stroke-linecap:butt;stroke-linejoin:miter;stroke-miterlimit:10;stroke-opacity:1;" />
<path class="atom-2" d="M 45.9 13.0 L 47.9 16.3 Q 48.1 16.6, 48.4 17.2 Q 48.7 17.8, 48.8 17.8 L 48.8 13.0 L 49.6 13.0 L 49.6 19.2 L 48.7 19.2 L 46.6 15.6 Q 46.3 15.2, 46.0 14.7 Q 45.8 14.2, 45.7 14.1 L 45.7 19.2 L 44.9 19.2 L 44.9 13.0 L 45.9 13.0 " fill="#0000FF" />
<path class="atom-4" d="M 42.0 53.5 Q 42.1 53.5, 42.4 53.6 Q 42.7 53.8, 43.0 53.8 Q 43.3 53.9, 43.6 53.9 Q 44.2 53.9, 44.6 53.6 Q 44.9 53.3, 44.9 52.8 Q 44.9 52.5, 44.7 52.3 Q 44.6 52.1, 44.3 52.0 Q 44.0 51.8, 43.6 51.7 Q 43.1 51.5, 42.7 51.4 Q 42.4 51.2, 42.2 50.9 Q 41.9 50.6, 41.9 50.0 Q 41.9 49.2, 42.5 48.7 Q 43.0 48.3, 44.0 48.3 Q 44.8 48.3, 45.6 48.6 L 45.4 49.3 Q 44.6 49.0, 44.1 49.0 Q 43.5 49.0, 43.1 49.2 Q 42.8 49.5, 42.8 49.9 Q 42.8 50.2, 43.0 50.4 Q 43.1 50.6, 43.4 50.7 Q 43.6 50.9, 44.1 51.0 Q 44.6 51.2, 45.0 51.3 Q 45.3 51.5, 45.5 51.9 Q 45.8 52.2, 45.8 52.8 Q 45.8 53.7, 45.2 54.2 Q 44.6 54.6, 43.7 54.6 Q 43.1 54.6, 42.7 54.5 Q 42.3 54.4, 41.8 54.2 L 42.0 53.5 " fill="#CCCC00" />
<path class="atom-11" d="M 117.9 123.1 L 118.7 123.1 L 118.7 125.7 L 121.9 125.7 L 121.9 123.1 L 122.7 123.1 L 122.7 129.3 L 121.9 129.3 L 121.9 126.4 L 118.7 126.4 L 118.7 129.3 L 117.9 129.3 L 117.9 123.1 " fill="#0000FF" />
<path class="atom-11" d="M 124.9 123.1 L 126.9 126.4 Q 127.1 126.7, 127.5 127.3 Q 127.8 127.9, 127.8 127.9 L 127.8 123.1 L 128.6 123.1 L 128.6 129.3 L 127.8 129.3 L 125.6 125.7 Q 125.3 125.3, 125.1 124.8 Q 124.8 124.3, 124.7 124.2 L 124.7 129.3 L 123.9 129.3 L 123.9 123.1 L 124.9 123.1 " fill="#0000FF" />
<path class="atom-13" d="M 160.6 133.8 Q 160.6 132.3, 161.3 131.5 Q 162.1 130.7, 163.4 130.7 Q 164.8 130.7, 165.5 131.5 Q 166.3 132.3, 166.3 133.8 Q 166.3 135.3, 165.5 136.2 Q 164.8 137.0, 163.4 137.0 Q 162.1 137.0, 161.3 136.2 Q 160.6 135.3, 160.6 133.8 M 163.4 136.3 Q 164.4 136.3, 164.9 135.7 Q 165.4 135.1, 165.4 133.8 Q 165.4 132.6, 164.9 132.0 Q 164.4 131.4, 163.4 131.4 Q 162.5 131.4, 162.0 132.0 Q 161.5 132.6, 161.5 133.8 Q 161.5 135.1, 162.0 135.7 Q 162.5 136.3, 163.4 136.3 " fill="#FF0000" />
<path class="atom-17" d="M 148.4 217.3 Q 148.4 215.8, 149.2 215.0 Q 149.9 214.2, 151.3 214.2 Q 152.7 214.2, 153.4 215.0 Q 154.1 215.8, 154.1 217.3 Q 154.1 218.8, 153.4 219.7 Q 152.6 220.5, 151.3 220.5 Q 149.9 220.5, 149.2 219.7 Q 148.4 218.8, 148.4 217.3 M 151.3 219.8 Q 152.2 219.8, 152.7 219.2 Q 153.3 218.6, 153.3 217.3 Q 153.3 216.1, 152.7 215.5 Q 152.2 214.9, 151.3 214.9 Q 150.3 214.9, 149.8 215.5 Q 149.3 216.1, 149.3 217.3 Q 149.3 218.6, 149.8 219.2 Q 150.3 219.8, 151.3 219.8 " fill="#FF0000" />
<path class="atom-17" d="M 155.1 214.2 L 155.9 214.2 L 155.9 216.9 L 159.1 216.9 L 159.1 214.2 L 159.9 214.2 L 159.9 220.4 L 159.1 220.4 L 159.1 217.6 L 155.9 217.6 L 155.9 220.4 L 155.1 220.4 L 155.1 214.2 " fill="#FF0000" />
<path class="atom-19" d="M 117.0 168.1 L 119.0 171.4 Q 119.2 171.7, 119.5 172.3 Q 119.8 172.9, 119.9 172.9 L 119.9 168.1 L 120.7 168.1 L 120.7 174.3 L 119.8 174.3 L 117.7 170.7 Q 117.4 170.3, 117.1 169.8 Q 116.9 169.4, 116.8 169.2 L 116.8 174.3 L 116.0 174.3 L 116.0 168.1 L 117.0 168.1 " fill="#0000FF" />
<path class="atom-21" d="M 96.3 138.5 Q 96.3 137.1, 97.0 136.2 Q 97.8 135.4, 99.1 135.4 Q 100.5 135.4, 101.2 136.2 Q 102.0 137.1, 102.0 138.5 Q 102.0 140.1, 101.2 140.9 Q 100.5 141.8, 99.1 141.8 Q 97.8 141.8, 97.0 140.9 Q 96.3 140.1, 96.3 138.5 M 99.1 141.1 Q 100.1 141.1, 100.6 140.4 Q 101.1 139.8, 101.1 138.5 Q 101.1 137.3, 100.6 136.7 Q 100.1 136.1, 99.1 136.1 Q 98.2 136.1, 97.7 136.7 Q 97.2 137.3, 97.2 138.5 Q 97.2 139.8, 97.7 140.4 Q 98.2 141.1, 99.1 141.1 " fill="#FF0000" />
<path class="atom-23" d="M 79.2 190.3 L 81.2 193.6 Q 81.4 193.9, 81.8 194.5 Q 82.1 195.1, 82.1 195.1 L 82.1 190.3 L 82.9 190.3 L 82.9 196.5 L 82.1 196.5 L 79.9 192.9 Q 79.6 192.5, 79.4 192.0 Q 79.1 191.5, 79.0 191.4 L 79.0 196.5 L 78.2 196.5 L 78.2 190.3 L 79.2 190.3 " fill="#0000FF" />
<path class="atom-23" d="M 84.1 190.3 L 85.0 190.3 L 85.0 192.9 L 88.1 192.9 L 88.1 190.3 L 89.0 190.3 L 89.0 196.5 L 88.1 196.5 L 88.1 193.6 L 85.0 193.6 L 85.0 196.5 L 84.1 196.5 L 84.1 190.3 " fill="#0000FF" />
<path class="atom-25" d="M 39.8 193.7 Q 39.8 192.2, 40.6 191.4 Q 41.3 190.5, 42.7 190.5 Q 44.0 190.5, 44.8 191.4 Q 45.5 192.2, 45.5 193.7 Q 45.5 195.2, 44.8 196.1 Q 44.0 196.9, 42.7 196.9 Q 41.3 196.9, 40.6 196.1 Q 39.8 195.2, 39.8 193.7 M 42.7 196.2 Q 43.6 196.2, 44.1 195.6 Q 44.6 194.9, 44.6 193.7 Q 44.6 192.5, 44.1 191.9 Q 43.6 191.2, 42.7 191.2 Q 41.7 191.2, 41.2 191.9 Q 40.7 192.5, 40.7 193.7 Q 40.7 194.9, 41.2 195.6 Q 41.7 196.2, 42.7 196.2 " fill="#FF0000" />
<path class="atom-27" d="M 81.6 226.9 L 85.3 226.9 L 85.3 227.6 L 82.4 227.6 L 82.4 229.5 L 85.0 229.5 L 85.0 230.2 L 82.4 230.2 L 82.4 233.1 L 81.6 233.1 L 81.6 226.9 " fill="#33CCCC" />
<path class="atom-35" d="M 136.6 61.9 Q 136.6 60.4, 137.3 59.6 Q 138.1 58.7, 139.5 58.7 Q 140.8 58.7, 141.6 59.6 Q 142.3 60.4, 142.3 61.9 Q 142.3 63.4, 141.6 64.2 Q 140.8 65.1, 139.5 65.1 Q 138.1 65.1, 137.3 64.2 Q 136.6 63.4, 136.6 61.9 M 139.5 64.4 Q 140.4 64.4, 140.9 63.8 Q 141.4 63.1, 141.4 61.9 Q 141.4 60.7, 140.9 60.0 Q 140.4 59.4, 139.5 59.4 Q 138.5 59.4, 138.0 60.0 Q 137.5 60.7, 137.5 61.9 Q 137.5 63.1, 138.0 63.8 Q 138.5 64.4, 139.5 64.4 " fill="#FF0000" />
<path class="atom-38" d="M 190.1 84.0 Q 190.1 82.5, 190.9 81.7 Q 191.6 80.9, 193.0 80.9 Q 194.4 80.9, 195.1 81.7 Q 195.8 82.5, 195.8 84.0 Q 195.8 85.5, 195.1 86.4 Q 194.3 87.2, 193.0 87.2 Q 191.6 87.2, 190.9 86.4 Q 190.1 85.5, 190.1 84.0 M 193.0 86.5 Q 193.9 86.5, 194.4 85.9 Q 195.0 85.3, 195.0 84.0 Q 195.0 82.8, 194.4 82.2 Q 193.9 81.6, 193.0 81.6 Q 192.0 81.6, 191.5 82.2 Q 191.0 82.8, 191.0 84.0 Q 191.0 85.3, 191.5 85.9 Q 192.0 86.5, 193.0 86.5 " fill="#FF0000" />
<path class="atom-41" d="M 248.1 84.7 Q 248.1 83.2, 248.8 82.4 Q 249.5 81.6, 250.9 81.6 Q 252.3 81.6, 253.0 82.4 Q 253.7 83.2, 253.7 84.7 Q 253.7 86.2, 253.0 87.1 Q 252.3 87.9, 250.9 87.9 Q 249.5 87.9, 248.8 87.1 Q 248.1 86.2, 248.1 84.7 M 250.9 87.2 Q 251.8 87.2, 252.4 86.6 Q 252.9 85.9, 252.9 84.7 Q 252.9 83.5, 252.4 82.9 Q 251.8 82.3, 250.9 82.3 Q 250.0 82.3, 249.4 82.9 Q 248.9 83.5, 248.9 84.7 Q 248.9 86.0, 249.4 86.6 Q 250.0 87.2, 250.9 87.2 " fill="#FF0000" />
<path class="atom-44" d="M 301.6 106.8 Q 301.6 105.4, 302.3 104.5 Q 303.0 103.7, 304.4 103.7 Q 305.8 103.7, 306.5 104.5 Q 307.3 105.4, 307.3 106.8 Q 307.3 108.3, 306.5 109.2 Q 305.8 110.1, 304.4 110.1 Q 303.1 110.1, 302.3 109.2 Q 301.6 108.4, 301.6 106.8 M 304.4 109.4 Q 305.4 109.4, 305.9 108.7 Q 306.4 108.1, 306.4 106.8 Q 306.4 105.6, 305.9 105.0 Q 305.4 104.4, 304.4 104.4 Q 303.5 104.4, 303.0 105.0 Q 302.5 105.6, 302.5 106.8 Q 302.5 108.1, 303.0 108.7 Q 303.5 109.4, 304.4 109.4 " fill="#FF0000" />
<path class="atom-47" d="M 359.5 107.5 Q 359.5 106.0, 360.2 105.2 Q 361.0 104.4, 362.3 104.4 Q 363.7 104.4, 364.4 105.2 Q 365.2 106.0, 365.2 107.5 Q 365.2 109.0, 364.4 109.9 Q 363.7 110.7, 362.3 110.7 Q 361.0 110.7, 360.2 109.9 Q 359.5 109.0, 359.5 107.5 M 362.3 110.0 Q 363.3 110.0, 363.8 109.4 Q 364.3 108.8, 364.3 107.5 Q 364.3 106.3, 363.8 105.7 Q 363.3 105.1, 362.3 105.1 Q 361.4 105.1, 360.9 105.7 Q 360.4 106.3, 360.4 107.5 Q 360.4 108.8, 360.9 109.4 Q 361.4 110.0, 362.3 110.0 " fill="#FF0000" />
<path class="atom-49" d="M 365.9 140.4 L 366.7 140.4 L 366.7 143.0 L 369.9 143.0 L 369.9 140.4 L 370.7 140.4 L 370.7 146.6 L 369.9 146.6 L 369.9 143.7 L 366.7 143.7 L 366.7 146.6 L 365.9 146.6 L 365.9 140.4 " fill="#0000FF" />
<path class="atom-49" d="M 372.9 140.4 L 375.0 143.7 Q 375.2 144.0, 375.5 144.6 Q 375.8 145.2, 375.8 145.2 L 375.8 140.4 L 376.7 140.4 L 376.7 146.6 L 375.8 146.6 L 373.6 143.0 Q 373.4 142.6, 373.1 142.1 Q 372.9 141.6, 372.8 141.5 L 372.8 146.6 L 372.0 146.6 L 372.0 140.4 L 372.9 140.4 " fill="#0000FF" />
<path class="atom-52" d="M 414.5 126.5 L 416.5 129.8 Q 416.7 130.2, 417.0 130.7 Q 417.4 131.3, 417.4 131.4 L 417.4 126.5 L 418.2 126.5 L 418.2 132.7 L 417.4 132.7 L 415.2 129.2 Q 414.9 128.7, 414.7 128.3 Q 414.4 127.8, 414.3 127.6 L 414.3 132.7 L 413.5 132.7 L 413.5 126.5 L 414.5 126.5 " fill="#0000FF" />
<path class="atom-62" d="M 512.5 116.5 Q 512.5 115.0, 513.2 114.2 Q 513.9 113.4, 515.3 113.4 Q 516.7 113.4, 517.4 114.2 Q 518.2 115.0, 518.2 116.5 Q 518.2 118.0, 517.4 118.9 Q 516.7 119.7, 515.3 119.7 Q 513.9 119.7, 513.2 118.9 Q 512.5 118.0, 512.5 116.5 M 515.3 119.0 Q 516.3 119.0, 516.8 118.4 Q 517.3 117.8, 517.3 116.5 Q 517.3 115.3, 516.8 114.7 Q 516.3 114.1, 515.3 114.1 Q 514.4 114.1, 513.9 114.7 Q 513.3 115.3, 513.3 116.5 Q 513.3 117.8, 513.9 118.4 Q 514.4 119.0, 515.3 119.0 " fill="#FF0000" />
<path class="atom-62" d="M 519.1 113.4 L 520.0 113.4 L 520.0 116.1 L 523.1 116.1 L 523.1 113.4 L 524.0 113.4 L 524.0 119.6 L 523.1 119.6 L 523.1 116.8 L 520.0 116.8 L 520.0 119.6 L 519.1 119.6 L 519.1 113.4 " fill="#FF0000" />
<path class="atom-63" d="M 476.8 105.8 L 478.8 109.1 Q 479.0 109.4, 479.4 110.0 Q 479.7 110.6, 479.7 110.6 L 479.7 105.8 L 480.5 105.8 L 480.5 112.0 L 479.7 112.0 L 477.5 108.4 Q 477.2 108.0, 477.0 107.5 Q 476.7 107.0, 476.6 106.9 L 476.6 112.0 L 475.8 112.0 L 475.8 105.8 L 476.8 105.8 " fill="#0000FF" />
<path class="atom-64" d="M 460.4 91.3 L 462.5 94.5 Q 462.7 94.9, 463.0 95.5 Q 463.3 96.0, 463.3 96.1 L 463.3 91.3 L 464.1 91.3 L 464.1 97.5 L 463.3 97.5 L 461.1 93.9 Q 460.9 93.5, 460.6 93.0 Q 460.3 92.5, 460.2 92.3 L 460.2 97.5 L 459.4 97.5 L 459.4 91.3 L 460.4 91.3 " fill="#0000FF" />
<path class="atom-66" d="M 423.3 83.7 L 425.3 86.9 Q 425.5 87.3, 425.8 87.9 Q 426.2 88.4, 426.2 88.5 L 426.2 83.7 L 427.0 83.7 L 427.0 89.9 L 426.1 89.9 L 424.0 86.3 Q 423.7 85.8, 423.4 85.4 Q 423.2 84.9, 423.1 84.7 L 423.1 89.9 L 422.3 89.9 L 422.3 83.7 L 423.3 83.7 " fill="#0000FF" />
<path class="atom-66" d="M 422.2 76.8 L 423.1 76.8 L 423.1 79.5 L 426.2 79.5 L 426.2 76.8 L 427.1 76.8 L 427.1 83.0 L 426.2 83.0 L 426.2 80.2 L 423.1 80.2 L 423.1 83.0 L 422.2 83.0 L 422.2 76.8 " fill="#0000FF" />
<path class="atom-70" d="M 386.1 102.3 L 387.0 102.3 L 387.0 105.0 L 390.1 105.0 L 390.1 102.3 L 391.0 102.3 L 391.0 108.5 L 390.1 108.5 L 390.1 105.7 L 387.0 105.7 L 387.0 108.5 L 386.1 108.5 L 386.1 102.3 " fill="#000000" />
</svg>