<?xml version='1.0' encoding='utf-8'?>
<svg xmlns="http://www.w3.org/2000/svg" baseProfile="full" height="260px" version="1.1" viewBox="0 0 560 260" width="560px" xml:space="preserve">

<path class="bond-0 atom-0 atom-1" d="M 247.5,187.8 L 268.1,205.2" style="fill:none;fill-rule:evenodd;stroke:#000000;stroke-width:2.0px;stroke-linecap:butt;stroke-linejoin:miter;stroke-opacity:1" />
<path class="bond-1 atom-1 atom-2" d="M 268.1,205.2 L 267.3,216.3" style="fill:none;fill-rule:evenodd;stroke:#000000;stroke-width:2.0px;stroke-linecap:butt;stroke-linejoin:miter;stroke-opacity:1" />
<path class="bond-1 atom-1 atom-2" d="M 267.3,216.3 L 266.5,227.4" style="fill:none;fill-rule:evenodd;stroke:#0000FF;stroke-width:2.0px;stroke-linecap:butt;stroke-linejoin:miter;stroke-opacity:1" />
<path class="bond-2 atom-2 atom-3" d="M 270.0,233.7 L 280.6,238.0" style="fill:none;fill-rule:evenodd;stroke:#0000FF;stroke-width:2.0px;stroke-linecap:butt;stroke-linejoin:miter;stroke-opacity:1" />
<path class="bond-2 atom-2 atom-3" d="M 280.6,238.0 L 291.2,242.3" style="fill:none;fill-rule:evenodd;stroke:#000000;stroke-width:2.0px;stroke-linecap:butt;stroke-linejoin:miter;stroke-opacity:1" />
<path class="bond-2 atom-2 atom-3" d="M 271.5,229.9 L 280.7,233.7" style="fill:none;fill-rule:evenodd;stroke:#0000FF;stroke-width:2.0px;stroke-linecap:butt;stroke-linejoin:miter;stroke-opacity:1" />
<path class="bond-2 atom-2 atom-3" d="M 280.7,233.7 L 290.0,237.5" style="fill:none;fill-rule:evenodd;stroke:#000000;stroke-width:2.0px;stroke-linecap:butt;stroke-linejoin:miter;stroke-opacity:1" />
<path class="bond-3 atom-3 atom-4" d="M 291.2,242.3 L 298.2,234.0" style="fill:none;fill-rule:evenodd;stroke:#000000;stroke-width:2.0px;stroke-linecap:butt;stroke-linejoin:miter;stroke-opacity:1" />
<path class="bond-3 atom-3 atom-4" d="M 298.2,234.0 L 305.3,225.7" style="fill:none;fill-rule:evenodd;stroke:#CCCC00;stroke-width:2.0px;stroke-linecap:butt;stroke-linejoin:miter;stroke-opacity:1" />
<path class="bond-4 atom-4 atom-5" d="M 305.7,217.0 L 300.0,207.9" style="fill:none;fill-rule:evenodd;stroke:#CCCC00;stroke-width:2.0px;stroke-linecap:butt;stroke-linejoin:miter;stroke-opacity:1" />
<path class="bond-4 atom-4 atom-5" d="M 300.0,207.9 L 294.4,198.7" style="fill:none;fill-rule:evenodd;stroke:#000000;stroke-width:2.0px;stroke-linecap:butt;stroke-linejoin:miter;stroke-opacity:1" />
<path class="bond-5 atom-5 atom-6" d="M 294.4,198.7 L 304.6,173.7" style="fill:none;fill-rule:evenodd;stroke:#000000;stroke-width:2.0px;stroke-linecap:butt;stroke-linejoin:miter;stroke-opacity:1" />
<path class="bond-6 atom-6 atom-7" d="M 304.6,173.7 L 331.4,170.0" style="fill:none;fill-rule:evenodd;stroke:#000000;stroke-width:2.0px;stroke-linecap:butt;stroke-linejoin:miter;stroke-opacity:1" />
<path class="bond-7 atom-7 atom-8" d="M 331.4,170.0 L 341.6,145.0" style="fill:none;fill-rule:evenodd;stroke:#000000;stroke-width:2.0px;stroke-linecap:butt;stroke-linejoin:miter;stroke-opacity:1" />
<path class="bond-7 atom-7 atom-8" d="M 328.5,166.3 L 336.9,145.7" style="fill:none;fill-rule:evenodd;stroke:#000000;stroke-width:2.0px;stroke-linecap:butt;stroke-linejoin:miter;stroke-opacity:1" />
<path class="bond-8 atom-8 atom-9" d="M 341.6,145.0 L 325.0,123.7" style="fill:none;fill-rule:evenodd;stroke:#000000;stroke-width:2.0px;stroke-linecap:butt;stroke-linejoin:miter;stroke-opacity:1" />
<path class="bond-9 atom-9 atom-10" d="M 325.0,123.7 L 335.2,98.7" style="fill:none;fill-rule:evenodd;stroke:#000000;stroke-width:2.0px;stroke-linecap:butt;stroke-linejoin:miter;stroke-opacity:1" />
<path class="bond-10 atom-10 atom-11" d="M 335.2,98.7 L 346.7,97.1" style="fill:none;fill-rule:evenodd;stroke:#000000;stroke-width:2.0px;stroke-linecap:butt;stroke-linejoin:miter;stroke-opacity:1" />
<path class="bond-10 atom-10 atom-11" d="M 346.7,97.1 L 358.2,95.5" style="fill:none;fill-rule:evenodd;stroke:#0000FF;stroke-width:2.0px;stroke-linecap:butt;stroke-linejoin:miter;stroke-opacity:1" />
<path class="bond-11 atom-11 atom-12" d="M 363.9,90.3 L 368.0,80.1" style="fill:none;fill-rule:evenodd;stroke:#0000FF;stroke-width:2.0px;stroke-linecap:butt;stroke-linejoin:miter;stroke-opacity:1" />
<path class="bond-11 atom-11 atom-12" d="M 368.0,80.1 L 372.2,70.0" style="fill:none;fill-rule:evenodd;stroke:#000000;stroke-width:2.0px;stroke-linecap:butt;stroke-linejoin:miter;stroke-opacity:1" />
<path class="bond-12 atom-12 atom-13" d="M 374.5,69.6 L 367.7,60.9" style="fill:none;fill-rule:evenodd;stroke:#000000;stroke-width:2.0px;stroke-linecap:butt;stroke-linejoin:miter;stroke-opacity:1" />
<path class="bond-12 atom-12 atom-13" d="M 367.7,60.9 L 361.0,52.3" style="fill:none;fill-rule:evenodd;stroke:#FF0000;stroke-width:2.0px;stroke-linecap:butt;stroke-linejoin:miter;stroke-opacity:1" />
<path class="bond-12 atom-12 atom-13" d="M 371.3,72.1 L 364.5,63.4" style="fill:none;fill-rule:evenodd;stroke:#000000;stroke-width:2.0px;stroke-linecap:butt;stroke-linejoin:miter;stroke-opacity:1" />
<path class="bond-12 atom-12 atom-13" d="M 364.5,63.4 L 357.8,54.7" style="fill:none;fill-rule:evenodd;stroke:#FF0000;stroke-width:2.0px;stroke-linecap:butt;stroke-linejoin:miter;stroke-opacity:1" />
<path class="bond-13 atom-14 atom-12" d="M 395.5,66.5 L 395.6,67.0" style="fill:none;fill-rule:evenodd;stroke:#000000;stroke-width:1.0px;stroke-linecap:butt;stroke-linejoin:miter;stroke-opacity:1" />
<path class="bond-13 atom-14 atom-12" d="M 392.2,66.6 L 392.3,67.8" style="fill:none;fill-rule:evenodd;stroke:#000000;stroke-width:1.0px;stroke-linecap:butt;stroke-linejoin:miter;stroke-opacity:1" />
<path class="bond-13 atom-14 atom-12" d="M 388.8,66.8 L 389.0,68.5" style="fill:none;fill-rule:evenodd;stroke:#000000;stroke-width:1.0px;stroke-linecap:butt;stroke-linejoin:miter;stroke-opacity:1" />
<path class="bond-13 atom-14 atom-12" d="M 385.4,67.0 L 385.7,69.3" style="fill:none;fill-rule:evenodd;stroke:#000000;stroke-width:1.0px;stroke-linecap:butt;stroke-linejoin:miter;stroke-opacity:1" />
<path class="bond-13 atom-14 atom-12" d="M 382.0,67.1 L 382.4,70.0" style="fill:none;fill-rule:evenodd;stroke:#000000;stroke-width:1.0px;stroke-linecap:butt;stroke-linejoin:miter;stroke-opacity:1" />
<path class="bond-13 atom-14 atom-12" d="M 378.6,67.3 L 379.1,70.8" style="fill:none;fill-rule:evenodd;stroke:#000000;stroke-width:1.0px;stroke-linecap:butt;stroke-linejoin:miter;stroke-opacity:1" />
<path class="bond-13 atom-14 atom-12" d="M 375.2,67.5 L 375.8,71.5" style="fill:none;fill-rule:evenodd;stroke:#000000;stroke-width:1.0px;stroke-linecap:butt;stroke-linejoin:miter;stroke-opacity:1" />
<path class="bond-14 atom-14 atom-15" d="M 398.9,66.3 L 411.7,42.5" style="fill:none;fill-rule:evenodd;stroke:#000000;stroke-width:2.0px;stroke-linecap:butt;stroke-linejoin:miter;stroke-opacity:1" />
<path class="bond-15 atom-15 atom-16" d="M 411.7,42.5 L 438.3,47.2" style="fill:none;fill-rule:evenodd;stroke:#000000;stroke-width:2.0px;stroke-linecap:butt;stroke-linejoin:miter;stroke-opacity:1" />
<path class="bond-16 atom-16 atom-17" d="M 438.3,47.2 L 444.7,39.7 L 446.1,41.2 Z" style="fill:#000000;fill-rule:evenodd;fill-opacity:1;stroke:#000000;stroke-width:0.5px;stroke-linecap:butt;stroke-linejoin:miter;stroke-miterlimit:10;stroke-opacity:1;" />
<path class="bond-16 atom-16 atom-17" d="M 453.9,35.1 L 451.1,32.2 L 444.7,39.7 L 446.1,41.2 Z" style="fill:#FF0000;fill-rule:evenodd;fill-opacity:1;stroke:#FF0000;stroke-width:0.5px;stroke-linecap:butt;stroke-linejoin:miter;stroke-miterlimit:10;stroke-opacity:1;" />
<path class="bond-17 atom-16 atom-18" d="M 438.3,47.2 L 442.0,74.0" style="fill:none;fill-rule:evenodd;stroke:#000000;stroke-width:2.0px;stroke-linecap:butt;stroke-linejoin:miter;stroke-opacity:1" />
<path class="bond-18 atom-18 atom-19" d="M 442.0,74.0 L 431.7,79.0" style="fill:none;fill-rule:evenodd;stroke:#000000;stroke-width:2.0px;stroke-linecap:butt;stroke-linejoin:miter;stroke-opacity:1" />
<path class="bond-18 atom-18 atom-19" d="M 431.7,79.0 L 421.4,83.9" style="fill:none;fill-rule:evenodd;stroke:#0000FF;stroke-width:2.0px;stroke-linecap:butt;stroke-linejoin:miter;stroke-opacity:1" />
<path class="bond-19 atom-19 atom-20" d="M 416.8,90.5 L 414.8,101.4" style="fill:none;fill-rule:evenodd;stroke:#0000FF;stroke-width:2.0px;stroke-linecap:butt;stroke-linejoin:miter;stroke-opacity:1" />
<path class="bond-19 atom-19 atom-20" d="M 414.8,101.4 L 412.9,112.4" style="fill:none;fill-rule:evenodd;stroke:#000000;stroke-width:2.0px;stroke-linecap:butt;stroke-linejoin:miter;stroke-opacity:1" />
<path class="bond-20 atom-20 atom-21" d="M 413.3,110.1 L 402.2,114.1" style="fill:none;fill-rule:evenodd;stroke:#000000;stroke-width:2.0px;stroke-linecap:butt;stroke-linejoin:miter;stroke-opacity:1" />
<path class="bond-20 atom-20 atom-21" d="M 402.2,114.1 L 391.2,118.0" style="fill:none;fill-rule:evenodd;stroke:#FF0000;stroke-width:2.0px;stroke-linecap:butt;stroke-linejoin:miter;stroke-opacity:1" />
<path class="bond-20 atom-20 atom-21" d="M 414.6,113.9 L 403.6,117.9" style="fill:none;fill-rule:evenodd;stroke:#000000;stroke-width:2.0px;stroke-linecap:butt;stroke-linejoin:miter;stroke-opacity:1" />
<path class="bond-20 atom-20 atom-21" d="M 403.6,117.9 L 392.5,121.9" style="fill:none;fill-rule:evenodd;stroke:#FF0000;stroke-width:2.0px;stroke-linecap:butt;stroke-linejoin:miter;stroke-opacity:1" />
<path class="bond-21 atom-20 atom-22" d="M 412.9,112.4 L 433.5,129.8" style="fill:none;fill-rule:evenodd;stroke:#000000;stroke-width:2.0px;stroke-linecap:butt;stroke-linejoin:miter;stroke-opacity:1" />
<path class="bond-22 atom-22 atom-23" d="M 433.5,129.8 L 443.5,125.1 L 444.2,127.0 Z" style="fill:#000000;fill-rule:evenodd;fill-opacity:1;stroke:#000000;stroke-width:0.5px;stroke-linecap:butt;stroke-linejoin:miter;stroke-miterlimit:10;stroke-opacity:1;" />
<path class="bond-22 atom-22 atom-23" d="M 454.9,124.2 L 453.5,120.4 L 443.5,125.1 L 444.2,127.0 Z" style="fill:#0000FF;fill-rule:evenodd;fill-opacity:1;stroke:#0000FF;stroke-width:0.5px;stroke-linecap:butt;stroke-linejoin:miter;stroke-miterlimit:10;stroke-opacity:1;" />
<path class="bond-23 atom-23 atom-24" d="M 462.7,123.8 L 471.1,131.0" style="fill:none;fill-rule:evenodd;stroke:#0000FF;stroke-width:2.0px;stroke-linecap:butt;stroke-linejoin:miter;stroke-opacity:1" />
<path class="bond-23 atom-23 atom-24" d="M 471.1,131.0 L 479.6,138.1" style="fill:none;fill-rule:evenodd;stroke:#000000;stroke-width:2.0px;stroke-linecap:butt;stroke-linejoin:miter;stroke-opacity:1" />
<path class="bond-24 atom-24 atom-25" d="M 477.8,136.6 L 475.7,148.1" style="fill:none;fill-rule:evenodd;stroke:#000000;stroke-width:2.0px;stroke-linecap:butt;stroke-linejoin:miter;stroke-opacity:1" />
<path class="bond-24 atom-24 atom-25" d="M 475.7,148.1 L 473.6,159.6" style="fill:none;fill-rule:evenodd;stroke:#FF0000;stroke-width:2.0px;stroke-linecap:butt;stroke-linejoin:miter;stroke-opacity:1" />
<path class="bond-24 atom-24 atom-25" d="M 481.8,137.3 L 479.7,148.8" style="fill:none;fill-rule:evenodd;stroke:#000000;stroke-width:2.0px;stroke-linecap:butt;stroke-linejoin:miter;stroke-opacity:1" />
<path class="bond-24 atom-24 atom-25" d="M 479.7,148.8 L 477.6,160.3" style="fill:none;fill-rule:evenodd;stroke:#FF0000;stroke-width:2.0px;stroke-linecap:butt;stroke-linejoin:miter;stroke-opacity:1" />
<path class="bond-25 atom-24 atom-26" d="M 479.6,138.1 L 505.0,128.9" style="fill:none;fill-rule:evenodd;stroke:#000000;stroke-width:2.0px;stroke-linecap:butt;stroke-linejoin:miter;stroke-opacity:1" />
<path class="bond-26 atom-26 atom-27" d="M 505.0,128.9 L 503.1,118.0" style="fill:none;fill-rule:evenodd;stroke:#000000;stroke-width:2.0px;stroke-linecap:butt;stroke-linejoin:miter;stroke-opacity:1" />
<path class="bond-26 atom-26 atom-27" d="M 503.1,118.0 L 501.2,107.0" style="fill:none;fill-rule:evenodd;stroke:#33CCCC;stroke-width:2.0px;stroke-linecap:butt;stroke-linejoin:miter;stroke-opacity:1" />
<path class="bond-27 atom-26 atom-28" d="M 505.0,128.9 L 532.0,129.0" style="fill:none;fill-rule:evenodd;stroke:#000000;stroke-width:2.0px;stroke-linecap:butt;stroke-linejoin:miter;stroke-opacity:1" />
<path class="bond-28 atom-28 atom-29" d="M 532.0,129.0 L 518.4,152.4" style="fill:none;fill-rule:evenodd;stroke:#000000;stroke-width:2.0px;stroke-linecap:butt;stroke-linejoin:miter;stroke-opacity:1" />
<path class="bond-29 atom-22 atom-30" d="M 433.5,129.8 L 428.7,156.4" style="fill:none;fill-rule:evenodd;stroke:#000000;stroke-width:2.0px;stroke-linecap:butt;stroke-linejoin:miter;stroke-opacity:1" />
<path class="bond-30 atom-30 atom-31" d="M 428.7,156.4 L 455.3,161.2" style="fill:none;fill-rule:evenodd;stroke:#000000;stroke-width:2.0px;stroke-linecap:butt;stroke-linejoin:miter;stroke-opacity:1" />
<path class="bond-31 atom-30 atom-32" d="M 428.7,156.4 L 402.1,151.6" style="fill:none;fill-rule:evenodd;stroke:#000000;stroke-width:2.0px;stroke-linecap:butt;stroke-linejoin:miter;stroke-opacity:1" />
<path class="bond-32 atom-30 atom-33" d="M 428.7,156.4 L 423.9,183.0" style="fill:none;fill-rule:evenodd;stroke:#000000;stroke-width:2.0px;stroke-linecap:butt;stroke-linejoin:miter;stroke-opacity:1" />
<path class="bond-33 atom-9 atom-34" d="M 325.0,123.7 L 298.2,127.3" style="fill:none;fill-rule:evenodd;stroke:#000000;stroke-width:2.0px;stroke-linecap:butt;stroke-linejoin:miter;stroke-opacity:1" />
<path class="bond-33 atom-9 atom-34" d="M 323.2,128.0 L 301.1,131.0" style="fill:none;fill-rule:evenodd;stroke:#000000;stroke-width:2.0px;stroke-linecap:butt;stroke-linejoin:miter;stroke-opacity:1" />
<path class="bond-34 atom-34 atom-35" d="M 298.2,127.3 L 291.8,119.1" style="fill:none;fill-rule:evenodd;stroke:#000000;stroke-width:2.0px;stroke-linecap:butt;stroke-linejoin:miter;stroke-opacity:1" />
<path class="bond-34 atom-34 atom-35" d="M 291.8,119.1 L 285.4,110.9" style="fill:none;fill-rule:evenodd;stroke:#FF0000;stroke-width:2.0px;stroke-linecap:butt;stroke-linejoin:miter;stroke-opacity:1" />
<path class="bond-35 atom-35 atom-36" d="M 277.2,106.6 L 266.1,108.1" style="fill:none;fill-rule:evenodd;stroke:#FF0000;stroke-width:2.0px;stroke-linecap:butt;stroke-linejoin:miter;stroke-opacity:1" />
<path class="bond-35 atom-35 atom-36" d="M 266.1,108.1 L 254.9,109.7" style="fill:none;fill-rule:evenodd;stroke:#000000;stroke-width:2.0px;stroke-linecap:butt;stroke-linejoin:miter;stroke-opacity:1" />
<path class="bond-36 atom-36 atom-37" d="M 254.9,109.7 L 238.3,88.3" style="fill:none;fill-rule:evenodd;stroke:#000000;stroke-width:2.0px;stroke-linecap:butt;stroke-linejoin:miter;stroke-opacity:1" />
<path class="bond-37 atom-37 atom-38" d="M 238.3,88.3 L 226.8,89.9" style="fill:none;fill-rule:evenodd;stroke:#000000;stroke-width:2.0px;stroke-linecap:butt;stroke-linejoin:miter;stroke-opacity:1" />
<path class="bond-37 atom-37 atom-38" d="M 226.8,89.9 L 215.3,91.5" style="fill:none;fill-rule:evenodd;stroke:#0000FF;stroke-width:2.0px;stroke-linecap:butt;stroke-linejoin:miter;stroke-opacity:1" />
<path class="bond-38 atom-38 atom-39" d="M 207.9,87.3 L 201.4,79.0" style="fill:none;fill-rule:evenodd;stroke:#0000FF;stroke-width:2.0px;stroke-linecap:butt;stroke-linejoin:miter;stroke-opacity:1" />
<path class="bond-38 atom-38 atom-39" d="M 201.4,79.0 L 195.0,70.7" style="fill:none;fill-rule:evenodd;stroke:#000000;stroke-width:2.0px;stroke-linecap:butt;stroke-linejoin:miter;stroke-opacity:1" />
<path class="bond-39 atom-39 atom-40" d="M 195.0,70.7 L 168.2,74.3" style="fill:none;fill-rule:evenodd;stroke:#000000;stroke-width:2.0px;stroke-linecap:butt;stroke-linejoin:miter;stroke-opacity:1" />
<path class="bond-40 atom-40 atom-41" d="M 168.2,74.3 L 164.1,84.5" style="fill:none;fill-rule:evenodd;stroke:#000000;stroke-width:2.0px;stroke-linecap:butt;stroke-linejoin:miter;stroke-opacity:1" />
<path class="bond-40 atom-40 atom-41" d="M 164.1,84.5 L 159.9,94.6" style="fill:none;fill-rule:evenodd;stroke:#0000FF;stroke-width:2.0px;stroke-linecap:butt;stroke-linejoin:miter;stroke-opacity:1" />
<path class="bond-41 atom-41 atom-42" d="M 154.2,99.9 L 142.7,101.5" style="fill:none;fill-rule:evenodd;stroke:#0000FF;stroke-width:2.0px;stroke-linecap:butt;stroke-linejoin:miter;stroke-opacity:1" />
<path class="bond-41 atom-41 atom-42" d="M 142.7,101.5 L 131.2,103.0" style="fill:none;fill-rule:evenodd;stroke:#000000;stroke-width:2.0px;stroke-linecap:butt;stroke-linejoin:miter;stroke-opacity:1" />
<path class="bond-42 atom-42 atom-43" d="M 131.2,103.0 L 114.7,81.7" style="fill:none;fill-rule:evenodd;stroke:#000000;stroke-width:2.0px;stroke-linecap:butt;stroke-linejoin:miter;stroke-opacity:1" />
<path class="bond-43 atom-43 atom-44" d="M 114.7,81.7 L 103.5,83.2" style="fill:none;fill-rule:evenodd;stroke:#000000;stroke-width:2.0px;stroke-linecap:butt;stroke-linejoin:miter;stroke-opacity:1" />
<path class="bond-43 atom-43 atom-44" d="M 103.5,83.2 L 92.3,84.8" style="fill:none;fill-rule:evenodd;stroke:#FF0000;stroke-width:2.0px;stroke-linecap:butt;stroke-linejoin:miter;stroke-opacity:1" />
<path class="bond-44 atom-44 atom-45" d="M 84.2,80.6 L 77.8,72.3" style="fill:none;fill-rule:evenodd;stroke:#FF0000;stroke-width:2.0px;stroke-linecap:butt;stroke-linejoin:miter;stroke-opacity:1" />
<path class="bond-44 atom-44 atom-45" d="M 77.8,72.3 L 71.3,64.0" style="fill:none;fill-rule:evenodd;stroke:#000000;stroke-width:2.0px;stroke-linecap:butt;stroke-linejoin:miter;stroke-opacity:1" />
<path class="bond-45 atom-45 atom-46" d="M 71.3,64.0 L 81.5,39.0" style="fill:none;fill-rule:evenodd;stroke:#000000;stroke-width:2.0px;stroke-linecap:butt;stroke-linejoin:miter;stroke-opacity:1" />
<path class="bond-45 atom-45 atom-46" d="M 68.5,60.3 L 76.9,39.6" style="fill:none;fill-rule:evenodd;stroke:#000000;stroke-width:2.0px;stroke-linecap:butt;stroke-linejoin:miter;stroke-opacity:1" />
<path class="bond-46 atom-46 atom-47" d="M 81.5,39.0 L 65.0,17.7" style="fill:none;fill-rule:evenodd;stroke:#000000;stroke-width:2.0px;stroke-linecap:butt;stroke-linejoin:miter;stroke-opacity:1" />
<path class="bond-47 atom-47 atom-48" d="M 65.0,17.7 L 38.2,21.3" style="fill:none;fill-rule:evenodd;stroke:#000000;stroke-width:2.0px;stroke-linecap:butt;stroke-linejoin:miter;stroke-opacity:1" />
<path class="bond-47 atom-47 atom-48" d="M 63.2,22.0 L 41.1,25.0" style="fill:none;fill-rule:evenodd;stroke:#000000;stroke-width:2.0px;stroke-linecap:butt;stroke-linejoin:miter;stroke-opacity:1" />
<path class="bond-48 atom-48 atom-49" d="M 38.2,21.3 L 28.0,46.4" style="fill:none;fill-rule:evenodd;stroke:#000000;stroke-width:2.0px;stroke-linecap:butt;stroke-linejoin:miter;stroke-opacity:1" />
<path class="bond-49 atom-49 atom-50" d="M 28.0,46.4 L 44.6,67.7" style="fill:none;fill-rule:evenodd;stroke:#000000;stroke-width:2.0px;stroke-linecap:butt;stroke-linejoin:miter;stroke-opacity:1" />
<path class="bond-49 atom-49 atom-50" d="M 32.6,45.7 L 46.3,63.4" style="fill:none;fill-rule:evenodd;stroke:#000000;stroke-width:2.0px;stroke-linecap:butt;stroke-linejoin:miter;stroke-opacity:1" />
<path class="bond-50 atom-50 atom-51" d="M 44.6,67.7 L 34.4,92.7" style="fill:none;fill-rule:evenodd;stroke:#000000;stroke-width:2.0px;stroke-linecap:butt;stroke-linejoin:miter;stroke-opacity:1" />
<path class="bond-51 atom-51 atom-52" d="M 34.4,92.7 L 50.9,114.1" style="fill:none;fill-rule:evenodd;stroke:#000000;stroke-width:2.0px;stroke-linecap:butt;stroke-linejoin:miter;stroke-opacity:1" />
<path class="bond-52 atom-52 atom-53" d="M 50.9,114.1 L 62.4,112.5" style="fill:none;fill-rule:evenodd;stroke:#000000;stroke-width:2.0px;stroke-linecap:butt;stroke-linejoin:miter;stroke-opacity:1" />
<path class="bond-52 atom-52 atom-53" d="M 62.4,112.5 L 73.9,110.9" style="fill:none;fill-rule:evenodd;stroke:#0000FF;stroke-width:2.0px;stroke-linecap:butt;stroke-linejoin:miter;stroke-opacity:1" />
<path class="bond-52 atom-52 atom-53" d="M 53.8,117.8 L 64.1,116.3" style="fill:none;fill-rule:evenodd;stroke:#000000;stroke-width:2.0px;stroke-linecap:butt;stroke-linejoin:miter;stroke-opacity:1" />
<path class="bond-52 atom-52 atom-53" d="M 64.1,116.3 L 74.5,114.9" style="fill:none;fill-rule:evenodd;stroke:#0000FF;stroke-width:2.0px;stroke-linecap:butt;stroke-linejoin:miter;stroke-opacity:1" />
<path class="bond-53 atom-53 atom-54" d="M 81.4,115.1 L 87.8,123.4" style="fill:none;fill-rule:evenodd;stroke:#0000FF;stroke-width:2.0px;stroke-linecap:butt;stroke-linejoin:miter;stroke-opacity:1" />
<path class="bond-53 atom-53 atom-54" d="M 87.8,123.4 L 94.3,131.7" style="fill:none;fill-rule:evenodd;stroke:#000000;stroke-width:2.0px;stroke-linecap:butt;stroke-linejoin:miter;stroke-opacity:1" />
<path class="bond-54 atom-54 atom-55" d="M 93.4,133.9 L 105.1,132.3" style="fill:none;fill-rule:evenodd;stroke:#000000;stroke-width:2.0px;stroke-linecap:butt;stroke-linejoin:miter;stroke-opacity:1" />
<path class="bond-54 atom-54 atom-55" d="M 105.1,132.3 L 116.9,130.7" style="fill:none;fill-rule:evenodd;stroke:#FF0000;stroke-width:2.0px;stroke-linecap:butt;stroke-linejoin:miter;stroke-opacity:1" />
<path class="bond-54 atom-54 atom-55" d="M 92.8,129.9 L 104.6,128.3" style="fill:none;fill-rule:evenodd;stroke:#000000;stroke-width:2.0px;stroke-linecap:butt;stroke-linejoin:miter;stroke-opacity:1" />
<path class="bond-54 atom-54 atom-55" d="M 104.6,128.3 L 116.4,126.7" style="fill:none;fill-rule:evenodd;stroke:#FF0000;stroke-width:2.0px;stroke-linecap:butt;stroke-linejoin:miter;stroke-opacity:1" />
<path class="bond-55 atom-54 atom-56" d="M 94.3,131.7 L 84.1,156.8" style="fill:none;fill-rule:evenodd;stroke:#000000;stroke-width:2.0px;stroke-linecap:butt;stroke-linejoin:miter;stroke-opacity:1" />
<path class="bond-56 atom-56 atom-57" d="M 84.1,156.8 L 57.3,160.4" style="fill:none;fill-rule:evenodd;stroke:#000000;stroke-width:2.0px;stroke-linecap:butt;stroke-linejoin:miter;stroke-opacity:1" />
<path class="bond-56 atom-56 atom-57" d="M 81.2,153.1 L 59.1,156.1" style="fill:none;fill-rule:evenodd;stroke:#000000;stroke-width:2.0px;stroke-linecap:butt;stroke-linejoin:miter;stroke-opacity:1" />
<path class="bond-57 atom-57 atom-58" d="M 57.3,160.4 L 50.8,152.1" style="fill:none;fill-rule:evenodd;stroke:#000000;stroke-width:2.0px;stroke-linecap:butt;stroke-linejoin:miter;stroke-opacity:1" />
<path class="bond-57 atom-57 atom-58" d="M 50.8,152.1 L 44.4,143.8" style="fill:none;fill-rule:evenodd;stroke:#0000FF;stroke-width:2.0px;stroke-linecap:butt;stroke-linejoin:miter;stroke-opacity:1" />
<path class="bond-58 atom-57 atom-59" d="M 57.3,160.4 L 55.3,171.4" style="fill:none;fill-rule:evenodd;stroke:#000000;stroke-width:2.0px;stroke-linecap:butt;stroke-linejoin:miter;stroke-opacity:1" />
<path class="bond-58 atom-57 atom-59" d="M 55.3,171.4 L 53.4,182.3" style="fill:none;fill-rule:evenodd;stroke:#0000FF;stroke-width:2.0px;stroke-linecap:butt;stroke-linejoin:miter;stroke-opacity:1" />
<path class="bond-59 atom-59 atom-60" d="M 56.3,189.1 L 66.3,194.4" style="fill:none;fill-rule:evenodd;stroke:#0000FF;stroke-width:2.0px;stroke-linecap:butt;stroke-linejoin:miter;stroke-opacity:1" />
<path class="bond-59 atom-59 atom-60" d="M 66.3,194.4 L 76.3,199.8" style="fill:none;fill-rule:evenodd;stroke:#000000;stroke-width:2.0px;stroke-linecap:butt;stroke-linejoin:miter;stroke-opacity:1" />
<path class="bond-60 atom-60 atom-61" d="M 76.3,199.8 L 82.8,226.0" style="fill:none;fill-rule:evenodd;stroke:#000000;stroke-width:2.0px;stroke-linecap:butt;stroke-linejoin:miter;stroke-opacity:1" />
<path class="bond-60 atom-60 atom-61" d="M 80.8,201.1 L 86.2,222.8" style="fill:none;fill-rule:evenodd;stroke:#000000;stroke-width:2.0px;stroke-linecap:butt;stroke-linejoin:miter;stroke-opacity:1" />
<path class="bond-61 atom-61 atom-62" d="M 82.8,226.0 L 108.7,233.6" style="fill:none;fill-rule:evenodd;stroke:#000000;stroke-width:2.0px;stroke-linecap:butt;stroke-linejoin:miter;stroke-opacity:1" />
<path class="bond-62 atom-62 atom-63" d="M 108.7,233.6 L 128.2,214.8" style="fill:none;fill-rule:evenodd;stroke:#000000;stroke-width:2.0px;stroke-linecap:butt;stroke-linejoin:miter;stroke-opacity:1" />
<path class="bond-62 atom-62 atom-63" d="M 107.6,229.0 L 123.7,213.5" style="fill:none;fill-rule:evenodd;stroke:#000000;stroke-width:2.0px;stroke-linecap:butt;stroke-linejoin:miter;stroke-opacity:1" />
<path class="bond-63 atom-63 atom-64" d="M 128.2,214.8 L 121.8,188.6" style="fill:none;fill-rule:evenodd;stroke:#000000;stroke-width:2.0px;stroke-linecap:butt;stroke-linejoin:miter;stroke-opacity:1" />
<path class="bond-64 atom-64 atom-65" d="M 121.8,188.6 L 129.3,181.4" style="fill:none;fill-rule:evenodd;stroke:#000000;stroke-width:2.0px;stroke-linecap:butt;stroke-linejoin:miter;stroke-opacity:1" />
<path class="bond-64 atom-64 atom-65" d="M 129.3,181.4 L 136.9,174.1" style="fill:none;fill-rule:evenodd;stroke:#FF0000;stroke-width:2.0px;stroke-linecap:butt;stroke-linejoin:miter;stroke-opacity:1" />
<path class="bond-65 atom-64 atom-66" d="M 121.8,188.6 L 95.8,181.1" style="fill:none;fill-rule:evenodd;stroke:#000000;stroke-width:2.0px;stroke-linecap:butt;stroke-linejoin:miter;stroke-opacity:1" />
<path class="bond-65 atom-64 atom-66" d="M 118.4,191.8 L 97.0,185.6" style="fill:none;fill-rule:evenodd;stroke:#000000;stroke-width:2.0px;stroke-linecap:butt;stroke-linejoin:miter;stroke-opacity:1" />
<path class="bond-66 atom-41 atom-67" d="M 161.7,104.1 L 168.1,112.4" style="fill:none;fill-rule:evenodd;stroke:#0000FF;stroke-width:2.0px;stroke-linecap:butt;stroke-linejoin:miter;stroke-opacity:1" />
<path class="bond-66 atom-41 atom-67" d="M 168.1,112.4 L 174.6,120.7" style="fill:none;fill-rule:evenodd;stroke:#000000;stroke-width:2.0px;stroke-linecap:butt;stroke-linejoin:miter;stroke-opacity:1" />
<path class="bond-67 atom-67 atom-68" d="M 174.6,120.7 L 201.3,117.0" style="fill:none;fill-rule:evenodd;stroke:#000000;stroke-width:2.0px;stroke-linecap:butt;stroke-linejoin:miter;stroke-opacity:1" />
<path class="bond-68 atom-34 atom-69" d="M 298.2,127.3 L 288.0,152.4" style="fill:none;fill-rule:evenodd;stroke:#000000;stroke-width:2.0px;stroke-linecap:butt;stroke-linejoin:miter;stroke-opacity:1" />
<path class="bond-69 atom-5 atom-1" d="M 294.4,198.7 L 268.1,205.2" style="fill:none;fill-rule:evenodd;stroke:#000000;stroke-width:2.0px;stroke-linecap:butt;stroke-linejoin:miter;stroke-opacity:1" />
<path class="bond-69 atom-5 atom-1" d="M 292.5,203.4 L 272.0,208.4" style="fill:none;fill-rule:evenodd;stroke:#000000;stroke-width:2.0px;stroke-linecap:butt;stroke-linejoin:miter;stroke-opacity:1" />
<path class="bond-70 atom-69 atom-6" d="M 288.0,152.4 L 304.6,173.7" style="fill:none;fill-rule:evenodd;stroke:#000000;stroke-width:2.0px;stroke-linecap:butt;stroke-linejoin:miter;stroke-opacity:1" />
<path class="bond-70 atom-69 atom-6" d="M 292.7,151.7 L 306.4,169.4" style="fill:none;fill-rule:evenodd;stroke:#000000;stroke-width:2.0px;stroke-linecap:butt;stroke-linejoin:miter;stroke-opacity:1" />
<path class="bond-71 atom-19 atom-14" d="M 413.8,81.8 L 406.4,74.1" style="fill:none;fill-rule:evenodd;stroke:#0000FF;stroke-width:2.0px;stroke-linecap:butt;stroke-linejoin:miter;stroke-opacity:1" />
<path class="bond-71 atom-19 atom-14" d="M 406.4,74.1 L 398.9,66.3" style="fill:none;fill-rule:evenodd;stroke:#000000;stroke-width:2.0px;stroke-linecap:butt;stroke-linejoin:miter;stroke-opacity:1" />
<path class="bond-72 atom-29 atom-26" d="M 518.4,152.4 L 505.0,128.9" style="fill:none;fill-rule:evenodd;stroke:#000000;stroke-width:2.0px;stroke-linecap:butt;stroke-linejoin:miter;stroke-opacity:1" />
<path class="bond-73 atom-68 atom-38" d="M 201.3,117.0 L 205.5,106.9" style="fill:none;fill-rule:evenodd;stroke:#000000;stroke-width:2.0px;stroke-linecap:butt;stroke-linejoin:miter;stroke-opacity:1" />
<path class="bond-73 atom-68 atom-38" d="M 205.5,106.9 L 209.6,96.7" style="fill:none;fill-rule:evenodd;stroke:#0000FF;stroke-width:2.0px;stroke-linecap:butt;stroke-linejoin:miter;stroke-opacity:1" />
<path class="bond-74 atom-50 atom-45" d="M 44.6,67.7 L 71.3,64.0" style="fill:none;fill-rule:evenodd;stroke:#000000;stroke-width:2.0px;stroke-linecap:butt;stroke-linejoin:miter;stroke-opacity:1" />
<path class="bond-75 atom-58 atom-52" d="M 42.7,134.4 L 46.8,124.2" style="fill:none;fill-rule:evenodd;stroke:#0000FF;stroke-width:2.0px;stroke-linecap:butt;stroke-linejoin:miter;stroke-opacity:1" />
<path class="bond-75 atom-58 atom-52" d="M 46.8,124.2 L 50.9,114.1" style="fill:none;fill-rule:evenodd;stroke:#000000;stroke-width:2.0px;stroke-linecap:butt;stroke-linejoin:miter;stroke-opacity:1" />
<path class="bond-76 atom-66 atom-60" d="M 95.8,181.1 L 76.3,199.8" style="fill:none;fill-rule:evenodd;stroke:#000000;stroke-width:2.0px;stroke-linecap:butt;stroke-linejoin:miter;stroke-opacity:1" />
<path class="bond-77 atom-66 atom-56" d="M 95.8,181.1 L 84.1,156.8" style="fill:none;fill-rule:evenodd;stroke:#000000;stroke-width:2.0px;stroke-linecap:butt;stroke-linejoin:miter;stroke-opacity:1" />
<path d="M 290.7,242.1 L 291.2,242.3 L 291.5,241.9" style="fill:none;stroke:#000000;stroke-width:2.0px;stroke-linecap:butt;stroke-linejoin:miter;stroke-miterlimit:10;stroke-opacity:1;" />
<path d="M 330.0,170.2 L 331.4,170.0 L 331.9,168.8" style="fill:none;stroke:#000000;stroke-width:2.0px;stroke-linecap:butt;stroke-linejoin:miter;stroke-miterlimit:10;stroke-opacity:1;" />
<path d="M 341.0,146.3 L 341.6,145.0 L 340.7,144.0" style="fill:none;stroke:#000000;stroke-width:2.0px;stroke-linecap:butt;stroke-linejoin:miter;stroke-miterlimit:10;stroke-opacity:1;" />
<path d="M 334.7,99.9 L 335.2,98.7 L 335.8,98.6" style="fill:none;stroke:#000000;stroke-width:2.0px;stroke-linecap:butt;stroke-linejoin:miter;stroke-miterlimit:10;stroke-opacity:1;" />
<path d="M 399.6,65.1 L 398.9,66.3 L 399.3,66.7" style="fill:none;stroke:#000000;stroke-width:2.0px;stroke-linecap:butt;stroke-linejoin:miter;stroke-miterlimit:10;stroke-opacity:1;" />
<path d="M 411.0,43.7 L 411.7,42.5 L 413.0,42.7" style="fill:none;stroke:#000000;stroke-width:2.0px;stroke-linecap:butt;stroke-linejoin:miter;stroke-miterlimit:10;stroke-opacity:1;" />
<path d="M 436.9,47.0 L 438.3,47.2 L 438.5,48.6" style="fill:none;stroke:#000000;stroke-width:2.0px;stroke-linecap:butt;stroke-linejoin:miter;stroke-miterlimit:10;stroke-opacity:1;" />
<path d="M 441.8,72.7 L 442.0,74.0 L 441.4,74.3" style="fill:none;stroke:#000000;stroke-width:2.0px;stroke-linecap:butt;stroke-linejoin:miter;stroke-miterlimit:10;stroke-opacity:1;" />
<path d="M 413.0,111.8 L 412.9,112.4 L 413.9,113.2" style="fill:none;stroke:#000000;stroke-width:2.0px;stroke-linecap:butt;stroke-linejoin:miter;stroke-miterlimit:10;stroke-opacity:1;" />
<path d="M 432.5,128.9 L 433.5,129.8 L 433.3,131.1" style="fill:none;stroke:#000000;stroke-width:2.0px;stroke-linecap:butt;stroke-linejoin:miter;stroke-miterlimit:10;stroke-opacity:1;" />
<path d="M 479.1,137.7 L 479.6,138.1 L 480.8,137.6" style="fill:none;stroke:#000000;stroke-width:2.0px;stroke-linecap:butt;stroke-linejoin:miter;stroke-miterlimit:10;stroke-opacity:1;" />
<path d="M 530.6,129.0 L 532.0,129.0 L 531.3,130.2" style="fill:none;stroke:#000000;stroke-width:2.0px;stroke-linecap:butt;stroke-linejoin:miter;stroke-miterlimit:10;stroke-opacity:1;" />
<path d="M 519.1,151.2 L 518.4,152.4 L 517.7,151.2" style="fill:none;stroke:#000000;stroke-width:2.0px;stroke-linecap:butt;stroke-linejoin:miter;stroke-miterlimit:10;stroke-opacity:1;" />
<path d="M 255.4,109.6 L 254.9,109.7 L 254.1,108.6" style="fill:none;stroke:#000000;stroke-width:2.0px;stroke-linecap:butt;stroke-linejoin:miter;stroke-miterlimit:10;stroke-opacity:1;" />
<path d="M 239.1,89.4 L 238.3,88.3 L 237.7,88.4" style="fill:none;stroke:#000000;stroke-width:2.0px;stroke-linecap:butt;stroke-linejoin:miter;stroke-miterlimit:10;stroke-opacity:1;" />
<path d="M 195.3,71.1 L 195.0,70.7 L 193.6,70.9" style="fill:none;stroke:#000000;stroke-width:2.0px;stroke-linecap:butt;stroke-linejoin:miter;stroke-miterlimit:10;stroke-opacity:1;" />
<path d="M 169.5,74.2 L 168.2,74.3 L 168.0,74.9" style="fill:none;stroke:#000000;stroke-width:2.0px;stroke-linecap:butt;stroke-linejoin:miter;stroke-miterlimit:10;stroke-opacity:1;" />
<path d="M 131.8,103.0 L 131.2,103.0 L 130.4,102.0" style="fill:none;stroke:#000000;stroke-width:2.0px;stroke-linecap:butt;stroke-linejoin:miter;stroke-miterlimit:10;stroke-opacity:1;" />
<path d="M 115.5,82.8 L 114.7,81.7 L 114.1,81.8" style="fill:none;stroke:#000000;stroke-width:2.0px;stroke-linecap:butt;stroke-linejoin:miter;stroke-miterlimit:10;stroke-opacity:1;" />
<path d="M 81.0,40.3 L 81.5,39.0 L 80.7,37.9" style="fill:none;stroke:#000000;stroke-width:2.0px;stroke-linecap:butt;stroke-linejoin:miter;stroke-miterlimit:10;stroke-opacity:1;" />
<path d="M 65.8,18.7 L 65.0,17.7 L 63.6,17.8" style="fill:none;stroke:#000000;stroke-width:2.0px;stroke-linecap:butt;stroke-linejoin:miter;stroke-miterlimit:10;stroke-opacity:1;" />
<path d="M 39.5,21.2 L 38.2,21.3 L 37.7,22.6" style="fill:none;stroke:#000000;stroke-width:2.0px;stroke-linecap:butt;stroke-linejoin:miter;stroke-miterlimit:10;stroke-opacity:1;" />
<path d="M 28.5,45.1 L 28.0,46.4 L 28.8,47.4" style="fill:none;stroke:#000000;stroke-width:2.0px;stroke-linecap:butt;stroke-linejoin:miter;stroke-miterlimit:10;stroke-opacity:1;" />
<path d="M 34.9,91.5 L 34.4,92.7 L 35.2,93.8" style="fill:none;stroke:#000000;stroke-width:2.0px;stroke-linecap:butt;stroke-linejoin:miter;stroke-miterlimit:10;stroke-opacity:1;" />
<path d="M 93.9,131.3 L 94.3,131.7 L 93.8,133.0" style="fill:none;stroke:#000000;stroke-width:2.0px;stroke-linecap:butt;stroke-linejoin:miter;stroke-miterlimit:10;stroke-opacity:1;" />
<path d="M 82.5,224.7 L 82.8,226.0 L 84.1,226.4" style="fill:none;stroke:#000000;stroke-width:2.0px;stroke-linecap:butt;stroke-linejoin:miter;stroke-miterlimit:10;stroke-opacity:1;" />
<path d="M 107.4,233.2 L 108.7,233.6 L 109.7,232.6" style="fill:none;stroke:#000000;stroke-width:2.0px;stroke-linecap:butt;stroke-linejoin:miter;stroke-miterlimit:10;stroke-opacity:1;" />
<path d="M 127.3,215.8 L 128.2,214.8 L 127.9,213.5" style="fill:none;stroke:#000000;stroke-width:2.0px;stroke-linecap:butt;stroke-linejoin:miter;stroke-miterlimit:10;stroke-opacity:1;" />
<path d="M 174.3,120.3 L 174.6,120.7 L 175.9,120.5" style="fill:none;stroke:#000000;stroke-width:2.0px;stroke-linecap:butt;stroke-linejoin:miter;stroke-miterlimit:10;stroke-opacity:1;" />
<path d="M 200.0,117.2 L 201.3,117.0 L 201.6,116.5" style="fill:none;stroke:#000000;stroke-width:2.0px;stroke-linecap:butt;stroke-linejoin:miter;stroke-miterlimit:10;stroke-opacity:1;" />
<path d="M 288.5,151.1 L 288.0,152.4 L 288.8,153.4" style="fill:none;stroke:#000000;stroke-width:2.0px;stroke-linecap:butt;stroke-linejoin:miter;stroke-miterlimit:10;stroke-opacity:1;" />
<path class="atom-2" d="M 264.5 228.3 L 267.0 232.4 Q 267.2 232.8, 267.6 233.5 Q 268.0 234.2, 268.1 234.3 L 268.1 228.3 L 269.1 228.3 L 269.1 236.0 L 268.0 236.0 L 265.3 231.5 Q 265.0 231.0, 264.7 230.4 Q 264.4 229.8, 264.3 229.6 L 264.3 236.0 L 263.3 236.0 L 263.3 228.3 L 264.5 228.3 " fill="#0000FF" />
<path class="atom-4" d="M 306.5 224.3 Q 306.6 224.4, 306.9 224.5 Q 307.3 224.7, 307.7 224.8 Q 308.1 224.8, 308.4 224.8 Q 309.2 224.8, 309.6 224.5 Q 310.0 224.1, 310.0 223.5 Q 310.0 223.1, 309.8 222.8 Q 309.6 222.6, 309.3 222.4 Q 308.9 222.3, 308.4 222.1 Q 307.7 221.9, 307.3 221.7 Q 306.9 221.5, 306.6 221.1 Q 306.3 220.7, 306.3 220.0 Q 306.3 219.1, 307.0 218.5 Q 307.6 217.9, 308.9 217.9 Q 309.8 217.9, 310.8 218.3 L 310.6 219.1 Q 309.7 218.8, 309.0 218.8 Q 308.2 218.8, 307.8 219.1 Q 307.4 219.4, 307.4 219.9 Q 307.4 220.3, 307.6 220.6 Q 307.8 220.8, 308.1 220.9 Q 308.5 221.1, 309.0 221.2 Q 309.7 221.5, 310.1 221.7 Q 310.5 221.9, 310.8 222.3 Q 311.1 222.8, 311.1 223.5 Q 311.1 224.6, 310.4 225.2 Q 309.7 225.7, 308.5 225.7 Q 307.8 225.7, 307.3 225.6 Q 306.8 225.4, 306.2 225.2 L 306.5 224.3 " fill="#CCCC00" />
<path class="atom-11" d="M 360.3 91.2 L 362.8 95.2 Q 363.0 95.6, 363.4 96.3 Q 363.8 97.1, 363.8 97.1 L 363.8 91.2 L 364.9 91.2 L 364.9 98.8 L 363.8 98.8 L 361.1 94.4 Q 360.8 93.9, 360.5 93.3 Q 360.1 92.7, 360.0 92.5 L 360.0 98.8 L 359.1 98.8 L 359.1 91.2 L 360.3 91.2 " fill="#0000FF" />
<path class="atom-11" d="M 366.3 91.2 L 367.4 91.2 L 367.4 94.4 L 371.3 94.4 L 371.3 91.2 L 372.3 91.2 L 372.3 98.8 L 371.3 98.8 L 371.3 95.3 L 367.4 95.3 L 367.4 98.8 L 366.3 98.8 L 366.3 91.2 " fill="#0000FF" />
<path class="atom-13" d="M 352.1 48.6 Q 352.1 46.8, 353.0 45.8 Q 353.9 44.7, 355.6 44.7 Q 357.3 44.7, 358.2 45.8 Q 359.1 46.8, 359.1 48.6 Q 359.1 50.5, 358.2 51.6 Q 357.3 52.6, 355.6 52.6 Q 353.9 52.6, 353.0 51.6 Q 352.1 50.5, 352.1 48.6 M 355.6 51.7 Q 356.8 51.7, 357.4 51.0 Q 358.0 50.2, 358.0 48.6 Q 358.0 47.1, 357.4 46.4 Q 356.8 45.6, 355.6 45.6 Q 354.4 45.6, 353.8 46.4 Q 353.2 47.1, 353.2 48.6 Q 353.2 50.2, 353.8 51.0 Q 354.4 51.7, 355.6 51.7 " fill="#FF0000" />
<path class="atom-17" d="M 454.3 28.6 Q 454.3 26.7, 455.2 25.7 Q 456.1 24.7, 457.8 24.7 Q 459.5 24.7, 460.4 25.7 Q 461.3 26.7, 461.3 28.6 Q 461.3 30.4, 460.4 31.5 Q 459.4 32.5, 457.8 32.5 Q 456.1 32.5, 455.2 31.5 Q 454.3 30.4, 454.3 28.6 M 457.8 31.7 Q 458.9 31.7, 459.6 30.9 Q 460.2 30.1, 460.2 28.6 Q 460.2 27.1, 459.6 26.3 Q 458.9 25.5, 457.8 25.5 Q 456.6 25.5, 456.0 26.3 Q 455.3 27.0, 455.3 28.6 Q 455.3 30.1, 456.0 30.9 Q 456.6 31.7, 457.8 31.7 " fill="#FF0000" />
<path class="atom-17" d="M 462.5 24.7 L 463.5 24.7 L 463.5 28.0 L 467.4 28.0 L 467.4 24.7 L 468.5 24.7 L 468.5 32.4 L 467.4 32.4 L 467.4 28.9 L 463.5 28.9 L 463.5 32.4 L 462.5 32.4 L 462.5 24.7 " fill="#FF0000" />
<path class="atom-19" d="M 415.9 82.0 L 418.4 86.0 Q 418.7 86.4, 419.1 87.1 Q 419.5 87.9, 419.5 87.9 L 419.5 82.0 L 420.5 82.0 L 420.5 89.6 L 419.5 89.6 L 416.8 85.2 Q 416.5 84.7, 416.1 84.1 Q 415.8 83.5, 415.7 83.3 L 415.7 89.6 L 414.7 89.6 L 414.7 82.0 L 415.9 82.0 " fill="#0000FF" />
<path class="atom-21" d="M 383.9 121.6 Q 383.9 119.7, 384.8 118.7 Q 385.7 117.7, 387.4 117.7 Q 389.1 117.7, 390.0 118.7 Q 390.9 119.7, 390.9 121.6 Q 390.9 123.4, 390.0 124.5 Q 389.1 125.5, 387.4 125.5 Q 385.8 125.5, 384.8 124.5 Q 383.9 123.4, 383.9 121.6 M 387.4 124.7 Q 388.6 124.7, 389.2 123.9 Q 389.9 123.1, 389.9 121.6 Q 389.9 120.1, 389.2 119.3 Q 388.6 118.5, 387.4 118.5 Q 386.3 118.5, 385.6 119.3 Q 385.0 120.0, 385.0 121.6 Q 385.0 123.1, 385.6 123.9 Q 386.3 124.7, 387.4 124.7 " fill="#FF0000" />
<path class="atom-23" d="M 457.2 116.8 L 459.7 120.9 Q 460.0 121.3, 460.4 122.0 Q 460.8 122.7, 460.8 122.8 L 460.8 116.8 L 461.8 116.8 L 461.8 124.5 L 460.8 124.5 L 458.1 120.0 Q 457.8 119.5, 457.4 118.9 Q 457.1 118.3, 457.0 118.1 L 457.0 124.5 L 456.0 124.5 L 456.0 116.8 L 457.2 116.8 " fill="#0000FF" />
<path class="atom-23" d="M 455.9 108.4 L 457.0 108.4 L 457.0 111.7 L 460.9 111.7 L 460.9 108.4 L 461.9 108.4 L 461.9 116.1 L 460.9 116.1 L 460.9 112.5 L 457.0 112.5 L 457.0 116.1 L 455.9 116.1 L 455.9 108.4 " fill="#0000FF" />
<path class="atom-25" d="M 471.3 164.7 Q 471.3 162.9, 472.2 161.8 Q 473.1 160.8, 474.8 160.8 Q 476.5 160.8, 477.4 161.8 Q 478.3 162.9, 478.3 164.7 Q 478.3 166.6, 477.4 167.6 Q 476.5 168.7, 474.8 168.7 Q 473.1 168.7, 472.2 167.6 Q 471.3 166.6, 471.3 164.7 M 474.8 167.8 Q 476.0 167.8, 476.6 167.0 Q 477.2 166.2, 477.2 164.7 Q 477.2 163.2, 476.6 162.4 Q 476.0 161.7, 474.8 161.7 Q 473.6 161.7, 473.0 162.4 Q 472.4 163.2, 472.4 164.7 Q 472.4 166.2, 473.0 167.0 Q 473.6 167.8, 474.8 167.8 " fill="#FF0000" />
<path class="atom-27" d="M 498.1 98.5 L 502.6 98.5 L 502.6 99.3 L 499.1 99.3 L 499.1 101.7 L 502.3 101.7 L 502.3 102.6 L 499.1 102.6 L 499.1 106.1 L 498.1 106.1 L 498.1 98.5 " fill="#33CCCC" />
<path class="atom-35" d="M 278.1 106.0 Q 278.1 104.2, 279.0 103.2 Q 280.0 102.1, 281.6 102.1 Q 283.3 102.1, 284.3 103.2 Q 285.2 104.2, 285.2 106.0 Q 285.2 107.9, 284.2 108.9 Q 283.3 110.0, 281.6 110.0 Q 280.0 110.0, 279.0 108.9 Q 278.1 107.9, 278.1 106.0 M 281.6 109.1 Q 282.8 109.1, 283.4 108.4 Q 284.1 107.6, 284.1 106.0 Q 284.1 104.5, 283.4 103.8 Q 282.8 103.0, 281.6 103.0 Q 280.5 103.0, 279.8 103.8 Q 279.2 104.5, 279.2 106.0 Q 279.2 107.6, 279.8 108.4 Q 280.5 109.1, 281.6 109.1 " fill="#FF0000" />
<path class="atom-38" d="M 209.9 88.2 L 212.4 92.2 Q 212.6 92.6, 213.0 93.4 Q 213.4 94.1, 213.4 94.1 L 213.4 88.2 L 214.4 88.2 L 214.4 95.8 L 213.4 95.8 L 210.7 91.4 Q 210.4 90.9, 210.1 90.3 Q 209.7 89.7, 209.6 89.5 L 209.6 95.8 L 208.6 95.8 L 208.6 88.2 L 209.9 88.2 " fill="#0000FF" />
<path class="atom-41" d="M 156.3 95.5 L 158.8 99.6 Q 159.1 100.0, 159.5 100.7 Q 159.9 101.4, 159.9 101.5 L 159.9 95.5 L 160.9 95.5 L 160.9 103.2 L 159.9 103.2 L 157.2 98.8 Q 156.9 98.2, 156.5 97.6 Q 156.2 97.1, 156.1 96.9 L 156.1 103.2 L 155.1 103.2 L 155.1 95.5 L 156.3 95.5 " fill="#0000FF" />
<path class="atom-44" d="M 84.4 85.4 Q 84.4 83.6, 85.3 82.5 Q 86.2 81.5, 87.9 81.5 Q 89.6 81.5, 90.5 82.5 Q 91.4 83.6, 91.4 85.4 Q 91.4 87.3, 90.5 88.3 Q 89.6 89.4, 87.9 89.4 Q 86.2 89.4, 85.3 88.3 Q 84.4 87.3, 84.4 85.4 M 87.9 88.5 Q 89.1 88.5, 89.7 87.7 Q 90.3 86.9, 90.3 85.4 Q 90.3 83.9, 89.7 83.1 Q 89.1 82.4, 87.9 82.4 Q 86.7 82.4, 86.1 83.1 Q 85.5 83.9, 85.5 85.4 Q 85.5 86.9, 86.1 87.7 Q 86.7 88.5, 87.9 88.5 " fill="#FF0000" />
<path class="atom-53" d="M 76.0 106.6 L 78.5 110.6 Q 78.8 111.0, 79.2 111.7 Q 79.6 112.5, 79.6 112.5 L 79.6 106.6 L 80.6 106.6 L 80.6 114.2 L 79.6 114.2 L 76.9 109.8 Q 76.6 109.3, 76.2 108.7 Q 75.9 108.1, 75.8 107.9 L 75.8 114.2 L 74.8 114.2 L 74.8 106.6 L 76.0 106.6 " fill="#0000FF" />
<path class="atom-55" d="M 117.5 128.1 Q 117.5 126.2, 118.4 125.2 Q 119.3 124.2, 121.0 124.2 Q 122.7 124.2, 123.6 125.2 Q 124.6 126.2, 124.6 128.1 Q 124.6 129.9, 123.6 131.0 Q 122.7 132.0, 121.0 132.0 Q 119.4 132.0, 118.4 131.0 Q 117.5 130.0, 117.5 128.1 M 121.0 131.2 Q 122.2 131.2, 122.8 130.4 Q 123.5 129.6, 123.5 128.1 Q 123.5 126.6, 122.8 125.8 Q 122.2 125.1, 121.0 125.1 Q 119.9 125.1, 119.2 125.8 Q 118.6 126.6, 118.6 128.1 Q 118.6 129.6, 119.2 130.4 Q 119.9 131.2, 121.0 131.2 " fill="#FF0000" />
<path class="atom-58" d="M 30.3 135.3 L 31.4 135.3 L 31.4 138.5 L 35.3 138.5 L 35.3 135.3 L 36.3 135.3 L 36.3 142.9 L 35.3 142.9 L 35.3 139.4 L 31.4 139.4 L 31.4 142.9 L 30.3 142.9 L 30.3 135.3 " fill="#0000FF" />
<path class="atom-58" d="M 39.0 135.3 L 41.5 139.3 Q 41.8 139.7, 42.2 140.4 Q 42.6 141.2, 42.6 141.2 L 42.6 135.3 L 43.6 135.3 L 43.6 142.9 L 42.6 142.9 L 39.9 138.5 Q 39.6 138.0, 39.2 137.4 Q 38.9 136.8, 38.8 136.6 L 38.8 142.9 L 37.8 142.9 L 37.8 135.3 L 39.0 135.3 " fill="#0000FF" />
<path class="atom-59" d="M 42.1 183.2 L 43.2 183.2 L 43.2 186.5 L 47.1 186.5 L 47.1 183.2 L 48.1 183.2 L 48.1 190.9 L 47.1 190.9 L 47.1 187.3 L 43.2 187.3 L 43.2 190.9 L 42.1 190.9 L 42.1 183.2 " fill="#0000FF" />
<path class="atom-59" d="M 50.8 183.2 L 53.3 187.3 Q 53.6 187.7, 54.0 188.4 Q 54.4 189.1, 54.4 189.1 L 54.4 183.2 L 55.4 183.2 L 55.4 190.9 L 54.4 190.9 L 51.7 186.4 Q 51.4 185.9, 51.0 185.3 Q 50.7 184.7, 50.6 184.5 L 50.6 190.9 L 49.6 190.9 L 49.6 183.2 L 50.8 183.2 " fill="#0000FF" />
<path class="atom-65" d="M 137.8 169.9 Q 137.8 168.1, 138.7 167.1 Q 139.6 166.0, 141.3 166.0 Q 143.0 166.0, 143.9 167.1 Q 144.8 168.1, 144.8 169.9 Q 144.8 171.8, 143.9 172.8 Q 143.0 173.9, 141.3 173.9 Q 139.6 173.9, 138.7 172.8 Q 137.8 171.8, 137.8 169.9 M 141.3 173.0 Q 142.4 173.0, 143.1 172.2 Q 143.7 171.5, 143.7 169.9 Q 143.7 168.4, 143.1 167.7 Q 142.4 166.9, 141.3 166.9 Q 140.1 166.9, 139.5 167.7 Q 138.9 168.4, 138.9 169.9 Q 138.9 171.5, 139.5 172.2 Q 140.1 173.0, 141.3 173.0 " fill="#FF0000" />
<path class="atom-65" d="M 146.0 166.1 L 147.0 166.1 L 147.0 169.4 L 150.9 169.4 L 150.9 166.1 L 152.0 166.1 L 152.0 173.8 L 150.9 173.8 L 150.9 170.2 L 147.0 170.2 L 147.0 173.8 L 146.0 173.8 L 146.0 166.1 " fill="#FF0000" />
</svg>