<?xml version='1.0' encoding='utf-8'?>
<svg xmlns="http://www.w3.org/2000/svg" baseProfile="full" height="260px" version="1.1" viewBox="0 0 560 260" width="560px" xml:space="preserve">

<path class="bond-0 atom-0 atom-1" d="M 301.5,89.4 L 283.5,71.2" style="fill:none;fill-rule:evenodd;stroke:#000000;stroke-width:2.0px;stroke-linecap:butt;stroke-linejoin:miter;stroke-opacity:1" />
<path class="bond-1 atom-1 atom-2" d="M 283.5,71.2 L 285.2,60.8" style="fill:none;fill-rule:evenodd;stroke:#000000;stroke-width:2.0px;stroke-linecap:butt;stroke-linejoin:miter;stroke-opacity:1" />
<path class="bond-1 atom-1 atom-2" d="M 285.2,60.8 L 286.9,50.4" style="fill:none;fill-rule:evenodd;stroke:#0000FF;stroke-width:2.0px;stroke-linecap:butt;stroke-linejoin:miter;stroke-opacity:1" />
<path class="bond-2 atom-2 atom-3" d="M 284.0,44.1 L 274.4,39.1" style="fill:none;fill-rule:evenodd;stroke:#0000FF;stroke-width:2.0px;stroke-linecap:butt;stroke-linejoin:miter;stroke-opacity:1" />
<path class="bond-2 atom-2 atom-3" d="M 274.4,39.1 L 264.8,34.2" style="fill:none;fill-rule:evenodd;stroke:#000000;stroke-width:2.0px;stroke-linecap:butt;stroke-linejoin:miter;stroke-opacity:1" />
<path class="bond-2 atom-2 atom-3" d="M 282.2,47.5 L 273.9,43.2" style="fill:none;fill-rule:evenodd;stroke:#0000FF;stroke-width:2.0px;stroke-linecap:butt;stroke-linejoin:miter;stroke-opacity:1" />
<path class="bond-2 atom-2 atom-3" d="M 273.9,43.2 L 265.5,38.9" style="fill:none;fill-rule:evenodd;stroke:#000000;stroke-width:2.0px;stroke-linecap:butt;stroke-linejoin:miter;stroke-opacity:1" />
<path class="bond-3 atom-3 atom-4" d="M 264.8,34.2 L 257.3,41.6" style="fill:none;fill-rule:evenodd;stroke:#000000;stroke-width:2.0px;stroke-linecap:butt;stroke-linejoin:miter;stroke-opacity:1" />
<path class="bond-3 atom-3 atom-4" d="M 257.3,41.6 L 249.8,49.1" style="fill:none;fill-rule:evenodd;stroke:#CCCC00;stroke-width:2.0px;stroke-linecap:butt;stroke-linejoin:miter;stroke-opacity:1" />
<path class="bond-4 atom-4 atom-5" d="M 249.0,56.9 L 253.6,66.0" style="fill:none;fill-rule:evenodd;stroke:#CCCC00;stroke-width:2.0px;stroke-linecap:butt;stroke-linejoin:miter;stroke-opacity:1" />
<path class="bond-4 atom-4 atom-5" d="M 253.6,66.0 L 258.2,75.1" style="fill:none;fill-rule:evenodd;stroke:#000000;stroke-width:2.0px;stroke-linecap:butt;stroke-linejoin:miter;stroke-opacity:1" />
<path class="bond-5 atom-5 atom-6" d="M 258.2,75.1 L 246.4,97.8" style="fill:none;fill-rule:evenodd;stroke:#000000;stroke-width:2.0px;stroke-linecap:butt;stroke-linejoin:miter;stroke-opacity:1" />
<path class="bond-6 atom-6 atom-7" d="M 246.4,97.8 L 220.8,99.1" style="fill:none;fill-rule:evenodd;stroke:#000000;stroke-width:2.0px;stroke-linecap:butt;stroke-linejoin:miter;stroke-opacity:1" />
<path class="bond-7 atom-7 atom-8" d="M 220.8,99.1 L 209.1,121.8" style="fill:none;fill-rule:evenodd;stroke:#000000;stroke-width:2.0px;stroke-linecap:butt;stroke-linejoin:miter;stroke-opacity:1" />
<path class="bond-7 atom-7 atom-8" d="M 223.2,102.8 L 213.5,121.6" style="fill:none;fill-rule:evenodd;stroke:#000000;stroke-width:2.0px;stroke-linecap:butt;stroke-linejoin:miter;stroke-opacity:1" />
<path class="bond-8 atom-8 atom-9" d="M 209.1,121.8 L 223.0,143.4" style="fill:none;fill-rule:evenodd;stroke:#000000;stroke-width:2.0px;stroke-linecap:butt;stroke-linejoin:miter;stroke-opacity:1" />
<path class="bond-9 atom-9 atom-10" d="M 223.0,143.4 L 211.2,166.1" style="fill:none;fill-rule:evenodd;stroke:#000000;stroke-width:2.0px;stroke-linecap:butt;stroke-linejoin:miter;stroke-opacity:1" />
<path class="bond-10 atom-10 atom-11" d="M 211.2,166.1 L 200.2,166.7" style="fill:none;fill-rule:evenodd;stroke:#000000;stroke-width:2.0px;stroke-linecap:butt;stroke-linejoin:miter;stroke-opacity:1" />
<path class="bond-10 atom-10 atom-11" d="M 200.2,166.7 L 189.2,167.2" style="fill:none;fill-rule:evenodd;stroke:#0000FF;stroke-width:2.0px;stroke-linecap:butt;stroke-linejoin:miter;stroke-opacity:1" />
<path class="bond-11 atom-11 atom-12" d="M 183.4,171.8 L 178.6,181.0" style="fill:none;fill-rule:evenodd;stroke:#0000FF;stroke-width:2.0px;stroke-linecap:butt;stroke-linejoin:miter;stroke-opacity:1" />
<path class="bond-11 atom-11 atom-12" d="M 178.6,181.0 L 173.9,190.1" style="fill:none;fill-rule:evenodd;stroke:#000000;stroke-width:2.0px;stroke-linecap:butt;stroke-linejoin:miter;stroke-opacity:1" />
<path class="bond-12 atom-12 atom-13" d="M 171.7,190.2 L 177.5,199.2" style="fill:none;fill-rule:evenodd;stroke:#000000;stroke-width:2.0px;stroke-linecap:butt;stroke-linejoin:miter;stroke-opacity:1" />
<path class="bond-12 atom-12 atom-13" d="M 177.5,199.2 L 183.3,208.2" style="fill:none;fill-rule:evenodd;stroke:#FF0000;stroke-width:2.0px;stroke-linecap:butt;stroke-linejoin:miter;stroke-opacity:1" />
<path class="bond-12 atom-12 atom-13" d="M 174.9,188.1 L 180.7,197.1" style="fill:none;fill-rule:evenodd;stroke:#000000;stroke-width:2.0px;stroke-linecap:butt;stroke-linejoin:miter;stroke-opacity:1" />
<path class="bond-12 atom-12 atom-13" d="M 180.7,197.1 L 186.5,206.1" style="fill:none;fill-rule:evenodd;stroke:#FF0000;stroke-width:2.0px;stroke-linecap:butt;stroke-linejoin:miter;stroke-opacity:1" />
<path class="bond-13 atom-14 atom-12" d="M 152.0,191.5 L 152.0,190.8" style="fill:none;fill-rule:evenodd;stroke:#000000;stroke-width:1.0px;stroke-linecap:butt;stroke-linejoin:miter;stroke-opacity:1" />
<path class="bond-13 atom-14 atom-12" d="M 155.7,191.6 L 155.6,190.3" style="fill:none;fill-rule:evenodd;stroke:#000000;stroke-width:1.0px;stroke-linecap:butt;stroke-linejoin:miter;stroke-opacity:1" />
<path class="bond-13 atom-14 atom-12" d="M 159.3,191.8 L 159.3,189.9" style="fill:none;fill-rule:evenodd;stroke:#000000;stroke-width:1.0px;stroke-linecap:butt;stroke-linejoin:miter;stroke-opacity:1" />
<path class="bond-13 atom-14 atom-12" d="M 163.0,191.9 L 162.9,189.4" style="fill:none;fill-rule:evenodd;stroke:#000000;stroke-width:1.0px;stroke-linecap:butt;stroke-linejoin:miter;stroke-opacity:1" />
<path class="bond-13 atom-14 atom-12" d="M 166.7,192.1 L 166.5,188.9" style="fill:none;fill-rule:evenodd;stroke:#000000;stroke-width:1.0px;stroke-linecap:butt;stroke-linejoin:miter;stroke-opacity:1" />
<path class="bond-13 atom-14 atom-12" d="M 170.3,192.2 L 170.2,188.4" style="fill:none;fill-rule:evenodd;stroke:#000000;stroke-width:1.0px;stroke-linecap:butt;stroke-linejoin:miter;stroke-opacity:1" />
<path class="bond-14 atom-14 atom-15" d="M 148.4,191.3 L 134.3,212.7" style="fill:none;fill-rule:evenodd;stroke:#000000;stroke-width:2.0px;stroke-linecap:butt;stroke-linejoin:miter;stroke-opacity:1" />
<path class="bond-15 atom-15 atom-16" d="M 134.3,212.7 L 109.6,206.0" style="fill:none;fill-rule:evenodd;stroke:#000000;stroke-width:2.0px;stroke-linecap:butt;stroke-linejoin:miter;stroke-opacity:1" />
<path class="bond-16 atom-16 atom-17" d="M 109.6,206.0 L 102.7,212.8 L 101.5,211.3 Z" style="fill:#000000;fill-rule:evenodd;fill-opacity:1;stroke:#000000;stroke-width:0.5px;stroke-linecap:butt;stroke-linejoin:miter;stroke-miterlimit:10;stroke-opacity:1;" />
<path class="bond-16 atom-16 atom-17" d="M 93.4,216.5 L 95.8,219.5 L 102.7,212.8 L 101.5,211.3 Z" style="fill:#FF0000;fill-rule:evenodd;fill-opacity:1;stroke:#FF0000;stroke-width:0.5px;stroke-linecap:butt;stroke-linejoin:miter;stroke-miterlimit:10;stroke-opacity:1;" />
<path class="bond-17 atom-16 atom-18" d="M 109.6,206.0 L 108.4,180.4" style="fill:none;fill-rule:evenodd;stroke:#000000;stroke-width:2.0px;stroke-linecap:butt;stroke-linejoin:miter;stroke-opacity:1" />
<path class="bond-18 atom-18 atom-19" d="M 108.4,180.4 L 118.6,176.6" style="fill:none;fill-rule:evenodd;stroke:#000000;stroke-width:2.0px;stroke-linecap:butt;stroke-linejoin:miter;stroke-opacity:1" />
<path class="bond-18 atom-18 atom-19" d="M 118.6,176.6 L 128.7,172.7" style="fill:none;fill-rule:evenodd;stroke:#0000FF;stroke-width:2.0px;stroke-linecap:butt;stroke-linejoin:miter;stroke-opacity:1" />
<path class="bond-19 atom-19 atom-20" d="M 133.5,166.9 L 136.3,156.8" style="fill:none;fill-rule:evenodd;stroke:#0000FF;stroke-width:2.0px;stroke-linecap:butt;stroke-linejoin:miter;stroke-opacity:1" />
<path class="bond-19 atom-19 atom-20" d="M 136.3,156.8 L 139.1,146.7" style="fill:none;fill-rule:evenodd;stroke:#000000;stroke-width:2.0px;stroke-linecap:butt;stroke-linejoin:miter;stroke-opacity:1" />
<path class="bond-20 atom-20 atom-21" d="M 138.5,148.8 L 149.3,145.9" style="fill:none;fill-rule:evenodd;stroke:#000000;stroke-width:2.0px;stroke-linecap:butt;stroke-linejoin:miter;stroke-opacity:1" />
<path class="bond-20 atom-20 atom-21" d="M 149.3,145.9 L 160.1,143.1" style="fill:none;fill-rule:evenodd;stroke:#FF0000;stroke-width:2.0px;stroke-linecap:butt;stroke-linejoin:miter;stroke-opacity:1" />
<path class="bond-20 atom-20 atom-21" d="M 137.5,145.1 L 148.3,142.2" style="fill:none;fill-rule:evenodd;stroke:#000000;stroke-width:2.0px;stroke-linecap:butt;stroke-linejoin:miter;stroke-opacity:1" />
<path class="bond-20 atom-20 atom-21" d="M 148.3,142.2 L 159.2,139.4" style="fill:none;fill-rule:evenodd;stroke:#FF0000;stroke-width:2.0px;stroke-linecap:butt;stroke-linejoin:miter;stroke-opacity:1" />
<path class="bond-21 atom-20 atom-22" d="M 139.1,146.7 L 121.0,128.5" style="fill:none;fill-rule:evenodd;stroke:#000000;stroke-width:2.0px;stroke-linecap:butt;stroke-linejoin:miter;stroke-opacity:1" />
<path class="bond-22 atom-22 atom-23" d="M 121.0,128.5 L 111.1,132.1 L 110.6,130.2 Z" style="fill:#000000;fill-rule:evenodd;fill-opacity:1;stroke:#000000;stroke-width:0.5px;stroke-linecap:butt;stroke-linejoin:miter;stroke-miterlimit:10;stroke-opacity:1;" />
<path class="bond-22 atom-22 atom-23" d="M 100.2,132.0 L 101.2,135.7 L 111.1,132.1 L 110.6,130.2 Z" style="fill:#0000FF;fill-rule:evenodd;fill-opacity:1;stroke:#0000FF;stroke-width:0.5px;stroke-linecap:butt;stroke-linejoin:miter;stroke-miterlimit:10;stroke-opacity:1;" />
<path class="bond-23 atom-23 atom-24" d="M 92.7,131.4 L 85.5,124.1" style="fill:none;fill-rule:evenodd;stroke:#0000FF;stroke-width:2.0px;stroke-linecap:butt;stroke-linejoin:miter;stroke-opacity:1" />
<path class="bond-23 atom-23 atom-24" d="M 85.5,124.1 L 78.3,116.8" style="fill:none;fill-rule:evenodd;stroke:#000000;stroke-width:2.0px;stroke-linecap:butt;stroke-linejoin:miter;stroke-opacity:1" />
<path class="bond-24 atom-24 atom-25" d="M 79.8,118.4 L 82.7,107.8" style="fill:none;fill-rule:evenodd;stroke:#000000;stroke-width:2.0px;stroke-linecap:butt;stroke-linejoin:miter;stroke-opacity:1" />
<path class="bond-24 atom-24 atom-25" d="M 82.7,107.8 L 85.6,97.2" style="fill:none;fill-rule:evenodd;stroke:#FF0000;stroke-width:2.0px;stroke-linecap:butt;stroke-linejoin:miter;stroke-opacity:1" />
<path class="bond-24 atom-24 atom-25" d="M 76.1,117.4 L 79.0,106.8" style="fill:none;fill-rule:evenodd;stroke:#000000;stroke-width:2.0px;stroke-linecap:butt;stroke-linejoin:miter;stroke-opacity:1" />
<path class="bond-24 atom-24 atom-25" d="M 79.0,106.8 L 81.9,96.2" style="fill:none;fill-rule:evenodd;stroke:#FF0000;stroke-width:2.0px;stroke-linecap:butt;stroke-linejoin:miter;stroke-opacity:1" />
<path class="bond-25 atom-24 atom-26" d="M 78.3,116.8 L 53.5,123.3" style="fill:none;fill-rule:evenodd;stroke:#000000;stroke-width:2.0px;stroke-linecap:butt;stroke-linejoin:miter;stroke-opacity:1" />
<path class="bond-26 atom-26 atom-27" d="M 53.5,123.3 L 54.4,133.8" style="fill:none;fill-rule:evenodd;stroke:#000000;stroke-width:2.0px;stroke-linecap:butt;stroke-linejoin:miter;stroke-opacity:1" />
<path class="bond-26 atom-26 atom-27" d="M 54.4,133.8 L 55.2,144.4" style="fill:none;fill-rule:evenodd;stroke:#33CCCC;stroke-width:2.0px;stroke-linecap:butt;stroke-linejoin:miter;stroke-opacity:1" />
<path class="bond-27 atom-26 atom-28" d="M 53.5,123.3 L 28.0,121.0" style="fill:none;fill-rule:evenodd;stroke:#000000;stroke-width:2.0px;stroke-linecap:butt;stroke-linejoin:miter;stroke-opacity:1" />
<path class="bond-28 atom-28 atom-29" d="M 28.0,121.0 L 42.8,100.0" style="fill:none;fill-rule:evenodd;stroke:#000000;stroke-width:2.0px;stroke-linecap:butt;stroke-linejoin:miter;stroke-opacity:1" />
<path class="bond-29 atom-22 atom-30" d="M 121.0,128.5 L 127.8,103.8" style="fill:none;fill-rule:evenodd;stroke:#000000;stroke-width:2.0px;stroke-linecap:butt;stroke-linejoin:miter;stroke-opacity:1" />
<path class="bond-30 atom-30 atom-31" d="M 127.8,103.8 L 103.1,97.0" style="fill:none;fill-rule:evenodd;stroke:#000000;stroke-width:2.0px;stroke-linecap:butt;stroke-linejoin:miter;stroke-opacity:1" />
<path class="bond-31 atom-30 atom-32" d="M 127.8,103.8 L 152.5,110.5" style="fill:none;fill-rule:evenodd;stroke:#000000;stroke-width:2.0px;stroke-linecap:butt;stroke-linejoin:miter;stroke-opacity:1" />
<path class="bond-32 atom-30 atom-33" d="M 127.8,103.8 L 134.5,79.1" style="fill:none;fill-rule:evenodd;stroke:#000000;stroke-width:2.0px;stroke-linecap:butt;stroke-linejoin:miter;stroke-opacity:1" />
<path class="bond-33 atom-9 atom-34" d="M 223.0,143.4 L 248.5,142.1" style="fill:none;fill-rule:evenodd;stroke:#000000;stroke-width:2.0px;stroke-linecap:butt;stroke-linejoin:miter;stroke-opacity:1" />
<path class="bond-33 atom-9 atom-34" d="M 225.0,139.4 L 246.2,138.4" style="fill:none;fill-rule:evenodd;stroke:#000000;stroke-width:2.0px;stroke-linecap:butt;stroke-linejoin:miter;stroke-opacity:1" />
<path class="bond-34 atom-34 atom-35" d="M 248.5,142.1 L 254.0,150.7" style="fill:none;fill-rule:evenodd;stroke:#000000;stroke-width:2.0px;stroke-linecap:butt;stroke-linejoin:miter;stroke-opacity:1" />
<path class="bond-34 atom-34 atom-35" d="M 254.0,150.7 L 259.5,159.2" style="fill:none;fill-rule:evenodd;stroke:#FF0000;stroke-width:2.0px;stroke-linecap:butt;stroke-linejoin:miter;stroke-opacity:1" />
<path class="bond-35 atom-35 atom-36" d="M 266.6,163.5 L 277.3,163.0" style="fill:none;fill-rule:evenodd;stroke:#FF0000;stroke-width:2.0px;stroke-linecap:butt;stroke-linejoin:miter;stroke-opacity:1" />
<path class="bond-35 atom-35 atom-36" d="M 277.3,163.0 L 288.0,162.5" style="fill:none;fill-rule:evenodd;stroke:#000000;stroke-width:2.0px;stroke-linecap:butt;stroke-linejoin:miter;stroke-opacity:1" />
<path class="bond-36 atom-36 atom-37" d="M 288.0,162.5 L 301.8,184.0" style="fill:none;fill-rule:evenodd;stroke:#000000;stroke-width:2.0px;stroke-linecap:butt;stroke-linejoin:miter;stroke-opacity:1" />
<path class="bond-37 atom-37 atom-38" d="M 301.8,184.0 L 312.8,183.5" style="fill:none;fill-rule:evenodd;stroke:#000000;stroke-width:2.0px;stroke-linecap:butt;stroke-linejoin:miter;stroke-opacity:1" />
<path class="bond-37 atom-37 atom-38" d="M 312.8,183.5 L 323.8,183.0" style="fill:none;fill-rule:evenodd;stroke:#0000FF;stroke-width:2.0px;stroke-linecap:butt;stroke-linejoin:miter;stroke-opacity:1" />
<path class="bond-38 atom-38 atom-39" d="M 330.3,187.2 L 335.7,195.8" style="fill:none;fill-rule:evenodd;stroke:#0000FF;stroke-width:2.0px;stroke-linecap:butt;stroke-linejoin:miter;stroke-opacity:1" />
<path class="bond-38 atom-38 atom-39" d="M 335.7,195.8 L 341.2,204.3" style="fill:none;fill-rule:evenodd;stroke:#000000;stroke-width:2.0px;stroke-linecap:butt;stroke-linejoin:miter;stroke-opacity:1" />
<path class="bond-39 atom-39 atom-40" d="M 341.2,204.3 L 366.8,203.1" style="fill:none;fill-rule:evenodd;stroke:#000000;stroke-width:2.0px;stroke-linecap:butt;stroke-linejoin:miter;stroke-opacity:1" />
<path class="bond-40 atom-40 atom-41" d="M 366.8,203.1 L 371.5,194.0" style="fill:none;fill-rule:evenodd;stroke:#000000;stroke-width:2.0px;stroke-linecap:butt;stroke-linejoin:miter;stroke-opacity:1" />
<path class="bond-40 atom-40 atom-41" d="M 371.5,194.0 L 376.2,184.8" style="fill:none;fill-rule:evenodd;stroke:#0000FF;stroke-width:2.0px;stroke-linecap:butt;stroke-linejoin:miter;stroke-opacity:1" />
<path class="bond-41 atom-41 atom-42" d="M 382.1,180.2 L 393.1,179.6" style="fill:none;fill-rule:evenodd;stroke:#0000FF;stroke-width:2.0px;stroke-linecap:butt;stroke-linejoin:miter;stroke-opacity:1" />
<path class="bond-41 atom-41 atom-42" d="M 393.1,179.6 L 404.1,179.1" style="fill:none;fill-rule:evenodd;stroke:#000000;stroke-width:2.0px;stroke-linecap:butt;stroke-linejoin:miter;stroke-opacity:1" />
<path class="bond-42 atom-42 atom-43" d="M 404.1,179.1 L 415.8,156.4" style="fill:none;fill-rule:evenodd;stroke:#000000;stroke-width:2.0px;stroke-linecap:butt;stroke-linejoin:miter;stroke-opacity:1" />
<path class="bond-43 atom-43 atom-44" d="M 415.8,156.4 L 426.6,155.8" style="fill:none;fill-rule:evenodd;stroke:#000000;stroke-width:2.0px;stroke-linecap:butt;stroke-linejoin:miter;stroke-opacity:1" />
<path class="bond-43 atom-43 atom-44" d="M 426.6,155.8 L 437.3,155.3" style="fill:none;fill-rule:evenodd;stroke:#FF0000;stroke-width:2.0px;stroke-linecap:butt;stroke-linejoin:miter;stroke-opacity:1" />
<path class="bond-44 atom-44 atom-45" d="M 443.7,150.6 L 448.5,141.5" style="fill:none;fill-rule:evenodd;stroke:#FF0000;stroke-width:2.0px;stroke-linecap:butt;stroke-linejoin:miter;stroke-opacity:1" />
<path class="bond-44 atom-44 atom-45" d="M 448.5,141.5 L 453.2,132.4" style="fill:none;fill-rule:evenodd;stroke:#000000;stroke-width:2.0px;stroke-linecap:butt;stroke-linejoin:miter;stroke-opacity:1" />
<path class="bond-45 atom-45 atom-46" d="M 453.2,132.4 L 439.3,110.8" style="fill:none;fill-rule:evenodd;stroke:#000000;stroke-width:2.0px;stroke-linecap:butt;stroke-linejoin:miter;stroke-opacity:1" />
<path class="bond-45 atom-45 atom-46" d="M 455.2,128.4 L 443.7,110.6" style="fill:none;fill-rule:evenodd;stroke:#000000;stroke-width:2.0px;stroke-linecap:butt;stroke-linejoin:miter;stroke-opacity:1" />
<path class="bond-46 atom-46 atom-47" d="M 439.3,110.8 L 413.7,112.1" style="fill:none;fill-rule:evenodd;stroke:#000000;stroke-width:2.0px;stroke-linecap:butt;stroke-linejoin:miter;stroke-opacity:1" />
<path class="bond-47 atom-47 atom-48" d="M 413.7,112.1 L 402.0,134.8" style="fill:none;fill-rule:evenodd;stroke:#000000;stroke-width:2.0px;stroke-linecap:butt;stroke-linejoin:miter;stroke-opacity:1" />
<path class="bond-47 atom-47 atom-48" d="M 409.3,112.3 L 399.6,131.1" style="fill:none;fill-rule:evenodd;stroke:#000000;stroke-width:2.0px;stroke-linecap:butt;stroke-linejoin:miter;stroke-opacity:1" />
<path class="bond-48 atom-48 atom-49" d="M 402.0,134.8 L 376.4,136.0" style="fill:none;fill-rule:evenodd;stroke:#000000;stroke-width:2.0px;stroke-linecap:butt;stroke-linejoin:miter;stroke-opacity:1" />
<path class="bond-49 atom-49 atom-50" d="M 376.4,136.0 L 362.6,114.5" style="fill:none;fill-rule:evenodd;stroke:#000000;stroke-width:2.0px;stroke-linecap:butt;stroke-linejoin:miter;stroke-opacity:1" />
<path class="bond-49 atom-49 atom-50" d="M 378.4,132.1 L 367.0,114.3" style="fill:none;fill-rule:evenodd;stroke:#000000;stroke-width:2.0px;stroke-linecap:butt;stroke-linejoin:miter;stroke-opacity:1" />
<path class="bond-50 atom-50 atom-51" d="M 362.6,114.5 L 374.3,91.7" style="fill:none;fill-rule:evenodd;stroke:#000000;stroke-width:2.0px;stroke-linecap:butt;stroke-linejoin:miter;stroke-opacity:1" />
<path class="bond-51 atom-51 atom-52" d="M 374.3,91.7 L 399.9,90.5" style="fill:none;fill-rule:evenodd;stroke:#000000;stroke-width:2.0px;stroke-linecap:butt;stroke-linejoin:miter;stroke-opacity:1" />
<path class="bond-51 atom-51 atom-52" d="M 376.7,95.5 L 397.9,94.4" style="fill:none;fill-rule:evenodd;stroke:#000000;stroke-width:2.0px;stroke-linecap:butt;stroke-linejoin:miter;stroke-opacity:1" />
<path class="bond-52 atom-52 atom-53" d="M 399.9,90.5 L 404.6,81.4" style="fill:none;fill-rule:evenodd;stroke:#000000;stroke-width:2.0px;stroke-linecap:butt;stroke-linejoin:miter;stroke-opacity:1" />
<path class="bond-52 atom-52 atom-53" d="M 404.6,81.4 L 409.2,72.4" style="fill:none;fill-rule:evenodd;stroke:#FF0000;stroke-width:2.0px;stroke-linecap:butt;stroke-linejoin:miter;stroke-opacity:1" />
<path class="bond-53 atom-46 atom-54" d="M 439.3,110.8 L 444.0,101.7" style="fill:none;fill-rule:evenodd;stroke:#000000;stroke-width:2.0px;stroke-linecap:butt;stroke-linejoin:miter;stroke-opacity:1" />
<path class="bond-53 atom-46 atom-54" d="M 444.0,101.7 L 448.7,92.5" style="fill:none;fill-rule:evenodd;stroke:#0000FF;stroke-width:2.0px;stroke-linecap:butt;stroke-linejoin:miter;stroke-opacity:1" />
<path class="bond-54 atom-54 atom-55" d="M 454.6,87.9 L 473.0,87.0" style="fill:none;fill-rule:evenodd;stroke:#0000FF;stroke-width:2.0px;stroke-linecap:butt;stroke-linejoin:miter;stroke-opacity:1" />
<path class="bond-54 atom-54 atom-55" d="M 454.8,91.7 L 473.2,90.8" style="fill:none;fill-rule:evenodd;stroke:#0000FF;stroke-width:2.0px;stroke-linecap:butt;stroke-linejoin:miter;stroke-opacity:1" />
<path class="bond-55 atom-55 atom-56" d="M 479.5,91.3 L 485.0,99.9" style="fill:none;fill-rule:evenodd;stroke:#0000FF;stroke-width:2.0px;stroke-linecap:butt;stroke-linejoin:miter;stroke-opacity:1" />
<path class="bond-55 atom-55 atom-56" d="M 485.0,99.9 L 490.5,108.4" style="fill:none;fill-rule:evenodd;stroke:#000000;stroke-width:2.0px;stroke-linecap:butt;stroke-linejoin:miter;stroke-opacity:1" />
<path class="bond-56 atom-56 atom-57" d="M 490.5,108.4 L 478.7,131.1" style="fill:none;fill-rule:evenodd;stroke:#000000;stroke-width:2.0px;stroke-linecap:butt;stroke-linejoin:miter;stroke-opacity:1" />
<path class="bond-56 atom-56 atom-57" d="M 486.0,108.6 L 476.3,127.4" style="fill:none;fill-rule:evenodd;stroke:#000000;stroke-width:2.0px;stroke-linecap:butt;stroke-linejoin:miter;stroke-opacity:1" />
<path class="bond-57 atom-57 atom-58" d="M 478.7,131.1 L 484.2,139.7" style="fill:none;fill-rule:evenodd;stroke:#000000;stroke-width:2.0px;stroke-linecap:butt;stroke-linejoin:miter;stroke-opacity:1" />
<path class="bond-57 atom-57 atom-58" d="M 484.2,139.7 L 489.7,148.2" style="fill:none;fill-rule:evenodd;stroke:#0000FF;stroke-width:2.0px;stroke-linecap:butt;stroke-linejoin:miter;stroke-opacity:1" />
<path class="bond-58 atom-58 atom-59" d="M 490.3,157.2 L 485.6,166.3" style="fill:none;fill-rule:evenodd;stroke:#0000FF;stroke-width:2.0px;stroke-linecap:butt;stroke-linejoin:miter;stroke-opacity:1" />
<path class="bond-58 atom-58 atom-59" d="M 485.6,166.3 L 480.8,175.4" style="fill:none;fill-rule:evenodd;stroke:#000000;stroke-width:2.0px;stroke-linecap:butt;stroke-linejoin:miter;stroke-opacity:1" />
<path class="bond-59 atom-59 atom-60" d="M 480.8,175.4 L 494.7,197.0" style="fill:none;fill-rule:evenodd;stroke:#000000;stroke-width:2.0px;stroke-linecap:butt;stroke-linejoin:miter;stroke-opacity:1" />
<path class="bond-60 atom-60 atom-61" d="M 494.7,197.0 L 505.7,196.5" style="fill:none;fill-rule:evenodd;stroke:#000000;stroke-width:2.0px;stroke-linecap:butt;stroke-linejoin:miter;stroke-opacity:1" />
<path class="bond-60 atom-60 atom-61" d="M 505.7,196.5 L 516.7,195.9" style="fill:none;fill-rule:evenodd;stroke:#0000FF;stroke-width:2.0px;stroke-linecap:butt;stroke-linejoin:miter;stroke-opacity:1" />
<path class="bond-61 atom-61 atom-62" d="M 522.6,191.3 L 527.3,182.2" style="fill:none;fill-rule:evenodd;stroke:#0000FF;stroke-width:2.0px;stroke-linecap:butt;stroke-linejoin:miter;stroke-opacity:1" />
<path class="bond-61 atom-61 atom-62" d="M 527.3,182.2 L 532.0,173.0" style="fill:none;fill-rule:evenodd;stroke:#000000;stroke-width:2.0px;stroke-linecap:butt;stroke-linejoin:miter;stroke-opacity:1" />
<path class="bond-62 atom-62 atom-63" d="M 532.0,173.0 L 518.2,151.5" style="fill:none;fill-rule:evenodd;stroke:#000000;stroke-width:2.0px;stroke-linecap:butt;stroke-linejoin:miter;stroke-opacity:1" />
<path class="bond-63 atom-63 atom-64" d="M 518.2,151.5 L 529.9,128.7" style="fill:none;fill-rule:evenodd;stroke:#000000;stroke-width:2.0px;stroke-linecap:butt;stroke-linejoin:miter;stroke-opacity:1" />
<path class="bond-64 atom-64 atom-65" d="M 529.9,128.7 L 524.4,120.2" style="fill:none;fill-rule:evenodd;stroke:#000000;stroke-width:2.0px;stroke-linecap:butt;stroke-linejoin:miter;stroke-opacity:1" />
<path class="bond-64 atom-64 atom-65" d="M 524.4,120.2 L 518.9,111.6" style="fill:none;fill-rule:evenodd;stroke:#0000FF;stroke-width:2.0px;stroke-linecap:butt;stroke-linejoin:miter;stroke-opacity:1" />
<path class="bond-65 atom-41 atom-66" d="M 375.7,175.9 L 370.2,167.3" style="fill:none;fill-rule:evenodd;stroke:#0000FF;stroke-width:2.0px;stroke-linecap:butt;stroke-linejoin:miter;stroke-opacity:1" />
<path class="bond-65 atom-41 atom-66" d="M 370.2,167.3 L 364.7,158.8" style="fill:none;fill-rule:evenodd;stroke:#000000;stroke-width:2.0px;stroke-linecap:butt;stroke-linejoin:miter;stroke-opacity:1" />
<path class="bond-66 atom-66 atom-67" d="M 364.7,158.8 L 339.1,160.0" style="fill:none;fill-rule:evenodd;stroke:#000000;stroke-width:2.0px;stroke-linecap:butt;stroke-linejoin:miter;stroke-opacity:1" />
<path class="bond-67 atom-34 atom-68" d="M 248.5,142.1 L 260.3,119.4" style="fill:none;fill-rule:evenodd;stroke:#000000;stroke-width:2.0px;stroke-linecap:butt;stroke-linejoin:miter;stroke-opacity:1" />
<path class="bond-68 atom-5 atom-1" d="M 258.2,75.1 L 283.5,71.2" style="fill:none;fill-rule:evenodd;stroke:#000000;stroke-width:2.0px;stroke-linecap:butt;stroke-linejoin:miter;stroke-opacity:1" />
<path class="bond-68 atom-5 atom-1" d="M 260.3,70.9 L 280.1,67.8" style="fill:none;fill-rule:evenodd;stroke:#000000;stroke-width:2.0px;stroke-linecap:butt;stroke-linejoin:miter;stroke-opacity:1" />
<path class="bond-69 atom-68 atom-6" d="M 260.3,119.4 L 246.4,97.8" style="fill:none;fill-rule:evenodd;stroke:#000000;stroke-width:2.0px;stroke-linecap:butt;stroke-linejoin:miter;stroke-opacity:1" />
<path class="bond-69 atom-68 atom-6" d="M 255.9,119.6 L 244.4,101.8" style="fill:none;fill-rule:evenodd;stroke:#000000;stroke-width:2.0px;stroke-linecap:butt;stroke-linejoin:miter;stroke-opacity:1" />
<path class="bond-70 atom-19 atom-14" d="M 135.9,175.8 L 142.1,183.6" style="fill:none;fill-rule:evenodd;stroke:#0000FF;stroke-width:2.0px;stroke-linecap:butt;stroke-linejoin:miter;stroke-opacity:1" />
<path class="bond-70 atom-19 atom-14" d="M 142.1,183.6 L 148.4,191.3" style="fill:none;fill-rule:evenodd;stroke:#000000;stroke-width:2.0px;stroke-linecap:butt;stroke-linejoin:miter;stroke-opacity:1" />
<path class="bond-71 atom-29 atom-26" d="M 42.8,100.0 L 53.5,123.3" style="fill:none;fill-rule:evenodd;stroke:#000000;stroke-width:2.0px;stroke-linecap:butt;stroke-linejoin:miter;stroke-opacity:1" />
<path class="bond-72 atom-67 atom-38" d="M 339.1,160.0 L 334.4,169.2" style="fill:none;fill-rule:evenodd;stroke:#000000;stroke-width:2.0px;stroke-linecap:butt;stroke-linejoin:miter;stroke-opacity:1" />
<path class="bond-72 atom-67 atom-38" d="M 334.4,169.2 L 329.7,178.3" style="fill:none;fill-rule:evenodd;stroke:#0000FF;stroke-width:2.0px;stroke-linecap:butt;stroke-linejoin:miter;stroke-opacity:1" />
<path class="bond-73 atom-57 atom-45" d="M 478.7,131.1 L 453.2,132.4" style="fill:none;fill-rule:evenodd;stroke:#000000;stroke-width:2.0px;stroke-linecap:butt;stroke-linejoin:miter;stroke-opacity:1" />
<path class="bond-74 atom-63 atom-58" d="M 518.2,151.5 L 507.2,152.0" style="fill:none;fill-rule:evenodd;stroke:#000000;stroke-width:2.0px;stroke-linecap:butt;stroke-linejoin:miter;stroke-opacity:1" />
<path class="bond-74 atom-63 atom-58" d="M 507.2,152.0 L 496.2,152.5" style="fill:none;fill-rule:evenodd;stroke:#0000FF;stroke-width:2.0px;stroke-linecap:butt;stroke-linejoin:miter;stroke-opacity:1" />
<path class="bond-75 atom-52 atom-47" d="M 399.9,90.5 L 413.7,112.1" style="fill:none;fill-rule:evenodd;stroke:#000000;stroke-width:2.0px;stroke-linecap:butt;stroke-linejoin:miter;stroke-opacity:1" />
<path class="bond-76 atom-65 atom-56" d="M 512.4,107.3 L 501.5,107.9" style="fill:none;fill-rule:evenodd;stroke:#0000FF;stroke-width:2.0px;stroke-linecap:butt;stroke-linejoin:miter;stroke-opacity:1" />
<path class="bond-76 atom-65 atom-56" d="M 501.5,107.9 L 490.5,108.4" style="fill:none;fill-rule:evenodd;stroke:#000000;stroke-width:2.0px;stroke-linecap:butt;stroke-linejoin:miter;stroke-opacity:1" />
<path class="bond-77 atom-63 atom-69" d="M 518.2,151.5 L 514.8,162.2 L 511.4,160.5 Z" style="fill:#000000;fill-rule:evenodd;fill-opacity:1;stroke:#000000;stroke-width:0.5px;stroke-linecap:butt;stroke-linejoin:miter;stroke-miterlimit:10;stroke-opacity:1;" />
<path d="M 265.3,34.4 L 264.8,34.2 L 264.4,34.6" style="fill:none;stroke:#000000;stroke-width:2.0px;stroke-linecap:butt;stroke-linejoin:miter;stroke-miterlimit:10;stroke-opacity:1;" />
<path d="M 222.1,99.0 L 220.8,99.1 L 220.3,100.2" style="fill:none;stroke:#000000;stroke-width:2.0px;stroke-linecap:butt;stroke-linejoin:miter;stroke-miterlimit:10;stroke-opacity:1;" />
<path d="M 209.7,120.7 L 209.1,121.8 L 209.8,122.9" style="fill:none;stroke:#000000;stroke-width:2.0px;stroke-linecap:butt;stroke-linejoin:miter;stroke-miterlimit:10;stroke-opacity:1;" />
<path d="M 211.8,165.0 L 211.2,166.1 L 210.7,166.2" style="fill:none;stroke:#000000;stroke-width:2.0px;stroke-linecap:butt;stroke-linejoin:miter;stroke-miterlimit:10;stroke-opacity:1;" />
<path d="M 147.6,192.4 L 148.4,191.3 L 148.0,190.9" style="fill:none;stroke:#000000;stroke-width:2.0px;stroke-linecap:butt;stroke-linejoin:miter;stroke-miterlimit:10;stroke-opacity:1;" />
<path d="M 135.0,211.7 L 134.3,212.7 L 133.1,212.4" style="fill:none;stroke:#000000;stroke-width:2.0px;stroke-linecap:butt;stroke-linejoin:miter;stroke-miterlimit:10;stroke-opacity:1;" />
<path d="M 110.8,206.3 L 109.6,206.0 L 109.5,204.7" style="fill:none;stroke:#000000;stroke-width:2.0px;stroke-linecap:butt;stroke-linejoin:miter;stroke-miterlimit:10;stroke-opacity:1;" />
<path d="M 108.4,181.7 L 108.4,180.4 L 108.9,180.2" style="fill:none;stroke:#000000;stroke-width:2.0px;stroke-linecap:butt;stroke-linejoin:miter;stroke-miterlimit:10;stroke-opacity:1;" />
<path d="M 138.9,147.2 L 139.1,146.7 L 138.2,145.7" style="fill:none;stroke:#000000;stroke-width:2.0px;stroke-linecap:butt;stroke-linejoin:miter;stroke-miterlimit:10;stroke-opacity:1;" />
<path d="M 121.9,129.4 L 121.0,128.5 L 121.4,127.2" style="fill:none;stroke:#000000;stroke-width:2.0px;stroke-linecap:butt;stroke-linejoin:miter;stroke-miterlimit:10;stroke-opacity:1;" />
<path d="M 78.6,117.2 L 78.3,116.8 L 77.0,117.1" style="fill:none;stroke:#000000;stroke-width:2.0px;stroke-linecap:butt;stroke-linejoin:miter;stroke-miterlimit:10;stroke-opacity:1;" />
<path d="M 29.3,121.1 L 28.0,121.0 L 28.7,119.9" style="fill:none;stroke:#000000;stroke-width:2.0px;stroke-linecap:butt;stroke-linejoin:miter;stroke-miterlimit:10;stroke-opacity:1;" />
<path d="M 42.0,101.1 L 42.8,100.0 L 43.3,101.2" style="fill:none;stroke:#000000;stroke-width:2.0px;stroke-linecap:butt;stroke-linejoin:miter;stroke-miterlimit:10;stroke-opacity:1;" />
<path d="M 287.4,162.5 L 288.0,162.5 L 288.7,163.5" style="fill:none;stroke:#000000;stroke-width:2.0px;stroke-linecap:butt;stroke-linejoin:miter;stroke-miterlimit:10;stroke-opacity:1;" />
<path d="M 301.1,182.9 L 301.8,184.0 L 302.4,184.0" style="fill:none;stroke:#000000;stroke-width:2.0px;stroke-linecap:butt;stroke-linejoin:miter;stroke-miterlimit:10;stroke-opacity:1;" />
<path d="M 341.0,203.9 L 341.2,204.3 L 342.5,204.3" style="fill:none;stroke:#000000;stroke-width:2.0px;stroke-linecap:butt;stroke-linejoin:miter;stroke-miterlimit:10;stroke-opacity:1;" />
<path d="M 365.5,203.2 L 366.8,203.1 L 367.0,202.6" style="fill:none;stroke:#000000;stroke-width:2.0px;stroke-linecap:butt;stroke-linejoin:miter;stroke-miterlimit:10;stroke-opacity:1;" />
<path d="M 403.6,179.1 L 404.1,179.1 L 404.7,178.0" style="fill:none;stroke:#000000;stroke-width:2.0px;stroke-linecap:butt;stroke-linejoin:miter;stroke-miterlimit:10;stroke-opacity:1;" />
<path d="M 415.3,157.5 L 415.8,156.4 L 416.4,156.3" style="fill:none;stroke:#000000;stroke-width:2.0px;stroke-linecap:butt;stroke-linejoin:miter;stroke-miterlimit:10;stroke-opacity:1;" />
<path d="M 402.6,133.7 L 402.0,134.8 L 400.7,134.9" style="fill:none;stroke:#000000;stroke-width:2.0px;stroke-linecap:butt;stroke-linejoin:miter;stroke-miterlimit:10;stroke-opacity:1;" />
<path d="M 377.7,136.0 L 376.4,136.0 L 375.7,135.0" style="fill:none;stroke:#000000;stroke-width:2.0px;stroke-linecap:butt;stroke-linejoin:miter;stroke-miterlimit:10;stroke-opacity:1;" />
<path d="M 363.3,115.6 L 362.6,114.5 L 363.2,113.4" style="fill:none;stroke:#000000;stroke-width:2.0px;stroke-linecap:butt;stroke-linejoin:miter;stroke-miterlimit:10;stroke-opacity:1;" />
<path d="M 373.7,92.9 L 374.3,91.7 L 375.6,91.7" style="fill:none;stroke:#000000;stroke-width:2.0px;stroke-linecap:butt;stroke-linejoin:miter;stroke-miterlimit:10;stroke-opacity:1;" />
<path d="M 481.1,175.0 L 480.8,175.4 L 481.5,176.5" style="fill:none;stroke:#000000;stroke-width:2.0px;stroke-linecap:butt;stroke-linejoin:miter;stroke-miterlimit:10;stroke-opacity:1;" />
<path d="M 494.0,195.9 L 494.7,197.0 L 495.2,197.0" style="fill:none;stroke:#000000;stroke-width:2.0px;stroke-linecap:butt;stroke-linejoin:miter;stroke-miterlimit:10;stroke-opacity:1;" />
<path d="M 531.8,173.5 L 532.0,173.0 L 531.3,171.9" style="fill:none;stroke:#000000;stroke-width:2.0px;stroke-linecap:butt;stroke-linejoin:miter;stroke-miterlimit:10;stroke-opacity:1;" />
<path d="M 529.3,129.8 L 529.9,128.7 L 529.6,128.3" style="fill:none;stroke:#000000;stroke-width:2.0px;stroke-linecap:butt;stroke-linejoin:miter;stroke-miterlimit:10;stroke-opacity:1;" />
<path d="M 365.0,159.2 L 364.7,158.8 L 363.4,158.9" style="fill:none;stroke:#000000;stroke-width:2.0px;stroke-linecap:butt;stroke-linejoin:miter;stroke-miterlimit:10;stroke-opacity:1;" />
<path d="M 340.4,160.0 L 339.1,160.0 L 338.9,160.5" style="fill:none;stroke:#000000;stroke-width:2.0px;stroke-linecap:butt;stroke-linejoin:miter;stroke-miterlimit:10;stroke-opacity:1;" />
<path d="M 259.7,120.5 L 260.3,119.4 L 259.6,118.3" style="fill:none;stroke:#000000;stroke-width:2.0px;stroke-linecap:butt;stroke-linejoin:miter;stroke-miterlimit:10;stroke-opacity:1;" />
<path class="atom-2" d="M 286.0 42.3 L 288.4 46.1 Q 288.6 46.5, 289.0 47.2 Q 289.4 47.9, 289.4 47.9 L 289.4 42.3 L 290.3 42.3 L 290.3 49.6 L 289.3 49.6 L 286.8 45.4 Q 286.5 44.9, 286.2 44.3 Q 285.9 43.7, 285.8 43.6 L 285.8 49.6 L 284.8 49.6 L 284.8 42.3 L 286.0 42.3 " fill="#0000FF" />
<path class="atom-4" d="M 244.6 54.7 Q 244.7 54.7, 245.0 54.9 Q 245.3 55.0, 245.7 55.1 Q 246.1 55.2, 246.5 55.2 Q 247.1 55.2, 247.5 54.9 Q 247.9 54.5, 247.9 53.9 Q 247.9 53.5, 247.7 53.3 Q 247.5 53.1, 247.2 52.9 Q 246.9 52.8, 246.4 52.6 Q 245.8 52.4, 245.4 52.3 Q 245.0 52.1, 244.7 51.7 Q 244.5 51.3, 244.5 50.6 Q 244.5 49.7, 245.1 49.2 Q 245.7 48.6, 246.9 48.6 Q 247.8 48.6, 248.7 49.0 L 248.5 49.8 Q 247.6 49.4, 247.0 49.4 Q 246.3 49.4, 245.9 49.7 Q 245.5 50.0, 245.5 50.5 Q 245.5 50.9, 245.7 51.1 Q 245.9 51.4, 246.2 51.5 Q 246.5 51.6, 247.0 51.8 Q 247.6 52.0, 248.0 52.2 Q 248.4 52.4, 248.7 52.8 Q 249.0 53.2, 249.0 53.9 Q 249.0 55.0, 248.3 55.5 Q 247.6 56.0, 246.5 56.0 Q 245.9 56.0, 245.4 55.9 Q 244.9 55.8, 244.3 55.5 L 244.6 54.7 " fill="#CCCC00" />
<path class="atom-11" d="M 175.8 163.7 L 176.8 163.7 L 176.8 166.8 L 180.5 166.8 L 180.5 163.7 L 181.5 163.7 L 181.5 171.0 L 180.5 171.0 L 180.5 167.6 L 176.8 167.6 L 176.8 171.0 L 175.8 171.0 L 175.8 163.7 " fill="#0000FF" />
<path class="atom-11" d="M 184.1 163.7 L 186.4 167.6 Q 186.7 167.9, 187.0 168.6 Q 187.4 169.3, 187.4 169.4 L 187.4 163.7 L 188.4 163.7 L 188.4 171.0 L 187.4 171.0 L 184.9 166.8 Q 184.6 166.3, 184.2 165.7 Q 183.9 165.2, 183.8 165.0 L 183.8 171.0 L 182.9 171.0 L 182.9 163.7 L 184.1 163.7 " fill="#0000FF" />
<path class="atom-13" d="M 184.4 211.7 Q 184.4 209.9, 185.3 209.0 Q 186.2 208.0, 187.8 208.0 Q 189.4 208.0, 190.2 209.0 Q 191.1 209.9, 191.1 211.7 Q 191.1 213.4, 190.2 214.4 Q 189.4 215.4, 187.8 215.4 Q 186.2 215.4, 185.3 214.4 Q 184.4 213.4, 184.4 211.7 M 187.8 214.6 Q 188.9 214.6, 189.5 213.9 Q 190.1 213.1, 190.1 211.7 Q 190.1 210.2, 189.5 209.5 Q 188.9 208.8, 187.8 208.8 Q 186.7 208.8, 186.1 209.5 Q 185.5 210.2, 185.5 211.7 Q 185.5 213.1, 186.1 213.9 Q 186.7 214.6, 187.8 214.6 " fill="#FF0000" />
<path class="atom-17" d="M 79.1 218.4 L 80.1 218.4 L 80.1 221.5 L 83.8 221.5 L 83.8 218.4 L 84.8 218.4 L 84.8 225.7 L 83.8 225.7 L 83.8 222.3 L 80.1 222.3 L 80.1 225.7 L 79.1 225.7 L 79.1 218.4 " fill="#FF0000" />
<path class="atom-17" d="M 86.3 222.0 Q 86.3 220.3, 87.2 219.3 Q 88.0 218.4, 89.6 218.4 Q 91.2 218.4, 92.1 219.3 Q 93.0 220.3, 93.0 222.0 Q 93.0 223.8, 92.1 224.8 Q 91.2 225.8, 89.6 225.8 Q 88.0 225.8, 87.2 224.8 Q 86.3 223.8, 86.3 222.0 M 89.6 225.0 Q 90.7 225.0, 91.3 224.2 Q 91.9 223.5, 91.9 222.0 Q 91.9 220.6, 91.3 219.9 Q 90.7 219.2, 89.6 219.2 Q 88.5 219.2, 87.9 219.9 Q 87.3 220.6, 87.3 222.0 Q 87.3 223.5, 87.9 224.2 Q 88.5 225.0, 89.6 225.0 " fill="#FF0000" />
<path class="atom-19" d="M 130.7 167.7 L 133.1 171.6 Q 133.3 172.0, 133.7 172.6 Q 134.1 173.3, 134.1 173.4 L 134.1 167.7 L 135.1 167.7 L 135.1 175.0 L 134.1 175.0 L 131.5 170.8 Q 131.2 170.3, 130.9 169.7 Q 130.6 169.2, 130.5 169.0 L 130.5 175.0 L 129.6 175.0 L 129.6 167.7 L 130.7 167.7 " fill="#0000FF" />
<path class="atom-21" d="M 160.5 140.2 Q 160.5 138.4, 161.4 137.5 Q 162.2 136.5, 163.8 136.5 Q 165.4 136.5, 166.3 137.5 Q 167.2 138.4, 167.2 140.2 Q 167.2 141.9, 166.3 142.9 Q 165.4 143.9, 163.8 143.9 Q 162.2 143.9, 161.4 142.9 Q 160.5 141.9, 160.5 140.2 M 163.8 143.1 Q 164.9 143.1, 165.5 142.4 Q 166.1 141.6, 166.1 140.2 Q 166.1 138.7, 165.5 138.0 Q 164.9 137.3, 163.8 137.3 Q 162.7 137.3, 162.1 138.0 Q 161.5 138.7, 161.5 140.2 Q 161.5 141.6, 162.1 142.4 Q 162.7 143.1, 163.8 143.1 " fill="#FF0000" />
<path class="atom-23" d="M 94.7 131.4 L 97.1 135.2 Q 97.3 135.6, 97.7 136.3 Q 98.1 136.9, 98.1 137.0 L 98.1 131.4 L 99.0 131.4 L 99.0 138.6 L 98.0 138.6 L 95.5 134.4 Q 95.2 133.9, 94.9 133.4 Q 94.6 132.8, 94.5 132.6 L 94.5 138.6 L 93.5 138.6 L 93.5 131.4 L 94.7 131.4 " fill="#0000FF" />
<path class="atom-23" d="M 93.4 139.3 L 94.4 139.3 L 94.4 142.4 L 98.1 142.4 L 98.1 139.3 L 99.1 139.3 L 99.1 146.6 L 98.1 146.6 L 98.1 143.2 L 94.4 143.2 L 94.4 146.6 L 93.4 146.6 L 93.4 139.3 " fill="#0000FF" />
<path class="atom-25" d="M 81.7 92.1 Q 81.7 90.4, 82.5 89.4 Q 83.4 88.4, 85.0 88.4 Q 86.6 88.4, 87.5 89.4 Q 88.3 90.4, 88.3 92.1 Q 88.3 93.9, 87.5 94.9 Q 86.6 95.9, 85.0 95.9 Q 83.4 95.9, 82.5 94.9 Q 81.7 93.9, 81.7 92.1 M 85.0 95.1 Q 86.1 95.1, 86.7 94.3 Q 87.3 93.6, 87.3 92.1 Q 87.3 90.7, 86.7 90.0 Q 86.1 89.2, 85.0 89.2 Q 83.9 89.2, 83.3 90.0 Q 82.7 90.7, 82.7 92.1 Q 82.7 93.6, 83.3 94.3 Q 83.9 95.1, 85.0 95.1 " fill="#FF0000" />
<path class="atom-27" d="M 53.5 145.2 L 57.8 145.2 L 57.8 146.0 L 54.4 146.0 L 54.4 148.2 L 57.4 148.2 L 57.4 149.1 L 54.4 149.1 L 54.4 152.4 L 53.5 152.4 L 53.5 145.2 " fill="#33CCCC" />
<path class="atom-35" d="M 259.1 163.7 Q 259.1 162.0, 259.9 161.0 Q 260.8 160.0, 262.4 160.0 Q 264.0 160.0, 264.9 161.0 Q 265.7 162.0, 265.7 163.7 Q 265.7 165.5, 264.8 166.5 Q 264.0 167.5, 262.4 167.5 Q 260.8 167.5, 259.9 166.5 Q 259.1 165.5, 259.1 163.7 M 262.4 166.6 Q 263.5 166.6, 264.1 165.9 Q 264.7 165.2, 264.7 163.7 Q 264.7 162.3, 264.1 161.6 Q 263.5 160.8, 262.4 160.8 Q 261.3 160.8, 260.7 161.6 Q 260.1 162.3, 260.1 163.7 Q 260.1 165.2, 260.7 165.9 Q 261.3 166.6, 262.4 166.6 " fill="#FF0000" />
<path class="atom-38" d="M 325.8 179.2 L 328.2 183.0 Q 328.4 183.4, 328.8 184.1 Q 329.2 184.7, 329.2 184.8 L 329.2 179.2 L 330.1 179.2 L 330.1 186.4 L 329.1 186.4 L 326.6 182.2 Q 326.3 181.7, 326.0 181.2 Q 325.7 180.6, 325.6 180.4 L 325.6 186.4 L 324.6 186.4 L 324.6 179.2 L 325.8 179.2 " fill="#0000FF" />
<path class="atom-41" d="M 376.9 176.7 L 379.3 180.6 Q 379.5 180.9, 379.9 181.6 Q 380.3 182.3, 380.3 182.3 L 380.3 176.7 L 381.3 176.7 L 381.3 184.0 L 380.3 184.0 L 377.7 179.8 Q 377.4 179.3, 377.1 178.7 Q 376.8 178.1, 376.7 178.0 L 376.7 184.0 L 375.8 184.0 L 375.8 176.7 L 376.9 176.7 " fill="#0000FF" />
<path class="atom-44" d="M 438.1 155.2 Q 438.1 153.4, 439.0 152.4 Q 439.8 151.5, 441.4 151.5 Q 443.0 151.5, 443.9 152.4 Q 444.8 153.4, 444.8 155.2 Q 444.8 156.9, 443.9 157.9 Q 443.0 158.9, 441.4 158.9 Q 439.8 158.9, 439.0 157.9 Q 438.1 156.9, 438.1 155.2 M 441.4 158.1 Q 442.5 158.1, 443.1 157.4 Q 443.7 156.6, 443.7 155.2 Q 443.7 153.7, 443.1 153.0 Q 442.5 152.3, 441.4 152.3 Q 440.3 152.3, 439.7 153.0 Q 439.1 153.7, 439.1 155.2 Q 439.1 156.6, 439.7 157.4 Q 440.3 158.1, 441.4 158.1 " fill="#FF0000" />
<path class="atom-53" d="M 408.3 67.8 Q 408.3 66.0, 409.1 65.1 Q 410.0 64.1, 411.6 64.1 Q 413.2 64.1, 414.1 65.1 Q 414.9 66.0, 414.9 67.8 Q 414.9 69.5, 414.1 70.5 Q 413.2 71.5, 411.6 71.5 Q 410.0 71.5, 409.1 70.5 Q 408.3 69.5, 408.3 67.8 M 411.6 70.7 Q 412.7 70.7, 413.3 70.0 Q 413.9 69.2, 413.9 67.8 Q 413.9 66.4, 413.3 65.6 Q 412.7 64.9, 411.6 64.9 Q 410.5 64.9, 409.9 65.6 Q 409.3 66.3, 409.3 67.8 Q 409.3 69.2, 409.9 70.0 Q 410.5 70.7, 411.6 70.7 " fill="#FF0000" />
<path class="atom-53" d="M 416.1 64.2 L 417.1 64.2 L 417.1 67.3 L 420.8 67.3 L 420.8 64.2 L 421.7 64.2 L 421.7 71.4 L 420.8 71.4 L 420.8 68.1 L 417.1 68.1 L 417.1 71.4 L 416.1 71.4 L 416.1 64.2 " fill="#FF0000" />
<path class="atom-54" d="M 449.4 84.4 L 451.8 88.3 Q 452.0 88.7, 452.4 89.4 Q 452.8 90.0, 452.8 90.1 L 452.8 84.4 L 453.8 84.4 L 453.8 91.7 L 452.8 91.7 L 450.2 87.5 Q 449.9 87.0, 449.6 86.4 Q 449.3 85.9, 449.2 85.7 L 449.2 91.7 L 448.3 91.7 L 448.3 84.4 L 449.4 84.4 " fill="#0000FF" />
<path class="atom-55" d="M 475.0 83.2 L 477.4 87.1 Q 477.6 87.4, 478.0 88.1 Q 478.4 88.8, 478.4 88.9 L 478.4 83.2 L 479.4 83.2 L 479.4 90.5 L 478.4 90.5 L 475.8 86.3 Q 475.5 85.8, 475.2 85.2 Q 474.9 84.7, 474.8 84.5 L 474.8 90.5 L 473.9 90.5 L 473.9 83.2 L 475.0 83.2 " fill="#0000FF" />
<path class="atom-58" d="M 491.0 149.1 L 493.4 152.9 Q 493.6 153.3, 494.0 154.0 Q 494.3 154.7, 494.4 154.7 L 494.4 149.1 L 495.3 149.1 L 495.3 156.3 L 494.3 156.3 L 491.8 152.1 Q 491.5 151.6, 491.2 151.1 Q 490.9 150.5, 490.8 150.3 L 490.8 156.3 L 489.8 156.3 L 489.8 149.1 L 491.0 149.1 " fill="#0000FF" />
<path class="atom-61" d="M 518.7 192.1 L 521.0 196.0 Q 521.3 196.4, 521.7 197.0 Q 522.0 197.7, 522.1 197.8 L 522.1 192.1 L 523.0 192.1 L 523.0 199.4 L 522.0 199.4 L 519.5 195.2 Q 519.2 194.7, 518.9 194.1 Q 518.6 193.6, 518.5 193.4 L 518.5 199.4 L 517.5 199.4 L 517.5 192.1 L 518.7 192.1 " fill="#0000FF" />
<path class="atom-61" d="M 524.4 192.1 L 525.4 192.1 L 525.4 195.2 L 529.1 195.2 L 529.1 192.1 L 530.1 192.1 L 530.1 199.4 L 529.1 199.4 L 529.1 196.0 L 525.4 196.0 L 525.4 199.4 L 524.4 199.4 L 524.4 192.1 " fill="#0000FF" />
<path class="atom-65" d="M 514.4 103.5 L 516.8 107.4 Q 517.0 107.8, 517.4 108.4 Q 517.8 109.1, 517.8 109.2 L 517.8 103.5 L 518.8 103.5 L 518.8 110.8 L 517.8 110.8 L 515.2 106.6 Q 514.9 106.1, 514.6 105.5 Q 514.3 105.0, 514.2 104.8 L 514.2 110.8 L 513.3 110.8 L 513.3 103.5 L 514.4 103.5 " fill="#0000FF" />
<path class="atom-65" d="M 520.2 103.5 L 521.2 103.5 L 521.2 106.6 L 524.9 106.6 L 524.9 103.5 L 525.9 103.5 L 525.9 110.8 L 524.9 110.8 L 524.9 107.4 L 521.2 107.4 L 521.2 110.8 L 520.2 110.8 L 520.2 103.5 " fill="#0000FF" />
<path class="atom-69" d="M 507.5 163.0 L 508.5 163.0 L 508.5 166.1 L 512.2 166.1 L 512.2 163.0 L 513.2 163.0 L 513.2 170.3 L 512.2 170.3 L 512.2 166.9 L 508.5 166.9 L 508.5 170.3 L 507.5 170.3 L 507.5 163.0 " fill="#000000" />
</svg>