<?xml version='1.0' encoding='utf-8'?>
<svg xmlns="http://www.w3.org/2000/svg" baseProfile="full" height="260px" version="1.1" viewBox="0 0 560 260" width="560px" xml:space="preserve">

<path class="bond-0 atom-0 atom-1" d="M 250.4,86.7 L 234.1,73.2" style="fill:none;fill-rule:evenodd;stroke:#000000;stroke-width:2.0px;stroke-linecap:butt;stroke-linejoin:miter;stroke-opacity:1" />
<path class="bond-1 atom-1 atom-2" d="M 234.1,73.2 L 234.7,64.5" style="fill:none;fill-rule:evenodd;stroke:#000000;stroke-width:2.0px;stroke-linecap:butt;stroke-linejoin:miter;stroke-opacity:1" />
<path class="bond-1 atom-1 atom-2" d="M 234.7,64.5 L 235.2,55.8" style="fill:none;fill-rule:evenodd;stroke:#0000FF;stroke-width:2.0px;stroke-linecap:butt;stroke-linejoin:miter;stroke-opacity:1" />
<path class="bond-2 atom-2 atom-3" d="M 232.5,50.9 L 224.1,47.6" style="fill:none;fill-rule:evenodd;stroke:#0000FF;stroke-width:2.0px;stroke-linecap:butt;stroke-linejoin:miter;stroke-opacity:1" />
<path class="bond-2 atom-2 atom-3" d="M 224.1,47.6 L 215.8,44.2" style="fill:none;fill-rule:evenodd;stroke:#000000;stroke-width:2.0px;stroke-linecap:butt;stroke-linejoin:miter;stroke-opacity:1" />
<path class="bond-2 atom-2 atom-3" d="M 231.3,53.8 L 224.0,50.9" style="fill:none;fill-rule:evenodd;stroke:#0000FF;stroke-width:2.0px;stroke-linecap:butt;stroke-linejoin:miter;stroke-opacity:1" />
<path class="bond-2 atom-2 atom-3" d="M 224.0,50.9 L 216.8,48.0" style="fill:none;fill-rule:evenodd;stroke:#000000;stroke-width:2.0px;stroke-linecap:butt;stroke-linejoin:miter;stroke-opacity:1" />
<path class="bond-3 atom-3 atom-4" d="M 215.8,44.2 L 210.4,50.8" style="fill:none;fill-rule:evenodd;stroke:#000000;stroke-width:2.0px;stroke-linecap:butt;stroke-linejoin:miter;stroke-opacity:1" />
<path class="bond-3 atom-3 atom-4" d="M 210.4,50.8 L 204.9,57.3" style="fill:none;fill-rule:evenodd;stroke:#CCCC00;stroke-width:2.0px;stroke-linecap:butt;stroke-linejoin:miter;stroke-opacity:1" />
<path class="bond-4 atom-4 atom-5" d="M 204.7,64.3 L 209.1,71.4" style="fill:none;fill-rule:evenodd;stroke:#CCCC00;stroke-width:2.0px;stroke-linecap:butt;stroke-linejoin:miter;stroke-opacity:1" />
<path class="bond-4 atom-4 atom-5" d="M 209.1,71.4 L 213.6,78.4" style="fill:none;fill-rule:evenodd;stroke:#000000;stroke-width:2.0px;stroke-linecap:butt;stroke-linejoin:miter;stroke-opacity:1" />
<path class="bond-5 atom-5 atom-6" d="M 213.6,78.4 L 205.8,98.0" style="fill:none;fill-rule:evenodd;stroke:#000000;stroke-width:2.0px;stroke-linecap:butt;stroke-linejoin:miter;stroke-opacity:1" />
<path class="bond-6 atom-6 atom-7" d="M 205.8,98.0 L 184.8,101.1" style="fill:none;fill-rule:evenodd;stroke:#000000;stroke-width:2.0px;stroke-linecap:butt;stroke-linejoin:miter;stroke-opacity:1" />
<path class="bond-7 atom-7 atom-8" d="M 184.8,101.1 L 177.0,120.7" style="fill:none;fill-rule:evenodd;stroke:#000000;stroke-width:2.0px;stroke-linecap:butt;stroke-linejoin:miter;stroke-opacity:1" />
<path class="bond-7 atom-7 atom-8" d="M 187.1,104.0 L 180.6,120.2" style="fill:none;fill-rule:evenodd;stroke:#000000;stroke-width:2.0px;stroke-linecap:butt;stroke-linejoin:miter;stroke-opacity:1" />
<path class="bond-8 atom-8 atom-9" d="M 177.0,120.7 L 190.1,137.3" style="fill:none;fill-rule:evenodd;stroke:#000000;stroke-width:2.0px;stroke-linecap:butt;stroke-linejoin:miter;stroke-opacity:1" />
<path class="bond-9 atom-9 atom-10" d="M 190.1,137.3 L 182.3,157.0" style="fill:none;fill-rule:evenodd;stroke:#000000;stroke-width:2.0px;stroke-linecap:butt;stroke-linejoin:miter;stroke-opacity:1" />
<path class="bond-10 atom-10 atom-11" d="M 182.3,157.0 L 173.3,158.3" style="fill:none;fill-rule:evenodd;stroke:#000000;stroke-width:2.0px;stroke-linecap:butt;stroke-linejoin:miter;stroke-opacity:1" />
<path class="bond-10 atom-10 atom-11" d="M 173.3,158.3 L 164.3,159.6" style="fill:none;fill-rule:evenodd;stroke:#0000FF;stroke-width:2.0px;stroke-linecap:butt;stroke-linejoin:miter;stroke-opacity:1" />
<path class="bond-11 atom-11 atom-12" d="M 159.9,163.7 L 156.7,171.7" style="fill:none;fill-rule:evenodd;stroke:#0000FF;stroke-width:2.0px;stroke-linecap:butt;stroke-linejoin:miter;stroke-opacity:1" />
<path class="bond-11 atom-11 atom-12" d="M 156.7,171.7 L 153.5,179.7" style="fill:none;fill-rule:evenodd;stroke:#000000;stroke-width:2.0px;stroke-linecap:butt;stroke-linejoin:miter;stroke-opacity:1" />
<path class="bond-12 atom-12 atom-13" d="M 151.7,179.9 L 157.1,186.7" style="fill:none;fill-rule:evenodd;stroke:#000000;stroke-width:2.0px;stroke-linecap:butt;stroke-linejoin:miter;stroke-opacity:1" />
<path class="bond-12 atom-12 atom-13" d="M 157.1,186.7 L 162.4,193.5" style="fill:none;fill-rule:evenodd;stroke:#FF0000;stroke-width:2.0px;stroke-linecap:butt;stroke-linejoin:miter;stroke-opacity:1" />
<path class="bond-12 atom-12 atom-13" d="M 154.2,178.0 L 159.5,184.8" style="fill:none;fill-rule:evenodd;stroke:#000000;stroke-width:2.0px;stroke-linecap:butt;stroke-linejoin:miter;stroke-opacity:1" />
<path class="bond-12 atom-12 atom-13" d="M 159.5,184.8 L 164.9,191.6" style="fill:none;fill-rule:evenodd;stroke:#FF0000;stroke-width:2.0px;stroke-linecap:butt;stroke-linejoin:miter;stroke-opacity:1" />
<path class="bond-13 atom-14 atom-12" d="M 136.1,182.5 L 136.0,181.9" style="fill:none;fill-rule:evenodd;stroke:#000000;stroke-width:1.0px;stroke-linecap:butt;stroke-linejoin:miter;stroke-opacity:1" />
<path class="bond-13 atom-14 atom-12" d="M 139.6,182.3 L 139.4,181.1" style="fill:none;fill-rule:evenodd;stroke:#000000;stroke-width:1.0px;stroke-linecap:butt;stroke-linejoin:miter;stroke-opacity:1" />
<path class="bond-13 atom-14 atom-12" d="M 143.2,182.1 L 142.9,180.3" style="fill:none;fill-rule:evenodd;stroke:#000000;stroke-width:1.0px;stroke-linecap:butt;stroke-linejoin:miter;stroke-opacity:1" />
<path class="bond-13 atom-14 atom-12" d="M 146.7,182.0 L 146.3,179.4" style="fill:none;fill-rule:evenodd;stroke:#000000;stroke-width:1.0px;stroke-linecap:butt;stroke-linejoin:miter;stroke-opacity:1" />
<path class="bond-13 atom-14 atom-12" d="M 150.2,181.8 L 149.8,178.6" style="fill:none;fill-rule:evenodd;stroke:#000000;stroke-width:1.0px;stroke-linecap:butt;stroke-linejoin:miter;stroke-opacity:1" />
<path class="bond-14 atom-14 atom-15" d="M 132.6,182.7 L 122.7,201.5" style="fill:none;fill-rule:evenodd;stroke:#000000;stroke-width:2.0px;stroke-linecap:butt;stroke-linejoin:miter;stroke-opacity:1" />
<path class="bond-15 atom-15 atom-16" d="M 122.7,201.5 L 101.9,197.9" style="fill:none;fill-rule:evenodd;stroke:#000000;stroke-width:2.0px;stroke-linecap:butt;stroke-linejoin:miter;stroke-opacity:1" />
<path class="bond-16 atom-16 atom-17" d="M 101.9,197.9 L 96.9,203.8 L 95.8,202.7 Z" style="fill:#000000;fill-rule:evenodd;fill-opacity:1;stroke:#000000;stroke-width:0.5px;stroke-linecap:butt;stroke-linejoin:miter;stroke-miterlimit:10;stroke-opacity:1;" />
<path class="bond-16 atom-16 atom-17" d="M 89.8,207.5 L 92.0,209.7 L 96.9,203.8 L 95.8,202.7 Z" style="fill:#FF0000;fill-rule:evenodd;fill-opacity:1;stroke:#FF0000;stroke-width:0.5px;stroke-linecap:butt;stroke-linejoin:miter;stroke-miterlimit:10;stroke-opacity:1;" />
<path class="bond-17 atom-16 atom-18" d="M 101.9,197.9 L 98.8,176.9" style="fill:none;fill-rule:evenodd;stroke:#000000;stroke-width:2.0px;stroke-linecap:butt;stroke-linejoin:miter;stroke-opacity:1" />
<path class="bond-18 atom-18 atom-19" d="M 98.8,176.9 L 106.8,173.0" style="fill:none;fill-rule:evenodd;stroke:#000000;stroke-width:2.0px;stroke-linecap:butt;stroke-linejoin:miter;stroke-opacity:1" />
<path class="bond-18 atom-18 atom-19" d="M 106.8,173.0 L 114.8,169.0" style="fill:none;fill-rule:evenodd;stroke:#0000FF;stroke-width:2.0px;stroke-linecap:butt;stroke-linejoin:miter;stroke-opacity:1" />
<path class="bond-19 atom-19 atom-20" d="M 118.4,163.9 L 119.9,155.3" style="fill:none;fill-rule:evenodd;stroke:#0000FF;stroke-width:2.0px;stroke-linecap:butt;stroke-linejoin:miter;stroke-opacity:1" />
<path class="bond-19 atom-19 atom-20" d="M 119.9,155.3 L 121.4,146.7" style="fill:none;fill-rule:evenodd;stroke:#000000;stroke-width:2.0px;stroke-linecap:butt;stroke-linejoin:miter;stroke-opacity:1" />
<path class="bond-20 atom-20 atom-21" d="M 121.1,148.5 L 129.7,145.3" style="fill:none;fill-rule:evenodd;stroke:#000000;stroke-width:2.0px;stroke-linecap:butt;stroke-linejoin:miter;stroke-opacity:1" />
<path class="bond-20 atom-20 atom-21" d="M 129.7,145.3 L 138.3,142.2" style="fill:none;fill-rule:evenodd;stroke:#FF0000;stroke-width:2.0px;stroke-linecap:butt;stroke-linejoin:miter;stroke-opacity:1" />
<path class="bond-20 atom-20 atom-21" d="M 120.0,145.6 L 128.6,142.4" style="fill:none;fill-rule:evenodd;stroke:#000000;stroke-width:2.0px;stroke-linecap:butt;stroke-linejoin:miter;stroke-opacity:1" />
<path class="bond-20 atom-20 atom-21" d="M 128.6,142.4 L 137.2,139.2" style="fill:none;fill-rule:evenodd;stroke:#FF0000;stroke-width:2.0px;stroke-linecap:butt;stroke-linejoin:miter;stroke-opacity:1" />
<path class="bond-21 atom-20 atom-22" d="M 121.4,146.7 L 105.1,133.2" style="fill:none;fill-rule:evenodd;stroke:#000000;stroke-width:2.0px;stroke-linecap:butt;stroke-linejoin:miter;stroke-opacity:1" />
<path class="bond-22 atom-22 atom-23" d="M 105.1,133.2 L 97.3,136.9 L 96.7,135.5 Z" style="fill:#000000;fill-rule:evenodd;fill-opacity:1;stroke:#000000;stroke-width:0.5px;stroke-linecap:butt;stroke-linejoin:miter;stroke-miterlimit:10;stroke-opacity:1;" />
<path class="bond-22 atom-22 atom-23" d="M 88.4,137.7 L 89.5,140.7 L 97.3,136.9 L 96.7,135.5 Z" style="fill:#0000FF;fill-rule:evenodd;fill-opacity:1;stroke:#0000FF;stroke-width:0.5px;stroke-linecap:butt;stroke-linejoin:miter;stroke-miterlimit:10;stroke-opacity:1;" />
<path class="bond-23 atom-23 atom-24" d="M 82.3,138.1 L 75.6,132.6" style="fill:none;fill-rule:evenodd;stroke:#0000FF;stroke-width:2.0px;stroke-linecap:butt;stroke-linejoin:miter;stroke-opacity:1" />
<path class="bond-23 atom-23 atom-24" d="M 75.6,132.6 L 69.0,127.0" style="fill:none;fill-rule:evenodd;stroke:#000000;stroke-width:2.0px;stroke-linecap:butt;stroke-linejoin:miter;stroke-opacity:1" />
<path class="bond-24 atom-24 atom-25" d="M 70.4,128.2 L 71.9,119.2" style="fill:none;fill-rule:evenodd;stroke:#000000;stroke-width:2.0px;stroke-linecap:butt;stroke-linejoin:miter;stroke-opacity:1" />
<path class="bond-24 atom-24 atom-25" d="M 71.9,119.2 L 73.5,110.3" style="fill:none;fill-rule:evenodd;stroke:#FF0000;stroke-width:2.0px;stroke-linecap:butt;stroke-linejoin:miter;stroke-opacity:1" />
<path class="bond-24 atom-24 atom-25" d="M 67.3,127.7 L 68.8,118.7" style="fill:none;fill-rule:evenodd;stroke:#000000;stroke-width:2.0px;stroke-linecap:butt;stroke-linejoin:miter;stroke-opacity:1" />
<path class="bond-24 atom-24 atom-25" d="M 68.8,118.7 L 70.4,109.7" style="fill:none;fill-rule:evenodd;stroke:#FF0000;stroke-width:2.0px;stroke-linecap:butt;stroke-linejoin:miter;stroke-opacity:1" />
<path class="bond-25 atom-24 atom-26" d="M 69.0,127.0 L 49.2,134.4" style="fill:none;fill-rule:evenodd;stroke:#000000;stroke-width:2.0px;stroke-linecap:butt;stroke-linejoin:miter;stroke-opacity:1" />
<path class="bond-26 atom-26 atom-27" d="M 49.2,134.4 L 50.7,142.9" style="fill:none;fill-rule:evenodd;stroke:#000000;stroke-width:2.0px;stroke-linecap:butt;stroke-linejoin:miter;stroke-opacity:1" />
<path class="bond-26 atom-26 atom-27" d="M 50.7,142.9 L 52.3,151.5" style="fill:none;fill-rule:evenodd;stroke:#33CCCC;stroke-width:2.0px;stroke-linecap:butt;stroke-linejoin:miter;stroke-opacity:1" />
<path class="bond-27 atom-26 atom-28" d="M 49.2,134.4 L 28.0,134.5" style="fill:none;fill-rule:evenodd;stroke:#000000;stroke-width:2.0px;stroke-linecap:butt;stroke-linejoin:miter;stroke-opacity:1" />
<path class="bond-28 atom-28 atom-29" d="M 28.0,134.5 L 38.5,116.1" style="fill:none;fill-rule:evenodd;stroke:#000000;stroke-width:2.0px;stroke-linecap:butt;stroke-linejoin:miter;stroke-opacity:1" />
<path class="bond-29 atom-22 atom-30" d="M 105.1,133.2 L 108.7,112.4" style="fill:none;fill-rule:evenodd;stroke:#000000;stroke-width:2.0px;stroke-linecap:butt;stroke-linejoin:miter;stroke-opacity:1" />
<path class="bond-30 atom-30 atom-31" d="M 108.7,112.4 L 87.8,108.8" style="fill:none;fill-rule:evenodd;stroke:#000000;stroke-width:2.0px;stroke-linecap:butt;stroke-linejoin:miter;stroke-opacity:1" />
<path class="bond-31 atom-30 atom-32" d="M 108.7,112.4 L 129.5,115.9" style="fill:none;fill-rule:evenodd;stroke:#000000;stroke-width:2.0px;stroke-linecap:butt;stroke-linejoin:miter;stroke-opacity:1" />
<path class="bond-32 atom-30 atom-33" d="M 108.7,112.4 L 112.3,91.5" style="fill:none;fill-rule:evenodd;stroke:#000000;stroke-width:2.0px;stroke-linecap:butt;stroke-linejoin:miter;stroke-opacity:1" />
<path class="bond-33 atom-9 atom-34" d="M 190.1,137.3 L 211.0,134.3" style="fill:none;fill-rule:evenodd;stroke:#000000;stroke-width:2.0px;stroke-linecap:butt;stroke-linejoin:miter;stroke-opacity:1" />
<path class="bond-33 atom-9 atom-34" d="M 191.4,133.9 L 208.8,131.4" style="fill:none;fill-rule:evenodd;stroke:#000000;stroke-width:2.0px;stroke-linecap:butt;stroke-linejoin:miter;stroke-opacity:1" />
<path class="bond-34 atom-34 atom-35" d="M 211.0,134.3 L 216.1,140.7" style="fill:none;fill-rule:evenodd;stroke:#000000;stroke-width:2.0px;stroke-linecap:butt;stroke-linejoin:miter;stroke-opacity:1" />
<path class="bond-34 atom-34 atom-35" d="M 216.1,140.7 L 221.2,147.2" style="fill:none;fill-rule:evenodd;stroke:#FF0000;stroke-width:2.0px;stroke-linecap:butt;stroke-linejoin:miter;stroke-opacity:1" />
<path class="bond-35 atom-35 atom-36" d="M 227.6,150.4 L 236.3,149.1" style="fill:none;fill-rule:evenodd;stroke:#FF0000;stroke-width:2.0px;stroke-linecap:butt;stroke-linejoin:miter;stroke-opacity:1" />
<path class="bond-35 atom-35 atom-36" d="M 236.3,149.1 L 245.1,147.9" style="fill:none;fill-rule:evenodd;stroke:#000000;stroke-width:2.0px;stroke-linecap:butt;stroke-linejoin:miter;stroke-opacity:1" />
<path class="bond-36 atom-36 atom-37" d="M 245.1,147.9 L 258.2,164.5" style="fill:none;fill-rule:evenodd;stroke:#000000;stroke-width:2.0px;stroke-linecap:butt;stroke-linejoin:miter;stroke-opacity:1" />
<path class="bond-37 atom-37 atom-38" d="M 258.2,164.5 L 279.1,161.4" style="fill:none;fill-rule:evenodd;stroke:#000000;stroke-width:2.0px;stroke-linecap:butt;stroke-linejoin:miter;stroke-opacity:1" />
<path class="bond-38 atom-38 atom-39" d="M 279.1,161.4 L 292.2,178.0" style="fill:none;fill-rule:evenodd;stroke:#000000;stroke-width:2.0px;stroke-linecap:butt;stroke-linejoin:miter;stroke-opacity:1" />
<path class="bond-39 atom-39 atom-40" d="M 292.2,178.0 L 313.1,175.0" style="fill:none;fill-rule:evenodd;stroke:#000000;stroke-width:2.0px;stroke-linecap:butt;stroke-linejoin:miter;stroke-opacity:1" />
<path class="bond-39 atom-39 atom-40" d="M 293.6,174.6 L 310.9,172.1" style="fill:none;fill-rule:evenodd;stroke:#000000;stroke-width:2.0px;stroke-linecap:butt;stroke-linejoin:miter;stroke-opacity:1" />
<path class="bond-40 atom-40 atom-41" d="M 313.1,175.0 L 321.0,155.3" style="fill:none;fill-rule:evenodd;stroke:#000000;stroke-width:2.0px;stroke-linecap:butt;stroke-linejoin:miter;stroke-opacity:1" />
<path class="bond-41 atom-41 atom-42" d="M 321.0,155.3 L 341.9,152.3" style="fill:none;fill-rule:evenodd;stroke:#000000;stroke-width:2.0px;stroke-linecap:butt;stroke-linejoin:miter;stroke-opacity:1" />
<path class="bond-42 atom-42 atom-43" d="M 341.9,152.3 L 355.0,168.9" style="fill:none;fill-rule:evenodd;stroke:#000000;stroke-width:2.0px;stroke-linecap:butt;stroke-linejoin:miter;stroke-opacity:1" />
<path class="bond-43 atom-43 atom-44" d="M 355.0,168.9 L 364.0,167.6" style="fill:none;fill-rule:evenodd;stroke:#000000;stroke-width:2.0px;stroke-linecap:butt;stroke-linejoin:miter;stroke-opacity:1" />
<path class="bond-43 atom-43 atom-44" d="M 364.0,167.6 L 373.0,166.3" style="fill:none;fill-rule:evenodd;stroke:#0000FF;stroke-width:2.0px;stroke-linecap:butt;stroke-linejoin:miter;stroke-opacity:1" />
<path class="bond-44 atom-44 atom-45" d="M 377.9,162.1 L 381.8,154.6" style="fill:none;fill-rule:evenodd;stroke:#0000FF;stroke-width:2.0px;stroke-linecap:butt;stroke-linejoin:miter;stroke-opacity:1" />
<path class="bond-44 atom-44 atom-45" d="M 381.8,154.6 L 385.8,147.1" style="fill:none;fill-rule:evenodd;stroke:#000000;stroke-width:2.0px;stroke-linecap:butt;stroke-linejoin:miter;stroke-opacity:1" />
<path class="bond-45 atom-45 atom-46" d="M 385.8,147.1 L 406.6,150.7" style="fill:none;fill-rule:evenodd;stroke:#000000;stroke-width:2.0px;stroke-linecap:butt;stroke-linejoin:miter;stroke-opacity:1" />
<path class="bond-46 atom-46 atom-47" d="M 406.6,150.7 L 409.7,171.6" style="fill:none;fill-rule:evenodd;stroke:#000000;stroke-width:2.0px;stroke-linecap:butt;stroke-linejoin:miter;stroke-opacity:1" />
<path class="bond-47 atom-47 atom-48" d="M 409.7,171.6 L 418.0,174.9" style="fill:none;fill-rule:evenodd;stroke:#000000;stroke-width:2.0px;stroke-linecap:butt;stroke-linejoin:miter;stroke-opacity:1" />
<path class="bond-47 atom-47 atom-48" d="M 418.0,174.9 L 426.4,178.3" style="fill:none;fill-rule:evenodd;stroke:#0000FF;stroke-width:2.0px;stroke-linecap:butt;stroke-linejoin:miter;stroke-opacity:1" />
<path class="bond-48 atom-48 atom-49" d="M 432.3,177.1 L 439.1,171.7" style="fill:none;fill-rule:evenodd;stroke:#0000FF;stroke-width:2.0px;stroke-linecap:butt;stroke-linejoin:miter;stroke-opacity:1" />
<path class="bond-48 atom-48 atom-49" d="M 439.1,171.7 L 445.9,166.3" style="fill:none;fill-rule:evenodd;stroke:#000000;stroke-width:2.0px;stroke-linecap:butt;stroke-linejoin:miter;stroke-opacity:1" />
<path class="bond-49 atom-49 atom-50" d="M 445.9,166.3 L 454.3,169.7" style="fill:none;fill-rule:evenodd;stroke:#000000;stroke-width:2.0px;stroke-linecap:butt;stroke-linejoin:miter;stroke-opacity:1" />
<path class="bond-49 atom-49 atom-50" d="M 454.3,169.7 L 462.6,173.0" style="fill:none;fill-rule:evenodd;stroke:#0000FF;stroke-width:2.0px;stroke-linecap:butt;stroke-linejoin:miter;stroke-opacity:1" />
<path class="bond-50 atom-50 atom-51" d="M 468.5,171.8 L 479.2,163.4" style="fill:none;fill-rule:evenodd;stroke:#0000FF;stroke-width:2.0px;stroke-linecap:butt;stroke-linejoin:miter;stroke-opacity:1" />
<path class="bond-50 atom-50 atom-51" d="M 466.6,169.3 L 477.3,160.9" style="fill:none;fill-rule:evenodd;stroke:#0000FF;stroke-width:2.0px;stroke-linecap:butt;stroke-linejoin:miter;stroke-opacity:1" />
<path class="bond-51 atom-51 atom-52" d="M 481.6,157.4 L 480.4,148.8" style="fill:none;fill-rule:evenodd;stroke:#0000FF;stroke-width:2.0px;stroke-linecap:butt;stroke-linejoin:miter;stroke-opacity:1" />
<path class="bond-51 atom-51 atom-52" d="M 480.4,148.8 L 479.1,140.1" style="fill:none;fill-rule:evenodd;stroke:#000000;stroke-width:2.0px;stroke-linecap:butt;stroke-linejoin:miter;stroke-opacity:1" />
<path class="bond-52 atom-52 atom-53" d="M 479.1,140.1 L 495.7,127.0" style="fill:none;fill-rule:evenodd;stroke:#000000;stroke-width:2.0px;stroke-linecap:butt;stroke-linejoin:miter;stroke-opacity:1" />
<path class="bond-53 atom-53 atom-54" d="M 495.7,127.0 L 515.4,134.9" style="fill:none;fill-rule:evenodd;stroke:#000000;stroke-width:2.0px;stroke-linecap:butt;stroke-linejoin:miter;stroke-opacity:1" />
<path class="bond-53 atom-53 atom-54" d="M 498.6,124.8 L 514.9,131.2" style="fill:none;fill-rule:evenodd;stroke:#000000;stroke-width:2.0px;stroke-linecap:butt;stroke-linejoin:miter;stroke-opacity:1" />
<path class="bond-54 atom-54 atom-55" d="M 515.4,134.9 L 532.0,121.8" style="fill:none;fill-rule:evenodd;stroke:#000000;stroke-width:2.0px;stroke-linecap:butt;stroke-linejoin:miter;stroke-opacity:1" />
<path class="bond-55 atom-55 atom-56" d="M 532.0,121.8 L 529.0,100.8" style="fill:none;fill-rule:evenodd;stroke:#000000;stroke-width:2.0px;stroke-linecap:butt;stroke-linejoin:miter;stroke-opacity:1" />
<path class="bond-55 atom-55 atom-56" d="M 528.6,120.4 L 526.1,103.1" style="fill:none;fill-rule:evenodd;stroke:#000000;stroke-width:2.0px;stroke-linecap:butt;stroke-linejoin:miter;stroke-opacity:1" />
<path class="bond-56 atom-56 atom-57" d="M 529.0,100.8 L 509.3,93.0" style="fill:none;fill-rule:evenodd;stroke:#000000;stroke-width:2.0px;stroke-linecap:butt;stroke-linejoin:miter;stroke-opacity:1" />
<path class="bond-57 atom-57 atom-58" d="M 509.3,93.0 L 492.7,106.1" style="fill:none;fill-rule:evenodd;stroke:#000000;stroke-width:2.0px;stroke-linecap:butt;stroke-linejoin:miter;stroke-opacity:1" />
<path class="bond-57 atom-57 atom-58" d="M 509.8,96.6 L 496.1,107.5" style="fill:none;fill-rule:evenodd;stroke:#000000;stroke-width:2.0px;stroke-linecap:butt;stroke-linejoin:miter;stroke-opacity:1" />
<path class="bond-58 atom-58 atom-59" d="M 492.7,106.1 L 484.6,102.9" style="fill:none;fill-rule:evenodd;stroke:#000000;stroke-width:2.0px;stroke-linecap:butt;stroke-linejoin:miter;stroke-opacity:1" />
<path class="bond-58 atom-58 atom-59" d="M 484.6,102.9 L 476.5,99.6" style="fill:none;fill-rule:evenodd;stroke:#FF0000;stroke-width:2.0px;stroke-linecap:butt;stroke-linejoin:miter;stroke-opacity:1" />
<path class="bond-59 atom-52 atom-60" d="M 479.1,140.1 L 459.5,132.3" style="fill:none;fill-rule:evenodd;stroke:#000000;stroke-width:2.0px;stroke-linecap:butt;stroke-linejoin:miter;stroke-opacity:1" />
<path class="bond-59 atom-52 atom-60" d="M 476.3,142.4 L 460.0,135.9" style="fill:none;fill-rule:evenodd;stroke:#000000;stroke-width:2.0px;stroke-linecap:butt;stroke-linejoin:miter;stroke-opacity:1" />
<path class="bond-60 atom-60 atom-61" d="M 459.5,132.3 L 442.9,145.4" style="fill:none;fill-rule:evenodd;stroke:#000000;stroke-width:2.0px;stroke-linecap:butt;stroke-linejoin:miter;stroke-opacity:1" />
<path class="bond-61 atom-61 atom-62" d="M 442.9,145.4 L 434.5,142.1" style="fill:none;fill-rule:evenodd;stroke:#000000;stroke-width:2.0px;stroke-linecap:butt;stroke-linejoin:miter;stroke-opacity:1" />
<path class="bond-61 atom-61 atom-62" d="M 434.5,142.1 L 426.2,138.8" style="fill:none;fill-rule:evenodd;stroke:#0000FF;stroke-width:2.0px;stroke-linecap:butt;stroke-linejoin:miter;stroke-opacity:1" />
<path class="bond-62 atom-62 atom-63" d="M 423.2,141.3 L 423.0,150.0" style="fill:none;fill-rule:evenodd;stroke:#0000FF;stroke-width:2.0px;stroke-linecap:butt;stroke-linejoin:miter;stroke-opacity:1" />
<path class="bond-62 atom-62 atom-63" d="M 423.0,150.0 L 422.9,158.7" style="fill:none;fill-rule:evenodd;stroke:#000000;stroke-width:2.0px;stroke-linecap:butt;stroke-linejoin:miter;stroke-opacity:1" />
<path class="bond-63 atom-63 atom-64" d="M 422.9,158.7 L 390.7,181.0" style="fill:none;fill-rule:evenodd;stroke:#000000;stroke-width:2.0px;stroke-linecap:butt;stroke-linejoin:miter;stroke-opacity:1" />
<path class="bond-64 atom-41 atom-65" d="M 321.0,155.3 L 307.9,138.7" style="fill:none;fill-rule:evenodd;stroke:#000000;stroke-width:2.0px;stroke-linecap:butt;stroke-linejoin:miter;stroke-opacity:1" />
<path class="bond-64 atom-41 atom-65" d="M 317.3,155.9 L 306.5,142.1" style="fill:none;fill-rule:evenodd;stroke:#000000;stroke-width:2.0px;stroke-linecap:butt;stroke-linejoin:miter;stroke-opacity:1" />
<path class="bond-65 atom-65 atom-66" d="M 307.9,138.7 L 286.9,141.8" style="fill:none;fill-rule:evenodd;stroke:#000000;stroke-width:2.0px;stroke-linecap:butt;stroke-linejoin:miter;stroke-opacity:1" />
<path class="bond-66 atom-34 atom-67" d="M 211.0,134.3 L 218.9,114.6" style="fill:none;fill-rule:evenodd;stroke:#000000;stroke-width:2.0px;stroke-linecap:butt;stroke-linejoin:miter;stroke-opacity:1" />
<path class="bond-67 atom-5 atom-1" d="M 213.6,78.4 L 234.1,73.2" style="fill:none;fill-rule:evenodd;stroke:#000000;stroke-width:2.0px;stroke-linecap:butt;stroke-linejoin:miter;stroke-opacity:1" />
<path class="bond-67 atom-5 atom-1" d="M 215.0,74.7 L 231.1,70.7" style="fill:none;fill-rule:evenodd;stroke:#000000;stroke-width:2.0px;stroke-linecap:butt;stroke-linejoin:miter;stroke-opacity:1" />
<path class="bond-68 atom-67 atom-6" d="M 218.9,114.6 L 205.8,98.0" style="fill:none;fill-rule:evenodd;stroke:#000000;stroke-width:2.0px;stroke-linecap:butt;stroke-linejoin:miter;stroke-opacity:1" />
<path class="bond-68 atom-67 atom-6" d="M 215.2,115.2 L 204.4,101.4" style="fill:none;fill-rule:evenodd;stroke:#000000;stroke-width:2.0px;stroke-linecap:butt;stroke-linejoin:miter;stroke-opacity:1" />
<path class="bond-69 atom-19 atom-14" d="M 120.8,170.6 L 126.7,176.7" style="fill:none;fill-rule:evenodd;stroke:#0000FF;stroke-width:2.0px;stroke-linecap:butt;stroke-linejoin:miter;stroke-opacity:1" />
<path class="bond-69 atom-19 atom-14" d="M 126.7,176.7 L 132.6,182.7" style="fill:none;fill-rule:evenodd;stroke:#000000;stroke-width:2.0px;stroke-linecap:butt;stroke-linejoin:miter;stroke-opacity:1" />
<path class="bond-70 atom-29 atom-26" d="M 38.5,116.1 L 49.2,134.4" style="fill:none;fill-rule:evenodd;stroke:#000000;stroke-width:2.0px;stroke-linecap:butt;stroke-linejoin:miter;stroke-opacity:1" />
<path class="bond-71 atom-66 atom-38" d="M 286.9,141.8 L 279.1,161.4" style="fill:none;fill-rule:evenodd;stroke:#000000;stroke-width:2.0px;stroke-linecap:butt;stroke-linejoin:miter;stroke-opacity:1" />
<path class="bond-71 atom-66 atom-38" d="M 289.2,144.6 L 282.7,160.9" style="fill:none;fill-rule:evenodd;stroke:#000000;stroke-width:2.0px;stroke-linecap:butt;stroke-linejoin:miter;stroke-opacity:1" />
<path class="bond-72 atom-64 atom-44" d="M 390.7,181.0 L 384.8,174.9" style="fill:none;fill-rule:evenodd;stroke:#000000;stroke-width:2.0px;stroke-linecap:butt;stroke-linejoin:miter;stroke-opacity:1" />
<path class="bond-72 atom-64 atom-44" d="M 384.8,174.9 L 378.9,168.9" style="fill:none;fill-rule:evenodd;stroke:#0000FF;stroke-width:2.0px;stroke-linecap:butt;stroke-linejoin:miter;stroke-opacity:1" />
<path class="bond-73 atom-62 atom-46" d="M 420.3,139.9 L 413.4,145.3" style="fill:none;fill-rule:evenodd;stroke:#0000FF;stroke-width:2.0px;stroke-linecap:butt;stroke-linejoin:miter;stroke-opacity:1" />
<path class="bond-73 atom-62 atom-46" d="M 413.4,145.3 L 406.6,150.7" style="fill:none;fill-rule:evenodd;stroke:#000000;stroke-width:2.0px;stroke-linecap:butt;stroke-linejoin:miter;stroke-opacity:1" />
<path class="bond-74 atom-64 atom-47" d="M 390.7,181.0 L 409.7,171.6" style="fill:none;fill-rule:evenodd;stroke:#000000;stroke-width:2.0px;stroke-linecap:butt;stroke-linejoin:miter;stroke-opacity:1" />
<path class="bond-75 atom-61 atom-49" d="M 442.9,145.4 L 445.9,166.3" style="fill:none;fill-rule:evenodd;stroke:#000000;stroke-width:2.0px;stroke-linecap:butt;stroke-linejoin:miter;stroke-opacity:1" />
<path class="bond-75 atom-61 atom-49" d="M 446.3,146.8 L 448.8,164.1" style="fill:none;fill-rule:evenodd;stroke:#000000;stroke-width:2.0px;stroke-linecap:butt;stroke-linejoin:miter;stroke-opacity:1" />
<path class="bond-76 atom-58 atom-53" d="M 492.7,106.1 L 495.7,127.0" style="fill:none;fill-rule:evenodd;stroke:#000000;stroke-width:2.0px;stroke-linecap:butt;stroke-linejoin:miter;stroke-opacity:1" />
<path class="bond-77 atom-46 atom-68" d="M 406.6,150.7 L 402.7,141.8 L 405.8,141.0 Z" style="fill:#000000;fill-rule:evenodd;fill-opacity:1;stroke:#000000;stroke-width:0.5px;stroke-linecap:butt;stroke-linejoin:miter;stroke-miterlimit:10;stroke-opacity:1;" />
<path class="bond-78 atom-47 atom-69" d="M 409.7,171.6 L 411.6,181.3 L 408.5,181.4 Z" style="fill:#000000;fill-rule:evenodd;fill-opacity:1;stroke:#000000;stroke-width:0.5px;stroke-linecap:butt;stroke-linejoin:miter;stroke-miterlimit:10;stroke-opacity:1;" />
<path class="bond-79 atom-64 atom-70" d="M 390.7,184.2 L 389.6,184.1" style="fill:none;fill-rule:evenodd;stroke:#000000;stroke-width:1.0px;stroke-linecap:butt;stroke-linejoin:miter;stroke-opacity:1" />
<path class="bond-79 atom-64 atom-70" d="M 390.7,187.5 L 388.6,187.1" style="fill:none;fill-rule:evenodd;stroke:#000000;stroke-width:1.0px;stroke-linecap:butt;stroke-linejoin:miter;stroke-opacity:1" />
<path class="bond-79 atom-64 atom-70" d="M 390.6,190.8 L 387.5,190.2" style="fill:none;fill-rule:evenodd;stroke:#000000;stroke-width:1.0px;stroke-linecap:butt;stroke-linejoin:miter;stroke-opacity:1" />
<path d="M 216.2,44.4 L 215.8,44.2 L 215.5,44.6" style="fill:none;stroke:#000000;stroke-width:2.0px;stroke-linecap:butt;stroke-linejoin:miter;stroke-miterlimit:10;stroke-opacity:1;" />
<path d="M 185.9,100.9 L 184.8,101.1 L 184.4,102.1" style="fill:none;stroke:#000000;stroke-width:2.0px;stroke-linecap:butt;stroke-linejoin:miter;stroke-miterlimit:10;stroke-opacity:1;" />
<path d="M 177.4,119.7 L 177.0,120.7 L 177.6,121.6" style="fill:none;stroke:#000000;stroke-width:2.0px;stroke-linecap:butt;stroke-linejoin:miter;stroke-miterlimit:10;stroke-opacity:1;" />
<path d="M 182.7,156.0 L 182.3,157.0 L 181.8,157.1" style="fill:none;stroke:#000000;stroke-width:2.0px;stroke-linecap:butt;stroke-linejoin:miter;stroke-miterlimit:10;stroke-opacity:1;" />
<path d="M 132.1,183.7 L 132.6,182.7 L 132.3,182.4" style="fill:none;stroke:#000000;stroke-width:2.0px;stroke-linecap:butt;stroke-linejoin:miter;stroke-miterlimit:10;stroke-opacity:1;" />
<path d="M 123.2,200.5 L 122.7,201.5 L 121.7,201.3" style="fill:none;stroke:#000000;stroke-width:2.0px;stroke-linecap:butt;stroke-linejoin:miter;stroke-miterlimit:10;stroke-opacity:1;" />
<path d="M 102.9,198.1 L 101.9,197.9 L 101.7,196.8" style="fill:none;stroke:#000000;stroke-width:2.0px;stroke-linecap:butt;stroke-linejoin:miter;stroke-miterlimit:10;stroke-opacity:1;" />
<path d="M 99.0,178.0 L 98.8,176.9 L 99.2,176.7" style="fill:none;stroke:#000000;stroke-width:2.0px;stroke-linecap:butt;stroke-linejoin:miter;stroke-miterlimit:10;stroke-opacity:1;" />
<path d="M 121.3,147.2 L 121.4,146.7 L 120.6,146.1" style="fill:none;stroke:#000000;stroke-width:2.0px;stroke-linecap:butt;stroke-linejoin:miter;stroke-miterlimit:10;stroke-opacity:1;" />
<path d="M 105.9,133.9 L 105.1,133.2 L 105.3,132.2" style="fill:none;stroke:#000000;stroke-width:2.0px;stroke-linecap:butt;stroke-linejoin:miter;stroke-miterlimit:10;stroke-opacity:1;" />
<path d="M 69.3,127.3 L 69.0,127.0 L 68.0,127.4" style="fill:none;stroke:#000000;stroke-width:2.0px;stroke-linecap:butt;stroke-linejoin:miter;stroke-miterlimit:10;stroke-opacity:1;" />
<path d="M 29.1,134.5 L 28.0,134.5 L 28.5,133.5" style="fill:none;stroke:#000000;stroke-width:2.0px;stroke-linecap:butt;stroke-linejoin:miter;stroke-miterlimit:10;stroke-opacity:1;" />
<path d="M 38.0,117.0 L 38.5,116.1 L 39.0,117.0" style="fill:none;stroke:#000000;stroke-width:2.0px;stroke-linecap:butt;stroke-linejoin:miter;stroke-miterlimit:10;stroke-opacity:1;" />
<path d="M 244.6,147.9 L 245.1,147.9 L 245.7,148.7" style="fill:none;stroke:#000000;stroke-width:2.0px;stroke-linecap:butt;stroke-linejoin:miter;stroke-miterlimit:10;stroke-opacity:1;" />
<path d="M 257.5,163.6 L 258.2,164.5 L 259.2,164.3" style="fill:none;stroke:#000000;stroke-width:2.0px;stroke-linecap:butt;stroke-linejoin:miter;stroke-miterlimit:10;stroke-opacity:1;" />
<path d="M 291.5,177.2 L 292.2,178.0 L 293.3,177.9" style="fill:none;stroke:#000000;stroke-width:2.0px;stroke-linecap:butt;stroke-linejoin:miter;stroke-miterlimit:10;stroke-opacity:1;" />
<path d="M 312.1,175.1 L 313.1,175.0 L 313.5,174.0" style="fill:none;stroke:#000000;stroke-width:2.0px;stroke-linecap:butt;stroke-linejoin:miter;stroke-miterlimit:10;stroke-opacity:1;" />
<path d="M 340.9,152.4 L 341.9,152.3 L 342.6,153.1" style="fill:none;stroke:#000000;stroke-width:2.0px;stroke-linecap:butt;stroke-linejoin:miter;stroke-miterlimit:10;stroke-opacity:1;" />
<path d="M 354.3,168.1 L 355.0,168.9 L 355.5,168.8" style="fill:none;stroke:#000000;stroke-width:2.0px;stroke-linecap:butt;stroke-linejoin:miter;stroke-miterlimit:10;stroke-opacity:1;" />
<path d="M 385.6,147.5 L 385.8,147.1 L 386.8,147.3" style="fill:none;stroke:#000000;stroke-width:2.0px;stroke-linecap:butt;stroke-linejoin:miter;stroke-miterlimit:10;stroke-opacity:1;" />
<path d="M 514.4,134.5 L 515.4,134.9 L 516.2,134.2" style="fill:none;stroke:#000000;stroke-width:2.0px;stroke-linecap:butt;stroke-linejoin:miter;stroke-miterlimit:10;stroke-opacity:1;" />
<path d="M 531.2,122.4 L 532.0,121.8 L 531.8,120.7" style="fill:none;stroke:#000000;stroke-width:2.0px;stroke-linecap:butt;stroke-linejoin:miter;stroke-miterlimit:10;stroke-opacity:1;" />
<path d="M 529.1,101.9 L 529.0,100.8 L 528.0,100.4" style="fill:none;stroke:#000000;stroke-width:2.0px;stroke-linecap:butt;stroke-linejoin:miter;stroke-miterlimit:10;stroke-opacity:1;" />
<path d="M 510.3,93.4 L 509.3,93.0 L 508.5,93.7" style="fill:none;stroke:#000000;stroke-width:2.0px;stroke-linecap:butt;stroke-linejoin:miter;stroke-miterlimit:10;stroke-opacity:1;" />
<path d="M 460.5,132.7 L 459.5,132.3 L 458.7,133.0" style="fill:none;stroke:#000000;stroke-width:2.0px;stroke-linecap:butt;stroke-linejoin:miter;stroke-miterlimit:10;stroke-opacity:1;" />
<path d="M 422.9,158.3 L 422.9,158.7 L 421.3,159.8" style="fill:none;stroke:#000000;stroke-width:2.0px;stroke-linecap:butt;stroke-linejoin:miter;stroke-miterlimit:10;stroke-opacity:1;" />
<path d="M 308.5,139.5 L 307.9,138.7 L 306.8,138.9" style="fill:none;stroke:#000000;stroke-width:2.0px;stroke-linecap:butt;stroke-linejoin:miter;stroke-miterlimit:10;stroke-opacity:1;" />
<path d="M 288.0,141.6 L 286.9,141.8 L 286.5,142.7" style="fill:none;stroke:#000000;stroke-width:2.0px;stroke-linecap:butt;stroke-linejoin:miter;stroke-miterlimit:10;stroke-opacity:1;" />
<path d="M 218.5,115.6 L 218.9,114.6 L 218.2,113.8" style="fill:none;stroke:#000000;stroke-width:2.0px;stroke-linecap:butt;stroke-linejoin:miter;stroke-miterlimit:10;stroke-opacity:1;" />
<path class="atom-2" d="M 234.1 49.1 L 236.1 52.2 Q 236.3 52.6, 236.6 53.1 Q 236.9 53.7, 236.9 53.7 L 236.9 49.1 L 237.7 49.1 L 237.7 55.1 L 236.9 55.1 L 234.8 51.6 Q 234.6 51.2, 234.3 50.7 Q 234.0 50.2, 234.0 50.1 L 234.0 55.1 L 233.2 55.1 L 233.2 49.1 L 234.1 49.1 " fill="#0000FF" />
<path class="atom-4" d="M 200.6 62.6 Q 200.7 62.6, 200.9 62.7 Q 201.2 62.8, 201.5 62.9 Q 201.8 63.0, 202.1 63.0 Q 202.7 63.0, 203.0 62.7 Q 203.4 62.4, 203.4 61.9 Q 203.4 61.6, 203.2 61.4 Q 203.0 61.2, 202.8 61.1 Q 202.5 61.0, 202.1 60.8 Q 201.6 60.7, 201.3 60.5 Q 200.9 60.4, 200.7 60.1 Q 200.5 59.7, 200.5 59.2 Q 200.5 58.4, 201.0 58.0 Q 201.5 57.5, 202.5 57.5 Q 203.2 57.5, 204.0 57.8 L 203.8 58.5 Q 203.1 58.2, 202.6 58.2 Q 202.0 58.2, 201.7 58.4 Q 201.3 58.7, 201.3 59.1 Q 201.3 59.4, 201.5 59.6 Q 201.7 59.8, 201.9 59.9 Q 202.2 60.0, 202.6 60.2 Q 203.1 60.3, 203.4 60.5 Q 203.7 60.7, 204.0 61.0 Q 204.2 61.3, 204.2 61.9 Q 204.2 62.8, 203.7 63.2 Q 203.1 63.6, 202.2 63.6 Q 201.6 63.6, 201.2 63.5 Q 200.8 63.4, 200.4 63.2 L 200.6 62.6 " fill="#CCCC00" />
<path class="atom-11" d="M 153.2 157.0 L 154.0 157.0 L 154.0 159.6 L 157.1 159.6 L 157.1 157.0 L 157.9 157.0 L 157.9 163.0 L 157.1 163.0 L 157.1 160.3 L 154.0 160.3 L 154.0 163.0 L 153.2 163.0 L 153.2 157.0 " fill="#0000FF" />
<path class="atom-11" d="M 160.0 157.0 L 162.0 160.2 Q 162.2 160.5, 162.5 161.1 Q 162.8 161.7, 162.8 161.7 L 162.8 157.0 L 163.6 157.0 L 163.6 163.0 L 162.8 163.0 L 160.7 159.6 Q 160.4 159.2, 160.2 158.7 Q 159.9 158.2, 159.8 158.1 L 159.8 163.0 L 159.1 163.0 L 159.1 157.0 L 160.0 157.0 " fill="#0000FF" />
<path class="atom-13" d="M 163.9 196.3 Q 163.9 194.9, 164.6 194.1 Q 165.3 193.3, 166.6 193.3 Q 167.9 193.3, 168.6 194.1 Q 169.4 194.9, 169.4 196.3 Q 169.4 197.8, 168.6 198.6 Q 167.9 199.4, 166.6 199.4 Q 165.3 199.4, 164.6 198.6 Q 163.9 197.8, 163.9 196.3 M 166.6 198.7 Q 167.5 198.7, 168.0 198.1 Q 168.5 197.5, 168.5 196.3 Q 168.5 195.1, 168.0 194.5 Q 167.5 193.9, 166.6 193.9 Q 165.7 193.9, 165.2 194.5 Q 164.7 195.1, 164.7 196.3 Q 164.7 197.5, 165.2 198.1 Q 165.7 198.7, 166.6 198.7 " fill="#FF0000" />
<path class="atom-17" d="M 78.1 209.7 L 78.9 209.7 L 78.9 212.2 L 81.9 212.2 L 81.9 209.7 L 82.8 209.7 L 82.8 215.7 L 81.9 215.7 L 81.9 212.9 L 78.9 212.9 L 78.9 215.7 L 78.1 215.7 L 78.1 209.7 " fill="#FF0000" />
<path class="atom-17" d="M 84.0 212.7 Q 84.0 211.2, 84.7 210.4 Q 85.4 209.6, 86.7 209.6 Q 88.1 209.6, 88.8 210.4 Q 89.5 211.2, 89.5 212.7 Q 89.5 214.1, 88.8 214.9 Q 88.0 215.8, 86.7 215.8 Q 85.4 215.8, 84.7 214.9 Q 84.0 214.1, 84.0 212.7 M 86.7 215.1 Q 87.6 215.1, 88.1 214.5 Q 88.6 213.9, 88.6 212.7 Q 88.6 211.5, 88.1 210.9 Q 87.6 210.3, 86.7 210.3 Q 85.8 210.3, 85.3 210.9 Q 84.8 211.5, 84.8 212.7 Q 84.8 213.9, 85.3 214.5 Q 85.8 215.1, 86.7 215.1 " fill="#FF0000" />
<path class="atom-19" d="M 116.5 164.6 L 118.4 167.8 Q 118.6 168.1, 119.0 168.6 Q 119.3 169.2, 119.3 169.2 L 119.3 164.6 L 120.1 164.6 L 120.1 170.6 L 119.3 170.6 L 117.1 167.1 Q 116.9 166.7, 116.6 166.2 Q 116.4 165.8, 116.3 165.6 L 116.3 170.6 L 115.5 170.6 L 115.5 164.6 L 116.5 164.6 " fill="#0000FF" />
<path class="atom-21" d="M 138.5 139.4 Q 138.5 138.0, 139.2 137.2 Q 139.9 136.4, 141.2 136.4 Q 142.5 136.4, 143.3 137.2 Q 144.0 138.0, 144.0 139.4 Q 144.0 140.9, 143.2 141.7 Q 142.5 142.5, 141.2 142.5 Q 139.9 142.5, 139.2 141.7 Q 138.5 140.9, 138.5 139.4 M 141.2 141.8 Q 142.1 141.8, 142.6 141.2 Q 143.1 140.6, 143.1 139.4 Q 143.1 138.2, 142.6 137.7 Q 142.1 137.1, 141.2 137.1 Q 140.3 137.1, 139.8 137.6 Q 139.3 138.2, 139.3 139.4 Q 139.3 140.6, 139.8 141.2 Q 140.3 141.8, 141.2 141.8 " fill="#FF0000" />
<path class="atom-23" d="M 83.9 137.6 L 85.9 140.7 Q 86.1 141.0, 86.4 141.6 Q 86.7 142.2, 86.7 142.2 L 86.7 137.6 L 87.5 137.6 L 87.5 143.5 L 86.7 143.5 L 84.6 140.1 Q 84.4 139.7, 84.1 139.2 Q 83.8 138.7, 83.8 138.6 L 83.8 143.5 L 83.0 143.5 L 83.0 137.6 L 83.9 137.6 " fill="#0000FF" />
<path class="atom-23" d="M 82.9 144.1 L 83.7 144.1 L 83.7 146.7 L 86.8 146.7 L 86.8 144.1 L 87.6 144.1 L 87.6 150.1 L 86.8 150.1 L 86.8 147.4 L 83.7 147.4 L 83.7 150.1 L 82.9 150.1 L 82.9 144.1 " fill="#0000FF" />
<path class="atom-25" d="M 69.8 106.2 Q 69.8 104.8, 70.5 104.0 Q 71.2 103.1, 72.6 103.1 Q 73.9 103.1, 74.6 104.0 Q 75.3 104.8, 75.3 106.2 Q 75.3 107.6, 74.6 108.5 Q 73.9 109.3, 72.6 109.3 Q 71.2 109.3, 70.5 108.5 Q 69.8 107.7, 69.8 106.2 M 72.6 108.6 Q 73.5 108.6, 74.0 108.0 Q 74.5 107.4, 74.5 106.2 Q 74.5 105.0, 74.0 104.4 Q 73.5 103.8, 72.6 103.8 Q 71.7 103.8, 71.2 104.4 Q 70.7 105.0, 70.7 106.2 Q 70.7 107.4, 71.2 108.0 Q 71.7 108.6, 72.6 108.6 " fill="#FF0000" />
<path class="atom-27" d="M 51.1 152.2 L 54.7 152.2 L 54.7 152.9 L 51.9 152.9 L 51.9 154.7 L 54.4 154.7 L 54.4 155.4 L 51.9 155.4 L 51.9 158.2 L 51.1 158.2 L 51.1 152.2 " fill="#33CCCC" />
<path class="atom-35" d="M 221.4 150.9 Q 221.4 149.5, 222.1 148.7 Q 222.8 147.9, 224.1 147.9 Q 225.5 147.9, 226.2 148.7 Q 226.9 149.5, 226.9 150.9 Q 226.9 152.4, 226.2 153.2 Q 225.4 154.0, 224.1 154.0 Q 222.8 154.0, 222.1 153.2 Q 221.4 152.4, 221.4 150.9 M 224.1 153.3 Q 225.0 153.3, 225.5 152.7 Q 226.0 152.1, 226.0 150.9 Q 226.0 149.7, 225.5 149.1 Q 225.0 148.5, 224.1 148.5 Q 223.2 148.5, 222.7 149.1 Q 222.2 149.7, 222.2 150.9 Q 222.2 152.1, 222.7 152.7 Q 223.2 153.3, 224.1 153.3 " fill="#FF0000" />
<path class="atom-44" d="M 374.6 162.8 L 376.6 166.0 Q 376.8 166.3, 377.1 166.9 Q 377.4 167.5, 377.4 167.5 L 377.4 162.8 L 378.2 162.8 L 378.2 168.8 L 377.4 168.8 L 375.3 165.4 Q 375.0 165.0, 374.8 164.5 Q 374.5 164.0, 374.4 163.9 L 374.4 168.8 L 373.7 168.8 L 373.7 162.8 L 374.6 162.8 " fill="#0000FF" />
<path class="atom-48" d="M 428.0 176.5 L 430.0 179.6 Q 430.2 179.9, 430.5 180.5 Q 430.8 181.1, 430.8 181.1 L 430.8 176.5 L 431.6 176.5 L 431.6 182.4 L 430.8 182.4 L 428.7 179.0 Q 428.4 178.6, 428.2 178.1 Q 427.9 177.6, 427.8 177.5 L 427.8 182.4 L 427.0 182.4 L 427.0 176.5 L 428.0 176.5 " fill="#0000FF" />
<path class="atom-48" d="M 427.0 183.0 L 427.8 183.0 L 427.8 185.6 L 430.9 185.6 L 430.9 183.0 L 431.7 183.0 L 431.7 189.0 L 430.9 189.0 L 430.9 186.3 L 427.8 186.3 L 427.8 189.0 L 427.0 189.0 L 427.0 183.0 " fill="#0000FF" />
<path class="atom-50" d="M 464.3 171.2 L 466.2 174.4 Q 466.4 174.7, 466.7 175.2 Q 467.0 175.8, 467.1 175.8 L 467.1 171.2 L 467.8 171.2 L 467.8 177.2 L 467.0 177.2 L 464.9 173.7 Q 464.7 173.3, 464.4 172.8 Q 464.2 172.4, 464.1 172.2 L 464.1 177.2 L 463.3 177.2 L 463.3 171.2 L 464.3 171.2 " fill="#0000FF" />
<path class="atom-51" d="M 480.9 158.1 L 482.8 161.3 Q 483.0 161.6, 483.3 162.1 Q 483.6 162.7, 483.7 162.7 L 483.7 158.1 L 484.5 158.1 L 484.5 164.1 L 483.6 164.1 L 481.5 160.6 Q 481.3 160.2, 481.0 159.7 Q 480.8 159.3, 480.7 159.1 L 480.7 164.1 L 479.9 164.1 L 479.9 158.1 L 480.9 158.1 " fill="#0000FF" />
<path class="atom-59" d="M 464.4 95.3 L 465.2 95.3 L 465.2 97.9 L 468.3 97.9 L 468.3 95.3 L 469.1 95.3 L 469.1 101.3 L 468.3 101.3 L 468.3 98.5 L 465.2 98.5 L 465.2 101.3 L 464.4 101.3 L 464.4 95.3 " fill="#FF0000" />
<path class="atom-59" d="M 470.3 98.3 Q 470.3 96.9, 471.0 96.0 Q 471.7 95.2, 473.0 95.2 Q 474.4 95.2, 475.1 96.0 Q 475.8 96.9, 475.8 98.3 Q 475.8 99.7, 475.1 100.6 Q 474.4 101.4, 473.0 101.4 Q 471.7 101.4, 471.0 100.6 Q 470.3 99.8, 470.3 98.3 M 473.0 100.7 Q 474.0 100.7, 474.5 100.1 Q 475.0 99.5, 475.0 98.3 Q 475.0 97.1, 474.5 96.5 Q 474.0 95.9, 473.0 95.9 Q 472.1 95.9, 471.6 96.5 Q 471.1 97.1, 471.1 98.3 Q 471.1 99.5, 471.6 100.1 Q 472.1 100.7, 473.0 100.7 " fill="#FF0000" />
<path class="atom-62" d="M 421.9 134.6 L 423.9 137.8 Q 424.1 138.1, 424.4 138.6 Q 424.7 139.2, 424.7 139.2 L 424.7 134.6 L 425.5 134.6 L 425.5 140.6 L 424.7 140.6 L 422.6 137.1 Q 422.3 136.7, 422.1 136.2 Q 421.8 135.8, 421.7 135.6 L 421.7 140.6 L 421.0 140.6 L 421.0 134.6 L 421.9 134.6 " fill="#0000FF" />
<path class="atom-68" d="M 400.8 134.0 L 401.6 134.0 L 401.6 136.6 L 404.7 136.6 L 404.7 134.0 L 405.5 134.0 L 405.5 140.0 L 404.7 140.0 L 404.7 137.3 L 401.6 137.3 L 401.6 140.0 L 400.8 140.0 L 400.8 134.0 " fill="#000000" />
<path class="atom-69" d="M 407.9 182.7 L 408.7 182.7 L 408.7 185.3 L 411.8 185.3 L 411.8 182.7 L 412.6 182.7 L 412.6 188.7 L 411.8 188.7 L 411.8 185.9 L 408.7 185.9 L 408.7 188.7 L 407.9 188.7 L 407.9 182.7 " fill="#000000" />
<path class="atom-70" d="M 386.0 191.9 L 386.8 191.9 L 386.8 194.4 L 389.9 194.4 L 389.9 191.9 L 390.7 191.9 L 390.7 197.9 L 389.9 197.9 L 389.9 195.1 L 386.8 195.1 L 386.8 197.9 L 386.0 197.9 L 386.0 191.9 " fill="#000000" />
</svg>