<?xml version='1.0' encoding='utf-8'?>
<svg xmlns="http://www.w3.org/2000/svg" baseProfile="full" height="260px" version="1.1" viewBox="0 0 560 260" width="560px" xml:space="preserve">

<path class="bond-0 atom-0 atom-1" d="M 33.7,164.2 L 41.6,158.9" style="fill:none;fill-rule:evenodd;stroke:#FF0000;stroke-width:2.0px;stroke-linecap:butt;stroke-linejoin:miter;stroke-opacity:1" />
<path class="bond-0 atom-0 atom-1" d="M 41.6,158.9 L 49.6,153.7" style="fill:none;fill-rule:evenodd;stroke:#000000;stroke-width:2.0px;stroke-linecap:butt;stroke-linejoin:miter;stroke-opacity:1" />
<path class="bond-0 atom-0 atom-1" d="M 35.5,167.0 L 43.5,161.8" style="fill:none;fill-rule:evenodd;stroke:#FF0000;stroke-width:2.0px;stroke-linecap:butt;stroke-linejoin:miter;stroke-opacity:1" />
<path class="bond-0 atom-0 atom-1" d="M 43.5,161.8 L 51.4,156.5" style="fill:none;fill-rule:evenodd;stroke:#000000;stroke-width:2.0px;stroke-linecap:butt;stroke-linejoin:miter;stroke-opacity:1" />
<path class="bond-1 atom-1 atom-2" d="M 49.7,155.6 L 48.3,133.2" style="fill:none;fill-rule:evenodd;stroke:#000000;stroke-width:2.0px;stroke-linecap:butt;stroke-linejoin:miter;stroke-opacity:1" />
<path class="bond-2 atom-2 atom-3" d="M 48.3,133.2 L 67.1,120.8" style="fill:none;fill-rule:evenodd;stroke:#000000;stroke-width:2.0px;stroke-linecap:butt;stroke-linejoin:miter;stroke-opacity:1" />
<path class="bond-3 atom-3 atom-4" d="M 67.1,120.8 L 87.2,130.8" style="fill:none;fill-rule:evenodd;stroke:#000000;stroke-width:2.0px;stroke-linecap:butt;stroke-linejoin:miter;stroke-opacity:1" />
<path class="bond-4 atom-4 atom-5" d="M 90.4,129.2 L 89.9,128.5" style="fill:none;fill-rule:evenodd;stroke:#000000;stroke-width:1.0px;stroke-linecap:butt;stroke-linejoin:miter;stroke-opacity:1" />
<path class="bond-4 atom-4 atom-5" d="M 93.6,127.6 L 92.7,126.2" style="fill:none;fill-rule:evenodd;stroke:#000000;stroke-width:1.0px;stroke-linecap:butt;stroke-linejoin:miter;stroke-opacity:1" />
<path class="bond-4 atom-4 atom-5" d="M 96.8,126.0 L 95.4,123.9" style="fill:none;fill-rule:evenodd;stroke:#0000FF;stroke-width:1.0px;stroke-linecap:butt;stroke-linejoin:miter;stroke-opacity:1" />
<path class="bond-4 atom-4 atom-5" d="M 100.0,124.4 L 98.1,121.6" style="fill:none;fill-rule:evenodd;stroke:#0000FF;stroke-width:1.0px;stroke-linecap:butt;stroke-linejoin:miter;stroke-opacity:1" />
<path class="bond-5 atom-5 atom-6" d="M 106.1,114.5 L 106.5,105.2" style="fill:none;fill-rule:evenodd;stroke:#0000FF;stroke-width:2.0px;stroke-linecap:butt;stroke-linejoin:miter;stroke-opacity:1" />
<path class="bond-5 atom-5 atom-6" d="M 106.5,105.2 L 106.9,95.9" style="fill:none;fill-rule:evenodd;stroke:#000000;stroke-width:2.0px;stroke-linecap:butt;stroke-linejoin:miter;stroke-opacity:1" />
<path class="bond-6 atom-6 atom-7" d="M 109.0,95.4 L 101.5,89.5" style="fill:none;fill-rule:evenodd;stroke:#000000;stroke-width:2.0px;stroke-linecap:butt;stroke-linejoin:miter;stroke-opacity:1" />
<path class="bond-6 atom-6 atom-7" d="M 101.5,89.5 L 94.1,83.5" style="fill:none;fill-rule:evenodd;stroke:#FF0000;stroke-width:2.0px;stroke-linecap:butt;stroke-linejoin:miter;stroke-opacity:1" />
<path class="bond-6 atom-6 atom-7" d="M 106.9,98.0 L 99.4,92.1" style="fill:none;fill-rule:evenodd;stroke:#000000;stroke-width:2.0px;stroke-linecap:butt;stroke-linejoin:miter;stroke-opacity:1" />
<path class="bond-6 atom-6 atom-7" d="M 99.4,92.1 L 92.0,86.2" style="fill:none;fill-rule:evenodd;stroke:#FF0000;stroke-width:2.0px;stroke-linecap:butt;stroke-linejoin:miter;stroke-opacity:1" />
<path class="bond-7 atom-6 atom-8" d="M 106.9,95.9 L 128.6,89.9" style="fill:none;fill-rule:evenodd;stroke:#000000;stroke-width:2.0px;stroke-linecap:butt;stroke-linejoin:miter;stroke-opacity:1" />
<path class="bond-8 atom-8 atom-9" d="M 128.6,89.9 L 138.7,69.8" style="fill:none;fill-rule:evenodd;stroke:#000000;stroke-width:2.0px;stroke-linecap:butt;stroke-linejoin:miter;stroke-opacity:1" />
<path class="bond-8 atom-8 atom-9" d="M 132.5,89.7 L 140.8,73.1" style="fill:none;fill-rule:evenodd;stroke:#000000;stroke-width:2.0px;stroke-linecap:butt;stroke-linejoin:miter;stroke-opacity:1" />
<path class="bond-9 atom-9 atom-10" d="M 138.7,69.8 L 161.1,68.4" style="fill:none;fill-rule:evenodd;stroke:#000000;stroke-width:2.0px;stroke-linecap:butt;stroke-linejoin:miter;stroke-opacity:1" />
<path class="bond-10 atom-10 atom-11" d="M 161.1,68.4 L 173.5,87.2" style="fill:none;fill-rule:evenodd;stroke:#000000;stroke-width:2.0px;stroke-linecap:butt;stroke-linejoin:miter;stroke-opacity:1" />
<path class="bond-10 atom-10 atom-11" d="M 159.4,71.9 L 169.6,87.4" style="fill:none;fill-rule:evenodd;stroke:#000000;stroke-width:2.0px;stroke-linecap:butt;stroke-linejoin:miter;stroke-opacity:1" />
<path class="bond-11 atom-11 atom-12" d="M 173.5,87.2 L 163.5,107.3" style="fill:none;fill-rule:evenodd;stroke:#000000;stroke-width:2.0px;stroke-linecap:butt;stroke-linejoin:miter;stroke-opacity:1" />
<path class="bond-12 atom-12 atom-13" d="M 163.5,107.3 L 168.4,114.7" style="fill:none;fill-rule:evenodd;stroke:#000000;stroke-width:2.0px;stroke-linecap:butt;stroke-linejoin:miter;stroke-opacity:1" />
<path class="bond-12 atom-12 atom-13" d="M 168.4,114.7 L 173.3,122.1" style="fill:none;fill-rule:evenodd;stroke:#FF0000;stroke-width:2.0px;stroke-linecap:butt;stroke-linejoin:miter;stroke-opacity:1" />
<path class="bond-13 atom-13 atom-14" d="M 179.5,125.9 L 188.9,125.3" style="fill:none;fill-rule:evenodd;stroke:#FF0000;stroke-width:2.0px;stroke-linecap:butt;stroke-linejoin:miter;stroke-opacity:1" />
<path class="bond-13 atom-13 atom-14" d="M 188.9,125.3 L 198.3,124.7" style="fill:none;fill-rule:evenodd;stroke:#000000;stroke-width:2.0px;stroke-linecap:butt;stroke-linejoin:miter;stroke-opacity:1" />
<path class="bond-14 atom-14 atom-15" d="M 198.3,124.7 L 210.7,143.5" style="fill:none;fill-rule:evenodd;stroke:#000000;stroke-width:2.0px;stroke-linecap:butt;stroke-linejoin:miter;stroke-opacity:1" />
<path class="bond-15 atom-15 atom-16" d="M 210.7,143.5 L 220.4,142.9" style="fill:none;fill-rule:evenodd;stroke:#000000;stroke-width:2.0px;stroke-linecap:butt;stroke-linejoin:miter;stroke-opacity:1" />
<path class="bond-15 atom-15 atom-16" d="M 220.4,142.9 L 230.0,142.3" style="fill:none;fill-rule:evenodd;stroke:#0000FF;stroke-width:2.0px;stroke-linecap:butt;stroke-linejoin:miter;stroke-opacity:1" />
<path class="bond-16 atom-16 atom-17" d="M 235.8,146.0 L 240.7,153.5" style="fill:none;fill-rule:evenodd;stroke:#0000FF;stroke-width:2.0px;stroke-linecap:butt;stroke-linejoin:miter;stroke-opacity:1" />
<path class="bond-16 atom-16 atom-17" d="M 240.7,153.5 L 245.6,160.9" style="fill:none;fill-rule:evenodd;stroke:#000000;stroke-width:2.0px;stroke-linecap:butt;stroke-linejoin:miter;stroke-opacity:1" />
<path class="bond-17 atom-17 atom-18" d="M 245.6,160.9 L 268.0,159.5" style="fill:none;fill-rule:evenodd;stroke:#000000;stroke-width:2.0px;stroke-linecap:butt;stroke-linejoin:miter;stroke-opacity:1" />
<path class="bond-18 atom-18 atom-19" d="M 268.0,159.5 L 272.1,151.4" style="fill:none;fill-rule:evenodd;stroke:#000000;stroke-width:2.0px;stroke-linecap:butt;stroke-linejoin:miter;stroke-opacity:1" />
<path class="bond-18 atom-18 atom-19" d="M 272.1,151.4 L 276.1,143.3" style="fill:none;fill-rule:evenodd;stroke:#0000FF;stroke-width:2.0px;stroke-linecap:butt;stroke-linejoin:miter;stroke-opacity:1" />
<path class="bond-19 atom-19 atom-20" d="M 281.2,139.2 L 290.9,138.6" style="fill:none;fill-rule:evenodd;stroke:#0000FF;stroke-width:2.0px;stroke-linecap:butt;stroke-linejoin:miter;stroke-opacity:1" />
<path class="bond-19 atom-19 atom-20" d="M 290.9,138.6 L 300.5,138.0" style="fill:none;fill-rule:evenodd;stroke:#000000;stroke-width:2.0px;stroke-linecap:butt;stroke-linejoin:miter;stroke-opacity:1" />
<path class="bond-20 atom-20 atom-21" d="M 300.5,138.0 L 312.9,156.8" style="fill:none;fill-rule:evenodd;stroke:#000000;stroke-width:2.0px;stroke-linecap:butt;stroke-linejoin:miter;stroke-opacity:1" />
<path class="bond-21 atom-21 atom-22" d="M 312.9,156.8 L 322.6,156.2" style="fill:none;fill-rule:evenodd;stroke:#000000;stroke-width:2.0px;stroke-linecap:butt;stroke-linejoin:miter;stroke-opacity:1" />
<path class="bond-21 atom-21 atom-22" d="M 322.6,156.2 L 332.2,155.6" style="fill:none;fill-rule:evenodd;stroke:#0000FF;stroke-width:2.0px;stroke-linecap:butt;stroke-linejoin:miter;stroke-opacity:1" />
<path class="bond-22 atom-22 atom-23" d="M 338.0,159.3 L 342.9,166.7" style="fill:none;fill-rule:evenodd;stroke:#0000FF;stroke-width:2.0px;stroke-linecap:butt;stroke-linejoin:miter;stroke-opacity:1" />
<path class="bond-22 atom-22 atom-23" d="M 342.9,166.7 L 347.8,174.2" style="fill:none;fill-rule:evenodd;stroke:#000000;stroke-width:2.0px;stroke-linecap:butt;stroke-linejoin:miter;stroke-opacity:1" />
<path class="bond-23 atom-23 atom-24" d="M 347.8,174.2 L 370.2,172.8" style="fill:none;fill-rule:evenodd;stroke:#000000;stroke-width:2.0px;stroke-linecap:butt;stroke-linejoin:miter;stroke-opacity:1" />
<path class="bond-24 atom-24 atom-25" d="M 370.2,172.8 L 382.6,191.6" style="fill:none;fill-rule:evenodd;stroke:#000000;stroke-width:2.0px;stroke-linecap:butt;stroke-linejoin:miter;stroke-opacity:1" />
<path class="bond-25 atom-25 atom-26" d="M 382.6,191.6 L 405.1,190.2" style="fill:none;fill-rule:evenodd;stroke:#000000;stroke-width:2.0px;stroke-linecap:butt;stroke-linejoin:miter;stroke-opacity:1" />
<path class="bond-25 atom-25 atom-26" d="M 384.4,188.1 L 402.9,186.9" style="fill:none;fill-rule:evenodd;stroke:#000000;stroke-width:2.0px;stroke-linecap:butt;stroke-linejoin:miter;stroke-opacity:1" />
<path class="bond-26 atom-26 atom-27" d="M 405.1,190.2 L 415.1,170.1" style="fill:none;fill-rule:evenodd;stroke:#000000;stroke-width:2.0px;stroke-linecap:butt;stroke-linejoin:miter;stroke-opacity:1" />
<path class="bond-27 atom-27 atom-28" d="M 415.1,170.1 L 424.4,167.5" style="fill:none;fill-rule:evenodd;stroke:#000000;stroke-width:2.0px;stroke-linecap:butt;stroke-linejoin:miter;stroke-opacity:1" />
<path class="bond-27 atom-27 atom-28" d="M 424.4,167.5 L 433.7,164.9" style="fill:none;fill-rule:evenodd;stroke:#0000FF;stroke-width:2.0px;stroke-linecap:butt;stroke-linejoin:miter;stroke-opacity:1" />
<path class="bond-28 atom-28 atom-29" d="M 437.0,160.1 L 437.4,150.9" style="fill:none;fill-rule:evenodd;stroke:#0000FF;stroke-width:2.0px;stroke-linecap:butt;stroke-linejoin:miter;stroke-opacity:1" />
<path class="bond-28 atom-28 atom-29" d="M 437.4,150.9 L 437.8,141.6" style="fill:none;fill-rule:evenodd;stroke:#000000;stroke-width:2.0px;stroke-linecap:butt;stroke-linejoin:miter;stroke-opacity:1" />
<path class="bond-29 atom-29 atom-30" d="M 437.8,141.6 L 444.9,135.7" style="fill:none;fill-rule:evenodd;stroke:#000000;stroke-width:2.0px;stroke-linecap:butt;stroke-linejoin:miter;stroke-opacity:1" />
<path class="bond-29 atom-29 atom-30" d="M 444.9,135.7 L 452.0,129.9" style="fill:none;fill-rule:evenodd;stroke:#0000FF;stroke-width:2.0px;stroke-linecap:butt;stroke-linejoin:miter;stroke-opacity:1" />
<path class="bond-30 atom-30 atom-31" d="M 454.5,123.4 L 453.0,114.2" style="fill:none;fill-rule:evenodd;stroke:#0000FF;stroke-width:2.0px;stroke-linecap:butt;stroke-linejoin:miter;stroke-opacity:1" />
<path class="bond-30 atom-30 atom-31" d="M 453.0,114.2 L 451.5,105.1" style="fill:none;fill-rule:evenodd;stroke:#000000;stroke-width:2.0px;stroke-linecap:butt;stroke-linejoin:miter;stroke-opacity:1" />
<path class="bond-31 atom-31 atom-32" d="M 451.5,105.1 L 468.8,90.8" style="fill:none;fill-rule:evenodd;stroke:#000000;stroke-width:2.0px;stroke-linecap:butt;stroke-linejoin:miter;stroke-opacity:1" />
<path class="bond-32 atom-32 atom-33" d="M 468.8,90.8 L 489.9,98.7" style="fill:none;fill-rule:evenodd;stroke:#000000;stroke-width:2.0px;stroke-linecap:butt;stroke-linejoin:miter;stroke-opacity:1" />
<path class="bond-33 atom-33 atom-34" d="M 489.9,98.7 L 493.6,120.9" style="fill:none;fill-rule:evenodd;stroke:#000000;stroke-width:2.0px;stroke-linecap:butt;stroke-linejoin:miter;stroke-opacity:1" />
<path class="bond-33 atom-33 atom-34" d="M 493.5,100.1 L 496.6,118.4" style="fill:none;fill-rule:evenodd;stroke:#000000;stroke-width:2.0px;stroke-linecap:butt;stroke-linejoin:miter;stroke-opacity:1" />
<path class="bond-34 atom-34 atom-35" d="M 493.6,120.9 L 514.6,128.8" style="fill:none;fill-rule:evenodd;stroke:#000000;stroke-width:2.0px;stroke-linecap:butt;stroke-linejoin:miter;stroke-opacity:1" />
<path class="bond-35 atom-35 atom-36" d="M 514.6,128.8 L 532.0,114.5" style="fill:none;fill-rule:evenodd;stroke:#000000;stroke-width:2.0px;stroke-linecap:butt;stroke-linejoin:miter;stroke-opacity:1" />
<path class="bond-35 atom-35 atom-36" d="M 514.0,124.9 L 528.4,113.1" style="fill:none;fill-rule:evenodd;stroke:#000000;stroke-width:2.0px;stroke-linecap:butt;stroke-linejoin:miter;stroke-opacity:1" />
<path class="bond-36 atom-36 atom-37" d="M 532.0,114.5 L 528.3,92.3" style="fill:none;fill-rule:evenodd;stroke:#000000;stroke-width:2.0px;stroke-linecap:butt;stroke-linejoin:miter;stroke-opacity:1" />
<path class="bond-37 atom-37 atom-38" d="M 528.3,92.3 L 507.2,84.4" style="fill:none;fill-rule:evenodd;stroke:#000000;stroke-width:2.0px;stroke-linecap:butt;stroke-linejoin:miter;stroke-opacity:1" />
<path class="bond-37 atom-37 atom-38" d="M 525.3,94.8 L 507.9,88.2" style="fill:none;fill-rule:evenodd;stroke:#000000;stroke-width:2.0px;stroke-linecap:butt;stroke-linejoin:miter;stroke-opacity:1" />
<path class="bond-38 atom-31 atom-39" d="M 451.5,105.1 L 442.5,101.8" style="fill:none;fill-rule:evenodd;stroke:#000000;stroke-width:2.0px;stroke-linecap:butt;stroke-linejoin:miter;stroke-opacity:1" />
<path class="bond-38 atom-31 atom-39" d="M 442.5,101.8 L 433.5,98.4" style="fill:none;fill-rule:evenodd;stroke:#0000FF;stroke-width:2.0px;stroke-linecap:butt;stroke-linejoin:miter;stroke-opacity:1" />
<path class="bond-38 atom-31 atom-39" d="M 448.4,107.6 L 440.4,104.6" style="fill:none;fill-rule:evenodd;stroke:#000000;stroke-width:2.0px;stroke-linecap:butt;stroke-linejoin:miter;stroke-opacity:1" />
<path class="bond-38 atom-31 atom-39" d="M 440.4,104.6 L 432.4,101.6" style="fill:none;fill-rule:evenodd;stroke:#0000FF;stroke-width:2.0px;stroke-linecap:butt;stroke-linejoin:miter;stroke-opacity:1" />
<path class="bond-39 atom-39 atom-40" d="M 427.2,99.8 L 420.1,105.7" style="fill:none;fill-rule:evenodd;stroke:#0000FF;stroke-width:2.0px;stroke-linecap:butt;stroke-linejoin:miter;stroke-opacity:1" />
<path class="bond-39 atom-39 atom-40" d="M 420.1,105.7 L 413.0,111.5" style="fill:none;fill-rule:evenodd;stroke:#000000;stroke-width:2.0px;stroke-linecap:butt;stroke-linejoin:miter;stroke-opacity:1" />
<path class="bond-40 atom-40 atom-41" d="M 414.5,110.3 L 405.4,106.9" style="fill:none;fill-rule:evenodd;stroke:#000000;stroke-width:2.0px;stroke-linecap:butt;stroke-linejoin:miter;stroke-opacity:1" />
<path class="bond-40 atom-40 atom-41" d="M 405.4,106.9 L 396.2,103.4" style="fill:none;fill-rule:evenodd;stroke:#FF0000;stroke-width:2.0px;stroke-linecap:butt;stroke-linejoin:miter;stroke-opacity:1" />
<path class="bond-40 atom-40 atom-41" d="M 413.4,113.5 L 404.2,110.0" style="fill:none;fill-rule:evenodd;stroke:#000000;stroke-width:2.0px;stroke-linecap:butt;stroke-linejoin:miter;stroke-opacity:1" />
<path class="bond-40 atom-40 atom-41" d="M 404.2,110.0 L 395.0,106.6" style="fill:none;fill-rule:evenodd;stroke:#FF0000;stroke-width:2.0px;stroke-linecap:butt;stroke-linejoin:miter;stroke-opacity:1" />
<path class="bond-41 atom-40 atom-42" d="M 413.0,111.5 L 416.7,133.7" style="fill:none;fill-rule:evenodd;stroke:#000000;stroke-width:2.0px;stroke-linecap:butt;stroke-linejoin:miter;stroke-opacity:1" />
<path class="bond-42 atom-42 atom-43" d="M 416.7,133.7 L 402.7,151.3" style="fill:none;fill-rule:evenodd;stroke:#000000;stroke-width:2.0px;stroke-linecap:butt;stroke-linejoin:miter;stroke-opacity:1" />
<path class="bond-43 atom-43 atom-44" d="M 402.7,151.3 L 380.3,152.7" style="fill:none;fill-rule:evenodd;stroke:#000000;stroke-width:2.0px;stroke-linecap:butt;stroke-linejoin:miter;stroke-opacity:1" />
<path class="bond-44 atom-44 atom-45" d="M 380.3,152.7 L 375.4,145.3" style="fill:none;fill-rule:evenodd;stroke:#000000;stroke-width:2.0px;stroke-linecap:butt;stroke-linejoin:miter;stroke-opacity:1" />
<path class="bond-44 atom-44 atom-45" d="M 375.4,145.3 L 370.6,138.0" style="fill:none;fill-rule:evenodd;stroke:#FF0000;stroke-width:2.0px;stroke-linecap:butt;stroke-linejoin:miter;stroke-opacity:1" />
<path class="bond-45 atom-19 atom-46" d="M 275.5,135.5 L 270.6,128.0" style="fill:none;fill-rule:evenodd;stroke:#0000FF;stroke-width:2.0px;stroke-linecap:butt;stroke-linejoin:miter;stroke-opacity:1" />
<path class="bond-45 atom-19 atom-46" d="M 270.6,128.0 L 265.7,120.6" style="fill:none;fill-rule:evenodd;stroke:#000000;stroke-width:2.0px;stroke-linecap:butt;stroke-linejoin:miter;stroke-opacity:1" />
<path class="bond-46 atom-46 atom-47" d="M 265.7,120.6 L 243.2,122.0" style="fill:none;fill-rule:evenodd;stroke:#000000;stroke-width:2.0px;stroke-linecap:butt;stroke-linejoin:miter;stroke-opacity:1" />
<path class="bond-47 atom-12 atom-48" d="M 163.5,107.3 L 141.0,108.7" style="fill:none;fill-rule:evenodd;stroke:#000000;stroke-width:2.0px;stroke-linecap:butt;stroke-linejoin:miter;stroke-opacity:1" />
<path class="bond-47 atom-12 atom-48" d="M 161.3,104.1 L 142.8,105.2" style="fill:none;fill-rule:evenodd;stroke:#000000;stroke-width:2.0px;stroke-linecap:butt;stroke-linejoin:miter;stroke-opacity:1" />
<path class="bond-48 atom-48 atom-49" d="M 141.0,108.7 L 127.0,126.3" style="fill:none;fill-rule:evenodd;stroke:#000000;stroke-width:2.0px;stroke-linecap:butt;stroke-linejoin:miter;stroke-opacity:1" />
<path class="bond-49 atom-49 atom-50" d="M 125.1,125.6 L 127.7,135.0" style="fill:none;fill-rule:evenodd;stroke:#000000;stroke-width:2.0px;stroke-linecap:butt;stroke-linejoin:miter;stroke-opacity:1" />
<path class="bond-49 atom-49 atom-50" d="M 127.7,135.0 L 130.3,144.4" style="fill:none;fill-rule:evenodd;stroke:#FF0000;stroke-width:2.0px;stroke-linecap:butt;stroke-linejoin:miter;stroke-opacity:1" />
<path class="bond-49 atom-49 atom-50" d="M 128.3,124.7 L 130.9,134.1" style="fill:none;fill-rule:evenodd;stroke:#000000;stroke-width:2.0px;stroke-linecap:butt;stroke-linejoin:miter;stroke-opacity:1" />
<path class="bond-49 atom-49 atom-50" d="M 130.9,134.1 L 133.6,143.5" style="fill:none;fill-rule:evenodd;stroke:#FF0000;stroke-width:2.0px;stroke-linecap:butt;stroke-linejoin:miter;stroke-opacity:1" />
<path class="bond-50 atom-4 atom-51" d="M 87.2,130.8 L 88.6,153.3" style="fill:none;fill-rule:evenodd;stroke:#000000;stroke-width:2.0px;stroke-linecap:butt;stroke-linejoin:miter;stroke-opacity:1" />
<path class="bond-51 atom-51 atom-52" d="M 86.9,154.3 L 95.6,158.7" style="fill:none;fill-rule:evenodd;stroke:#000000;stroke-width:2.0px;stroke-linecap:butt;stroke-linejoin:miter;stroke-opacity:1" />
<path class="bond-51 atom-51 atom-52" d="M 95.6,158.7 L 104.3,163.0" style="fill:none;fill-rule:evenodd;stroke:#FF0000;stroke-width:2.0px;stroke-linecap:butt;stroke-linejoin:miter;stroke-opacity:1" />
<path class="bond-51 atom-51 atom-52" d="M 88.4,151.3 L 97.1,155.6" style="fill:none;fill-rule:evenodd;stroke:#000000;stroke-width:2.0px;stroke-linecap:butt;stroke-linejoin:miter;stroke-opacity:1" />
<path class="bond-51 atom-51 atom-52" d="M 97.1,155.6 L 105.8,160.0" style="fill:none;fill-rule:evenodd;stroke:#FF0000;stroke-width:2.0px;stroke-linecap:butt;stroke-linejoin:miter;stroke-opacity:1" />
<path class="bond-52 atom-51 atom-53" d="M 88.6,153.3 L 80.8,158.4" style="fill:none;fill-rule:evenodd;stroke:#000000;stroke-width:2.0px;stroke-linecap:butt;stroke-linejoin:miter;stroke-opacity:1" />
<path class="bond-52 atom-51 atom-53" d="M 80.8,158.4 L 73.0,163.6" style="fill:none;fill-rule:evenodd;stroke:#0000FF;stroke-width:2.0px;stroke-linecap:butt;stroke-linejoin:miter;stroke-opacity:1" />
<path class="bond-53 atom-53 atom-1" d="M 66.6,164.1 L 58.2,159.9" style="fill:none;fill-rule:evenodd;stroke:#0000FF;stroke-width:2.0px;stroke-linecap:butt;stroke-linejoin:miter;stroke-opacity:1" />
<path class="bond-53 atom-53 atom-1" d="M 58.2,159.9 L 49.7,155.6" style="fill:none;fill-rule:evenodd;stroke:#000000;stroke-width:2.0px;stroke-linecap:butt;stroke-linejoin:miter;stroke-opacity:1" />
<path class="bond-54 atom-49 atom-5" d="M 127.0,126.3 L 118.1,122.9" style="fill:none;fill-rule:evenodd;stroke:#000000;stroke-width:2.0px;stroke-linecap:butt;stroke-linejoin:miter;stroke-opacity:1" />
<path class="bond-54 atom-49 atom-5" d="M 118.1,122.9 L 109.1,119.6" style="fill:none;fill-rule:evenodd;stroke:#0000FF;stroke-width:2.0px;stroke-linecap:butt;stroke-linejoin:miter;stroke-opacity:1" />
<path class="bond-55 atom-48 atom-8" d="M 141.0,108.7 L 128.6,89.9" style="fill:none;fill-rule:evenodd;stroke:#000000;stroke-width:2.0px;stroke-linecap:butt;stroke-linejoin:miter;stroke-opacity:1" />
<path class="bond-56 atom-47 atom-16" d="M 243.2,122.0 L 239.2,130.1" style="fill:none;fill-rule:evenodd;stroke:#000000;stroke-width:2.0px;stroke-linecap:butt;stroke-linejoin:miter;stroke-opacity:1" />
<path class="bond-56 atom-47 atom-16" d="M 239.2,130.1 L 235.1,138.2" style="fill:none;fill-rule:evenodd;stroke:#0000FF;stroke-width:2.0px;stroke-linecap:butt;stroke-linejoin:miter;stroke-opacity:1" />
<path class="bond-57 atom-44 atom-24" d="M 380.3,152.7 L 370.2,172.8" style="fill:none;fill-rule:evenodd;stroke:#000000;stroke-width:2.0px;stroke-linecap:butt;stroke-linejoin:miter;stroke-opacity:1" />
<path class="bond-57 atom-44 atom-24" d="M 382.4,155.9 L 374.1,172.6" style="fill:none;fill-rule:evenodd;stroke:#000000;stroke-width:2.0px;stroke-linecap:butt;stroke-linejoin:miter;stroke-opacity:1" />
<path class="bond-58 atom-43 atom-27" d="M 402.7,151.3 L 415.1,170.1" style="fill:none;fill-rule:evenodd;stroke:#000000;stroke-width:2.0px;stroke-linecap:butt;stroke-linejoin:miter;stroke-opacity:1" />
<path class="bond-58 atom-43 atom-27" d="M 401.0,154.8 L 411.2,170.3" style="fill:none;fill-rule:evenodd;stroke:#000000;stroke-width:2.0px;stroke-linecap:butt;stroke-linejoin:miter;stroke-opacity:1" />
<path class="bond-59 atom-42 atom-29" d="M 416.7,133.7 L 437.8,141.6" style="fill:none;fill-rule:evenodd;stroke:#000000;stroke-width:2.0px;stroke-linecap:butt;stroke-linejoin:miter;stroke-opacity:1" />
<path class="bond-59 atom-42 atom-29" d="M 417.8,137.7 L 434.3,143.9" style="fill:none;fill-rule:evenodd;stroke:#000000;stroke-width:2.0px;stroke-linecap:butt;stroke-linejoin:miter;stroke-opacity:1" />
<path class="bond-60 atom-38 atom-33" d="M 507.2,84.4 L 489.9,98.7" style="fill:none;fill-rule:evenodd;stroke:#000000;stroke-width:2.0px;stroke-linecap:butt;stroke-linejoin:miter;stroke-opacity:1" />
<path d="M 49.6,154.5 L 49.7,155.6 L 50.1,155.8" style="fill:none;stroke:#000000;stroke-width:2.0px;stroke-linecap:butt;stroke-linejoin:miter;stroke-miterlimit:10;stroke-opacity:1;" />
<path d="M 48.4,134.3 L 48.3,133.2 L 49.3,132.6" style="fill:none;stroke:#000000;stroke-width:2.0px;stroke-linecap:butt;stroke-linejoin:miter;stroke-miterlimit:10;stroke-opacity:1;" />
<path d="M 66.1,121.4 L 67.1,120.8 L 68.1,121.3" style="fill:none;stroke:#000000;stroke-width:2.0px;stroke-linecap:butt;stroke-linejoin:miter;stroke-miterlimit:10;stroke-opacity:1;" />
<path d="M 86.2,130.3 L 87.2,130.8 L 87.3,131.9" style="fill:none;stroke:#000000;stroke-width:2.0px;stroke-linecap:butt;stroke-linejoin:miter;stroke-miterlimit:10;stroke-opacity:1;" />
<path d="M 106.9,96.4 L 106.9,95.9 L 108.0,95.6" style="fill:none;stroke:#000000;stroke-width:2.0px;stroke-linecap:butt;stroke-linejoin:miter;stroke-miterlimit:10;stroke-opacity:1;" />
<path d="M 138.2,70.8 L 138.7,69.8 L 139.8,69.7" style="fill:none;stroke:#000000;stroke-width:2.0px;stroke-linecap:butt;stroke-linejoin:miter;stroke-miterlimit:10;stroke-opacity:1;" />
<path d="M 160.0,68.5 L 161.1,68.4 L 161.7,69.4" style="fill:none;stroke:#000000;stroke-width:2.0px;stroke-linecap:butt;stroke-linejoin:miter;stroke-miterlimit:10;stroke-opacity:1;" />
<path d="M 172.9,86.3 L 173.5,87.2 L 173.0,88.2" style="fill:none;stroke:#000000;stroke-width:2.0px;stroke-linecap:butt;stroke-linejoin:miter;stroke-miterlimit:10;stroke-opacity:1;" />
<path d="M 197.9,124.7 L 198.3,124.7 L 198.9,125.7" style="fill:none;stroke:#000000;stroke-width:2.0px;stroke-linecap:butt;stroke-linejoin:miter;stroke-miterlimit:10;stroke-opacity:1;" />
<path d="M 210.1,142.5 L 210.7,143.5 L 211.2,143.4" style="fill:none;stroke:#000000;stroke-width:2.0px;stroke-linecap:butt;stroke-linejoin:miter;stroke-miterlimit:10;stroke-opacity:1;" />
<path d="M 245.3,160.5 L 245.6,160.9 L 246.7,160.8" style="fill:none;stroke:#000000;stroke-width:2.0px;stroke-linecap:butt;stroke-linejoin:miter;stroke-miterlimit:10;stroke-opacity:1;" />
<path d="M 266.9,159.6 L 268.0,159.5 L 268.2,159.1" style="fill:none;stroke:#000000;stroke-width:2.0px;stroke-linecap:butt;stroke-linejoin:miter;stroke-miterlimit:10;stroke-opacity:1;" />
<path d="M 300.0,138.0 L 300.5,138.0 L 301.1,139.0" style="fill:none;stroke:#000000;stroke-width:2.0px;stroke-linecap:butt;stroke-linejoin:miter;stroke-miterlimit:10;stroke-opacity:1;" />
<path d="M 312.3,155.8 L 312.9,156.8 L 313.4,156.7" style="fill:none;stroke:#000000;stroke-width:2.0px;stroke-linecap:butt;stroke-linejoin:miter;stroke-miterlimit:10;stroke-opacity:1;" />
<path d="M 347.5,173.8 L 347.8,174.2 L 348.9,174.1" style="fill:none;stroke:#000000;stroke-width:2.0px;stroke-linecap:butt;stroke-linejoin:miter;stroke-miterlimit:10;stroke-opacity:1;" />
<path d="M 382.0,190.6 L 382.6,191.6 L 383.8,191.5" style="fill:none;stroke:#000000;stroke-width:2.0px;stroke-linecap:butt;stroke-linejoin:miter;stroke-miterlimit:10;stroke-opacity:1;" />
<path d="M 404.0,190.3 L 405.1,190.2 L 405.6,189.2" style="fill:none;stroke:#000000;stroke-width:2.0px;stroke-linecap:butt;stroke-linejoin:miter;stroke-miterlimit:10;stroke-opacity:1;" />
<path d="M 467.9,91.5 L 468.8,90.8 L 469.9,91.2" style="fill:none;stroke:#000000;stroke-width:2.0px;stroke-linecap:butt;stroke-linejoin:miter;stroke-miterlimit:10;stroke-opacity:1;" />
<path d="M 493.4,119.8 L 493.6,120.9 L 494.6,121.3" style="fill:none;stroke:#000000;stroke-width:2.0px;stroke-linecap:butt;stroke-linejoin:miter;stroke-miterlimit:10;stroke-opacity:1;" />
<path d="M 513.6,128.4 L 514.6,128.8 L 515.5,128.0" style="fill:none;stroke:#000000;stroke-width:2.0px;stroke-linecap:butt;stroke-linejoin:miter;stroke-miterlimit:10;stroke-opacity:1;" />
<path d="M 531.1,115.2 L 532.0,114.5 L 531.8,113.4" style="fill:none;stroke:#000000;stroke-width:2.0px;stroke-linecap:butt;stroke-linejoin:miter;stroke-miterlimit:10;stroke-opacity:1;" />
<path d="M 528.5,93.4 L 528.3,92.3 L 527.2,91.9" style="fill:none;stroke:#000000;stroke-width:2.0px;stroke-linecap:butt;stroke-linejoin:miter;stroke-miterlimit:10;stroke-opacity:1;" />
<path d="M 508.3,84.8 L 507.2,84.4 L 506.4,85.1" style="fill:none;stroke:#000000;stroke-width:2.0px;stroke-linecap:butt;stroke-linejoin:miter;stroke-miterlimit:10;stroke-opacity:1;" />
<path d="M 413.4,111.2 L 413.0,111.5 L 413.2,112.6" style="fill:none;stroke:#000000;stroke-width:2.0px;stroke-linecap:butt;stroke-linejoin:miter;stroke-miterlimit:10;stroke-opacity:1;" />
<path d="M 265.9,121.0 L 265.7,120.6 L 264.6,120.7" style="fill:none;stroke:#000000;stroke-width:2.0px;stroke-linecap:butt;stroke-linejoin:miter;stroke-miterlimit:10;stroke-opacity:1;" />
<path d="M 244.3,121.9 L 243.2,122.0 L 243.0,122.4" style="fill:none;stroke:#000000;stroke-width:2.0px;stroke-linecap:butt;stroke-linejoin:miter;stroke-miterlimit:10;stroke-opacity:1;" />
<path d="M 127.7,125.4 L 127.0,126.3 L 126.6,126.1" style="fill:none;stroke:#000000;stroke-width:2.0px;stroke-linecap:butt;stroke-linejoin:miter;stroke-miterlimit:10;stroke-opacity:1;" />
<path d="M 88.5,152.1 L 88.6,153.3 L 88.2,153.5" style="fill:none;stroke:#000000;stroke-width:2.0px;stroke-linecap:butt;stroke-linejoin:miter;stroke-miterlimit:10;stroke-opacity:1;" />
<path class="atom-0" d="M 28.0 168.0 Q 28.0 166.5, 28.8 165.7 Q 29.5 164.8, 30.9 164.8 Q 32.3 164.8, 33.1 165.7 Q 33.8 166.5, 33.8 168.0 Q 33.8 169.6, 33.1 170.5 Q 32.3 171.3, 30.9 171.3 Q 29.5 171.3, 28.8 170.5 Q 28.0 169.6, 28.0 168.0 M 30.9 170.6 Q 31.9 170.6, 32.4 170.0 Q 32.9 169.3, 32.9 168.0 Q 32.9 166.8, 32.4 166.2 Q 31.9 165.5, 30.9 165.5 Q 30.0 165.5, 29.4 166.2 Q 28.9 166.8, 28.9 168.0 Q 28.9 169.3, 29.4 170.0 Q 30.0 170.6, 30.9 170.6 " fill="#FF0000" />
<path class="atom-5" d="M 104.5 115.2 L 106.6 118.6 Q 106.8 118.9, 107.2 119.5 Q 107.5 120.1, 107.5 120.2 L 107.5 115.2 L 108.4 115.2 L 108.4 121.6 L 107.5 121.6 L 105.3 117.9 Q 105.0 117.5, 104.7 117.0 Q 104.4 116.5, 104.4 116.3 L 104.4 121.6 L 103.5 121.6 L 103.5 115.2 L 104.5 115.2 " fill="#0000FF" />
<path class="atom-7" d="M 86.4 81.9 Q 86.4 80.4, 87.2 79.6 Q 87.9 78.7, 89.3 78.7 Q 90.8 78.7, 91.5 79.6 Q 92.3 80.4, 92.3 81.9 Q 92.3 83.5, 91.5 84.4 Q 90.7 85.2, 89.3 85.2 Q 87.9 85.2, 87.2 84.4 Q 86.4 83.5, 86.4 81.9 M 89.3 84.5 Q 90.3 84.5, 90.8 83.9 Q 91.4 83.2, 91.4 81.9 Q 91.4 80.7, 90.8 80.1 Q 90.3 79.4, 89.3 79.4 Q 88.4 79.4, 87.8 80.1 Q 87.3 80.7, 87.3 81.9 Q 87.3 83.2, 87.8 83.9 Q 88.4 84.5, 89.3 84.5 " fill="#FF0000" />
<path class="atom-13" d="M 173.0 126.1 Q 173.0 124.6, 173.7 123.7 Q 174.5 122.9, 175.9 122.9 Q 177.3 122.9, 178.0 123.7 Q 178.8 124.6, 178.8 126.1 Q 178.8 127.6, 178.0 128.5 Q 177.3 129.4, 175.9 129.4 Q 174.5 129.4, 173.7 128.5 Q 173.0 127.7, 173.0 126.1 M 175.9 128.7 Q 176.9 128.7, 177.4 128.0 Q 177.9 127.4, 177.9 126.1 Q 177.9 124.9, 177.4 124.2 Q 176.9 123.6, 175.9 123.6 Q 174.9 123.6, 174.4 124.2 Q 173.9 124.8, 173.9 126.1 Q 173.9 127.4, 174.4 128.0 Q 174.9 128.7, 175.9 128.7 " fill="#FF0000" />
<path class="atom-16" d="M 231.8 138.9 L 233.9 142.3 Q 234.1 142.6, 234.4 143.2 Q 234.7 143.8, 234.8 143.9 L 234.8 138.9 L 235.6 138.9 L 235.6 145.3 L 234.7 145.3 L 232.5 141.6 Q 232.2 141.2, 231.9 140.7 Q 231.7 140.2, 231.6 140.0 L 231.6 145.3 L 230.8 145.3 L 230.8 138.9 L 231.8 138.9 " fill="#0000FF" />
<path class="atom-19" d="M 276.7 136.2 L 278.8 139.6 Q 279.0 139.9, 279.3 140.5 Q 279.6 141.1, 279.7 141.1 L 279.7 136.2 L 280.5 136.2 L 280.5 142.6 L 279.6 142.6 L 277.4 138.9 Q 277.1 138.4, 276.8 137.9 Q 276.6 137.5, 276.5 137.3 L 276.5 142.6 L 275.7 142.6 L 275.7 136.2 L 276.7 136.2 " fill="#0000FF" />
<path class="atom-22" d="M 334.0 152.2 L 336.1 155.6 Q 336.3 155.9, 336.6 156.5 Q 336.9 157.1, 337.0 157.2 L 337.0 152.2 L 337.8 152.2 L 337.8 158.6 L 336.9 158.6 L 334.7 154.9 Q 334.4 154.5, 334.1 154.0 Q 333.9 153.5, 333.8 153.3 L 333.8 158.6 L 333.0 158.6 L 333.0 152.2 L 334.0 152.2 " fill="#0000FF" />
<path class="atom-22" d="M 339.0 152.2 L 339.9 152.2 L 339.9 154.9 L 343.2 154.9 L 343.2 152.2 L 344.0 152.2 L 344.0 158.6 L 343.2 158.6 L 343.2 155.6 L 339.9 155.6 L 339.9 158.6 L 339.0 158.6 L 339.0 152.2 " fill="#0000FF" />
<path class="atom-28" d="M 435.4 160.9 L 437.5 164.3 Q 437.7 164.6, 438.0 165.2 Q 438.4 165.8, 438.4 165.8 L 438.4 160.9 L 439.2 160.9 L 439.2 167.2 L 438.4 167.2 L 436.1 163.6 Q 435.9 163.1, 435.6 162.6 Q 435.3 162.1, 435.2 162.0 L 435.2 167.2 L 434.4 167.2 L 434.4 160.9 L 435.4 160.9 " fill="#0000FF" />
<path class="atom-28" d="M 440.5 160.9 L 441.3 160.9 L 441.3 163.6 L 444.6 163.6 L 444.6 160.9 L 445.4 160.9 L 445.4 167.2 L 444.6 167.2 L 444.6 164.3 L 441.3 164.3 L 441.3 167.2 L 440.5 167.2 L 440.5 160.9 " fill="#0000FF" />
<path class="atom-30" d="M 453.7 124.1 L 455.8 127.5 Q 456.0 127.8, 456.4 128.4 Q 456.7 129.0, 456.7 129.1 L 456.7 124.1 L 457.6 124.1 L 457.6 130.5 L 456.7 130.5 L 454.5 126.8 Q 454.2 126.4, 453.9 125.9 Q 453.7 125.4, 453.6 125.2 L 453.6 130.5 L 452.7 130.5 L 452.7 124.1 L 453.7 124.1 " fill="#0000FF" />
<path class="atom-30" d="M 458.8 124.1 L 459.7 124.1 L 459.7 126.8 L 462.9 126.8 L 462.9 124.1 L 463.8 124.1 L 463.8 130.5 L 462.9 130.5 L 462.9 127.5 L 459.7 127.5 L 459.7 130.5 L 458.8 130.5 L 458.8 124.1 " fill="#0000FF" />
<path class="atom-39" d="M 429.0 94.0 L 431.1 97.4 Q 431.3 97.8, 431.6 98.4 Q 431.9 99.0, 432.0 99.0 L 432.0 94.0 L 432.8 94.0 L 432.8 100.4 L 431.9 100.4 L 429.7 96.7 Q 429.4 96.3, 429.2 95.8 Q 428.9 95.3, 428.8 95.2 L 428.8 100.4 L 428.0 100.4 L 428.0 94.0 L 429.0 94.0 " fill="#0000FF" />
<path class="atom-41" d="M 389.0 103.7 Q 389.0 102.1, 389.8 101.3 Q 390.6 100.4, 392.0 100.4 Q 393.4 100.4, 394.1 101.3 Q 394.9 102.1, 394.9 103.7 Q 394.9 105.2, 394.1 106.1 Q 393.4 107.0, 392.0 107.0 Q 390.6 107.0, 389.8 106.1 Q 389.0 105.2, 389.0 103.7 M 392.0 106.2 Q 392.9 106.2, 393.5 105.6 Q 394.0 104.9, 394.0 103.7 Q 394.0 102.4, 393.5 101.8 Q 392.9 101.1, 392.0 101.1 Q 391.0 101.1, 390.5 101.8 Q 389.9 102.4, 389.9 103.7 Q 389.9 105.0, 390.5 105.6 Q 391.0 106.2, 392.0 106.2 " fill="#FF0000" />
<path class="atom-45" d="M 358.7 130.8 L 359.5 130.8 L 359.5 133.5 L 362.8 133.5 L 362.8 130.8 L 363.6 130.8 L 363.6 137.1 L 362.8 137.1 L 362.8 134.2 L 359.5 134.2 L 359.5 137.1 L 358.7 137.1 L 358.7 130.8 " fill="#FF0000" />
<path class="atom-45" d="M 365.0 133.9 Q 365.0 132.4, 365.7 131.6 Q 366.5 130.7, 367.9 130.7 Q 369.3 130.7, 370.0 131.6 Q 370.8 132.4, 370.8 133.9 Q 370.8 135.5, 370.0 136.4 Q 369.3 137.2, 367.9 137.2 Q 366.5 137.2, 365.7 136.4 Q 365.0 135.5, 365.0 133.9 M 367.9 136.5 Q 368.8 136.5, 369.4 135.9 Q 369.9 135.2, 369.9 133.9 Q 369.9 132.7, 369.4 132.1 Q 368.8 131.4, 367.9 131.4 Q 366.9 131.4, 366.4 132.0 Q 365.9 132.7, 365.9 133.9 Q 365.9 135.2, 366.4 135.9 Q 366.9 136.5, 367.9 136.5 " fill="#FF0000" />
<path class="atom-50" d="M 130.1 148.0 Q 130.1 146.4, 130.9 145.6 Q 131.6 144.7, 133.0 144.7 Q 134.4 144.7, 135.2 145.6 Q 135.9 146.4, 135.9 148.0 Q 135.9 149.5, 135.2 150.4 Q 134.4 151.3, 133.0 151.3 Q 131.6 151.3, 130.9 150.4 Q 130.1 149.5, 130.1 148.0 M 133.0 150.6 Q 134.0 150.6, 134.5 149.9 Q 135.0 149.3, 135.0 148.0 Q 135.0 146.7, 134.5 146.1 Q 134.0 145.5, 133.0 145.5 Q 132.1 145.5, 131.5 146.1 Q 131.0 146.7, 131.0 148.0 Q 131.0 149.3, 131.5 149.9 Q 132.1 150.6, 133.0 150.6 " fill="#FF0000" />
<path class="atom-52" d="M 105.8 163.3 Q 105.8 161.8, 106.5 160.9 Q 107.3 160.1, 108.7 160.1 Q 110.1 160.1, 110.9 160.9 Q 111.6 161.8, 111.6 163.3 Q 111.6 164.9, 110.8 165.7 Q 110.1 166.6, 108.7 166.6 Q 107.3 166.6, 106.5 165.7 Q 105.8 164.9, 105.8 163.3 M 108.7 165.9 Q 109.7 165.9, 110.2 165.3 Q 110.7 164.6, 110.7 163.3 Q 110.7 162.1, 110.2 161.4 Q 109.7 160.8, 108.7 160.8 Q 107.7 160.8, 107.2 161.4 Q 106.7 162.1, 106.7 163.3 Q 106.7 164.6, 107.2 165.3 Q 107.7 165.9, 108.7 165.9 " fill="#FF0000" />
<path class="atom-53" d="M 68.4 162.5 L 70.5 165.9 Q 70.7 166.2, 71.0 166.8 Q 71.4 167.4, 71.4 167.4 L 71.4 162.5 L 72.2 162.5 L 72.2 168.8 L 71.3 168.8 L 69.1 165.2 Q 68.8 164.7, 68.6 164.2 Q 68.3 163.7, 68.2 163.6 L 68.2 168.8 L 67.4 168.8 L 67.4 162.5 L 68.4 162.5 " fill="#0000FF" />
<path class="atom-53" d="M 67.3 169.5 L 68.2 169.5 L 68.2 172.2 L 71.4 172.2 L 71.4 169.5 L 72.3 169.5 L 72.3 175.9 L 71.4 175.9 L 71.4 172.9 L 68.2 172.9 L 68.2 175.9 L 67.3 175.9 L 67.3 169.5 " fill="#0000FF" />
</svg>