<?xml version='1.0' encoding='utf-8'?>
<svg xmlns="http://www.w3.org/2000/svg" baseProfile="full" height="260px" version="1.1" viewBox="0 0 560 260" width="560px" xml:space="preserve">

<path class="bond-0 atom-0 atom-1" d="M 248.4,76.7 L 230.6,64.5" style="fill:none;fill-rule:evenodd;stroke:#000000;stroke-width:2.0px;stroke-linecap:butt;stroke-linejoin:miter;stroke-opacity:1" />
<path class="bond-1 atom-1 atom-2" d="M 230.6,64.5 L 230.4,55.7" style="fill:none;fill-rule:evenodd;stroke:#000000;stroke-width:2.0px;stroke-linecap:butt;stroke-linejoin:miter;stroke-opacity:1" />
<path class="bond-1 atom-1 atom-2" d="M 230.4,55.7 L 230.1,46.8" style="fill:none;fill-rule:evenodd;stroke:#0000FF;stroke-width:2.0px;stroke-linecap:butt;stroke-linejoin:miter;stroke-opacity:1" />
<path class="bond-2 atom-2 atom-3" d="M 227.0,42.2 L 218.2,39.6" style="fill:none;fill-rule:evenodd;stroke:#0000FF;stroke-width:2.0px;stroke-linecap:butt;stroke-linejoin:miter;stroke-opacity:1" />
<path class="bond-2 atom-2 atom-3" d="M 218.2,39.6 L 209.3,37.0" style="fill:none;fill-rule:evenodd;stroke:#000000;stroke-width:2.0px;stroke-linecap:butt;stroke-linejoin:miter;stroke-opacity:1" />
<path class="bond-2 atom-2 atom-3" d="M 226.1,45.3 L 218.4,43.0" style="fill:none;fill-rule:evenodd;stroke:#0000FF;stroke-width:2.0px;stroke-linecap:butt;stroke-linejoin:miter;stroke-opacity:1" />
<path class="bond-2 atom-2 atom-3" d="M 218.4,43.0 L 210.7,40.8" style="fill:none;fill-rule:evenodd;stroke:#000000;stroke-width:2.0px;stroke-linecap:butt;stroke-linejoin:miter;stroke-opacity:1" />
<path class="bond-3 atom-3 atom-4" d="M 209.3,37.0 L 204.6,44.0" style="fill:none;fill-rule:evenodd;stroke:#000000;stroke-width:2.0px;stroke-linecap:butt;stroke-linejoin:miter;stroke-opacity:1" />
<path class="bond-3 atom-3 atom-4" d="M 204.6,44.0 L 199.8,51.0" style="fill:none;fill-rule:evenodd;stroke:#CCCC00;stroke-width:2.0px;stroke-linecap:butt;stroke-linejoin:miter;stroke-opacity:1" />
<path class="bond-4 atom-4 atom-5" d="M 199.9,58.2 L 205.1,65.0" style="fill:none;fill-rule:evenodd;stroke:#CCCC00;stroke-width:2.0px;stroke-linecap:butt;stroke-linejoin:miter;stroke-opacity:1" />
<path class="bond-4 atom-4 atom-5" d="M 205.1,65.0 L 210.4,71.8" style="fill:none;fill-rule:evenodd;stroke:#000000;stroke-width:2.0px;stroke-linecap:butt;stroke-linejoin:miter;stroke-opacity:1" />
<path class="bond-5 atom-5 atom-6" d="M 210.4,71.8 L 204.3,92.4" style="fill:none;fill-rule:evenodd;stroke:#000000;stroke-width:2.0px;stroke-linecap:butt;stroke-linejoin:miter;stroke-opacity:1" />
<path class="bond-6 atom-6 atom-7" d="M 204.3,92.4 L 183.5,97.5" style="fill:none;fill-rule:evenodd;stroke:#000000;stroke-width:2.0px;stroke-linecap:butt;stroke-linejoin:miter;stroke-opacity:1" />
<path class="bond-7 atom-7 atom-8" d="M 183.5,97.5 L 177.4,118.1" style="fill:none;fill-rule:evenodd;stroke:#000000;stroke-width:2.0px;stroke-linecap:butt;stroke-linejoin:miter;stroke-opacity:1" />
<path class="bond-7 atom-7 atom-8" d="M 186.0,100.2 L 181.0,117.3" style="fill:none;fill-rule:evenodd;stroke:#000000;stroke-width:2.0px;stroke-linecap:butt;stroke-linejoin:miter;stroke-opacity:1" />
<path class="bond-8 atom-8 atom-9" d="M 177.4,118.1 L 192.3,133.7" style="fill:none;fill-rule:evenodd;stroke:#000000;stroke-width:2.0px;stroke-linecap:butt;stroke-linejoin:miter;stroke-opacity:1" />
<path class="bond-9 atom-9 atom-10" d="M 192.3,133.7 L 186.2,154.3" style="fill:none;fill-rule:evenodd;stroke:#000000;stroke-width:2.0px;stroke-linecap:butt;stroke-linejoin:miter;stroke-opacity:1" />
<path class="bond-10 atom-10 atom-11" d="M 186.2,154.3 L 177.3,156.5" style="fill:none;fill-rule:evenodd;stroke:#000000;stroke-width:2.0px;stroke-linecap:butt;stroke-linejoin:miter;stroke-opacity:1" />
<path class="bond-10 atom-10 atom-11" d="M 177.3,156.5 L 168.4,158.7" style="fill:none;fill-rule:evenodd;stroke:#0000FF;stroke-width:2.0px;stroke-linecap:butt;stroke-linejoin:miter;stroke-opacity:1" />
<path class="bond-11 atom-11 atom-12" d="M 164.3,163.2 L 161.8,171.6" style="fill:none;fill-rule:evenodd;stroke:#0000FF;stroke-width:2.0px;stroke-linecap:butt;stroke-linejoin:miter;stroke-opacity:1" />
<path class="bond-11 atom-11 atom-12" d="M 161.8,171.6 L 159.3,180.0" style="fill:none;fill-rule:evenodd;stroke:#000000;stroke-width:2.0px;stroke-linecap:butt;stroke-linejoin:miter;stroke-opacity:1" />
<path class="bond-12 atom-12 atom-13" d="M 157.5,180.5 L 163.5,186.8" style="fill:none;fill-rule:evenodd;stroke:#000000;stroke-width:2.0px;stroke-linecap:butt;stroke-linejoin:miter;stroke-opacity:1" />
<path class="bond-12 atom-12 atom-13" d="M 163.5,186.8 L 169.5,193.0" style="fill:none;fill-rule:evenodd;stroke:#FF0000;stroke-width:2.0px;stroke-linecap:butt;stroke-linejoin:miter;stroke-opacity:1" />
<path class="bond-12 atom-12 atom-13" d="M 159.8,178.3 L 165.8,184.5" style="fill:none;fill-rule:evenodd;stroke:#000000;stroke-width:2.0px;stroke-linecap:butt;stroke-linejoin:miter;stroke-opacity:1" />
<path class="bond-12 atom-12 atom-13" d="M 165.8,184.5 L 171.8,190.8" style="fill:none;fill-rule:evenodd;stroke:#FF0000;stroke-width:2.0px;stroke-linecap:butt;stroke-linejoin:miter;stroke-opacity:1" />
<path class="bond-13 atom-14 atom-12" d="M 142.0,184.6 L 141.8,184.0" style="fill:none;fill-rule:evenodd;stroke:#000000;stroke-width:1.0px;stroke-linecap:butt;stroke-linejoin:miter;stroke-opacity:1" />
<path class="bond-13 atom-14 atom-12" d="M 145.5,184.1 L 145.2,182.8" style="fill:none;fill-rule:evenodd;stroke:#000000;stroke-width:1.0px;stroke-linecap:butt;stroke-linejoin:miter;stroke-opacity:1" />
<path class="bond-13 atom-14 atom-12" d="M 149.1,183.5 L 148.6,181.7" style="fill:none;fill-rule:evenodd;stroke:#000000;stroke-width:1.0px;stroke-linecap:butt;stroke-linejoin:miter;stroke-opacity:1" />
<path class="bond-13 atom-14 atom-12" d="M 152.6,183.0 L 152.0,180.5" style="fill:none;fill-rule:evenodd;stroke:#000000;stroke-width:1.0px;stroke-linecap:butt;stroke-linejoin:miter;stroke-opacity:1" />
<path class="bond-13 atom-14 atom-12" d="M 156.2,182.5 L 155.4,179.3" style="fill:none;fill-rule:evenodd;stroke:#000000;stroke-width:1.0px;stroke-linecap:butt;stroke-linejoin:miter;stroke-opacity:1" />
<path class="bond-14 atom-14 atom-15" d="M 138.4,185.1 L 130.3,205.0" style="fill:none;fill-rule:evenodd;stroke:#000000;stroke-width:2.0px;stroke-linecap:butt;stroke-linejoin:miter;stroke-opacity:1" />
<path class="bond-15 atom-15 atom-16" d="M 130.3,205.0 L 108.8,203.4" style="fill:none;fill-rule:evenodd;stroke:#000000;stroke-width:2.0px;stroke-linecap:butt;stroke-linejoin:miter;stroke-opacity:1" />
<path class="bond-16 atom-16 atom-17" d="M 108.8,203.4 L 104.4,209.9 L 103.2,208.8 Z" style="fill:#000000;fill-rule:evenodd;fill-opacity:1;stroke:#000000;stroke-width:0.5px;stroke-linecap:butt;stroke-linejoin:miter;stroke-miterlimit:10;stroke-opacity:1;" />
<path class="bond-16 atom-16 atom-17" d="M 97.5,214.3 L 100.0,216.3 L 104.4,209.9 L 103.2,208.8 Z" style="fill:#FF0000;fill-rule:evenodd;fill-opacity:1;stroke:#FF0000;stroke-width:0.5px;stroke-linecap:butt;stroke-linejoin:miter;stroke-miterlimit:10;stroke-opacity:1;" />
<path class="bond-17 atom-16 atom-18" d="M 108.8,203.4 L 103.7,182.5" style="fill:none;fill-rule:evenodd;stroke:#000000;stroke-width:2.0px;stroke-linecap:butt;stroke-linejoin:miter;stroke-opacity:1" />
<path class="bond-18 atom-18 atom-19" d="M 103.7,182.5 L 111.4,177.8" style="fill:none;fill-rule:evenodd;stroke:#000000;stroke-width:2.0px;stroke-linecap:butt;stroke-linejoin:miter;stroke-opacity:1" />
<path class="bond-18 atom-18 atom-19" d="M 111.4,177.8 L 119.0,173.1" style="fill:none;fill-rule:evenodd;stroke:#0000FF;stroke-width:2.0px;stroke-linecap:butt;stroke-linejoin:miter;stroke-opacity:1" />
<path class="bond-19 atom-19 atom-20" d="M 122.3,167.5 L 123.0,158.6" style="fill:none;fill-rule:evenodd;stroke:#0000FF;stroke-width:2.0px;stroke-linecap:butt;stroke-linejoin:miter;stroke-opacity:1" />
<path class="bond-19 atom-19 atom-20" d="M 123.0,158.6 L 123.6,149.8" style="fill:none;fill-rule:evenodd;stroke:#000000;stroke-width:2.0px;stroke-linecap:butt;stroke-linejoin:miter;stroke-opacity:1" />
<path class="bond-20 atom-20 atom-21" d="M 123.5,151.6 L 131.9,147.6" style="fill:none;fill-rule:evenodd;stroke:#000000;stroke-width:2.0px;stroke-linecap:butt;stroke-linejoin:miter;stroke-opacity:1" />
<path class="bond-20 atom-20 atom-21" d="M 131.9,147.6 L 140.2,143.6" style="fill:none;fill-rule:evenodd;stroke:#FF0000;stroke-width:2.0px;stroke-linecap:butt;stroke-linejoin:miter;stroke-opacity:1" />
<path class="bond-20 atom-20 atom-21" d="M 122.1,148.7 L 130.5,144.7" style="fill:none;fill-rule:evenodd;stroke:#000000;stroke-width:2.0px;stroke-linecap:butt;stroke-linejoin:miter;stroke-opacity:1" />
<path class="bond-20 atom-20 atom-21" d="M 130.5,144.7 L 138.8,140.7" style="fill:none;fill-rule:evenodd;stroke:#FF0000;stroke-width:2.0px;stroke-linecap:butt;stroke-linejoin:miter;stroke-opacity:1" />
<path class="bond-21 atom-20 atom-22" d="M 123.6,149.8 L 105.9,137.7" style="fill:none;fill-rule:evenodd;stroke:#000000;stroke-width:2.0px;stroke-linecap:butt;stroke-linejoin:miter;stroke-opacity:1" />
<path class="bond-22 atom-22 atom-23" d="M 105.9,137.7 L 98.4,142.2 L 97.7,140.7 Z" style="fill:#000000;fill-rule:evenodd;fill-opacity:1;stroke:#000000;stroke-width:0.5px;stroke-linecap:butt;stroke-linejoin:miter;stroke-miterlimit:10;stroke-opacity:1;" />
<path class="bond-22 atom-22 atom-23" d="M 89.5,143.8 L 90.9,146.7 L 98.4,142.2 L 97.7,140.7 Z" style="fill:#0000FF;fill-rule:evenodd;fill-opacity:1;stroke:#0000FF;stroke-width:0.5px;stroke-linecap:butt;stroke-linejoin:miter;stroke-miterlimit:10;stroke-opacity:1;" />
<path class="bond-23 atom-23 atom-24" d="M 83.5,144.9 L 76.1,139.9" style="fill:none;fill-rule:evenodd;stroke:#0000FF;stroke-width:2.0px;stroke-linecap:butt;stroke-linejoin:miter;stroke-opacity:1" />
<path class="bond-23 atom-23 atom-24" d="M 76.1,139.9 L 68.8,134.9" style="fill:none;fill-rule:evenodd;stroke:#000000;stroke-width:2.0px;stroke-linecap:butt;stroke-linejoin:miter;stroke-opacity:1" />
<path class="bond-24 atom-24 atom-25" d="M 70.3,135.9 L 71.0,126.7" style="fill:none;fill-rule:evenodd;stroke:#000000;stroke-width:2.0px;stroke-linecap:butt;stroke-linejoin:miter;stroke-opacity:1" />
<path class="bond-24 atom-24 atom-25" d="M 71.0,126.7 L 71.7,117.4" style="fill:none;fill-rule:evenodd;stroke:#FF0000;stroke-width:2.0px;stroke-linecap:butt;stroke-linejoin:miter;stroke-opacity:1" />
<path class="bond-24 atom-24 atom-25" d="M 67.1,135.7 L 67.8,126.4" style="fill:none;fill-rule:evenodd;stroke:#000000;stroke-width:2.0px;stroke-linecap:butt;stroke-linejoin:miter;stroke-opacity:1" />
<path class="bond-24 atom-24 atom-25" d="M 67.8,126.4 L 68.5,117.2" style="fill:none;fill-rule:evenodd;stroke:#FF0000;stroke-width:2.0px;stroke-linecap:butt;stroke-linejoin:miter;stroke-opacity:1" />
<path class="bond-25 atom-24 atom-26" d="M 68.8,134.9 L 49.4,144.2" style="fill:none;fill-rule:evenodd;stroke:#000000;stroke-width:2.0px;stroke-linecap:butt;stroke-linejoin:miter;stroke-opacity:1" />
<path class="bond-26 atom-26 atom-27" d="M 49.4,144.2 L 51.8,152.7" style="fill:none;fill-rule:evenodd;stroke:#000000;stroke-width:2.0px;stroke-linecap:butt;stroke-linejoin:miter;stroke-opacity:1" />
<path class="bond-26 atom-26 atom-27" d="M 51.8,152.7 L 54.2,161.1" style="fill:none;fill-rule:evenodd;stroke:#33CCCC;stroke-width:2.0px;stroke-linecap:butt;stroke-linejoin:miter;stroke-opacity:1" />
<path class="bond-27 atom-26 atom-28" d="M 49.4,144.2 L 28.0,146.3" style="fill:none;fill-rule:evenodd;stroke:#000000;stroke-width:2.0px;stroke-linecap:butt;stroke-linejoin:miter;stroke-opacity:1" />
<path class="bond-28 atom-28 atom-29" d="M 28.0,146.3 L 36.8,126.7" style="fill:none;fill-rule:evenodd;stroke:#000000;stroke-width:2.0px;stroke-linecap:butt;stroke-linejoin:miter;stroke-opacity:1" />
<path class="bond-29 atom-22 atom-30" d="M 105.9,137.7 L 107.5,116.2" style="fill:none;fill-rule:evenodd;stroke:#000000;stroke-width:2.0px;stroke-linecap:butt;stroke-linejoin:miter;stroke-opacity:1" />
<path class="bond-30 atom-30 atom-31" d="M 107.5,116.2 L 86.1,114.6" style="fill:none;fill-rule:evenodd;stroke:#000000;stroke-width:2.0px;stroke-linecap:butt;stroke-linejoin:miter;stroke-opacity:1" />
<path class="bond-31 atom-30 atom-32" d="M 107.5,116.2 L 128.9,117.9" style="fill:none;fill-rule:evenodd;stroke:#000000;stroke-width:2.0px;stroke-linecap:butt;stroke-linejoin:miter;stroke-opacity:1" />
<path class="bond-32 atom-30 atom-33" d="M 107.5,116.2 L 109.1,94.8" style="fill:none;fill-rule:evenodd;stroke:#000000;stroke-width:2.0px;stroke-linecap:butt;stroke-linejoin:miter;stroke-opacity:1" />
<path class="bond-33 atom-9 atom-34" d="M 192.3,133.7 L 213.2,128.6" style="fill:none;fill-rule:evenodd;stroke:#000000;stroke-width:2.0px;stroke-linecap:butt;stroke-linejoin:miter;stroke-opacity:1" />
<path class="bond-33 atom-9 atom-34" d="M 193.3,130.1 L 210.6,125.9" style="fill:none;fill-rule:evenodd;stroke:#000000;stroke-width:2.0px;stroke-linecap:butt;stroke-linejoin:miter;stroke-opacity:1" />
<path class="bond-34 atom-34 atom-35" d="M 213.2,128.6 L 218.8,134.5" style="fill:none;fill-rule:evenodd;stroke:#000000;stroke-width:2.0px;stroke-linecap:butt;stroke-linejoin:miter;stroke-opacity:1" />
<path class="bond-34 atom-34 atom-35" d="M 218.8,134.5 L 224.5,140.5" style="fill:none;fill-rule:evenodd;stroke:#FF0000;stroke-width:2.0px;stroke-linecap:butt;stroke-linejoin:miter;stroke-opacity:1" />
<path class="bond-35 atom-35 atom-36" d="M 231.5,143.3 L 240.2,141.2" style="fill:none;fill-rule:evenodd;stroke:#FF0000;stroke-width:2.0px;stroke-linecap:butt;stroke-linejoin:miter;stroke-opacity:1" />
<path class="bond-35 atom-35 atom-36" d="M 240.2,141.2 L 248.9,139.1" style="fill:none;fill-rule:evenodd;stroke:#000000;stroke-width:2.0px;stroke-linecap:butt;stroke-linejoin:miter;stroke-opacity:1" />
<path class="bond-36 atom-36 atom-37" d="M 248.9,139.1 L 263.7,154.6" style="fill:none;fill-rule:evenodd;stroke:#000000;stroke-width:2.0px;stroke-linecap:butt;stroke-linejoin:miter;stroke-opacity:1" />
<path class="bond-37 atom-37 atom-38" d="M 263.7,154.6 L 272.7,152.4" style="fill:none;fill-rule:evenodd;stroke:#000000;stroke-width:2.0px;stroke-linecap:butt;stroke-linejoin:miter;stroke-opacity:1" />
<path class="bond-37 atom-37 atom-38" d="M 272.7,152.4 L 281.6,150.2" style="fill:none;fill-rule:evenodd;stroke:#0000FF;stroke-width:2.0px;stroke-linecap:butt;stroke-linejoin:miter;stroke-opacity:1" />
<path class="bond-38 atom-38 atom-39" d="M 287.6,152.7 L 293.6,158.9" style="fill:none;fill-rule:evenodd;stroke:#0000FF;stroke-width:2.0px;stroke-linecap:butt;stroke-linejoin:miter;stroke-opacity:1" />
<path class="bond-38 atom-38 atom-39" d="M 293.6,158.9 L 299.5,165.1" style="fill:none;fill-rule:evenodd;stroke:#000000;stroke-width:2.0px;stroke-linecap:butt;stroke-linejoin:miter;stroke-opacity:1" />
<path class="bond-39 atom-39 atom-40" d="M 299.5,165.1 L 320.4,160.0" style="fill:none;fill-rule:evenodd;stroke:#000000;stroke-width:2.0px;stroke-linecap:butt;stroke-linejoin:miter;stroke-opacity:1" />
<path class="bond-40 atom-40 atom-41" d="M 320.4,160.0 L 322.8,151.5" style="fill:none;fill-rule:evenodd;stroke:#000000;stroke-width:2.0px;stroke-linecap:butt;stroke-linejoin:miter;stroke-opacity:1" />
<path class="bond-40 atom-40 atom-41" d="M 322.8,151.5 L 325.3,143.1" style="fill:none;fill-rule:evenodd;stroke:#0000FF;stroke-width:2.0px;stroke-linecap:butt;stroke-linejoin:miter;stroke-opacity:1" />
<path class="bond-41 atom-41 atom-42" d="M 329.4,138.6 L 338.3,136.4" style="fill:none;fill-rule:evenodd;stroke:#0000FF;stroke-width:2.0px;stroke-linecap:butt;stroke-linejoin:miter;stroke-opacity:1" />
<path class="bond-41 atom-41 atom-42" d="M 338.3,136.4 L 347.3,134.2" style="fill:none;fill-rule:evenodd;stroke:#000000;stroke-width:2.0px;stroke-linecap:butt;stroke-linejoin:miter;stroke-opacity:1" />
<path class="bond-42 atom-42 atom-43" d="M 347.3,134.2 L 362.1,149.8" style="fill:none;fill-rule:evenodd;stroke:#000000;stroke-width:2.0px;stroke-linecap:butt;stroke-linejoin:miter;stroke-opacity:1" />
<path class="bond-43 atom-43 atom-44" d="M 362.1,149.8 L 371.1,147.6" style="fill:none;fill-rule:evenodd;stroke:#000000;stroke-width:2.0px;stroke-linecap:butt;stroke-linejoin:miter;stroke-opacity:1" />
<path class="bond-43 atom-43 atom-44" d="M 371.1,147.6 L 380.0,145.4" style="fill:none;fill-rule:evenodd;stroke:#0000FF;stroke-width:2.0px;stroke-linecap:butt;stroke-linejoin:miter;stroke-opacity:1" />
<path class="bond-44 atom-44 atom-45" d="M 386.0,147.8 L 392.0,154.0" style="fill:none;fill-rule:evenodd;stroke:#0000FF;stroke-width:2.0px;stroke-linecap:butt;stroke-linejoin:miter;stroke-opacity:1" />
<path class="bond-44 atom-44 atom-45" d="M 392.0,154.0 L 397.9,160.2" style="fill:none;fill-rule:evenodd;stroke:#000000;stroke-width:2.0px;stroke-linecap:butt;stroke-linejoin:miter;stroke-opacity:1" />
<path class="bond-45 atom-45 atom-46" d="M 397.9,160.2 L 418.8,155.1" style="fill:none;fill-rule:evenodd;stroke:#000000;stroke-width:2.0px;stroke-linecap:butt;stroke-linejoin:miter;stroke-opacity:1" />
<path class="bond-46 atom-46 atom-47" d="M 418.8,155.1 L 421.2,146.7" style="fill:none;fill-rule:evenodd;stroke:#000000;stroke-width:2.0px;stroke-linecap:butt;stroke-linejoin:miter;stroke-opacity:1" />
<path class="bond-46 atom-46 atom-47" d="M 421.2,146.7 L 423.7,138.3" style="fill:none;fill-rule:evenodd;stroke:#0000FF;stroke-width:2.0px;stroke-linecap:butt;stroke-linejoin:miter;stroke-opacity:1" />
<path class="bond-47 atom-47 atom-48" d="M 427.8,133.8 L 436.7,131.6" style="fill:none;fill-rule:evenodd;stroke:#0000FF;stroke-width:2.0px;stroke-linecap:butt;stroke-linejoin:miter;stroke-opacity:1" />
<path class="bond-47 atom-47 atom-48" d="M 436.7,131.6 L 445.7,129.4" style="fill:none;fill-rule:evenodd;stroke:#000000;stroke-width:2.0px;stroke-linecap:butt;stroke-linejoin:miter;stroke-opacity:1" />
<path class="bond-48 atom-48 atom-49" d="M 445.7,129.4 L 460.5,145.0" style="fill:none;fill-rule:evenodd;stroke:#000000;stroke-width:2.0px;stroke-linecap:butt;stroke-linejoin:miter;stroke-opacity:1" />
<path class="bond-49 atom-49 atom-50" d="M 460.5,145.0 L 481.4,139.9" style="fill:none;fill-rule:evenodd;stroke:#000000;stroke-width:2.0px;stroke-linecap:butt;stroke-linejoin:miter;stroke-opacity:1" />
<path class="bond-49 atom-49 atom-50" d="M 461.6,141.4 L 478.9,137.2" style="fill:none;fill-rule:evenodd;stroke:#000000;stroke-width:2.0px;stroke-linecap:butt;stroke-linejoin:miter;stroke-opacity:1" />
<path class="bond-50 atom-50 atom-51" d="M 481.4,139.9 L 496.3,155.4" style="fill:none;fill-rule:evenodd;stroke:#000000;stroke-width:2.0px;stroke-linecap:butt;stroke-linejoin:miter;stroke-opacity:1" />
<path class="bond-51 atom-51 atom-52" d="M 496.3,155.4 L 490.2,176.1" style="fill:none;fill-rule:evenodd;stroke:#000000;stroke-width:2.0px;stroke-linecap:butt;stroke-linejoin:miter;stroke-opacity:1" />
<path class="bond-51 atom-51 atom-52" d="M 498.8,158.1 L 493.8,175.2" style="fill:none;fill-rule:evenodd;stroke:#000000;stroke-width:2.0px;stroke-linecap:butt;stroke-linejoin:miter;stroke-opacity:1" />
<path class="bond-52 atom-52 atom-53" d="M 490.2,176.1 L 505.1,191.6" style="fill:none;fill-rule:evenodd;stroke:#000000;stroke-width:2.0px;stroke-linecap:butt;stroke-linejoin:miter;stroke-opacity:1" />
<path class="bond-53 atom-53 atom-54" d="M 505.1,191.6 L 526.0,186.5" style="fill:none;fill-rule:evenodd;stroke:#000000;stroke-width:2.0px;stroke-linecap:butt;stroke-linejoin:miter;stroke-opacity:1" />
<path class="bond-53 atom-53 atom-54" d="M 506.1,188.0 L 523.4,183.8" style="fill:none;fill-rule:evenodd;stroke:#000000;stroke-width:2.0px;stroke-linecap:butt;stroke-linejoin:miter;stroke-opacity:1" />
<path class="bond-54 atom-54 atom-55" d="M 526.0,186.5 L 532.0,165.9" style="fill:none;fill-rule:evenodd;stroke:#000000;stroke-width:2.0px;stroke-linecap:butt;stroke-linejoin:miter;stroke-opacity:1" />
<path class="bond-55 atom-55 atom-56" d="M 532.0,165.9 L 517.1,150.3" style="fill:none;fill-rule:evenodd;stroke:#000000;stroke-width:2.0px;stroke-linecap:butt;stroke-linejoin:miter;stroke-opacity:1" />
<path class="bond-55 atom-55 atom-56" d="M 528.4,166.8 L 516.1,153.9" style="fill:none;fill-rule:evenodd;stroke:#000000;stroke-width:2.0px;stroke-linecap:butt;stroke-linejoin:miter;stroke-opacity:1" />
<path class="bond-56 atom-56 atom-57" d="M 517.1,150.3 L 519.6,142.0" style="fill:none;fill-rule:evenodd;stroke:#000000;stroke-width:2.0px;stroke-linecap:butt;stroke-linejoin:miter;stroke-opacity:1" />
<path class="bond-56 atom-56 atom-57" d="M 519.6,142.0 L 522.1,133.6" style="fill:none;fill-rule:evenodd;stroke:#FF0000;stroke-width:2.0px;stroke-linecap:butt;stroke-linejoin:miter;stroke-opacity:1" />
<path class="bond-57 atom-50 atom-58" d="M 481.4,139.9 L 483.9,131.4" style="fill:none;fill-rule:evenodd;stroke:#000000;stroke-width:2.0px;stroke-linecap:butt;stroke-linejoin:miter;stroke-opacity:1" />
<path class="bond-57 atom-50 atom-58" d="M 483.9,131.4 L 486.4,123.0" style="fill:none;fill-rule:evenodd;stroke:#0000FF;stroke-width:2.0px;stroke-linecap:butt;stroke-linejoin:miter;stroke-opacity:1" />
<path class="bond-58 atom-58 atom-59" d="M 484.4,116.1 L 475.6,106.9" style="fill:none;fill-rule:evenodd;stroke:#0000FF;stroke-width:2.0px;stroke-linecap:butt;stroke-linejoin:miter;stroke-opacity:1" />
<path class="bond-58 atom-58 atom-59" d="M 482.1,118.3 L 473.3,109.1" style="fill:none;fill-rule:evenodd;stroke:#0000FF;stroke-width:2.0px;stroke-linecap:butt;stroke-linejoin:miter;stroke-opacity:1" />
<path class="bond-59 atom-59 atom-60" d="M 469.6,104.4 L 460.6,106.6" style="fill:none;fill-rule:evenodd;stroke:#0000FF;stroke-width:2.0px;stroke-linecap:butt;stroke-linejoin:miter;stroke-opacity:1" />
<path class="bond-59 atom-59 atom-60" d="M 460.6,106.6 L 451.7,108.8" style="fill:none;fill-rule:evenodd;stroke:#000000;stroke-width:2.0px;stroke-linecap:butt;stroke-linejoin:miter;stroke-opacity:1" />
<path class="bond-60 atom-60 atom-61" d="M 451.7,108.8 L 445.8,102.6" style="fill:none;fill-rule:evenodd;stroke:#000000;stroke-width:2.0px;stroke-linecap:butt;stroke-linejoin:miter;stroke-opacity:1" />
<path class="bond-60 atom-60 atom-61" d="M 445.8,102.6 L 439.9,96.4" style="fill:none;fill-rule:evenodd;stroke:#0000FF;stroke-width:2.0px;stroke-linecap:butt;stroke-linejoin:miter;stroke-opacity:1" />
<path class="bond-61 atom-61 atom-62" d="M 433.8,94.0 L 426.7,95.7" style="fill:none;fill-rule:evenodd;stroke:#0000FF;stroke-width:2.0px;stroke-linecap:butt;stroke-linejoin:miter;stroke-opacity:1" />
<path class="bond-61 atom-61 atom-62" d="M 426.7,95.7 L 419.5,97.5" style="fill:none;fill-rule:evenodd;stroke:#FF0000;stroke-width:2.0px;stroke-linecap:butt;stroke-linejoin:miter;stroke-opacity:1" />
<path class="bond-62 atom-62 atom-63" d="M 414.8,102.2 L 412.4,110.6" style="fill:none;fill-rule:evenodd;stroke:#FF0000;stroke-width:2.0px;stroke-linecap:butt;stroke-linejoin:miter;stroke-opacity:1" />
<path class="bond-62 atom-62 atom-63" d="M 412.4,110.6 L 409.9,119.0" style="fill:none;fill-rule:evenodd;stroke:#000000;stroke-width:2.0px;stroke-linecap:butt;stroke-linejoin:miter;stroke-opacity:1" />
<path class="bond-63 atom-63 atom-64" d="M 409.9,119.0 L 389.1,124.1" style="fill:none;fill-rule:evenodd;stroke:#000000;stroke-width:2.0px;stroke-linecap:butt;stroke-linejoin:miter;stroke-opacity:1" />
<path class="bond-64 atom-41 atom-65" d="M 323.4,136.2 L 317.5,130.0" style="fill:none;fill-rule:evenodd;stroke:#0000FF;stroke-width:2.0px;stroke-linecap:butt;stroke-linejoin:miter;stroke-opacity:1" />
<path class="bond-64 atom-41 atom-65" d="M 317.5,130.0 L 311.5,123.8" style="fill:none;fill-rule:evenodd;stroke:#000000;stroke-width:2.0px;stroke-linecap:butt;stroke-linejoin:miter;stroke-opacity:1" />
<path class="bond-65 atom-65 atom-66" d="M 311.5,123.8 L 290.7,128.9" style="fill:none;fill-rule:evenodd;stroke:#000000;stroke-width:2.0px;stroke-linecap:butt;stroke-linejoin:miter;stroke-opacity:1" />
<path class="bond-66 atom-34 atom-67" d="M 213.2,128.6 L 219.2,108.0" style="fill:none;fill-rule:evenodd;stroke:#000000;stroke-width:2.0px;stroke-linecap:butt;stroke-linejoin:miter;stroke-opacity:1" />
<path class="bond-67 atom-5 atom-1" d="M 210.4,71.8 L 230.6,64.5" style="fill:none;fill-rule:evenodd;stroke:#000000;stroke-width:2.0px;stroke-linecap:butt;stroke-linejoin:miter;stroke-opacity:1" />
<path class="bond-67 atom-5 atom-1" d="M 211.5,68.0 L 227.3,62.3" style="fill:none;fill-rule:evenodd;stroke:#000000;stroke-width:2.0px;stroke-linecap:butt;stroke-linejoin:miter;stroke-opacity:1" />
<path class="bond-68 atom-67 atom-6" d="M 219.2,108.0 L 204.3,92.4" style="fill:none;fill-rule:evenodd;stroke:#000000;stroke-width:2.0px;stroke-linecap:butt;stroke-linejoin:miter;stroke-opacity:1" />
<path class="bond-68 atom-67 atom-6" d="M 215.6,108.8 L 203.3,96.0" style="fill:none;fill-rule:evenodd;stroke:#000000;stroke-width:2.0px;stroke-linecap:butt;stroke-linejoin:miter;stroke-opacity:1" />
<path class="bond-69 atom-19 atom-14" d="M 125.0,173.8 L 131.7,179.5" style="fill:none;fill-rule:evenodd;stroke:#0000FF;stroke-width:2.0px;stroke-linecap:butt;stroke-linejoin:miter;stroke-opacity:1" />
<path class="bond-69 atom-19 atom-14" d="M 131.7,179.5 L 138.4,185.1" style="fill:none;fill-rule:evenodd;stroke:#000000;stroke-width:2.0px;stroke-linecap:butt;stroke-linejoin:miter;stroke-opacity:1" />
<path class="bond-70 atom-29 atom-26" d="M 36.8,126.7 L 49.4,144.2" style="fill:none;fill-rule:evenodd;stroke:#000000;stroke-width:2.0px;stroke-linecap:butt;stroke-linejoin:miter;stroke-opacity:1" />
<path class="bond-71 atom-66 atom-38" d="M 290.7,128.9 L 288.2,137.3" style="fill:none;fill-rule:evenodd;stroke:#000000;stroke-width:2.0px;stroke-linecap:butt;stroke-linejoin:miter;stroke-opacity:1" />
<path class="bond-71 atom-66 atom-38" d="M 288.2,137.3 L 285.7,145.8" style="fill:none;fill-rule:evenodd;stroke:#0000FF;stroke-width:2.0px;stroke-linecap:butt;stroke-linejoin:miter;stroke-opacity:1" />
<path class="bond-72 atom-64 atom-44" d="M 389.1,124.1 L 386.6,132.5" style="fill:none;fill-rule:evenodd;stroke:#000000;stroke-width:2.0px;stroke-linecap:butt;stroke-linejoin:miter;stroke-opacity:1" />
<path class="bond-72 atom-64 atom-44" d="M 386.6,132.5 L 384.1,140.9" style="fill:none;fill-rule:evenodd;stroke:#0000FF;stroke-width:2.0px;stroke-linecap:butt;stroke-linejoin:miter;stroke-opacity:1" />
<path class="bond-73 atom-63 atom-47" d="M 409.9,119.0 L 415.9,125.2" style="fill:none;fill-rule:evenodd;stroke:#000000;stroke-width:2.0px;stroke-linecap:butt;stroke-linejoin:miter;stroke-opacity:1" />
<path class="bond-73 atom-63 atom-47" d="M 415.9,125.2 L 421.8,131.4" style="fill:none;fill-rule:evenodd;stroke:#0000FF;stroke-width:2.0px;stroke-linecap:butt;stroke-linejoin:miter;stroke-opacity:1" />
<path class="bond-74 atom-60 atom-48" d="M 451.7,108.8 L 445.7,129.4" style="fill:none;fill-rule:evenodd;stroke:#000000;stroke-width:2.0px;stroke-linecap:butt;stroke-linejoin:miter;stroke-opacity:1" />
<path class="bond-74 atom-60 atom-48" d="M 454.3,111.5 L 449.3,128.5" style="fill:none;fill-rule:evenodd;stroke:#000000;stroke-width:2.0px;stroke-linecap:butt;stroke-linejoin:miter;stroke-opacity:1" />
<path class="bond-75 atom-56 atom-51" d="M 517.1,150.3 L 496.3,155.4" style="fill:none;fill-rule:evenodd;stroke:#000000;stroke-width:2.0px;stroke-linecap:butt;stroke-linejoin:miter;stroke-opacity:1" />
<path class="bond-76 atom-63 atom-68" d="M 409.5,122.2 L 408.5,121.9" style="fill:none;fill-rule:evenodd;stroke:#000000;stroke-width:1.0px;stroke-linecap:butt;stroke-linejoin:miter;stroke-opacity:1" />
<path class="bond-76 atom-63 atom-68" d="M 409.2,125.5 L 407.1,124.9" style="fill:none;fill-rule:evenodd;stroke:#000000;stroke-width:1.0px;stroke-linecap:butt;stroke-linejoin:miter;stroke-opacity:1" />
<path class="bond-76 atom-63 atom-68" d="M 408.8,128.7 L 405.7,127.8" style="fill:none;fill-rule:evenodd;stroke:#000000;stroke-width:1.0px;stroke-linecap:butt;stroke-linejoin:miter;stroke-opacity:1" />
<path d="M 209.8,37.2 L 209.3,37.0 L 209.1,37.4" style="fill:none;stroke:#000000;stroke-width:2.0px;stroke-linecap:butt;stroke-linejoin:miter;stroke-miterlimit:10;stroke-opacity:1;" />
<path d="M 184.5,97.3 L 183.5,97.5 L 183.2,98.5" style="fill:none;stroke:#000000;stroke-width:2.0px;stroke-linecap:butt;stroke-linejoin:miter;stroke-miterlimit:10;stroke-opacity:1;" />
<path d="M 177.7,117.1 L 177.4,118.1 L 178.2,118.9" style="fill:none;stroke:#000000;stroke-width:2.0px;stroke-linecap:butt;stroke-linejoin:miter;stroke-miterlimit:10;stroke-opacity:1;" />
<path d="M 186.5,153.3 L 186.2,154.3 L 185.8,154.4" style="fill:none;stroke:#000000;stroke-width:2.0px;stroke-linecap:butt;stroke-linejoin:miter;stroke-miterlimit:10;stroke-opacity:1;" />
<path d="M 138.0,186.1 L 138.4,185.1 L 138.1,184.8" style="fill:none;stroke:#000000;stroke-width:2.0px;stroke-linecap:butt;stroke-linejoin:miter;stroke-miterlimit:10;stroke-opacity:1;" />
<path d="M 130.7,204.0 L 130.3,205.0 L 129.2,204.9" style="fill:none;stroke:#000000;stroke-width:2.0px;stroke-linecap:butt;stroke-linejoin:miter;stroke-miterlimit:10;stroke-opacity:1;" />
<path d="M 109.9,203.5 L 108.8,203.4 L 108.6,202.4" style="fill:none;stroke:#000000;stroke-width:2.0px;stroke-linecap:butt;stroke-linejoin:miter;stroke-miterlimit:10;stroke-opacity:1;" />
<path d="M 104.0,183.6 L 103.7,182.5 L 104.1,182.3" style="fill:none;stroke:#000000;stroke-width:2.0px;stroke-linecap:butt;stroke-linejoin:miter;stroke-miterlimit:10;stroke-opacity:1;" />
<path d="M 123.6,150.2 L 123.6,149.8 L 122.8,149.2" style="fill:none;stroke:#000000;stroke-width:2.0px;stroke-linecap:butt;stroke-linejoin:miter;stroke-miterlimit:10;stroke-opacity:1;" />
<path d="M 106.8,138.3 L 105.9,137.7 L 106.0,136.6" style="fill:none;stroke:#000000;stroke-width:2.0px;stroke-linecap:butt;stroke-linejoin:miter;stroke-miterlimit:10;stroke-opacity:1;" />
<path d="M 69.1,135.1 L 68.8,134.9 L 67.8,135.3" style="fill:none;stroke:#000000;stroke-width:2.0px;stroke-linecap:butt;stroke-linejoin:miter;stroke-miterlimit:10;stroke-opacity:1;" />
<path d="M 29.1,146.2 L 28.0,146.3 L 28.4,145.4" style="fill:none;stroke:#000000;stroke-width:2.0px;stroke-linecap:butt;stroke-linejoin:miter;stroke-miterlimit:10;stroke-opacity:1;" />
<path d="M 36.4,127.7 L 36.8,126.7 L 37.5,127.6" style="fill:none;stroke:#000000;stroke-width:2.0px;stroke-linecap:butt;stroke-linejoin:miter;stroke-miterlimit:10;stroke-opacity:1;" />
<path d="M 248.5,139.2 L 248.9,139.1 L 249.6,139.8" style="fill:none;stroke:#000000;stroke-width:2.0px;stroke-linecap:butt;stroke-linejoin:miter;stroke-miterlimit:10;stroke-opacity:1;" />
<path d="M 263.0,153.8 L 263.7,154.6 L 264.2,154.5" style="fill:none;stroke:#000000;stroke-width:2.0px;stroke-linecap:butt;stroke-linejoin:miter;stroke-miterlimit:10;stroke-opacity:1;" />
<path d="M 299.2,164.7 L 299.5,165.1 L 300.5,164.8" style="fill:none;stroke:#000000;stroke-width:2.0px;stroke-linecap:butt;stroke-linejoin:miter;stroke-miterlimit:10;stroke-opacity:1;" />
<path d="M 319.3,160.2 L 320.4,160.0 L 320.5,159.5" style="fill:none;stroke:#000000;stroke-width:2.0px;stroke-linecap:butt;stroke-linejoin:miter;stroke-miterlimit:10;stroke-opacity:1;" />
<path d="M 346.8,134.3 L 347.3,134.2 L 348.0,135.0" style="fill:none;stroke:#000000;stroke-width:2.0px;stroke-linecap:butt;stroke-linejoin:miter;stroke-miterlimit:10;stroke-opacity:1;" />
<path d="M 361.4,149.0 L 362.1,149.8 L 362.6,149.7" style="fill:none;stroke:#000000;stroke-width:2.0px;stroke-linecap:butt;stroke-linejoin:miter;stroke-miterlimit:10;stroke-opacity:1;" />
<path d="M 397.6,159.9 L 397.9,160.2 L 398.9,160.0" style="fill:none;stroke:#000000;stroke-width:2.0px;stroke-linecap:butt;stroke-linejoin:miter;stroke-miterlimit:10;stroke-opacity:1;" />
<path d="M 417.7,155.4 L 418.8,155.1 L 418.9,154.7" style="fill:none;stroke:#000000;stroke-width:2.0px;stroke-linecap:butt;stroke-linejoin:miter;stroke-miterlimit:10;stroke-opacity:1;" />
<path d="M 459.8,144.2 L 460.5,145.0 L 461.6,144.7" style="fill:none;stroke:#000000;stroke-width:2.0px;stroke-linecap:butt;stroke-linejoin:miter;stroke-miterlimit:10;stroke-opacity:1;" />
<path d="M 490.5,175.0 L 490.2,176.1 L 491.0,176.8" style="fill:none;stroke:#000000;stroke-width:2.0px;stroke-linecap:butt;stroke-linejoin:miter;stroke-miterlimit:10;stroke-opacity:1;" />
<path d="M 504.3,190.8 L 505.1,191.6 L 506.1,191.3" style="fill:none;stroke:#000000;stroke-width:2.0px;stroke-linecap:butt;stroke-linejoin:miter;stroke-miterlimit:10;stroke-opacity:1;" />
<path d="M 524.9,186.8 L 526.0,186.5 L 526.3,185.5" style="fill:none;stroke:#000000;stroke-width:2.0px;stroke-linecap:butt;stroke-linejoin:miter;stroke-miterlimit:10;stroke-opacity:1;" />
<path d="M 531.7,166.9 L 532.0,165.9 L 531.3,165.1" style="fill:none;stroke:#000000;stroke-width:2.0px;stroke-linecap:butt;stroke-linejoin:miter;stroke-miterlimit:10;stroke-opacity:1;" />
<path d="M 390.1,123.8 L 389.1,124.1 L 388.9,124.5" style="fill:none;stroke:#000000;stroke-width:2.0px;stroke-linecap:butt;stroke-linejoin:miter;stroke-miterlimit:10;stroke-opacity:1;" />
<path d="M 311.8,124.1 L 311.5,123.8 L 310.5,124.0" style="fill:none;stroke:#000000;stroke-width:2.0px;stroke-linecap:butt;stroke-linejoin:miter;stroke-miterlimit:10;stroke-opacity:1;" />
<path d="M 291.7,128.6 L 290.7,128.9 L 290.5,129.3" style="fill:none;stroke:#000000;stroke-width:2.0px;stroke-linecap:butt;stroke-linejoin:miter;stroke-miterlimit:10;stroke-opacity:1;" />
<path d="M 218.9,109.0 L 219.2,108.0 L 218.4,107.2" style="fill:none;stroke:#000000;stroke-width:2.0px;stroke-linecap:butt;stroke-linejoin:miter;stroke-miterlimit:10;stroke-opacity:1;" />
<path class="atom-2" d="M 228.6 40.0 L 230.6 43.2 Q 230.8 43.6, 231.1 44.1 Q 231.5 44.7, 231.5 44.7 L 231.5 40.0 L 232.3 40.0 L 232.3 46.1 L 231.5 46.1 L 229.3 42.6 Q 229.1 42.2, 228.8 41.7 Q 228.5 41.2, 228.5 41.1 L 228.5 46.1 L 227.7 46.1 L 227.7 40.0 L 228.6 40.0 " fill="#0000FF" />
<path class="atom-4" d="M 195.5 56.9 Q 195.6 56.9, 195.9 57.0 Q 196.1 57.1, 196.5 57.2 Q 196.8 57.3, 197.1 57.3 Q 197.7 57.3, 198.0 57.0 Q 198.3 56.7, 198.3 56.2 Q 198.3 55.9, 198.2 55.7 Q 198.0 55.5, 197.7 55.4 Q 197.5 55.3, 197.1 55.1 Q 196.5 55.0, 196.2 54.8 Q 195.9 54.7, 195.6 54.3 Q 195.4 54.0, 195.4 53.5 Q 195.4 52.7, 195.9 52.2 Q 196.4 51.7, 197.5 51.7 Q 198.2 51.7, 199.0 52.1 L 198.8 52.7 Q 198.1 52.4, 197.5 52.4 Q 196.9 52.4, 196.6 52.7 Q 196.3 52.9, 196.3 53.4 Q 196.3 53.7, 196.4 53.9 Q 196.6 54.1, 196.8 54.2 Q 197.1 54.3, 197.5 54.4 Q 198.1 54.6, 198.4 54.8 Q 198.7 54.9, 198.9 55.3 Q 199.2 55.6, 199.2 56.2 Q 199.2 57.1, 198.6 57.5 Q 198.1 58.0, 197.1 58.0 Q 196.6 58.0, 196.2 57.9 Q 195.8 57.7, 195.3 57.6 L 195.5 56.9 " fill="#CCCC00" />
<path class="atom-11" d="M 157.1 156.4 L 157.9 156.4 L 157.9 159.0 L 161.0 159.0 L 161.0 156.4 L 161.8 156.4 L 161.8 162.5 L 161.0 162.5 L 161.0 159.6 L 157.9 159.6 L 157.9 162.5 L 157.1 162.5 L 157.1 156.4 " fill="#0000FF" />
<path class="atom-11" d="M 164.0 156.4 L 166.0 159.6 Q 166.2 159.9, 166.5 160.5 Q 166.8 161.1, 166.8 161.1 L 166.8 156.4 L 167.7 156.4 L 167.7 162.5 L 166.8 162.5 L 164.7 158.9 Q 164.4 158.5, 164.2 158.0 Q 163.9 157.6, 163.8 157.4 L 163.8 162.5 L 163.0 162.5 L 163.0 156.4 L 164.0 156.4 " fill="#0000FF" />
<path class="atom-13" d="M 171.4 195.6 Q 171.4 194.1, 172.1 193.3 Q 172.8 192.5, 174.2 192.5 Q 175.5 192.5, 176.2 193.3 Q 177.0 194.1, 177.0 195.6 Q 177.0 197.1, 176.2 197.9 Q 175.5 198.8, 174.2 198.8 Q 172.8 198.8, 172.1 197.9 Q 171.4 197.1, 171.4 195.6 M 174.2 198.1 Q 175.1 198.1, 175.6 197.5 Q 176.1 196.8, 176.1 195.6 Q 176.1 194.4, 175.6 193.8 Q 175.1 193.2, 174.2 193.2 Q 173.2 193.2, 172.7 193.8 Q 172.2 194.4, 172.2 195.6 Q 172.2 196.8, 172.7 197.5 Q 173.2 198.1, 174.2 198.1 " fill="#FF0000" />
<path class="atom-17" d="M 86.1 216.8 L 86.9 216.8 L 86.9 219.4 L 90.1 219.4 L 90.1 216.8 L 90.9 216.8 L 90.9 222.9 L 90.1 222.9 L 90.1 220.1 L 86.9 220.1 L 86.9 222.9 L 86.1 222.9 L 86.1 216.8 " fill="#FF0000" />
<path class="atom-17" d="M 92.1 219.8 Q 92.1 218.4, 92.9 217.5 Q 93.6 216.7, 94.9 216.7 Q 96.3 216.7, 97.0 217.5 Q 97.7 218.4, 97.7 219.8 Q 97.7 221.3, 97.0 222.1 Q 96.3 223.0, 94.9 223.0 Q 93.6 223.0, 92.9 222.1 Q 92.1 221.3, 92.1 219.8 M 94.9 222.3 Q 95.9 222.3, 96.4 221.7 Q 96.9 221.0, 96.9 219.8 Q 96.9 218.6, 96.4 218.0 Q 95.9 217.4, 94.9 217.4 Q 94.0 217.4, 93.5 218.0 Q 93.0 218.6, 93.0 219.8 Q 93.0 221.0, 93.5 221.7 Q 94.0 222.3, 94.9 222.3 " fill="#FF0000" />
<path class="atom-19" d="M 120.7 168.2 L 122.7 171.4 Q 122.9 171.7, 123.2 172.3 Q 123.5 172.9, 123.5 172.9 L 123.5 168.2 L 124.3 168.2 L 124.3 174.3 L 123.5 174.3 L 121.4 170.7 Q 121.1 170.3, 120.9 169.9 Q 120.6 169.4, 120.5 169.2 L 120.5 174.3 L 119.7 174.3 L 119.7 168.2 L 120.7 168.2 " fill="#0000FF" />
<path class="atom-21" d="M 140.2 140.5 Q 140.2 139.0, 140.9 138.2 Q 141.7 137.4, 143.0 137.4 Q 144.4 137.4, 145.1 138.2 Q 145.8 139.0, 145.8 140.5 Q 145.8 142.0, 145.1 142.8 Q 144.4 143.6, 143.0 143.6 Q 141.7 143.6, 140.9 142.8 Q 140.2 142.0, 140.2 140.5 M 143.0 143.0 Q 143.9 143.0, 144.4 142.3 Q 145.0 141.7, 145.0 140.5 Q 145.0 139.3, 144.4 138.7 Q 143.9 138.1, 143.0 138.1 Q 142.1 138.1, 141.6 138.7 Q 141.1 139.3, 141.1 140.5 Q 141.1 141.7, 141.6 142.3 Q 142.1 143.0, 143.0 143.0 " fill="#FF0000" />
<path class="atom-23" d="M 85.2 144.0 L 87.2 147.2 Q 87.4 147.5, 87.7 148.1 Q 88.0 148.6, 88.0 148.7 L 88.0 144.0 L 88.8 144.0 L 88.8 150.0 L 88.0 150.0 L 85.9 146.5 Q 85.6 146.1, 85.3 145.6 Q 85.1 145.2, 85.0 145.0 L 85.0 150.0 L 84.2 150.0 L 84.2 144.0 L 85.2 144.0 " fill="#0000FF" />
<path class="atom-23" d="M 84.1 150.6 L 85.0 150.6 L 85.0 153.2 L 88.1 153.2 L 88.1 150.6 L 88.9 150.6 L 88.9 156.7 L 88.1 156.7 L 88.1 153.9 L 85.0 153.9 L 85.0 156.7 L 84.1 156.7 L 84.1 150.6 " fill="#0000FF" />
<path class="atom-25" d="M 67.6 113.5 Q 67.6 112.0, 68.3 111.2 Q 69.0 110.4, 70.4 110.4 Q 71.7 110.4, 72.4 111.2 Q 73.2 112.0, 73.2 113.5 Q 73.2 114.9, 72.4 115.8 Q 71.7 116.6, 70.4 116.6 Q 69.0 116.6, 68.3 115.8 Q 67.6 114.9, 67.6 113.5 M 70.4 115.9 Q 71.3 115.9, 71.8 115.3 Q 72.3 114.7, 72.3 113.5 Q 72.3 112.3, 71.8 111.7 Q 71.3 111.1, 70.4 111.1 Q 69.4 111.1, 68.9 111.7 Q 68.4 112.3, 68.4 113.5 Q 68.4 114.7, 68.9 115.3 Q 69.4 115.9, 70.4 115.9 " fill="#FF0000" />
<path class="atom-27" d="M 53.4 161.9 L 57.0 161.9 L 57.0 162.5 L 54.2 162.5 L 54.2 164.4 L 56.7 164.4 L 56.7 165.1 L 54.2 165.1 L 54.2 167.9 L 53.4 167.9 L 53.4 161.9 " fill="#33CCCC" />
<path class="atom-35" d="M 225.2 144.2 Q 225.2 142.7, 225.9 141.9 Q 226.7 141.1, 228.0 141.1 Q 229.4 141.1, 230.1 141.9 Q 230.8 142.7, 230.8 144.2 Q 230.8 145.6, 230.1 146.5 Q 229.3 147.3, 228.0 147.3 Q 226.7 147.3, 225.9 146.5 Q 225.2 145.6, 225.2 144.2 M 228.0 146.6 Q 228.9 146.6, 229.4 146.0 Q 229.9 145.4, 229.9 144.2 Q 229.9 143.0, 229.4 142.4 Q 228.9 141.8, 228.0 141.8 Q 227.1 141.8, 226.6 142.4 Q 226.1 143.0, 226.1 144.2 Q 226.1 145.4, 226.6 146.0 Q 227.1 146.6, 228.0 146.6 " fill="#FF0000" />
<path class="atom-38" d="M 283.3 146.5 L 285.3 149.7 Q 285.5 150.0, 285.8 150.6 Q 286.1 151.2, 286.1 151.2 L 286.1 146.5 L 286.9 146.5 L 286.9 152.6 L 286.1 152.6 L 284.0 149.0 Q 283.7 148.6, 283.4 148.1 Q 283.2 147.7, 283.1 147.5 L 283.1 152.6 L 282.3 152.6 L 282.3 146.5 L 283.3 146.5 " fill="#0000FF" />
<path class="atom-41" d="M 325.1 136.3 L 327.0 139.5 Q 327.2 139.8, 327.6 140.4 Q 327.9 141.0, 327.9 141.0 L 327.9 136.3 L 328.7 136.3 L 328.7 142.4 L 327.9 142.4 L 325.7 138.8 Q 325.5 138.4, 325.2 138.0 Q 325.0 137.5, 324.9 137.3 L 324.9 142.4 L 324.1 142.4 L 324.1 136.3 L 325.1 136.3 " fill="#0000FF" />
<path class="atom-44" d="M 381.7 141.6 L 383.7 144.9 Q 383.9 145.2, 384.2 145.8 Q 384.5 146.3, 384.5 146.4 L 384.5 141.6 L 385.3 141.6 L 385.3 147.7 L 384.5 147.7 L 382.4 144.2 Q 382.1 143.8, 381.8 143.3 Q 381.6 142.9, 381.5 142.7 L 381.5 147.7 L 380.7 147.7 L 380.7 141.6 L 381.7 141.6 " fill="#0000FF" />
<path class="atom-47" d="M 423.4 131.5 L 425.4 134.7 Q 425.6 135.0, 426.0 135.6 Q 426.3 136.2, 426.3 136.2 L 426.3 131.5 L 427.1 131.5 L 427.1 137.6 L 426.3 137.6 L 424.1 134.0 Q 423.9 133.6, 423.6 133.1 Q 423.4 132.7, 423.3 132.5 L 423.3 137.6 L 422.5 137.6 L 422.5 131.5 L 423.4 131.5 " fill="#0000FF" />
<path class="atom-57" d="M 520.4 129.7 Q 520.4 128.3, 521.1 127.4 Q 521.8 126.6, 523.2 126.6 Q 524.5 126.6, 525.3 127.4 Q 526.0 128.3, 526.0 129.7 Q 526.0 131.2, 525.2 132.0 Q 524.5 132.9, 523.2 132.9 Q 521.8 132.9, 521.1 132.0 Q 520.4 131.2, 520.4 129.7 M 523.2 132.2 Q 524.1 132.2, 524.6 131.6 Q 525.1 130.9, 525.1 129.7 Q 525.1 128.5, 524.6 127.9 Q 524.1 127.3, 523.2 127.3 Q 522.3 127.3, 521.7 127.9 Q 521.3 128.5, 521.3 129.7 Q 521.3 130.9, 521.7 131.6 Q 522.3 132.2, 523.2 132.2 " fill="#FF0000" />
<path class="atom-57" d="M 526.9 126.7 L 527.8 126.7 L 527.8 129.3 L 530.9 129.3 L 530.9 126.7 L 531.7 126.7 L 531.7 132.8 L 530.9 132.8 L 530.9 130.0 L 527.8 130.0 L 527.8 132.8 L 526.9 132.8 L 526.9 126.7 " fill="#FF0000" />
<path class="atom-58" d="M 486.1 116.2 L 488.1 119.4 Q 488.3 119.7, 488.6 120.3 Q 488.9 120.9, 488.9 120.9 L 488.9 116.2 L 489.8 116.2 L 489.8 122.3 L 488.9 122.3 L 486.8 118.8 Q 486.5 118.4, 486.3 117.9 Q 486.0 117.4, 485.9 117.3 L 485.9 122.3 L 485.1 122.3 L 485.1 116.2 L 486.1 116.2 " fill="#0000FF" />
<path class="atom-59" d="M 471.3 100.7 L 473.2 103.9 Q 473.4 104.2, 473.8 104.8 Q 474.1 105.4, 474.1 105.4 L 474.1 100.7 L 474.9 100.7 L 474.9 106.7 L 474.1 106.7 L 471.9 103.2 Q 471.7 102.8, 471.4 102.3 Q 471.2 101.9, 471.1 101.7 L 471.1 106.7 L 470.3 106.7 L 470.3 100.7 L 471.3 100.7 " fill="#0000FF" />
<path class="atom-61" d="M 435.5 90.2 L 437.5 93.4 Q 437.7 93.7, 438.0 94.3 Q 438.3 94.9, 438.4 94.9 L 438.4 90.2 L 439.2 90.2 L 439.2 96.3 L 438.3 96.3 L 436.2 92.8 Q 435.9 92.4, 435.7 91.9 Q 435.4 91.4, 435.3 91.3 L 435.3 96.3 L 434.6 96.3 L 434.6 90.2 L 435.5 90.2 " fill="#0000FF" />
<path class="atom-61" d="M 434.5 83.5 L 435.3 83.5 L 435.3 86.1 L 438.4 86.1 L 438.4 83.5 L 439.2 83.5 L 439.2 89.6 L 438.4 89.6 L 438.4 86.8 L 435.3 86.8 L 435.3 89.6 L 434.5 89.6 L 434.5 83.5 " fill="#0000FF" />
<path class="atom-62" d="M 413.2 98.4 Q 413.2 96.9, 413.9 96.1 Q 414.6 95.3, 416.0 95.3 Q 417.3 95.3, 418.0 96.1 Q 418.8 96.9, 418.8 98.4 Q 418.8 99.8, 418.0 100.7 Q 417.3 101.5, 416.0 101.5 Q 414.6 101.5, 413.9 100.7 Q 413.2 99.8, 413.2 98.4 M 416.0 100.8 Q 416.9 100.8, 417.4 100.2 Q 417.9 99.6, 417.9 98.4 Q 417.9 97.2, 417.4 96.6 Q 416.9 95.9, 416.0 95.9 Q 415.0 95.9, 414.5 96.6 Q 414.0 97.2, 414.0 98.4 Q 414.0 99.6, 414.5 100.2 Q 415.0 100.8, 416.0 100.8 " fill="#FF0000" />
<path class="atom-68" d="M 403.5 129.7 L 404.4 129.7 L 404.4 132.3 L 407.5 132.3 L 407.5 129.7 L 408.3 129.7 L 408.3 135.8 L 407.5 135.8 L 407.5 133.0 L 404.4 133.0 L 404.4 135.8 L 403.5 135.8 L 403.5 129.7 " fill="#000000" />
</svg>