<?xml version='1.0' encoding='utf-8'?>
<svg xmlns="http://www.w3.org/2000/svg" baseProfile="full" height="260px" version="1.1" viewBox="0 0 560 260" width="560px" xml:space="preserve">

<path class="bond-0 atom-0 atom-1" d="M 117.8,247.0 L 115.8,235.8" style="fill:none;fill-rule:evenodd;stroke:#000000;stroke-width:2.0px;stroke-linecap:butt;stroke-linejoin:miter;stroke-opacity:1" />
<path class="bond-0 atom-0 atom-1" d="M 115.8,235.8 L 113.7,224.6" style="fill:none;fill-rule:evenodd;stroke:#FF0000;stroke-width:2.0px;stroke-linecap:butt;stroke-linejoin:miter;stroke-opacity:1" />
<path class="bond-1 atom-1 atom-2" d="M 117.3,215.6 L 125.6,208.5" style="fill:none;fill-rule:evenodd;stroke:#FF0000;stroke-width:2.0px;stroke-linecap:butt;stroke-linejoin:miter;stroke-opacity:1" />
<path class="bond-1 atom-1 atom-2" d="M 125.6,208.5 L 134.0,201.4" style="fill:none;fill-rule:evenodd;stroke:#000000;stroke-width:2.0px;stroke-linecap:butt;stroke-linejoin:miter;stroke-opacity:1" />
<path class="bond-2 atom-2 atom-3" d="M 134.0,201.4 L 128.9,173.9" style="fill:none;fill-rule:evenodd;stroke:#000000;stroke-width:2.0px;stroke-linecap:butt;stroke-linejoin:miter;stroke-opacity:1" />
<path class="bond-3 atom-3 atom-4" d="M 128.9,173.9 L 137.2,166.7" style="fill:none;fill-rule:evenodd;stroke:#000000;stroke-width:2.0px;stroke-linecap:butt;stroke-linejoin:miter;stroke-opacity:1" />
<path class="bond-3 atom-3 atom-4" d="M 137.2,166.7 L 145.6,159.6" style="fill:none;fill-rule:evenodd;stroke:#FF0000;stroke-width:2.0px;stroke-linecap:butt;stroke-linejoin:miter;stroke-opacity:1" />
<path class="bond-4 atom-4 atom-5" d="M 149.2,150.8 L 147.1,139.5" style="fill:none;fill-rule:evenodd;stroke:#FF0000;stroke-width:2.0px;stroke-linecap:butt;stroke-linejoin:miter;stroke-opacity:1" />
<path class="bond-4 atom-4 atom-5" d="M 147.1,139.5 L 145.0,128.2" style="fill:none;fill-rule:evenodd;stroke:#000000;stroke-width:2.0px;stroke-linecap:butt;stroke-linejoin:miter;stroke-opacity:1" />
<path class="bond-5 atom-5 atom-6" d="M 145.0,128.2 L 118.7,118.9" style="fill:none;fill-rule:evenodd;stroke:#000000;stroke-width:2.0px;stroke-linecap:butt;stroke-linejoin:miter;stroke-opacity:1" />
<path class="bond-6 atom-6 atom-7" d="M 118.7,118.9 L 113.6,91.4" style="fill:none;fill-rule:evenodd;stroke:#000000;stroke-width:2.0px;stroke-linecap:butt;stroke-linejoin:miter;stroke-opacity:1" />
<path class="bond-6 atom-6 atom-7" d="M 122.3,115.8 L 118.1,93.0" style="fill:none;fill-rule:evenodd;stroke:#000000;stroke-width:2.0px;stroke-linecap:butt;stroke-linejoin:miter;stroke-opacity:1" />
<path class="bond-7 atom-7 atom-8" d="M 113.6,91.4 L 102.3,87.5" style="fill:none;fill-rule:evenodd;stroke:#000000;stroke-width:2.0px;stroke-linecap:butt;stroke-linejoin:miter;stroke-opacity:1" />
<path class="bond-7 atom-7 atom-8" d="M 102.3,87.5 L 91.1,83.5" style="fill:none;fill-rule:evenodd;stroke:#0000FF;stroke-width:2.0px;stroke-linecap:butt;stroke-linejoin:miter;stroke-opacity:1" />
<path class="bond-8 atom-8 atom-9" d="M 85.8,77.2 L 82.5,66.3" style="fill:none;fill-rule:evenodd;stroke:#0000FF;stroke-width:2.0px;stroke-linecap:butt;stroke-linejoin:miter;stroke-opacity:1" />
<path class="bond-8 atom-8 atom-9" d="M 82.5,66.3 L 79.3,55.3" style="fill:none;fill-rule:evenodd;stroke:#000000;stroke-width:2.0px;stroke-linecap:butt;stroke-linejoin:miter;stroke-opacity:1" />
<path class="bond-9 atom-9 atom-10" d="M 79.3,55.3 L 51.3,54.6" style="fill:none;fill-rule:evenodd;stroke:#000000;stroke-width:2.0px;stroke-linecap:butt;stroke-linejoin:miter;stroke-opacity:1" />
<path class="bond-10 atom-10 atom-11" d="M 51.3,54.6 L 42.0,81.0" style="fill:none;fill-rule:evenodd;stroke:#000000;stroke-width:2.0px;stroke-linecap:butt;stroke-linejoin:miter;stroke-opacity:1" />
<path class="bond-11 atom-11 atom-12" d="M 42.0,81.0 L 64.2,98.0" style="fill:none;fill-rule:evenodd;stroke:#000000;stroke-width:2.0px;stroke-linecap:butt;stroke-linejoin:miter;stroke-opacity:1" />
<path class="bond-12 atom-12 atom-13" d="M 64.2,98.0 L 89.5,110.3" style="fill:none;fill-rule:evenodd;stroke:#000000;stroke-width:2.0px;stroke-linecap:butt;stroke-linejoin:miter;stroke-opacity:1" />
<path class="bond-13 atom-13 atom-14" d="M 89.5,110.3 L 98.1,102.9" style="fill:none;fill-rule:evenodd;stroke:#000000;stroke-width:2.0px;stroke-linecap:butt;stroke-linejoin:miter;stroke-opacity:1" />
<path class="bond-13 atom-13 atom-14" d="M 98.1,102.9 L 106.8,95.5" style="fill:none;fill-rule:evenodd;stroke:#0000FF;stroke-width:2.0px;stroke-linecap:butt;stroke-linejoin:miter;stroke-opacity:1" />
<path class="bond-14 atom-14 atom-15" d="M 114.6,93.5 L 125.8,97.5" style="fill:none;fill-rule:evenodd;stroke:#0000FF;stroke-width:2.0px;stroke-linecap:butt;stroke-linejoin:miter;stroke-opacity:1" />
<path class="bond-14 atom-14 atom-15" d="M 125.8,97.5 L 137.1,101.4" style="fill:none;fill-rule:evenodd;stroke:#000000;stroke-width:2.0px;stroke-linecap:butt;stroke-linejoin:miter;stroke-opacity:1" />
<path class="bond-15 atom-15 atom-16" d="M 137.1,101.4 L 142.2,128.9" style="fill:none;fill-rule:evenodd;stroke:#000000;stroke-width:2.0px;stroke-linecap:butt;stroke-linejoin:miter;stroke-opacity:1" />
<path class="bond-16 atom-16 atom-17" d="M 142.2,128.9 L 168.5,138.2" style="fill:none;fill-rule:evenodd;stroke:#000000;stroke-width:2.0px;stroke-linecap:butt;stroke-linejoin:miter;stroke-opacity:1" />
<path class="bond-16 atom-16 atom-17" d="M 145.8,125.8 L 167.6,133.5" style="fill:none;fill-rule:evenodd;stroke:#000000;stroke-width:2.0px;stroke-linecap:butt;stroke-linejoin:miter;stroke-opacity:1" />
<path class="bond-17 atom-17 atom-18" d="M 168.5,138.2 L 173.6,165.7" style="fill:none;fill-rule:evenodd;stroke:#000000;stroke-width:2.0px;stroke-linecap:butt;stroke-linejoin:miter;stroke-opacity:1" />
<path class="bond-18 atom-18 atom-19" d="M 173.6,165.7 L 152.4,183.9" style="fill:none;fill-rule:evenodd;stroke:#000000;stroke-width:2.0px;stroke-linecap:butt;stroke-linejoin:miter;stroke-opacity:1" />
<path class="bond-18 atom-18 atom-19" d="M 174.5,170.4 L 156.9,185.5" style="fill:none;fill-rule:evenodd;stroke:#000000;stroke-width:2.0px;stroke-linecap:butt;stroke-linejoin:miter;stroke-opacity:1" />
<path class="bond-19 atom-19 atom-20" d="M 152.4,183.9 L 157.5,211.4" style="fill:none;fill-rule:evenodd;stroke:#000000;stroke-width:2.0px;stroke-linecap:butt;stroke-linejoin:miter;stroke-opacity:1" />
<path class="bond-20 atom-20 atom-21" d="M 157.5,211.4 L 183.8,220.7" style="fill:none;fill-rule:evenodd;stroke:#000000;stroke-width:2.0px;stroke-linecap:butt;stroke-linejoin:miter;stroke-opacity:1" />
<path class="bond-20 atom-20 atom-21" d="M 161.1,208.2 L 183.0,216.0" style="fill:none;fill-rule:evenodd;stroke:#000000;stroke-width:2.0px;stroke-linecap:butt;stroke-linejoin:miter;stroke-opacity:1" />
<path class="bond-21 atom-21 atom-22" d="M 183.8,220.7 L 205.1,202.5" style="fill:none;fill-rule:evenodd;stroke:#000000;stroke-width:2.0px;stroke-linecap:butt;stroke-linejoin:miter;stroke-opacity:1" />
<path class="bond-22 atom-22 atom-23" d="M 205.1,202.5 L 216.0,206.4" style="fill:none;fill-rule:evenodd;stroke:#000000;stroke-width:2.0px;stroke-linecap:butt;stroke-linejoin:miter;stroke-opacity:1" />
<path class="bond-22 atom-22 atom-23" d="M 216.0,206.4 L 226.9,210.2" style="fill:none;fill-rule:evenodd;stroke:#FF0000;stroke-width:2.0px;stroke-linecap:butt;stroke-linejoin:miter;stroke-opacity:1" />
<path class="bond-23 atom-23 atom-24" d="M 236.0,207.9 L 244.3,200.8" style="fill:none;fill-rule:evenodd;stroke:#FF0000;stroke-width:2.0px;stroke-linecap:butt;stroke-linejoin:miter;stroke-opacity:1" />
<path class="bond-23 atom-23 atom-24" d="M 244.3,200.8 L 252.7,193.7" style="fill:none;fill-rule:evenodd;stroke:#000000;stroke-width:2.0px;stroke-linecap:butt;stroke-linejoin:miter;stroke-opacity:1" />
<path class="bond-24 atom-24 atom-25" d="M 252.7,193.7 L 279.0,203.0" style="fill:none;fill-rule:evenodd;stroke:#000000;stroke-width:2.0px;stroke-linecap:butt;stroke-linejoin:miter;stroke-opacity:1" />
<path class="bond-25 atom-25 atom-26" d="M 279.0,203.0 L 300.3,184.8" style="fill:none;fill-rule:evenodd;stroke:#000000;stroke-width:2.0px;stroke-linecap:butt;stroke-linejoin:miter;stroke-opacity:1" />
<path class="bond-26 atom-26 atom-27" d="M 300.3,184.8 L 326.6,194.1" style="fill:none;fill-rule:evenodd;stroke:#000000;stroke-width:2.0px;stroke-linecap:butt;stroke-linejoin:miter;stroke-opacity:1" />
<path class="bond-27 atom-27 atom-28" d="M 326.6,194.1 L 347.9,176.0" style="fill:none;fill-rule:evenodd;stroke:#000000;stroke-width:2.0px;stroke-linecap:butt;stroke-linejoin:miter;stroke-opacity:1" />
<path class="bond-28 atom-28 atom-29" d="M 347.9,176.0 L 374.2,185.3" style="fill:none;fill-rule:evenodd;stroke:#000000;stroke-width:2.0px;stroke-linecap:butt;stroke-linejoin:miter;stroke-opacity:1" />
<path class="bond-29 atom-29 atom-30" d="M 374.2,185.3 L 382.6,178.2" style="fill:none;fill-rule:evenodd;stroke:#000000;stroke-width:2.0px;stroke-linecap:butt;stroke-linejoin:miter;stroke-opacity:1" />
<path class="bond-29 atom-29 atom-30" d="M 382.6,178.2 L 390.9,171.0" style="fill:none;fill-rule:evenodd;stroke:#FF0000;stroke-width:2.0px;stroke-linecap:butt;stroke-linejoin:miter;stroke-opacity:1" />
<path class="bond-30 atom-30 atom-31" d="M 400.0,168.8 L 410.9,172.6" style="fill:none;fill-rule:evenodd;stroke:#FF0000;stroke-width:2.0px;stroke-linecap:butt;stroke-linejoin:miter;stroke-opacity:1" />
<path class="bond-30 atom-30 atom-31" d="M 410.9,172.6 L 421.8,176.5" style="fill:none;fill-rule:evenodd;stroke:#000000;stroke-width:2.0px;stroke-linecap:butt;stroke-linejoin:miter;stroke-opacity:1" />
<path class="bond-31 atom-31 atom-32" d="M 421.8,176.5 L 426.9,203.9" style="fill:none;fill-rule:evenodd;stroke:#000000;stroke-width:2.0px;stroke-linecap:butt;stroke-linejoin:miter;stroke-opacity:1" />
<path class="bond-32 atom-32 atom-33" d="M 426.9,203.9 L 453.3,213.3" style="fill:none;fill-rule:evenodd;stroke:#000000;stroke-width:2.0px;stroke-linecap:butt;stroke-linejoin:miter;stroke-opacity:1" />
<path class="bond-32 atom-32 atom-33" d="M 430.6,200.8 L 452.4,208.5" style="fill:none;fill-rule:evenodd;stroke:#000000;stroke-width:2.0px;stroke-linecap:butt;stroke-linejoin:miter;stroke-opacity:1" />
<path class="bond-33 atom-33 atom-34" d="M 453.3,213.3 L 474.5,195.1" style="fill:none;fill-rule:evenodd;stroke:#000000;stroke-width:2.0px;stroke-linecap:butt;stroke-linejoin:miter;stroke-opacity:1" />
<path class="bond-34 atom-34 atom-35" d="M 474.5,195.1 L 469.4,167.6" style="fill:none;fill-rule:evenodd;stroke:#000000;stroke-width:2.0px;stroke-linecap:butt;stroke-linejoin:miter;stroke-opacity:1" />
<path class="bond-34 atom-34 atom-35" d="M 470.0,193.5 L 465.8,170.7" style="fill:none;fill-rule:evenodd;stroke:#000000;stroke-width:2.0px;stroke-linecap:butt;stroke-linejoin:miter;stroke-opacity:1" />
<path class="bond-35 atom-35 atom-36" d="M 469.4,167.6 L 443.1,158.3" style="fill:none;fill-rule:evenodd;stroke:#000000;stroke-width:2.0px;stroke-linecap:butt;stroke-linejoin:miter;stroke-opacity:1" />
<path class="bond-36 atom-36 atom-37" d="M 443.1,158.3 L 443.8,130.4" style="fill:none;fill-rule:evenodd;stroke:#000000;stroke-width:2.0px;stroke-linecap:butt;stroke-linejoin:miter;stroke-opacity:1" />
<path class="bond-37 atom-37 atom-38" d="M 446.3,129.6 L 436.8,122.4" style="fill:none;fill-rule:evenodd;stroke:#000000;stroke-width:2.0px;stroke-linecap:butt;stroke-linejoin:miter;stroke-opacity:1" />
<path class="bond-37 atom-37 atom-38" d="M 436.8,122.4 L 427.4,115.2" style="fill:none;fill-rule:evenodd;stroke:#FF0000;stroke-width:2.0px;stroke-linecap:butt;stroke-linejoin:miter;stroke-opacity:1" />
<path class="bond-37 atom-37 atom-38" d="M 443.7,132.9 L 434.3,125.7" style="fill:none;fill-rule:evenodd;stroke:#000000;stroke-width:2.0px;stroke-linecap:butt;stroke-linejoin:miter;stroke-opacity:1" />
<path class="bond-37 atom-37 atom-38" d="M 434.3,125.7 L 424.9,118.5" style="fill:none;fill-rule:evenodd;stroke:#FF0000;stroke-width:2.0px;stroke-linecap:butt;stroke-linejoin:miter;stroke-opacity:1" />
<path class="bond-38 atom-37 atom-39" d="M 443.8,130.4 L 455.2,127.0" style="fill:none;fill-rule:evenodd;stroke:#000000;stroke-width:2.0px;stroke-linecap:butt;stroke-linejoin:miter;stroke-opacity:1" />
<path class="bond-38 atom-37 atom-39" d="M 455.2,127.0 L 466.7,123.6" style="fill:none;fill-rule:evenodd;stroke:#0000FF;stroke-width:2.0px;stroke-linecap:butt;stroke-linejoin:miter;stroke-opacity:1" />
<path class="bond-39 atom-40 atom-39" d="M 478.3,99.3 L 479.1,99.6" style="fill:none;fill-rule:evenodd;stroke:#000000;stroke-width:1.0px;stroke-linecap:butt;stroke-linejoin:miter;stroke-opacity:1" />
<path class="bond-39 atom-40 atom-39" d="M 476.7,102.6 L 478.3,103.2" style="fill:none;fill-rule:evenodd;stroke:#000000;stroke-width:1.0px;stroke-linecap:butt;stroke-linejoin:miter;stroke-opacity:1" />
<path class="bond-39 atom-40 atom-39" d="M 475.1,105.9 L 477.4,106.7" style="fill:none;fill-rule:evenodd;stroke:#000000;stroke-width:1.0px;stroke-linecap:butt;stroke-linejoin:miter;stroke-opacity:1" />
<path class="bond-39 atom-40 atom-39" d="M 473.5,109.2 L 476.6,110.3" style="fill:none;fill-rule:evenodd;stroke:#0000FF;stroke-width:1.0px;stroke-linecap:butt;stroke-linejoin:miter;stroke-opacity:1" />
<path class="bond-39 atom-40 atom-39" d="M 471.9,112.5 L 475.8,113.9" style="fill:none;fill-rule:evenodd;stroke:#0000FF;stroke-width:1.0px;stroke-linecap:butt;stroke-linejoin:miter;stroke-opacity:1" />
<path class="bond-40 atom-40 atom-41" d="M 479.9,96.1 L 507.4,91.0" style="fill:none;fill-rule:evenodd;stroke:#000000;stroke-width:2.0px;stroke-linecap:butt;stroke-linejoin:miter;stroke-opacity:1" />
<path class="bond-41 atom-41 atom-42" d="M 507.4,91.0 L 516.7,64.6" style="fill:none;fill-rule:evenodd;stroke:#000000;stroke-width:2.0px;stroke-linecap:butt;stroke-linejoin:miter;stroke-opacity:1" />
<path class="bond-42 atom-42 atom-43" d="M 516.7,64.6 L 498.5,43.4" style="fill:none;fill-rule:evenodd;stroke:#000000;stroke-width:2.0px;stroke-linecap:butt;stroke-linejoin:miter;stroke-opacity:1" />
<path class="bond-43 atom-43 atom-44" d="M 500.1,45.2 L 504.1,34.0" style="fill:none;fill-rule:evenodd;stroke:#000000;stroke-width:2.0px;stroke-linecap:butt;stroke-linejoin:miter;stroke-opacity:1" />
<path class="bond-43 atom-43 atom-44" d="M 504.1,34.0 L 508.0,22.7" style="fill:none;fill-rule:evenodd;stroke:#FF0000;stroke-width:2.0px;stroke-linecap:butt;stroke-linejoin:miter;stroke-opacity:1" />
<path class="bond-43 atom-43 atom-44" d="M 496.2,43.8 L 500.2,32.6" style="fill:none;fill-rule:evenodd;stroke:#000000;stroke-width:2.0px;stroke-linecap:butt;stroke-linejoin:miter;stroke-opacity:1" />
<path class="bond-43 atom-43 atom-44" d="M 500.2,32.6 L 504.1,21.3" style="fill:none;fill-rule:evenodd;stroke:#FF0000;stroke-width:2.0px;stroke-linecap:butt;stroke-linejoin:miter;stroke-opacity:1" />
<path class="bond-44 atom-43 atom-45" d="M 498.5,43.4 L 486.8,45.5" style="fill:none;fill-rule:evenodd;stroke:#000000;stroke-width:2.0px;stroke-linecap:butt;stroke-linejoin:miter;stroke-opacity:1" />
<path class="bond-44 atom-43 atom-45" d="M 486.8,45.5 L 475.0,47.7" style="fill:none;fill-rule:evenodd;stroke:#0000FF;stroke-width:2.0px;stroke-linecap:butt;stroke-linejoin:miter;stroke-opacity:1" />
<path class="bond-45 atom-45 atom-46" d="M 469.3,53.3 L 465.5,64.1" style="fill:none;fill-rule:evenodd;stroke:#0000FF;stroke-width:2.0px;stroke-linecap:butt;stroke-linejoin:miter;stroke-opacity:1" />
<path class="bond-45 atom-45 atom-46" d="M 465.5,64.1 L 461.7,74.8" style="fill:none;fill-rule:evenodd;stroke:#000000;stroke-width:2.0px;stroke-linecap:butt;stroke-linejoin:miter;stroke-opacity:1" />
<path class="bond-46 atom-46 atom-47" d="M 462.5,72.6 L 450.5,74.8" style="fill:none;fill-rule:evenodd;stroke:#000000;stroke-width:2.0px;stroke-linecap:butt;stroke-linejoin:miter;stroke-opacity:1" />
<path class="bond-46 atom-46 atom-47" d="M 450.5,74.8 L 438.4,77.0" style="fill:none;fill-rule:evenodd;stroke:#FF0000;stroke-width:2.0px;stroke-linecap:butt;stroke-linejoin:miter;stroke-opacity:1" />
<path class="bond-46 atom-46 atom-47" d="M 463.3,76.6 L 451.2,78.9" style="fill:none;fill-rule:evenodd;stroke:#000000;stroke-width:2.0px;stroke-linecap:butt;stroke-linejoin:miter;stroke-opacity:1" />
<path class="bond-46 atom-46 atom-47" d="M 451.2,78.9 L 439.2,81.1" style="fill:none;fill-rule:evenodd;stroke:#FF0000;stroke-width:2.0px;stroke-linecap:butt;stroke-linejoin:miter;stroke-opacity:1" />
<path class="bond-47 atom-39 atom-48" d="M 473.9,127.3 L 480.2,136.4" style="fill:none;fill-rule:evenodd;stroke:#0000FF;stroke-width:2.0px;stroke-linecap:butt;stroke-linejoin:miter;stroke-opacity:1" />
<path class="bond-47 atom-39 atom-48" d="M 480.2,136.4 L 486.4,145.4" style="fill:none;fill-rule:evenodd;stroke:#000000;stroke-width:2.0px;stroke-linecap:butt;stroke-linejoin:miter;stroke-opacity:1" />
<path class="bond-48 atom-48 atom-49" d="M 484.9,147.5 L 497.3,147.8" style="fill:none;fill-rule:evenodd;stroke:#000000;stroke-width:2.0px;stroke-linecap:butt;stroke-linejoin:miter;stroke-opacity:1" />
<path class="bond-48 atom-48 atom-49" d="M 497.3,147.8 L 509.8,148.1" style="fill:none;fill-rule:evenodd;stroke:#FF0000;stroke-width:2.0px;stroke-linecap:butt;stroke-linejoin:miter;stroke-opacity:1" />
<path class="bond-48 atom-48 atom-49" d="M 485.0,143.3 L 497.4,143.6" style="fill:none;fill-rule:evenodd;stroke:#000000;stroke-width:2.0px;stroke-linecap:butt;stroke-linejoin:miter;stroke-opacity:1" />
<path class="bond-48 atom-48 atom-49" d="M 497.4,143.6 L 509.9,144.0" style="fill:none;fill-rule:evenodd;stroke:#FF0000;stroke-width:2.0px;stroke-linecap:butt;stroke-linejoin:miter;stroke-opacity:1" />
<path class="bond-49 atom-22 atom-50" d="M 205.1,202.5 L 200.0,175.0" style="fill:none;fill-rule:evenodd;stroke:#000000;stroke-width:2.0px;stroke-linecap:butt;stroke-linejoin:miter;stroke-opacity:1" />
<path class="bond-49 atom-22 atom-50" d="M 200.6,200.9 L 196.3,178.2" style="fill:none;fill-rule:evenodd;stroke:#000000;stroke-width:2.0px;stroke-linecap:butt;stroke-linejoin:miter;stroke-opacity:1" />
<path class="bond-50 atom-50 atom-51" d="M 200.0,175.0 L 208.3,167.9" style="fill:none;fill-rule:evenodd;stroke:#000000;stroke-width:2.0px;stroke-linecap:butt;stroke-linejoin:miter;stroke-opacity:1" />
<path class="bond-50 atom-50 atom-51" d="M 208.3,167.9 L 216.7,160.8" style="fill:none;fill-rule:evenodd;stroke:#FF0000;stroke-width:2.0px;stroke-linecap:butt;stroke-linejoin:miter;stroke-opacity:1" />
<path class="bond-51 atom-17 atom-52" d="M 168.5,138.2 L 177.2,130.8" style="fill:none;fill-rule:evenodd;stroke:#000000;stroke-width:2.0px;stroke-linecap:butt;stroke-linejoin:miter;stroke-opacity:1" />
<path class="bond-51 atom-17 atom-52" d="M 177.2,130.8 L 185.9,123.4" style="fill:none;fill-rule:evenodd;stroke:#0000FF;stroke-width:2.0px;stroke-linecap:butt;stroke-linejoin:miter;stroke-opacity:1" />
<path class="bond-52 atom-52 atom-53" d="M 188.9,115.2 L 185.6,97.5" style="fill:none;fill-rule:evenodd;stroke:#0000FF;stroke-width:2.0px;stroke-linecap:butt;stroke-linejoin:miter;stroke-opacity:1" />
<path class="bond-52 atom-52 atom-53" d="M 184.8,116.0 L 181.5,98.2" style="fill:none;fill-rule:evenodd;stroke:#0000FF;stroke-width:2.0px;stroke-linecap:butt;stroke-linejoin:miter;stroke-opacity:1" />
<path class="bond-53 atom-53 atom-54" d="M 180.7,91.2 L 169.5,87.2" style="fill:none;fill-rule:evenodd;stroke:#0000FF;stroke-width:2.0px;stroke-linecap:butt;stroke-linejoin:miter;stroke-opacity:1" />
<path class="bond-53 atom-53 atom-54" d="M 169.5,87.2 L 158.3,83.3" style="fill:none;fill-rule:evenodd;stroke:#000000;stroke-width:2.0px;stroke-linecap:butt;stroke-linejoin:miter;stroke-opacity:1" />
<path class="bond-54 atom-54 atom-55" d="M 158.3,83.3 L 156.2,72.0" style="fill:none;fill-rule:evenodd;stroke:#000000;stroke-width:2.0px;stroke-linecap:butt;stroke-linejoin:miter;stroke-opacity:1" />
<path class="bond-54 atom-54 atom-55" d="M 156.2,72.0 L 154.1,60.7" style="fill:none;fill-rule:evenodd;stroke:#0000FF;stroke-width:2.0px;stroke-linecap:butt;stroke-linejoin:miter;stroke-opacity:1" />
<path class="bond-55 atom-14 atom-56" d="M 109.8,87.3 L 107.7,75.9" style="fill:none;fill-rule:evenodd;stroke:#0000FF;stroke-width:2.0px;stroke-linecap:butt;stroke-linejoin:miter;stroke-opacity:1" />
<path class="bond-55 atom-14 atom-56" d="M 107.7,75.9 L 105.6,64.6" style="fill:none;fill-rule:evenodd;stroke:#000000;stroke-width:2.0px;stroke-linecap:butt;stroke-linejoin:miter;stroke-opacity:1" />
<path class="bond-56 atom-7 atom-57" d="M 113.6,91.4 L 134.8,73.3" style="fill:none;fill-rule:evenodd;stroke:#000000;stroke-width:2.0px;stroke-linecap:butt;stroke-linejoin:miter;stroke-opacity:1" />
<path class="bond-57 atom-57 atom-58" d="M 134.8,73.3 L 161.2,82.6" style="fill:none;fill-rule:evenodd;stroke:#000000;stroke-width:2.0px;stroke-linecap:butt;stroke-linejoin:miter;stroke-opacity:1" />
<path class="bond-57 atom-57 atom-58" d="M 135.7,78.0 L 157.5,85.7" style="fill:none;fill-rule:evenodd;stroke:#000000;stroke-width:2.0px;stroke-linecap:butt;stroke-linejoin:miter;stroke-opacity:1" />
<path class="bond-58 atom-58 atom-59" d="M 161.2,82.6 L 163.3,93.9" style="fill:none;fill-rule:evenodd;stroke:#000000;stroke-width:2.0px;stroke-linecap:butt;stroke-linejoin:miter;stroke-opacity:1" />
<path class="bond-58 atom-58 atom-59" d="M 163.3,93.9 L 165.4,105.2" style="fill:none;fill-rule:evenodd;stroke:#0000FF;stroke-width:2.0px;stroke-linecap:butt;stroke-linejoin:miter;stroke-opacity:1" />
<path class="bond-59 atom-59 atom-5" d="M 162.3,113.4 L 153.7,120.8" style="fill:none;fill-rule:evenodd;stroke:#0000FF;stroke-width:2.0px;stroke-linecap:butt;stroke-linejoin:miter;stroke-opacity:1" />
<path class="bond-59 atom-59 atom-5" d="M 153.7,120.8 L 145.0,128.2" style="fill:none;fill-rule:evenodd;stroke:#000000;stroke-width:2.0px;stroke-linecap:butt;stroke-linejoin:miter;stroke-opacity:1" />
<path class="bond-59 atom-59 atom-5" d="M 159.6,110.3 L 151.9,116.9" style="fill:none;fill-rule:evenodd;stroke:#0000FF;stroke-width:2.0px;stroke-linecap:butt;stroke-linejoin:miter;stroke-opacity:1" />
<path class="bond-59 atom-59 atom-5" d="M 151.9,116.9 L 144.1,123.5" style="fill:none;fill-rule:evenodd;stroke:#000000;stroke-width:2.0px;stroke-linecap:butt;stroke-linejoin:miter;stroke-opacity:1" />
<path class="bond-60 atom-12 atom-8" d="M 64.2,98.0 L 73.7,91.4" style="fill:none;fill-rule:evenodd;stroke:#000000;stroke-width:2.0px;stroke-linecap:butt;stroke-linejoin:miter;stroke-opacity:1" />
<path class="bond-60 atom-12 atom-8" d="M 73.7,91.4 L 83.3,84.8" style="fill:none;fill-rule:evenodd;stroke:#0000FF;stroke-width:2.0px;stroke-linecap:butt;stroke-linejoin:miter;stroke-opacity:1" />
<path class="bond-61 atom-54 atom-15" d="M 158.3,83.3 L 137.1,101.4" style="fill:none;fill-rule:evenodd;stroke:#000000;stroke-width:2.0px;stroke-linecap:butt;stroke-linejoin:miter;stroke-opacity:1" />
<path class="bond-61 atom-54 atom-15" d="M 159.2,88.0 L 141.6,103.0" style="fill:none;fill-rule:evenodd;stroke:#000000;stroke-width:2.0px;stroke-linecap:butt;stroke-linejoin:miter;stroke-opacity:1" />
<path class="bond-62 atom-56 atom-9" d="M 105.6,64.6 L 79.3,55.3" style="fill:none;fill-rule:evenodd;stroke:#000000;stroke-width:2.0px;stroke-linecap:butt;stroke-linejoin:miter;stroke-opacity:1" />
<path class="bond-63 atom-50 atom-18" d="M 200.0,175.0 L 173.6,165.7" style="fill:none;fill-rule:evenodd;stroke:#000000;stroke-width:2.0px;stroke-linecap:butt;stroke-linejoin:miter;stroke-opacity:1" />
<path class="bond-64 atom-36 atom-31" d="M 443.1,158.3 L 421.8,176.5" style="fill:none;fill-rule:evenodd;stroke:#000000;stroke-width:2.0px;stroke-linecap:butt;stroke-linejoin:miter;stroke-opacity:1" />
<path class="bond-64 atom-36 atom-31" d="M 443.9,163.0 L 426.3,178.1" style="fill:none;fill-rule:evenodd;stroke:#000000;stroke-width:2.0px;stroke-linecap:butt;stroke-linejoin:miter;stroke-opacity:1" />
<path class="bond-65 atom-46 atom-40" d="M 461.7,74.8 L 479.9,96.1" style="fill:none;fill-rule:evenodd;stroke:#000000;stroke-width:2.0px;stroke-linecap:butt;stroke-linejoin:miter;stroke-opacity:1" />
<path class="bond-66 atom-48 atom-35" d="M 486.4,145.4 L 469.4,167.6" style="fill:none;fill-rule:evenodd;stroke:#000000;stroke-width:2.0px;stroke-linecap:butt;stroke-linejoin:miter;stroke-opacity:1" />
<path class="bond-67 atom-9 atom-60" d="M 79.3,55.3 L 79.5,42.4 L 83.6,43.2 Z" style="fill:#000000;fill-rule:evenodd;fill-opacity:1;stroke:#000000;stroke-width:0.5px;stroke-linecap:butt;stroke-linejoin:miter;stroke-miterlimit:10;stroke-opacity:1;" />
<path class="bond-68 atom-12 atom-61" d="M 64.2,98.0 L 59.7,109.1 L 56.2,106.9 Z" style="fill:#000000;fill-rule:evenodd;fill-opacity:1;stroke:#000000;stroke-width:0.5px;stroke-linecap:butt;stroke-linejoin:miter;stroke-miterlimit:10;stroke-opacity:1;" />
<path d="M 133.6,201.7 L 134.0,201.4 L 133.7,200.0" style="fill:none;stroke:#000000;stroke-width:2.0px;stroke-linecap:butt;stroke-linejoin:miter;stroke-miterlimit:10;stroke-opacity:1;" />
<path d="M 129.1,175.3 L 128.9,173.9 L 129.3,173.5" style="fill:none;stroke:#000000;stroke-width:2.0px;stroke-linecap:butt;stroke-linejoin:miter;stroke-miterlimit:10;stroke-opacity:1;" />
<path d="M 120.0,119.4 L 118.7,118.9 L 118.4,117.5" style="fill:none;stroke:#000000;stroke-width:2.0px;stroke-linecap:butt;stroke-linejoin:miter;stroke-miterlimit:10;stroke-opacity:1;" />
<path d="M 52.7,54.6 L 51.3,54.6 L 50.9,55.9" style="fill:none;stroke:#000000;stroke-width:2.0px;stroke-linecap:butt;stroke-linejoin:miter;stroke-miterlimit:10;stroke-opacity:1;" />
<path d="M 42.5,79.6 L 42.0,81.0 L 43.1,81.8" style="fill:none;stroke:#000000;stroke-width:2.0px;stroke-linecap:butt;stroke-linejoin:miter;stroke-miterlimit:10;stroke-opacity:1;" />
<path d="M 88.2,109.7 L 89.5,110.3 L 89.9,109.9" style="fill:none;stroke:#000000;stroke-width:2.0px;stroke-linecap:butt;stroke-linejoin:miter;stroke-miterlimit:10;stroke-opacity:1;" />
<path d="M 141.9,127.5 L 142.2,128.9 L 143.5,129.4" style="fill:none;stroke:#000000;stroke-width:2.0px;stroke-linecap:butt;stroke-linejoin:miter;stroke-miterlimit:10;stroke-opacity:1;" />
<path d="M 153.4,183.0 L 152.4,183.9 L 152.6,185.3" style="fill:none;stroke:#000000;stroke-width:2.0px;stroke-linecap:butt;stroke-linejoin:miter;stroke-miterlimit:10;stroke-opacity:1;" />
<path d="M 157.2,210.0 L 157.5,211.4 L 158.8,211.8" style="fill:none;stroke:#000000;stroke-width:2.0px;stroke-linecap:butt;stroke-linejoin:miter;stroke-miterlimit:10;stroke-opacity:1;" />
<path d="M 182.5,220.2 L 183.8,220.7 L 184.9,219.8" style="fill:none;stroke:#000000;stroke-width:2.0px;stroke-linecap:butt;stroke-linejoin:miter;stroke-miterlimit:10;stroke-opacity:1;" />
<path d="M 252.3,194.0 L 252.7,193.7 L 254.0,194.1" style="fill:none;stroke:#000000;stroke-width:2.0px;stroke-linecap:butt;stroke-linejoin:miter;stroke-miterlimit:10;stroke-opacity:1;" />
<path d="M 277.7,202.5 L 279.0,203.0 L 280.1,202.1" style="fill:none;stroke:#000000;stroke-width:2.0px;stroke-linecap:butt;stroke-linejoin:miter;stroke-miterlimit:10;stroke-opacity:1;" />
<path d="M 299.2,185.7 L 300.3,184.8 L 301.6,185.3" style="fill:none;stroke:#000000;stroke-width:2.0px;stroke-linecap:butt;stroke-linejoin:miter;stroke-miterlimit:10;stroke-opacity:1;" />
<path d="M 325.3,193.7 L 326.6,194.1 L 327.7,193.2" style="fill:none;stroke:#000000;stroke-width:2.0px;stroke-linecap:butt;stroke-linejoin:miter;stroke-miterlimit:10;stroke-opacity:1;" />
<path d="M 346.8,176.9 L 347.9,176.0 L 349.2,176.5" style="fill:none;stroke:#000000;stroke-width:2.0px;stroke-linecap:butt;stroke-linejoin:miter;stroke-miterlimit:10;stroke-opacity:1;" />
<path d="M 372.9,184.8 L 374.2,185.3 L 374.6,184.9" style="fill:none;stroke:#000000;stroke-width:2.0px;stroke-linecap:butt;stroke-linejoin:miter;stroke-miterlimit:10;stroke-opacity:1;" />
<path d="M 426.7,202.6 L 426.9,203.9 L 428.2,204.4" style="fill:none;stroke:#000000;stroke-width:2.0px;stroke-linecap:butt;stroke-linejoin:miter;stroke-miterlimit:10;stroke-opacity:1;" />
<path d="M 452.0,212.8 L 453.3,213.3 L 454.3,212.4" style="fill:none;stroke:#000000;stroke-width:2.0px;stroke-linecap:butt;stroke-linejoin:miter;stroke-miterlimit:10;stroke-opacity:1;" />
<path d="M 473.5,196.0 L 474.5,195.1 L 474.3,193.7" style="fill:none;stroke:#000000;stroke-width:2.0px;stroke-linecap:butt;stroke-linejoin:miter;stroke-miterlimit:10;stroke-opacity:1;" />
<path d="M 443.8,131.8 L 443.8,130.4 L 444.4,130.2" style="fill:none;stroke:#000000;stroke-width:2.0px;stroke-linecap:butt;stroke-linejoin:miter;stroke-miterlimit:10;stroke-opacity:1;" />
<path d="M 481.3,95.8 L 479.9,96.1 L 479.0,95.0" style="fill:none;stroke:#000000;stroke-width:2.0px;stroke-linecap:butt;stroke-linejoin:miter;stroke-miterlimit:10;stroke-opacity:1;" />
<path d="M 506.0,91.2 L 507.4,91.0 L 507.8,89.6" style="fill:none;stroke:#000000;stroke-width:2.0px;stroke-linecap:butt;stroke-linejoin:miter;stroke-miterlimit:10;stroke-opacity:1;" />
<path d="M 516.2,65.9 L 516.7,64.6 L 515.8,63.5" style="fill:none;stroke:#000000;stroke-width:2.0px;stroke-linecap:butt;stroke-linejoin:miter;stroke-miterlimit:10;stroke-opacity:1;" />
<path d="M 499.4,44.4 L 498.5,43.4 L 498.0,43.5" style="fill:none;stroke:#000000;stroke-width:2.0px;stroke-linecap:butt;stroke-linejoin:miter;stroke-miterlimit:10;stroke-opacity:1;" />
<path d="M 461.9,74.3 L 461.7,74.8 L 462.7,75.9" style="fill:none;stroke:#000000;stroke-width:2.0px;stroke-linecap:butt;stroke-linejoin:miter;stroke-miterlimit:10;stroke-opacity:1;" />
<path d="M 486.1,145.0 L 486.4,145.4 L 485.6,146.5" style="fill:none;stroke:#000000;stroke-width:2.0px;stroke-linecap:butt;stroke-linejoin:miter;stroke-miterlimit:10;stroke-opacity:1;" />
<path d="M 105.7,65.2 L 105.6,64.6 L 104.3,64.2" style="fill:none;stroke:#000000;stroke-width:2.0px;stroke-linecap:butt;stroke-linejoin:miter;stroke-miterlimit:10;stroke-opacity:1;" />
<path d="M 133.7,74.2 L 134.8,73.3 L 136.1,73.7" style="fill:none;stroke:#000000;stroke-width:2.0px;stroke-linecap:butt;stroke-linejoin:miter;stroke-miterlimit:10;stroke-opacity:1;" />
<path d="M 159.8,82.1 L 161.2,82.6 L 161.3,83.2" style="fill:none;stroke:#000000;stroke-width:2.0px;stroke-linecap:butt;stroke-linejoin:miter;stroke-miterlimit:10;stroke-opacity:1;" />
<path class="atom-1" d="M 109.1 219.5 Q 109.1 217.6, 110.0 216.6 Q 111.0 215.5, 112.7 215.5 Q 114.5 215.5, 115.4 216.6 Q 116.4 217.6, 116.4 219.5 Q 116.4 221.5, 115.4 222.6 Q 114.5 223.6, 112.7 223.6 Q 111.0 223.6, 110.0 222.6 Q 109.1 221.5, 109.1 219.5 M 112.7 222.8 Q 113.9 222.8, 114.6 221.9 Q 115.3 221.1, 115.3 219.5 Q 115.3 218.0, 114.6 217.2 Q 113.9 216.4, 112.7 216.4 Q 111.5 216.4, 110.9 217.2 Q 110.2 218.0, 110.2 219.5 Q 110.2 221.1, 110.9 221.9 Q 111.5 222.8, 112.7 222.8 " fill="#FF0000" />
<path class="atom-4" d="M 146.5 155.7 Q 146.5 153.8, 147.4 152.8 Q 148.4 151.7, 150.1 151.7 Q 151.9 151.7, 152.8 152.8 Q 153.8 153.8, 153.8 155.7 Q 153.8 157.7, 152.8 158.8 Q 151.9 159.8, 150.1 159.8 Q 148.4 159.8, 147.4 158.8 Q 146.5 157.7, 146.5 155.7 M 150.1 158.9 Q 151.3 158.9, 152.0 158.1 Q 152.6 157.3, 152.6 155.7 Q 152.6 154.2, 152.0 153.4 Q 151.3 152.6, 150.1 152.6 Q 148.9 152.6, 148.3 153.4 Q 147.6 154.2, 147.6 155.7 Q 147.6 157.3, 148.3 158.1 Q 148.9 158.9, 150.1 158.9 " fill="#FF0000" />
<path class="atom-8" d="M 85.5 78.2 L 88.1 82.4 Q 88.3 82.8, 88.7 83.5 Q 89.1 84.3, 89.2 84.3 L 89.2 78.2 L 90.2 78.2 L 90.2 86.1 L 89.1 86.1 L 86.3 81.5 Q 86.0 81.0, 85.7 80.3 Q 85.3 79.7, 85.2 79.5 L 85.2 86.1 L 84.2 86.1 L 84.2 78.2 L 85.5 78.2 " fill="#0000FF" />
<path class="atom-14" d="M 109.0 88.2 L 111.6 92.4 Q 111.8 92.8, 112.2 93.5 Q 112.6 94.3, 112.7 94.3 L 112.7 88.2 L 113.7 88.2 L 113.7 96.1 L 112.6 96.1 L 109.8 91.5 Q 109.5 91.0, 109.2 90.3 Q 108.8 89.7, 108.7 89.5 L 108.7 96.1 L 107.7 96.1 L 107.7 88.2 L 109.0 88.2 " fill="#0000FF" />
<path class="atom-23" d="M 227.8 211.9 Q 227.8 210.0, 228.7 208.9 Q 229.7 207.8, 231.4 207.8 Q 233.2 207.8, 234.1 208.9 Q 235.1 210.0, 235.1 211.9 Q 235.1 213.8, 234.1 214.9 Q 233.2 216.0, 231.4 216.0 Q 229.7 216.0, 228.7 214.9 Q 227.8 213.8, 227.8 211.9 M 231.4 215.1 Q 232.6 215.1, 233.3 214.3 Q 234.0 213.4, 234.0 211.9 Q 234.0 210.3, 233.3 209.5 Q 232.6 208.7, 231.4 208.7 Q 230.2 208.7, 229.6 209.5 Q 228.9 210.3, 228.9 211.9 Q 228.9 213.5, 229.6 214.3 Q 230.2 215.1, 231.4 215.1 " fill="#FF0000" />
<path class="atom-30" d="M 391.8 167.2 Q 391.8 165.3, 392.8 164.2 Q 393.7 163.1, 395.5 163.1 Q 397.2 163.1, 398.2 164.2 Q 399.1 165.3, 399.1 167.2 Q 399.1 169.1, 398.2 170.2 Q 397.2 171.3, 395.5 171.3 Q 393.7 171.3, 392.8 170.2 Q 391.8 169.1, 391.8 167.2 M 395.5 170.4 Q 396.7 170.4, 397.3 169.6 Q 398.0 168.8, 398.0 167.2 Q 398.0 165.6, 397.3 164.8 Q 396.7 164.0, 395.5 164.0 Q 394.3 164.0, 393.6 164.8 Q 393.0 165.6, 393.0 167.2 Q 393.0 168.8, 393.6 169.6 Q 394.3 170.4, 395.5 170.4 " fill="#FF0000" />
<path class="atom-38" d="M 418.0 113.4 Q 418.0 111.5, 418.9 110.4 Q 419.9 109.4, 421.6 109.4 Q 423.4 109.4, 424.3 110.4 Q 425.2 111.5, 425.2 113.4 Q 425.2 115.3, 424.3 116.4 Q 423.3 117.5, 421.6 117.5 Q 419.9 117.5, 418.9 116.4 Q 418.0 115.3, 418.0 113.4 M 421.6 116.6 Q 422.8 116.6, 423.5 115.8 Q 424.1 115.0, 424.1 113.4 Q 424.1 111.8, 423.5 111.0 Q 422.8 110.2, 421.6 110.2 Q 420.4 110.2, 419.7 111.0 Q 419.1 111.8, 419.1 113.4 Q 419.1 115.0, 419.7 115.8 Q 420.4 116.6, 421.6 116.6 " fill="#FF0000" />
<path class="atom-39" d="M 468.8 118.5 L 471.4 122.6 Q 471.7 123.1, 472.1 123.8 Q 472.5 124.6, 472.5 124.6 L 472.5 118.5 L 473.6 118.5 L 473.6 126.4 L 472.5 126.4 L 469.7 121.8 Q 469.4 121.2, 469.0 120.6 Q 468.7 120.0, 468.6 119.8 L 468.6 126.4 L 467.6 126.4 L 467.6 118.5 L 468.8 118.5 " fill="#0000FF" />
<path class="atom-44" d="M 504.2 17.0 Q 504.2 15.1, 505.2 14.1 Q 506.1 13.0, 507.9 13.0 Q 509.6 13.0, 510.6 14.1 Q 511.5 15.1, 511.5 17.0 Q 511.5 18.9, 510.5 20.0 Q 509.6 21.1, 507.9 21.1 Q 506.1 21.1, 505.2 20.0 Q 504.2 19.0, 504.2 17.0 M 507.9 20.2 Q 509.1 20.2, 509.7 19.4 Q 510.4 18.6, 510.4 17.0 Q 510.4 15.5, 509.7 14.7 Q 509.1 13.9, 507.9 13.9 Q 506.7 13.9, 506.0 14.7 Q 505.3 15.5, 505.3 17.0 Q 505.3 18.6, 506.0 19.4 Q 506.7 20.2, 507.9 20.2 " fill="#FF0000" />
<path class="atom-45" d="M 460.3 44.5 L 461.4 44.5 L 461.4 47.9 L 465.4 47.9 L 465.4 44.5 L 466.5 44.5 L 466.5 52.4 L 465.4 52.4 L 465.4 48.8 L 461.4 48.8 L 461.4 52.4 L 460.3 52.4 L 460.3 44.5 " fill="#0000FF" />
<path class="atom-45" d="M 469.3 44.5 L 471.9 48.7 Q 472.2 49.1, 472.6 49.9 Q 473.0 50.6, 473.0 50.7 L 473.0 44.5 L 474.1 44.5 L 474.1 52.4 L 473.0 52.4 L 470.2 47.8 Q 469.9 47.3, 469.5 46.7 Q 469.2 46.1, 469.1 45.9 L 469.1 52.4 L 468.1 52.4 L 468.1 44.5 L 469.3 44.5 " fill="#0000FF" />
<path class="atom-47" d="M 430.6 79.9 Q 430.6 78.0, 431.6 77.0 Q 432.5 75.9, 434.3 75.9 Q 436.0 75.9, 437.0 77.0 Q 437.9 78.0, 437.9 79.9 Q 437.9 81.9, 436.9 83.0 Q 436.0 84.0, 434.3 84.0 Q 432.5 84.0, 431.6 83.0 Q 430.6 81.9, 430.6 79.9 M 434.3 83.1 Q 435.5 83.1, 436.1 82.3 Q 436.8 81.5, 436.8 79.9 Q 436.8 78.4, 436.1 77.6 Q 435.5 76.8, 434.3 76.8 Q 433.1 76.8, 432.4 77.6 Q 431.7 78.4, 431.7 79.9 Q 431.7 81.5, 432.4 82.3 Q 433.1 83.1, 434.3 83.1 " fill="#FF0000" />
<path class="atom-49" d="M 510.7 146.2 Q 510.7 144.3, 511.7 143.2 Q 512.6 142.2, 514.4 142.2 Q 516.1 142.2, 517.1 143.2 Q 518.0 144.3, 518.0 146.2 Q 518.0 148.1, 517.1 149.2 Q 516.1 150.3, 514.4 150.3 Q 512.6 150.3, 511.7 149.2 Q 510.7 148.1, 510.7 146.2 M 514.4 149.4 Q 515.6 149.4, 516.2 148.6 Q 516.9 147.8, 516.9 146.2 Q 516.9 144.6, 516.2 143.8 Q 515.6 143.0, 514.4 143.0 Q 513.2 143.0, 512.5 143.8 Q 511.9 144.6, 511.9 146.2 Q 511.9 147.8, 512.5 148.6 Q 513.2 149.4, 514.4 149.4 " fill="#FF0000" />
<path class="atom-51" d="M 217.6 156.9 Q 217.6 155.0, 218.5 153.9 Q 219.5 152.9, 221.2 152.9 Q 223.0 152.9, 223.9 153.9 Q 224.9 155.0, 224.9 156.9 Q 224.9 158.8, 223.9 159.9 Q 223.0 161.0, 221.2 161.0 Q 219.5 161.0, 218.5 159.9 Q 217.6 158.8, 217.6 156.9 M 221.2 160.1 Q 222.4 160.1, 223.1 159.3 Q 223.7 158.5, 223.7 156.9 Q 223.7 155.3, 223.1 154.6 Q 222.4 153.8, 221.2 153.8 Q 220.0 153.8, 219.4 154.5 Q 218.7 155.3, 218.7 156.9 Q 218.7 158.5, 219.4 159.3 Q 220.0 160.1, 221.2 160.1 " fill="#FF0000" />
<path class="atom-51" d="M 226.1 153.0 L 227.2 153.0 L 227.2 156.3 L 231.2 156.3 L 231.2 153.0 L 232.3 153.0 L 232.3 160.9 L 231.2 160.9 L 231.2 157.2 L 227.2 157.2 L 227.2 160.9 L 226.1 160.9 L 226.1 153.0 " fill="#FF0000" />
<path class="atom-52" d="M 188.0 116.1 L 190.6 120.3 Q 190.9 120.7, 191.3 121.5 Q 191.7 122.2, 191.7 122.3 L 191.7 116.1 L 192.8 116.1 L 192.8 124.0 L 191.7 124.0 L 188.9 119.5 Q 188.6 118.9, 188.2 118.3 Q 187.9 117.7, 187.8 117.5 L 187.8 124.0 L 186.8 124.0 L 186.8 116.1 L 188.0 116.1 " fill="#0000FF" />
<path class="atom-53" d="M 182.9 88.6 L 185.5 92.8 Q 185.8 93.2, 186.2 94.0 Q 186.6 94.7, 186.6 94.8 L 186.6 88.6 L 187.7 88.6 L 187.7 96.6 L 186.6 96.6 L 183.8 92.0 Q 183.5 91.4, 183.1 90.8 Q 182.8 90.2, 182.7 90.0 L 182.7 96.6 L 181.7 96.6 L 181.7 88.6 L 182.9 88.6 " fill="#0000FF" />
<path class="atom-55" d="M 151.5 51.8 L 154.0 56.0 Q 154.3 56.4, 154.7 57.2 Q 155.1 57.9, 155.2 58.0 L 155.2 51.8 L 156.2 51.8 L 156.2 59.8 L 155.1 59.8 L 152.3 55.2 Q 152.0 54.6, 151.7 54.0 Q 151.3 53.4, 151.2 53.2 L 151.2 59.8 L 150.2 59.8 L 150.2 51.8 L 151.5 51.8 " fill="#0000FF" />
<path class="atom-55" d="M 157.7 51.8 L 158.8 51.8 L 158.8 55.2 L 162.8 55.2 L 162.8 51.8 L 163.9 51.8 L 163.9 59.8 L 162.8 59.8 L 162.8 56.1 L 158.8 56.1 L 158.8 59.8 L 157.7 59.8 L 157.7 51.8 " fill="#0000FF" />
<path class="atom-55" d="M 165.5 59.5 Q 165.7 59.0, 166.1 58.7 Q 166.6 58.4, 167.2 58.4 Q 168.0 58.4, 168.4 58.9 Q 168.9 59.3, 168.9 60.0 Q 168.9 60.8, 168.3 61.5 Q 167.7 62.3, 166.6 63.1 L 169.0 63.1 L 169.0 63.7 L 165.4 63.7 L 165.4 63.2 Q 166.4 62.5, 167.0 62.0 Q 167.6 61.5, 167.9 61.0 Q 168.1 60.6, 168.1 60.1 Q 168.1 59.6, 167.9 59.3 Q 167.6 59.0, 167.2 59.0 Q 166.8 59.0, 166.5 59.2 Q 166.2 59.4, 166.0 59.7 L 165.5 59.5 " fill="#0000FF" />
<path class="atom-59" d="M 164.5 106.1 L 167.1 110.3 Q 167.4 110.7, 167.8 111.5 Q 168.2 112.2, 168.2 112.3 L 168.2 106.1 L 169.3 106.1 L 169.3 114.0 L 168.2 114.0 L 165.4 109.4 Q 165.1 108.9, 164.7 108.3 Q 164.4 107.7, 164.3 107.5 L 164.3 114.0 L 163.3 114.0 L 163.3 106.1 L 164.5 106.1 " fill="#0000FF" />
<path class="atom-60" d="M 79.5 33.0 L 80.6 33.0 L 80.6 36.4 L 84.7 36.4 L 84.7 33.0 L 85.7 33.0 L 85.7 41.0 L 84.7 41.0 L 84.7 37.3 L 80.6 37.3 L 80.6 41.0 L 79.5 41.0 L 79.5 33.0 " fill="#000000" />
<path class="atom-61" d="M 51.3 109.9 L 52.4 109.9 L 52.4 113.2 L 56.4 113.2 L 56.4 109.9 L 57.5 109.9 L 57.5 117.8 L 56.4 117.8 L 56.4 114.1 L 52.4 114.1 L 52.4 117.8 L 51.3 117.8 L 51.3 109.9 " fill="#000000" />
<path class="atom-5" d="M 143.2,126.4 L 143.2,130.1 L 146.9,130.1 L 146.9,126.4 L 143.2,126.4" style="fill:none;stroke:#FF0000;stroke-width:2.0px;stroke-linecap:butt;stroke-linejoin:miter;stroke-miterlimit:10;stroke-opacity:1;" />
<path class="atom-7" d="M 111.7,89.6 L 111.7,93.3 L 115.4,93.3 L 115.4,89.6 L 111.7,89.6" style="fill:none;stroke:#FF0000;stroke-width:2.0px;stroke-linecap:butt;stroke-linejoin:miter;stroke-miterlimit:10;stroke-opacity:1;" />
<path class="atom-54" d="M 156.4,81.4 L 156.4,85.1 L 160.2,85.1 L 160.2,81.4 L 156.4,81.4" style="fill:none;stroke:#FF0000;stroke-width:2.0px;stroke-linecap:butt;stroke-linejoin:miter;stroke-miterlimit:10;stroke-opacity:1;" />
</svg>