<?xml version='1.0' encoding='utf-8'?>
<svg xmlns="http://www.w3.org/2000/svg" baseProfile="full" height="260px" version="1.1" viewBox="0 0 560 260" width="560px" xml:space="preserve">

<path class="bond-0 atom-0 atom-1" d="M 524.8,69.1 L 515.2,76.4" style="fill:none;fill-rule:evenodd;stroke:#FF0000;stroke-width:2.0px;stroke-linecap:butt;stroke-linejoin:miter;stroke-opacity:1" />
<path class="bond-0 atom-0 atom-1" d="M 515.2,76.4 L 505.5,83.8" style="fill:none;fill-rule:evenodd;stroke:#000000;stroke-width:2.0px;stroke-linecap:butt;stroke-linejoin:miter;stroke-opacity:1" />
<path class="bond-0 atom-0 atom-1" d="M 522.2,65.6 L 512.5,73.0" style="fill:none;fill-rule:evenodd;stroke:#FF0000;stroke-width:2.0px;stroke-linecap:butt;stroke-linejoin:miter;stroke-opacity:1" />
<path class="bond-0 atom-0 atom-1" d="M 512.5,73.0 L 502.9,80.3" style="fill:none;fill-rule:evenodd;stroke:#000000;stroke-width:2.0px;stroke-linecap:butt;stroke-linejoin:miter;stroke-opacity:1" />
<path class="bond-1 atom-1 atom-2" d="M 505.2,81.3 L 508.9,110.0" style="fill:none;fill-rule:evenodd;stroke:#000000;stroke-width:2.0px;stroke-linecap:butt;stroke-linejoin:miter;stroke-opacity:1" />
<path class="bond-2 atom-2 atom-3" d="M 508.9,110.0 L 485.9,127.6" style="fill:none;fill-rule:evenodd;stroke:#000000;stroke-width:2.0px;stroke-linecap:butt;stroke-linejoin:miter;stroke-opacity:1" />
<path class="bond-3 atom-3 atom-4" d="M 485.9,127.6 L 459.1,116.4" style="fill:none;fill-rule:evenodd;stroke:#000000;stroke-width:2.0px;stroke-linecap:butt;stroke-linejoin:miter;stroke-opacity:1" />
<path class="bond-4 atom-4 atom-5" d="M 455.9,118.4 L 456.4,119.0" style="fill:none;fill-rule:evenodd;stroke:#000000;stroke-width:1.0px;stroke-linecap:butt;stroke-linejoin:miter;stroke-opacity:1" />
<path class="bond-4 atom-4 atom-5" d="M 452.6,120.3 L 453.7,121.7" style="fill:none;fill-rule:evenodd;stroke:#000000;stroke-width:1.0px;stroke-linecap:butt;stroke-linejoin:miter;stroke-opacity:1" />
<path class="bond-4 atom-4 atom-5" d="M 449.4,122.2 L 450.9,124.3" style="fill:none;fill-rule:evenodd;stroke:#000000;stroke-width:1.0px;stroke-linecap:butt;stroke-linejoin:miter;stroke-opacity:1" />
<path class="bond-4 atom-4 atom-5" d="M 446.1,124.2 L 448.2,126.9" style="fill:none;fill-rule:evenodd;stroke:#0000FF;stroke-width:1.0px;stroke-linecap:butt;stroke-linejoin:miter;stroke-opacity:1" />
<path class="bond-4 atom-4 atom-5" d="M 442.8,126.1 L 445.5,129.6" style="fill:none;fill-rule:evenodd;stroke:#0000FF;stroke-width:1.0px;stroke-linecap:butt;stroke-linejoin:miter;stroke-opacity:1" />
<path class="bond-5 atom-5 atom-6" d="M 436.2,139.0 L 436.5,151.0" style="fill:none;fill-rule:evenodd;stroke:#0000FF;stroke-width:2.0px;stroke-linecap:butt;stroke-linejoin:miter;stroke-opacity:1" />
<path class="bond-5 atom-5 atom-6" d="M 436.5,151.0 L 436.8,162.9" style="fill:none;fill-rule:evenodd;stroke:#000000;stroke-width:2.0px;stroke-linecap:butt;stroke-linejoin:miter;stroke-opacity:1" />
<path class="bond-6 atom-6 atom-7" d="M 434.2,163.8 L 444.4,170.9" style="fill:none;fill-rule:evenodd;stroke:#000000;stroke-width:2.0px;stroke-linecap:butt;stroke-linejoin:miter;stroke-opacity:1" />
<path class="bond-6 atom-6 atom-7" d="M 444.4,170.9 L 454.6,177.9" style="fill:none;fill-rule:evenodd;stroke:#FF0000;stroke-width:2.0px;stroke-linecap:butt;stroke-linejoin:miter;stroke-opacity:1" />
<path class="bond-6 atom-6 atom-7" d="M 436.7,160.2 L 446.9,167.3" style="fill:none;fill-rule:evenodd;stroke:#000000;stroke-width:2.0px;stroke-linecap:butt;stroke-linejoin:miter;stroke-opacity:1" />
<path class="bond-6 atom-6 atom-7" d="M 446.9,167.3 L 457.1,174.4" style="fill:none;fill-rule:evenodd;stroke:#FF0000;stroke-width:2.0px;stroke-linecap:butt;stroke-linejoin:miter;stroke-opacity:1" />
<path class="bond-7 atom-6 atom-8" d="M 436.8,162.9 L 409.4,172.5" style="fill:none;fill-rule:evenodd;stroke:#000000;stroke-width:2.0px;stroke-linecap:butt;stroke-linejoin:miter;stroke-opacity:1" />
<path class="bond-8 atom-8 atom-9" d="M 409.4,172.5 L 398.3,199.2" style="fill:none;fill-rule:evenodd;stroke:#000000;stroke-width:2.0px;stroke-linecap:butt;stroke-linejoin:miter;stroke-opacity:1" />
<path class="bond-8 atom-8 atom-9" d="M 404.5,173.2 L 395.2,195.2" style="fill:none;fill-rule:evenodd;stroke:#000000;stroke-width:2.0px;stroke-linecap:butt;stroke-linejoin:miter;stroke-opacity:1" />
<path class="bond-9 atom-9 atom-10" d="M 398.3,199.2 L 369.6,202.9" style="fill:none;fill-rule:evenodd;stroke:#000000;stroke-width:2.0px;stroke-linecap:butt;stroke-linejoin:miter;stroke-opacity:1" />
<path class="bond-10 atom-10 atom-11" d="M 369.6,202.9 L 352.0,179.9" style="fill:none;fill-rule:evenodd;stroke:#000000;stroke-width:2.0px;stroke-linecap:butt;stroke-linejoin:miter;stroke-opacity:1" />
<path class="bond-10 atom-10 atom-11" d="M 371.5,198.3 L 357.0,179.3" style="fill:none;fill-rule:evenodd;stroke:#000000;stroke-width:2.0px;stroke-linecap:butt;stroke-linejoin:miter;stroke-opacity:1" />
<path class="bond-11 atom-11 atom-12" d="M 352.0,179.9 L 363.2,153.2" style="fill:none;fill-rule:evenodd;stroke:#000000;stroke-width:2.0px;stroke-linecap:butt;stroke-linejoin:miter;stroke-opacity:1" />
<path class="bond-12 atom-12 atom-13" d="M 363.2,153.2 L 356.4,144.3" style="fill:none;fill-rule:evenodd;stroke:#000000;stroke-width:2.0px;stroke-linecap:butt;stroke-linejoin:miter;stroke-opacity:1" />
<path class="bond-12 atom-12 atom-13" d="M 356.4,144.3 L 349.6,135.4" style="fill:none;fill-rule:evenodd;stroke:#FF0000;stroke-width:2.0px;stroke-linecap:butt;stroke-linejoin:miter;stroke-opacity:1" />
<path class="bond-13 atom-13 atom-14" d="M 340.9,130.7 L 328.9,132.3" style="fill:none;fill-rule:evenodd;stroke:#FF0000;stroke-width:2.0px;stroke-linecap:butt;stroke-linejoin:miter;stroke-opacity:1" />
<path class="bond-13 atom-13 atom-14" d="M 328.9,132.3 L 316.9,133.8" style="fill:none;fill-rule:evenodd;stroke:#000000;stroke-width:2.0px;stroke-linecap:butt;stroke-linejoin:miter;stroke-opacity:1" />
<path class="bond-14 atom-14 atom-15" d="M 316.9,133.8 L 299.3,110.8" style="fill:none;fill-rule:evenodd;stroke:#000000;stroke-width:2.0px;stroke-linecap:butt;stroke-linejoin:miter;stroke-opacity:1" />
<path class="bond-15 atom-15 atom-16" d="M 299.3,110.8 L 287.0,112.4" style="fill:none;fill-rule:evenodd;stroke:#000000;stroke-width:2.0px;stroke-linecap:butt;stroke-linejoin:miter;stroke-opacity:1" />
<path class="bond-15 atom-15 atom-16" d="M 287.0,112.4 L 274.7,114.0" style="fill:none;fill-rule:evenodd;stroke:#0000FF;stroke-width:2.0px;stroke-linecap:butt;stroke-linejoin:miter;stroke-opacity:1" />
<path class="bond-16 atom-16 atom-17" d="M 266.7,109.4 L 259.9,100.4" style="fill:none;fill-rule:evenodd;stroke:#0000FF;stroke-width:2.0px;stroke-linecap:butt;stroke-linejoin:miter;stroke-opacity:1" />
<path class="bond-16 atom-16 atom-17" d="M 259.9,100.4 L 253.0,91.5" style="fill:none;fill-rule:evenodd;stroke:#000000;stroke-width:2.0px;stroke-linecap:butt;stroke-linejoin:miter;stroke-opacity:1" />
<path class="bond-17 atom-17 atom-18" d="M 253.0,91.5 L 224.3,95.2" style="fill:none;fill-rule:evenodd;stroke:#000000;stroke-width:2.0px;stroke-linecap:butt;stroke-linejoin:miter;stroke-opacity:1" />
<path class="bond-18 atom-18 atom-19" d="M 224.3,95.2 L 219.8,106.0" style="fill:none;fill-rule:evenodd;stroke:#000000;stroke-width:2.0px;stroke-linecap:butt;stroke-linejoin:miter;stroke-opacity:1" />
<path class="bond-18 atom-18 atom-19" d="M 219.8,106.0 L 215.3,116.8" style="fill:none;fill-rule:evenodd;stroke:#0000FF;stroke-width:2.0px;stroke-linecap:butt;stroke-linejoin:miter;stroke-opacity:1" />
<path class="bond-19 atom-19 atom-20" d="M 209.1,122.4 L 196.7,124.0" style="fill:none;fill-rule:evenodd;stroke:#0000FF;stroke-width:2.0px;stroke-linecap:butt;stroke-linejoin:miter;stroke-opacity:1" />
<path class="bond-19 atom-19 atom-20" d="M 196.7,124.0 L 184.4,125.6" style="fill:none;fill-rule:evenodd;stroke:#000000;stroke-width:2.0px;stroke-linecap:butt;stroke-linejoin:miter;stroke-opacity:1" />
<path class="bond-20 atom-20 atom-21" d="M 184.4,125.6 L 166.9,102.5" style="fill:none;fill-rule:evenodd;stroke:#000000;stroke-width:2.0px;stroke-linecap:butt;stroke-linejoin:miter;stroke-opacity:1" />
<path class="bond-21 atom-21 atom-22" d="M 166.9,102.5 L 154.9,104.1" style="fill:none;fill-rule:evenodd;stroke:#000000;stroke-width:2.0px;stroke-linecap:butt;stroke-linejoin:miter;stroke-opacity:1" />
<path class="bond-21 atom-21 atom-22" d="M 154.9,104.1 L 142.8,105.6" style="fill:none;fill-rule:evenodd;stroke:#FF0000;stroke-width:2.0px;stroke-linecap:butt;stroke-linejoin:miter;stroke-opacity:1" />
<path class="bond-22 atom-22 atom-23" d="M 134.2,101.1 L 127.4,92.2" style="fill:none;fill-rule:evenodd;stroke:#FF0000;stroke-width:2.0px;stroke-linecap:butt;stroke-linejoin:miter;stroke-opacity:1" />
<path class="bond-22 atom-22 atom-23" d="M 127.4,92.2 L 120.6,83.2" style="fill:none;fill-rule:evenodd;stroke:#000000;stroke-width:2.0px;stroke-linecap:butt;stroke-linejoin:miter;stroke-opacity:1" />
<path class="bond-23 atom-23 atom-24" d="M 120.6,83.2 L 91.8,86.9" style="fill:none;fill-rule:evenodd;stroke:#000000;stroke-width:2.0px;stroke-linecap:butt;stroke-linejoin:miter;stroke-opacity:1" />
<path class="bond-24 atom-24 atom-25" d="M 91.8,86.9 L 74.3,63.9" style="fill:none;fill-rule:evenodd;stroke:#000000;stroke-width:2.0px;stroke-linecap:butt;stroke-linejoin:miter;stroke-opacity:1" />
<path class="bond-25 atom-25 atom-26" d="M 74.3,63.9 L 85.5,37.1" style="fill:none;fill-rule:evenodd;stroke:#000000;stroke-width:2.0px;stroke-linecap:butt;stroke-linejoin:miter;stroke-opacity:1" />
<path class="bond-25 atom-25 atom-26" d="M 71.2,59.9 L 80.5,37.8" style="fill:none;fill-rule:evenodd;stroke:#000000;stroke-width:2.0px;stroke-linecap:butt;stroke-linejoin:miter;stroke-opacity:1" />
<path class="bond-26 atom-26 atom-27" d="M 85.5,37.1 L 67.9,14.1" style="fill:none;fill-rule:evenodd;stroke:#000000;stroke-width:2.0px;stroke-linecap:butt;stroke-linejoin:miter;stroke-opacity:1" />
<path class="bond-27 atom-27 atom-28" d="M 67.9,14.1 L 39.2,17.8" style="fill:none;fill-rule:evenodd;stroke:#000000;stroke-width:2.0px;stroke-linecap:butt;stroke-linejoin:miter;stroke-opacity:1" />
<path class="bond-27 atom-27 atom-28" d="M 66.0,18.7 L 42.2,21.8" style="fill:none;fill-rule:evenodd;stroke:#000000;stroke-width:2.0px;stroke-linecap:butt;stroke-linejoin:miter;stroke-opacity:1" />
<path class="bond-28 atom-28 atom-29" d="M 39.2,17.8 L 28.0,44.5" style="fill:none;fill-rule:evenodd;stroke:#000000;stroke-width:2.0px;stroke-linecap:butt;stroke-linejoin:miter;stroke-opacity:1" />
<path class="bond-29 atom-29 atom-30" d="M 28.0,44.5 L 45.6,67.5" style="fill:none;fill-rule:evenodd;stroke:#000000;stroke-width:2.0px;stroke-linecap:butt;stroke-linejoin:miter;stroke-opacity:1" />
<path class="bond-29 atom-29 atom-30" d="M 33.0,43.9 L 47.5,62.9" style="fill:none;fill-rule:evenodd;stroke:#000000;stroke-width:2.0px;stroke-linecap:butt;stroke-linejoin:miter;stroke-opacity:1" />
<path class="bond-30 atom-30 atom-31" d="M 45.6,67.5 L 34.4,94.3" style="fill:none;fill-rule:evenodd;stroke:#000000;stroke-width:2.0px;stroke-linecap:butt;stroke-linejoin:miter;stroke-opacity:1" />
<path class="bond-31 atom-31 atom-32" d="M 34.4,94.3 L 52.0,117.3" style="fill:none;fill-rule:evenodd;stroke:#000000;stroke-width:2.0px;stroke-linecap:butt;stroke-linejoin:miter;stroke-opacity:1" />
<path class="bond-32 atom-32 atom-33" d="M 52.0,117.3 L 64.3,115.7" style="fill:none;fill-rule:evenodd;stroke:#000000;stroke-width:2.0px;stroke-linecap:butt;stroke-linejoin:miter;stroke-opacity:1" />
<path class="bond-32 atom-32 atom-33" d="M 64.3,115.7 L 76.6,114.1" style="fill:none;fill-rule:evenodd;stroke:#0000FF;stroke-width:2.0px;stroke-linecap:butt;stroke-linejoin:miter;stroke-opacity:1" />
<path class="bond-32 atom-32 atom-33" d="M 55.0,121.3 L 66.1,119.9" style="fill:none;fill-rule:evenodd;stroke:#000000;stroke-width:2.0px;stroke-linecap:butt;stroke-linejoin:miter;stroke-opacity:1" />
<path class="bond-32 atom-32 atom-33" d="M 66.1,119.9 L 77.2,118.4" style="fill:none;fill-rule:evenodd;stroke:#0000FF;stroke-width:2.0px;stroke-linecap:butt;stroke-linejoin:miter;stroke-opacity:1" />
<path class="bond-33 atom-33 atom-34" d="M 84.5,118.7 L 91.4,127.6" style="fill:none;fill-rule:evenodd;stroke:#0000FF;stroke-width:2.0px;stroke-linecap:butt;stroke-linejoin:miter;stroke-opacity:1" />
<path class="bond-33 atom-33 atom-34" d="M 91.4,127.6 L 98.2,136.6" style="fill:none;fill-rule:evenodd;stroke:#000000;stroke-width:2.0px;stroke-linecap:butt;stroke-linejoin:miter;stroke-opacity:1" />
<path class="bond-34 atom-34 atom-35" d="M 97.3,139.0 L 109.9,137.3" style="fill:none;fill-rule:evenodd;stroke:#000000;stroke-width:2.0px;stroke-linecap:butt;stroke-linejoin:miter;stroke-opacity:1" />
<path class="bond-34 atom-34 atom-35" d="M 109.9,137.3 L 122.5,135.7" style="fill:none;fill-rule:evenodd;stroke:#FF0000;stroke-width:2.0px;stroke-linecap:butt;stroke-linejoin:miter;stroke-opacity:1" />
<path class="bond-34 atom-34 atom-35" d="M 96.7,134.6 L 109.3,133.0" style="fill:none;fill-rule:evenodd;stroke:#000000;stroke-width:2.0px;stroke-linecap:butt;stroke-linejoin:miter;stroke-opacity:1" />
<path class="bond-34 atom-34 atom-35" d="M 109.3,133.0 L 122.0,131.4" style="fill:none;fill-rule:evenodd;stroke:#FF0000;stroke-width:2.0px;stroke-linecap:butt;stroke-linejoin:miter;stroke-opacity:1" />
<path class="bond-35 atom-34 atom-36" d="M 98.2,136.6 L 87.1,163.4" style="fill:none;fill-rule:evenodd;stroke:#000000;stroke-width:2.0px;stroke-linecap:butt;stroke-linejoin:miter;stroke-opacity:1" />
<path class="bond-36 atom-36 atom-37" d="M 87.1,163.4 L 58.3,167.1" style="fill:none;fill-rule:evenodd;stroke:#000000;stroke-width:2.0px;stroke-linecap:butt;stroke-linejoin:miter;stroke-opacity:1" />
<path class="bond-36 atom-36 atom-37" d="M 84.0,159.4 L 60.3,162.4" style="fill:none;fill-rule:evenodd;stroke:#000000;stroke-width:2.0px;stroke-linecap:butt;stroke-linejoin:miter;stroke-opacity:1" />
<path class="bond-37 atom-37 atom-38" d="M 58.3,167.1 L 51.5,158.1" style="fill:none;fill-rule:evenodd;stroke:#000000;stroke-width:2.0px;stroke-linecap:butt;stroke-linejoin:miter;stroke-opacity:1" />
<path class="bond-37 atom-37 atom-38" d="M 51.5,158.1 L 44.6,149.1" style="fill:none;fill-rule:evenodd;stroke:#0000FF;stroke-width:2.0px;stroke-linecap:butt;stroke-linejoin:miter;stroke-opacity:1" />
<path class="bond-38 atom-37 atom-39" d="M 58.3,167.1 L 56.1,178.8" style="fill:none;fill-rule:evenodd;stroke:#000000;stroke-width:2.0px;stroke-linecap:butt;stroke-linejoin:miter;stroke-opacity:1" />
<path class="bond-38 atom-37 atom-39" d="M 56.1,178.8 L 53.9,190.5" style="fill:none;fill-rule:evenodd;stroke:#0000FF;stroke-width:2.0px;stroke-linecap:butt;stroke-linejoin:miter;stroke-opacity:1" />
<path class="bond-39 atom-39 atom-40" d="M 57.0,197.7 L 67.7,203.6" style="fill:none;fill-rule:evenodd;stroke:#0000FF;stroke-width:2.0px;stroke-linecap:butt;stroke-linejoin:miter;stroke-opacity:1" />
<path class="bond-39 atom-39 atom-40" d="M 67.7,203.6 L 78.4,209.4" style="fill:none;fill-rule:evenodd;stroke:#000000;stroke-width:2.0px;stroke-linecap:butt;stroke-linejoin:miter;stroke-opacity:1" />
<path class="bond-40 atom-40 atom-41" d="M 78.4,209.4 L 85.1,237.6" style="fill:none;fill-rule:evenodd;stroke:#000000;stroke-width:2.0px;stroke-linecap:butt;stroke-linejoin:miter;stroke-opacity:1" />
<path class="bond-40 atom-40 atom-41" d="M 83.2,210.8 L 88.7,234.1" style="fill:none;fill-rule:evenodd;stroke:#000000;stroke-width:2.0px;stroke-linecap:butt;stroke-linejoin:miter;stroke-opacity:1" />
<path class="bond-41 atom-41 atom-42" d="M 85.1,237.6 L 112.8,245.9" style="fill:none;fill-rule:evenodd;stroke:#000000;stroke-width:2.0px;stroke-linecap:butt;stroke-linejoin:miter;stroke-opacity:1" />
<path class="bond-42 atom-42 atom-43" d="M 112.8,245.9 L 133.9,226.0" style="fill:none;fill-rule:evenodd;stroke:#000000;stroke-width:2.0px;stroke-linecap:butt;stroke-linejoin:miter;stroke-opacity:1" />
<path class="bond-42 atom-42 atom-43" d="M 111.6,241.0 L 129.1,224.6" style="fill:none;fill-rule:evenodd;stroke:#000000;stroke-width:2.0px;stroke-linecap:butt;stroke-linejoin:miter;stroke-opacity:1" />
<path class="bond-43 atom-43 atom-44" d="M 133.9,226.0 L 127.2,197.9" style="fill:none;fill-rule:evenodd;stroke:#000000;stroke-width:2.0px;stroke-linecap:butt;stroke-linejoin:miter;stroke-opacity:1" />
<path class="bond-44 atom-44 atom-45" d="M 127.2,197.9 L 135.4,190.1" style="fill:none;fill-rule:evenodd;stroke:#000000;stroke-width:2.0px;stroke-linecap:butt;stroke-linejoin:miter;stroke-opacity:1" />
<path class="bond-44 atom-44 atom-45" d="M 135.4,190.1 L 143.6,182.4" style="fill:none;fill-rule:evenodd;stroke:#FF0000;stroke-width:2.0px;stroke-linecap:butt;stroke-linejoin:miter;stroke-opacity:1" />
<path class="bond-45 atom-44 atom-46" d="M 127.2,197.9 L 99.5,189.5" style="fill:none;fill-rule:evenodd;stroke:#000000;stroke-width:2.0px;stroke-linecap:butt;stroke-linejoin:miter;stroke-opacity:1" />
<path class="bond-45 atom-44 atom-46" d="M 123.6,201.3 L 100.6,194.4" style="fill:none;fill-rule:evenodd;stroke:#000000;stroke-width:2.0px;stroke-linecap:butt;stroke-linejoin:miter;stroke-opacity:1" />
<path class="bond-46 atom-19 atom-47" d="M 217.0,126.9 L 223.8,135.9" style="fill:none;fill-rule:evenodd;stroke:#0000FF;stroke-width:2.0px;stroke-linecap:butt;stroke-linejoin:miter;stroke-opacity:1" />
<path class="bond-46 atom-19 atom-47" d="M 223.8,135.9 L 230.7,144.9" style="fill:none;fill-rule:evenodd;stroke:#000000;stroke-width:2.0px;stroke-linecap:butt;stroke-linejoin:miter;stroke-opacity:1" />
<path class="bond-47 atom-47 atom-48" d="M 230.7,144.9 L 259.4,141.2" style="fill:none;fill-rule:evenodd;stroke:#000000;stroke-width:2.0px;stroke-linecap:butt;stroke-linejoin:miter;stroke-opacity:1" />
<path class="bond-48 atom-12 atom-49" d="M 363.2,153.2 L 391.9,149.5" style="fill:none;fill-rule:evenodd;stroke:#000000;stroke-width:2.0px;stroke-linecap:butt;stroke-linejoin:miter;stroke-opacity:1" />
<path class="bond-48 atom-12 atom-49" d="M 366.2,157.2 L 390.0,154.1" style="fill:none;fill-rule:evenodd;stroke:#000000;stroke-width:2.0px;stroke-linecap:butt;stroke-linejoin:miter;stroke-opacity:1" />
<path class="bond-49 atom-49 atom-50" d="M 391.9,149.5 L 408.4,125.7" style="fill:none;fill-rule:evenodd;stroke:#000000;stroke-width:2.0px;stroke-linecap:butt;stroke-linejoin:miter;stroke-opacity:1" />
<path class="bond-50 atom-50 atom-51" d="M 410.9,126.4 L 406.8,114.6" style="fill:none;fill-rule:evenodd;stroke:#000000;stroke-width:2.0px;stroke-linecap:butt;stroke-linejoin:miter;stroke-opacity:1" />
<path class="bond-50 atom-50 atom-51" d="M 406.8,114.6 L 402.7,102.8" style="fill:none;fill-rule:evenodd;stroke:#FF0000;stroke-width:2.0px;stroke-linecap:butt;stroke-linejoin:miter;stroke-opacity:1" />
<path class="bond-50 atom-50 atom-51" d="M 406.8,127.9 L 402.7,116.1" style="fill:none;fill-rule:evenodd;stroke:#000000;stroke-width:2.0px;stroke-linecap:butt;stroke-linejoin:miter;stroke-opacity:1" />
<path class="bond-50 atom-50 atom-51" d="M 402.7,116.1 L 398.6,104.3" style="fill:none;fill-rule:evenodd;stroke:#FF0000;stroke-width:2.0px;stroke-linecap:butt;stroke-linejoin:miter;stroke-opacity:1" />
<path class="bond-51 atom-4 atom-52" d="M 459.1,116.4 L 455.4,87.7" style="fill:none;fill-rule:evenodd;stroke:#000000;stroke-width:2.0px;stroke-linecap:butt;stroke-linejoin:miter;stroke-opacity:1" />
<path class="bond-52 atom-52 atom-53" d="M 457.4,86.2 L 445.9,81.3" style="fill:none;fill-rule:evenodd;stroke:#000000;stroke-width:2.0px;stroke-linecap:butt;stroke-linejoin:miter;stroke-opacity:1" />
<path class="bond-52 atom-52 atom-53" d="M 445.9,81.3 L 434.3,76.5" style="fill:none;fill-rule:evenodd;stroke:#FF0000;stroke-width:2.0px;stroke-linecap:butt;stroke-linejoin:miter;stroke-opacity:1" />
<path class="bond-52 atom-52 atom-53" d="M 455.8,90.2 L 444.2,85.3" style="fill:none;fill-rule:evenodd;stroke:#000000;stroke-width:2.0px;stroke-linecap:butt;stroke-linejoin:miter;stroke-opacity:1" />
<path class="bond-52 atom-52 atom-53" d="M 444.2,85.3 L 432.6,80.5" style="fill:none;fill-rule:evenodd;stroke:#FF0000;stroke-width:2.0px;stroke-linecap:butt;stroke-linejoin:miter;stroke-opacity:1" />
<path class="bond-53 atom-52 atom-54" d="M 455.4,87.7 L 464.9,80.5" style="fill:none;fill-rule:evenodd;stroke:#000000;stroke-width:2.0px;stroke-linecap:butt;stroke-linejoin:miter;stroke-opacity:1" />
<path class="bond-53 atom-52 atom-54" d="M 464.9,80.5 L 474.4,73.2" style="fill:none;fill-rule:evenodd;stroke:#0000FF;stroke-width:2.0px;stroke-linecap:butt;stroke-linejoin:miter;stroke-opacity:1" />
<path class="bond-54 atom-54 atom-1" d="M 482.5,71.8 L 493.9,76.6" style="fill:none;fill-rule:evenodd;stroke:#0000FF;stroke-width:2.0px;stroke-linecap:butt;stroke-linejoin:miter;stroke-opacity:1" />
<path class="bond-54 atom-54 atom-1" d="M 493.9,76.6 L 505.2,81.3" style="fill:none;fill-rule:evenodd;stroke:#000000;stroke-width:2.0px;stroke-linecap:butt;stroke-linejoin:miter;stroke-opacity:1" />
<path class="bond-55 atom-50 atom-5" d="M 408.4,125.7 L 420.2,129.2" style="fill:none;fill-rule:evenodd;stroke:#000000;stroke-width:2.0px;stroke-linecap:butt;stroke-linejoin:miter;stroke-opacity:1" />
<path class="bond-55 atom-50 atom-5" d="M 420.2,129.2 L 432.0,132.8" style="fill:none;fill-rule:evenodd;stroke:#0000FF;stroke-width:2.0px;stroke-linecap:butt;stroke-linejoin:miter;stroke-opacity:1" />
<path class="bond-56 atom-49 atom-8" d="M 391.9,149.5 L 409.4,172.5" style="fill:none;fill-rule:evenodd;stroke:#000000;stroke-width:2.0px;stroke-linecap:butt;stroke-linejoin:miter;stroke-opacity:1" />
<path class="bond-57 atom-48 atom-16" d="M 259.4,141.2 L 264.0,130.4" style="fill:none;fill-rule:evenodd;stroke:#000000;stroke-width:2.0px;stroke-linecap:butt;stroke-linejoin:miter;stroke-opacity:1" />
<path class="bond-57 atom-48 atom-16" d="M 264.0,130.4 L 268.5,119.5" style="fill:none;fill-rule:evenodd;stroke:#0000FF;stroke-width:2.0px;stroke-linecap:butt;stroke-linejoin:miter;stroke-opacity:1" />
<path class="bond-58 atom-30 atom-25" d="M 45.6,67.5 L 74.3,63.9" style="fill:none;fill-rule:evenodd;stroke:#000000;stroke-width:2.0px;stroke-linecap:butt;stroke-linejoin:miter;stroke-opacity:1" />
<path class="bond-59 atom-38 atom-32" d="M 42.9,139.0 L 47.4,128.1" style="fill:none;fill-rule:evenodd;stroke:#0000FF;stroke-width:2.0px;stroke-linecap:butt;stroke-linejoin:miter;stroke-opacity:1" />
<path class="bond-59 atom-38 atom-32" d="M 47.4,128.1 L 52.0,117.3" style="fill:none;fill-rule:evenodd;stroke:#000000;stroke-width:2.0px;stroke-linecap:butt;stroke-linejoin:miter;stroke-opacity:1" />
<path class="bond-60 atom-46 atom-40" d="M 99.5,189.5 L 78.4,209.4" style="fill:none;fill-rule:evenodd;stroke:#000000;stroke-width:2.0px;stroke-linecap:butt;stroke-linejoin:miter;stroke-opacity:1" />
<path class="bond-61 atom-46 atom-36" d="M 99.5,189.5 L 87.1,163.4" style="fill:none;fill-rule:evenodd;stroke:#000000;stroke-width:2.0px;stroke-linecap:butt;stroke-linejoin:miter;stroke-opacity:1" />
<path d="M 505.4,82.7 L 505.2,81.3 L 504.6,81.1" style="fill:none;stroke:#000000;stroke-width:2.0px;stroke-linecap:butt;stroke-linejoin:miter;stroke-miterlimit:10;stroke-opacity:1;" />
<path d="M 508.7,108.6 L 508.9,110.0 L 507.7,110.9" style="fill:none;stroke:#000000;stroke-width:2.0px;stroke-linecap:butt;stroke-linejoin:miter;stroke-miterlimit:10;stroke-opacity:1;" />
<path d="M 487.0,126.7 L 485.9,127.6 L 484.5,127.0" style="fill:none;stroke:#000000;stroke-width:2.0px;stroke-linecap:butt;stroke-linejoin:miter;stroke-miterlimit:10;stroke-opacity:1;" />
<path d="M 460.5,117.0 L 459.1,116.4 L 459.0,115.0" style="fill:none;stroke:#000000;stroke-width:2.0px;stroke-linecap:butt;stroke-linejoin:miter;stroke-miterlimit:10;stroke-opacity:1;" />
<path d="M 436.8,162.3 L 436.8,162.9 L 435.4,163.4" style="fill:none;stroke:#000000;stroke-width:2.0px;stroke-linecap:butt;stroke-linejoin:miter;stroke-miterlimit:10;stroke-opacity:1;" />
<path d="M 398.8,197.9 L 398.3,199.2 L 396.8,199.4" style="fill:none;stroke:#000000;stroke-width:2.0px;stroke-linecap:butt;stroke-linejoin:miter;stroke-miterlimit:10;stroke-opacity:1;" />
<path d="M 371.0,202.7 L 369.6,202.9 L 368.7,201.8" style="fill:none;stroke:#000000;stroke-width:2.0px;stroke-linecap:butt;stroke-linejoin:miter;stroke-miterlimit:10;stroke-opacity:1;" />
<path d="M 352.9,181.0 L 352.0,179.9 L 352.6,178.6" style="fill:none;stroke:#000000;stroke-width:2.0px;stroke-linecap:butt;stroke-linejoin:miter;stroke-miterlimit:10;stroke-opacity:1;" />
<path d="M 317.5,133.8 L 316.9,133.8 L 316.0,132.7" style="fill:none;stroke:#000000;stroke-width:2.0px;stroke-linecap:butt;stroke-linejoin:miter;stroke-miterlimit:10;stroke-opacity:1;" />
<path d="M 300.2,112.0 L 299.3,110.8 L 298.7,110.9" style="fill:none;stroke:#000000;stroke-width:2.0px;stroke-linecap:butt;stroke-linejoin:miter;stroke-miterlimit:10;stroke-opacity:1;" />
<path d="M 253.4,91.9 L 253.0,91.5 L 251.6,91.6" style="fill:none;stroke:#000000;stroke-width:2.0px;stroke-linecap:butt;stroke-linejoin:miter;stroke-miterlimit:10;stroke-opacity:1;" />
<path d="M 225.7,95.0 L 224.3,95.2 L 224.1,95.7" style="fill:none;stroke:#000000;stroke-width:2.0px;stroke-linecap:butt;stroke-linejoin:miter;stroke-miterlimit:10;stroke-opacity:1;" />
<path d="M 185.0,125.5 L 184.4,125.6 L 183.5,124.4" style="fill:none;stroke:#000000;stroke-width:2.0px;stroke-linecap:butt;stroke-linejoin:miter;stroke-miterlimit:10;stroke-opacity:1;" />
<path d="M 167.7,103.7 L 166.9,102.5 L 166.3,102.6" style="fill:none;stroke:#000000;stroke-width:2.0px;stroke-linecap:butt;stroke-linejoin:miter;stroke-miterlimit:10;stroke-opacity:1;" />
<path d="M 120.9,83.6 L 120.6,83.2 L 119.1,83.4" style="fill:none;stroke:#000000;stroke-width:2.0px;stroke-linecap:butt;stroke-linejoin:miter;stroke-miterlimit:10;stroke-opacity:1;" />
<path d="M 93.3,86.7 L 91.8,86.9 L 91.0,85.7" style="fill:none;stroke:#000000;stroke-width:2.0px;stroke-linecap:butt;stroke-linejoin:miter;stroke-miterlimit:10;stroke-opacity:1;" />
<path d="M 84.9,38.5 L 85.5,37.1 L 84.6,36.0" style="fill:none;stroke:#000000;stroke-width:2.0px;stroke-linecap:butt;stroke-linejoin:miter;stroke-miterlimit:10;stroke-opacity:1;" />
<path d="M 68.8,15.2 L 67.9,14.1 L 66.5,14.3" style="fill:none;stroke:#000000;stroke-width:2.0px;stroke-linecap:butt;stroke-linejoin:miter;stroke-miterlimit:10;stroke-opacity:1;" />
<path d="M 40.6,17.6 L 39.2,17.8 L 38.6,19.1" style="fill:none;stroke:#000000;stroke-width:2.0px;stroke-linecap:butt;stroke-linejoin:miter;stroke-miterlimit:10;stroke-opacity:1;" />
<path d="M 28.6,43.2 L 28.0,44.5 L 28.9,45.7" style="fill:none;stroke:#000000;stroke-width:2.0px;stroke-linecap:butt;stroke-linejoin:miter;stroke-miterlimit:10;stroke-opacity:1;" />
<path d="M 35.0,92.9 L 34.4,94.3 L 35.3,95.4" style="fill:none;stroke:#000000;stroke-width:2.0px;stroke-linecap:butt;stroke-linejoin:miter;stroke-miterlimit:10;stroke-opacity:1;" />
<path d="M 97.9,136.2 L 98.2,136.6 L 97.7,138.0" style="fill:none;stroke:#000000;stroke-width:2.0px;stroke-linecap:butt;stroke-linejoin:miter;stroke-miterlimit:10;stroke-opacity:1;" />
<path d="M 84.7,236.2 L 85.1,237.6 L 86.4,238.0" style="fill:none;stroke:#000000;stroke-width:2.0px;stroke-linecap:butt;stroke-linejoin:miter;stroke-miterlimit:10;stroke-opacity:1;" />
<path d="M 111.4,245.5 L 112.8,245.9 L 113.9,244.9" style="fill:none;stroke:#000000;stroke-width:2.0px;stroke-linecap:butt;stroke-linejoin:miter;stroke-miterlimit:10;stroke-opacity:1;" />
<path d="M 132.8,227.0 L 133.9,226.0 L 133.5,224.6" style="fill:none;stroke:#000000;stroke-width:2.0px;stroke-linecap:butt;stroke-linejoin:miter;stroke-miterlimit:10;stroke-opacity:1;" />
<path d="M 230.4,144.5 L 230.7,144.9 L 232.1,144.7" style="fill:none;stroke:#000000;stroke-width:2.0px;stroke-linecap:butt;stroke-linejoin:miter;stroke-miterlimit:10;stroke-opacity:1;" />
<path d="M 258.0,141.4 L 259.4,141.2 L 259.7,140.7" style="fill:none;stroke:#000000;stroke-width:2.0px;stroke-linecap:butt;stroke-linejoin:miter;stroke-miterlimit:10;stroke-opacity:1;" />
<path d="M 407.5,126.9 L 408.4,125.7 L 409.0,125.8" style="fill:none;stroke:#000000;stroke-width:2.0px;stroke-linecap:butt;stroke-linejoin:miter;stroke-miterlimit:10;stroke-opacity:1;" />
<path d="M 455.6,89.1 L 455.4,87.7 L 455.9,87.3" style="fill:none;stroke:#000000;stroke-width:2.0px;stroke-linecap:butt;stroke-linejoin:miter;stroke-miterlimit:10;stroke-opacity:1;" />
<path class="atom-0" d="M 524.5 63.8 Q 524.5 61.8, 525.4 60.7 Q 526.4 59.6, 528.2 59.6 Q 530.1 59.6, 531.0 60.7 Q 532.0 61.8, 532.0 63.8 Q 532.0 65.8, 531.0 66.9 Q 530.0 68.0, 528.2 68.0 Q 526.4 68.0, 525.4 66.9 Q 524.5 65.8, 524.5 63.8 M 528.2 67.1 Q 529.5 67.1, 530.2 66.3 Q 530.8 65.4, 530.8 63.8 Q 530.8 62.2, 530.2 61.3 Q 529.5 60.5, 528.2 60.5 Q 527.0 60.5, 526.3 61.3 Q 525.6 62.1, 525.6 63.8 Q 525.6 65.4, 526.3 66.3 Q 527.0 67.1, 528.2 67.1 " fill="#FF0000" />
<path class="atom-5" d="M 434.3 129.9 L 437.0 134.2 Q 437.2 134.6, 437.7 135.4 Q 438.1 136.2, 438.1 136.2 L 438.1 129.9 L 439.2 129.9 L 439.2 138.1 L 438.1 138.1 L 435.2 133.3 Q 434.9 132.8, 434.5 132.1 Q 434.2 131.5, 434.1 131.3 L 434.1 138.1 L 433.0 138.1 L 433.0 129.9 L 434.3 129.9 " fill="#0000FF" />
<path class="atom-7" d="M 456.8 179.4 Q 456.8 177.5, 457.8 176.4 Q 458.8 175.3, 460.6 175.3 Q 462.4 175.3, 463.4 176.4 Q 464.4 177.5, 464.4 179.4 Q 464.4 181.4, 463.4 182.6 Q 462.4 183.7, 460.6 183.7 Q 458.8 183.7, 457.8 182.6 Q 456.8 181.4, 456.8 179.4 M 460.6 182.8 Q 461.8 182.8, 462.5 181.9 Q 463.2 181.1, 463.2 179.4 Q 463.2 177.8, 462.5 177.0 Q 461.8 176.2, 460.6 176.2 Q 459.3 176.2, 458.7 177.0 Q 458.0 177.8, 458.0 179.4 Q 458.0 181.1, 458.7 181.9 Q 459.3 182.8, 460.6 182.8 " fill="#FF0000" />
<path class="atom-13" d="M 341.8 130.2 Q 341.8 128.2, 342.8 127.1 Q 343.8 126.0, 345.6 126.0 Q 347.4 126.0, 348.4 127.1 Q 349.4 128.2, 349.4 130.2 Q 349.4 132.2, 348.4 133.3 Q 347.4 134.4, 345.6 134.4 Q 343.8 134.4, 342.8 133.3 Q 341.8 132.2, 341.8 130.2 M 345.6 133.5 Q 346.9 133.5, 347.5 132.7 Q 348.2 131.8, 348.2 130.2 Q 348.2 128.6, 347.5 127.7 Q 346.9 126.9, 345.6 126.9 Q 344.4 126.9, 343.7 127.7 Q 343.0 128.5, 343.0 130.2 Q 343.0 131.8, 343.7 132.7 Q 344.4 133.5, 345.6 133.5 " fill="#FF0000" />
<path class="atom-16" d="M 268.8 110.4 L 271.5 114.7 Q 271.7 115.2, 272.2 115.9 Q 272.6 116.7, 272.6 116.8 L 272.6 110.4 L 273.7 110.4 L 273.7 118.6 L 272.6 118.6 L 269.7 113.8 Q 269.4 113.3, 269.0 112.6 Q 268.7 112.0, 268.5 111.8 L 268.5 118.6 L 267.5 118.6 L 267.5 110.4 L 268.8 110.4 " fill="#0000FF" />
<path class="atom-19" d="M 211.3 117.8 L 214.0 122.1 Q 214.3 122.5, 214.7 123.3 Q 215.1 124.1, 215.2 124.1 L 215.2 117.8 L 216.3 117.8 L 216.3 126.0 L 215.1 126.0 L 212.2 121.2 Q 211.9 120.7, 211.5 120.0 Q 211.2 119.4, 211.1 119.2 L 211.1 126.0 L 210.0 126.0 L 210.0 117.8 L 211.3 117.8 " fill="#0000FF" />
<path class="atom-22" d="M 134.4 106.2 Q 134.4 104.3, 135.3 103.2 Q 136.3 102.1, 138.1 102.1 Q 139.9 102.1, 140.9 103.2 Q 141.9 104.3, 141.9 106.2 Q 141.9 108.2, 140.9 109.4 Q 139.9 110.5, 138.1 110.5 Q 136.3 110.5, 135.3 109.4 Q 134.4 108.3, 134.4 106.2 M 138.1 109.6 Q 139.4 109.6, 140.1 108.7 Q 140.7 107.9, 140.7 106.2 Q 140.7 104.6, 140.1 103.8 Q 139.4 103.0, 138.1 103.0 Q 136.9 103.0, 136.2 103.8 Q 135.5 104.6, 135.5 106.2 Q 135.5 107.9, 136.2 108.7 Q 136.9 109.6, 138.1 109.6 " fill="#FF0000" />
<path class="atom-33" d="M 78.9 109.5 L 81.6 113.8 Q 81.8 114.3, 82.2 115.1 Q 82.7 115.8, 82.7 115.9 L 82.7 109.5 L 83.8 109.5 L 83.8 117.7 L 82.7 117.7 L 79.8 113.0 Q 79.4 112.4, 79.1 111.8 Q 78.7 111.1, 78.6 110.9 L 78.6 117.7 L 77.6 117.7 L 77.6 109.5 L 78.9 109.5 " fill="#0000FF" />
<path class="atom-35" d="M 123.2 133.0 Q 123.2 131.0, 124.2 129.9 Q 125.1 128.8, 127.0 128.8 Q 128.8 128.8, 129.8 129.9 Q 130.7 131.0, 130.7 133.0 Q 130.7 135.0, 129.7 136.1 Q 128.8 137.2, 127.0 137.2 Q 125.2 137.2, 124.2 136.1 Q 123.2 135.0, 123.2 133.0 M 127.0 136.3 Q 128.2 136.3, 128.9 135.5 Q 129.6 134.6, 129.6 133.0 Q 129.6 131.4, 128.9 130.5 Q 128.2 129.7, 127.0 129.7 Q 125.7 129.7, 125.0 130.5 Q 124.4 131.3, 124.4 133.0 Q 124.4 134.6, 125.0 135.5 Q 125.7 136.3, 127.0 136.3 " fill="#FF0000" />
<path class="atom-38" d="M 29.6 139.9 L 30.8 139.9 L 30.8 143.4 L 34.9 143.4 L 34.9 139.9 L 36.1 139.9 L 36.1 148.1 L 34.9 148.1 L 34.9 144.3 L 30.8 144.3 L 30.8 148.1 L 29.6 148.1 L 29.6 139.9 " fill="#0000FF" />
<path class="atom-38" d="M 39.0 139.9 L 41.7 144.3 Q 41.9 144.7, 42.4 145.5 Q 42.8 146.2, 42.8 146.3 L 42.8 139.9 L 43.9 139.9 L 43.9 148.1 L 42.8 148.1 L 39.9 143.4 Q 39.6 142.8, 39.2 142.2 Q 38.8 141.5, 38.7 141.3 L 38.7 148.1 L 37.7 148.1 L 37.7 139.9 L 39.0 139.9 " fill="#0000FF" />
<path class="atom-39" d="M 41.8 191.4 L 42.9 191.4 L 42.9 194.9 L 47.1 194.9 L 47.1 191.4 L 48.3 191.4 L 48.3 199.6 L 47.1 199.6 L 47.1 195.8 L 42.9 195.8 L 42.9 199.6 L 41.8 199.6 L 41.8 191.4 " fill="#0000FF" />
<path class="atom-39" d="M 51.2 191.4 L 53.9 195.8 Q 54.1 196.2, 54.5 197.0 Q 55.0 197.7, 55.0 197.8 L 55.0 191.4 L 56.1 191.4 L 56.1 199.6 L 55.0 199.6 L 52.1 194.9 Q 51.7 194.3, 51.4 193.7 Q 51.0 193.0, 50.9 192.8 L 50.9 199.6 L 49.9 199.6 L 49.9 191.4 L 51.2 191.4 " fill="#0000FF" />
<path class="atom-45" d="M 144.5 178.0 Q 144.5 176.0, 145.5 174.9 Q 146.5 173.8, 148.3 173.8 Q 150.1 173.8, 151.1 174.9 Q 152.0 176.0, 152.0 178.0 Q 152.0 180.0, 151.1 181.1 Q 150.1 182.3, 148.3 182.3 Q 146.5 182.3, 145.5 181.1 Q 144.5 180.0, 144.5 178.0 M 148.3 181.3 Q 149.5 181.3, 150.2 180.5 Q 150.9 179.6, 150.9 178.0 Q 150.9 176.4, 150.2 175.6 Q 149.5 174.8, 148.3 174.8 Q 147.0 174.8, 146.3 175.6 Q 145.7 176.4, 145.7 178.0 Q 145.7 179.7, 146.3 180.5 Q 147.0 181.3, 148.3 181.3 " fill="#FF0000" />
<path class="atom-45" d="M 153.3 173.9 L 154.4 173.9 L 154.4 177.4 L 158.6 177.4 L 158.6 173.9 L 159.7 173.9 L 159.7 182.1 L 158.6 182.1 L 158.6 178.3 L 154.4 178.3 L 154.4 182.1 L 153.3 182.1 L 153.3 173.9 " fill="#FF0000" />
<path class="atom-51" d="M 395.0 98.4 Q 395.0 96.4, 396.0 95.3 Q 397.0 94.2, 398.8 94.2 Q 400.6 94.2, 401.6 95.3 Q 402.5 96.4, 402.5 98.4 Q 402.5 100.4, 401.6 101.5 Q 400.6 102.6, 398.8 102.6 Q 397.0 102.6, 396.0 101.5 Q 395.0 100.4, 395.0 98.4 M 398.8 101.7 Q 400.0 101.7, 400.7 100.8 Q 401.4 100.0, 401.4 98.4 Q 401.4 96.7, 400.7 95.9 Q 400.0 95.1, 398.8 95.1 Q 397.5 95.1, 396.8 95.9 Q 396.2 96.7, 396.2 98.4 Q 396.2 100.0, 396.8 100.8 Q 397.5 101.7, 398.8 101.7 " fill="#FF0000" />
<path class="atom-53" d="M 425.0 76.5 Q 425.0 74.6, 425.9 73.5 Q 426.9 72.4, 428.7 72.4 Q 430.5 72.4, 431.5 73.5 Q 432.5 74.6, 432.5 76.5 Q 432.5 78.5, 431.5 79.7 Q 430.5 80.8, 428.7 80.8 Q 426.9 80.8, 425.9 79.7 Q 425.0 78.6, 425.0 76.5 M 428.7 79.9 Q 430.0 79.9, 430.6 79.0 Q 431.3 78.2, 431.3 76.5 Q 431.3 74.9, 430.6 74.1 Q 430.0 73.3, 428.7 73.3 Q 427.5 73.3, 426.8 74.1 Q 426.1 74.9, 426.1 76.5 Q 426.1 78.2, 426.8 79.0 Q 427.5 79.9, 428.7 79.9 " fill="#FF0000" />
<path class="atom-54" d="M 476.7 66.0 L 479.4 70.4 Q 479.6 70.8, 480.1 71.6 Q 480.5 72.4, 480.5 72.4 L 480.5 66.0 L 481.6 66.0 L 481.6 74.2 L 480.5 74.2 L 477.6 69.5 Q 477.2 68.9, 476.9 68.3 Q 476.5 67.7, 476.4 67.5 L 476.4 74.2 L 475.4 74.2 L 475.4 66.0 L 476.7 66.0 " fill="#0000FF" />
<path class="atom-54" d="M 475.3 57.0 L 476.4 57.0 L 476.4 60.5 L 480.6 60.5 L 480.6 57.0 L 481.7 57.0 L 481.7 65.2 L 480.6 65.2 L 480.6 61.4 L 476.4 61.4 L 476.4 65.2 L 475.3 65.2 L 475.3 57.0 " fill="#0000FF" />
</svg>