<?xml version='1.0' encoding='utf-8'?>
<svg xmlns="http://www.w3.org/2000/svg" baseProfile="full" height="260px" version="1.1" viewBox="0 0 560 260" width="560px" xml:space="preserve">

<path class="bond-0 atom-0 atom-1" d="M 341.3,182.5 L 357.6,192.2" style="fill:none;fill-rule:evenodd;stroke:#000000;stroke-width:2.0px;stroke-linecap:butt;stroke-linejoin:miter;stroke-opacity:1" />
<path class="bond-1 atom-1 atom-2" d="M 357.6,192.2 L 358.4,200.0" style="fill:none;fill-rule:evenodd;stroke:#000000;stroke-width:2.0px;stroke-linecap:butt;stroke-linejoin:miter;stroke-opacity:1" />
<path class="bond-1 atom-1 atom-2" d="M 358.4,200.0 L 359.1,207.8" style="fill:none;fill-rule:evenodd;stroke:#0000FF;stroke-width:2.0px;stroke-linecap:butt;stroke-linejoin:miter;stroke-opacity:1" />
<path class="bond-2 atom-2 atom-3" d="M 362.1,211.8 L 370.0,213.5" style="fill:none;fill-rule:evenodd;stroke:#0000FF;stroke-width:2.0px;stroke-linecap:butt;stroke-linejoin:miter;stroke-opacity:1" />
<path class="bond-2 atom-2 atom-3" d="M 370.0,213.5 L 378.0,215.3" style="fill:none;fill-rule:evenodd;stroke:#000000;stroke-width:2.0px;stroke-linecap:butt;stroke-linejoin:miter;stroke-opacity:1" />
<path class="bond-2 atom-2 atom-3" d="M 362.7,209.0 L 369.6,210.5" style="fill:none;fill-rule:evenodd;stroke:#0000FF;stroke-width:2.0px;stroke-linecap:butt;stroke-linejoin:miter;stroke-opacity:1" />
<path class="bond-2 atom-2 atom-3" d="M 369.6,210.5 L 376.6,212.1" style="fill:none;fill-rule:evenodd;stroke:#000000;stroke-width:2.0px;stroke-linecap:butt;stroke-linejoin:miter;stroke-opacity:1" />
<path class="bond-3 atom-3 atom-4" d="M 378.0,215.3 L 381.8,208.9" style="fill:none;fill-rule:evenodd;stroke:#000000;stroke-width:2.0px;stroke-linecap:butt;stroke-linejoin:miter;stroke-opacity:1" />
<path class="bond-3 atom-3 atom-4" d="M 381.8,208.9 L 385.6,202.4" style="fill:none;fill-rule:evenodd;stroke:#CCCC00;stroke-width:2.0px;stroke-linecap:butt;stroke-linejoin:miter;stroke-opacity:1" />
<path class="bond-4 atom-4 atom-5" d="M 385.3,196.3 L 380.2,190.5" style="fill:none;fill-rule:evenodd;stroke:#CCCC00;stroke-width:2.0px;stroke-linecap:butt;stroke-linejoin:miter;stroke-opacity:1" />
<path class="bond-4 atom-4 atom-5" d="M 380.2,190.5 L 375.1,184.7" style="fill:none;fill-rule:evenodd;stroke:#000000;stroke-width:2.0px;stroke-linecap:butt;stroke-linejoin:miter;stroke-opacity:1" />
<path class="bond-5 atom-5 atom-6" d="M 375.1,184.7 L 379.3,166.1" style="fill:none;fill-rule:evenodd;stroke:#000000;stroke-width:2.0px;stroke-linecap:butt;stroke-linejoin:miter;stroke-opacity:1" />
<path class="bond-6 atom-6 atom-7" d="M 379.3,166.1 L 397.4,160.4" style="fill:none;fill-rule:evenodd;stroke:#000000;stroke-width:2.0px;stroke-linecap:butt;stroke-linejoin:miter;stroke-opacity:1" />
<path class="bond-7 atom-7 atom-8" d="M 397.4,160.4 L 401.6,141.9" style="fill:none;fill-rule:evenodd;stroke:#000000;stroke-width:2.0px;stroke-linecap:butt;stroke-linejoin:miter;stroke-opacity:1" />
<path class="bond-7 atom-7 atom-8" d="M 395.0,158.2 L 398.5,142.8" style="fill:none;fill-rule:evenodd;stroke:#000000;stroke-width:2.0px;stroke-linecap:butt;stroke-linejoin:miter;stroke-opacity:1" />
<path class="bond-8 atom-8 atom-9" d="M 401.6,141.9 L 387.6,129.0" style="fill:none;fill-rule:evenodd;stroke:#000000;stroke-width:2.0px;stroke-linecap:butt;stroke-linejoin:miter;stroke-opacity:1" />
<path class="bond-9 atom-9 atom-10" d="M 387.6,129.0 L 391.8,110.4" style="fill:none;fill-rule:evenodd;stroke:#000000;stroke-width:2.0px;stroke-linecap:butt;stroke-linejoin:miter;stroke-opacity:1" />
<path class="bond-10 atom-10 atom-11" d="M 391.8,110.4 L 399.5,108.0" style="fill:none;fill-rule:evenodd;stroke:#000000;stroke-width:2.0px;stroke-linecap:butt;stroke-linejoin:miter;stroke-opacity:1" />
<path class="bond-10 atom-10 atom-11" d="M 399.5,108.0 L 407.3,105.6" style="fill:none;fill-rule:evenodd;stroke:#0000FF;stroke-width:2.0px;stroke-linecap:butt;stroke-linejoin:miter;stroke-opacity:1" />
<path class="bond-11 atom-11 atom-12" d="M 410.7,101.4 L 412.4,93.8" style="fill:none;fill-rule:evenodd;stroke:#0000FF;stroke-width:2.0px;stroke-linecap:butt;stroke-linejoin:miter;stroke-opacity:1" />
<path class="bond-11 atom-11 atom-12" d="M 412.4,93.8 L 414.1,86.2" style="fill:none;fill-rule:evenodd;stroke:#000000;stroke-width:2.0px;stroke-linecap:butt;stroke-linejoin:miter;stroke-opacity:1" />
<path class="bond-12 atom-12 atom-13" d="M 415.7,85.7 L 409.9,80.4" style="fill:none;fill-rule:evenodd;stroke:#000000;stroke-width:2.0px;stroke-linecap:butt;stroke-linejoin:miter;stroke-opacity:1" />
<path class="bond-12 atom-12 atom-13" d="M 409.9,80.4 L 404.2,75.1" style="fill:none;fill-rule:evenodd;stroke:#FF0000;stroke-width:2.0px;stroke-linecap:butt;stroke-linejoin:miter;stroke-opacity:1" />
<path class="bond-12 atom-12 atom-13" d="M 413.7,87.8 L 408.0,82.5" style="fill:none;fill-rule:evenodd;stroke:#000000;stroke-width:2.0px;stroke-linecap:butt;stroke-linejoin:miter;stroke-opacity:1" />
<path class="bond-12 atom-12 atom-13" d="M 408.0,82.5 L 402.2,77.2" style="fill:none;fill-rule:evenodd;stroke:#FF0000;stroke-width:2.0px;stroke-linecap:butt;stroke-linejoin:miter;stroke-opacity:1" />
<path class="bond-13 atom-14 atom-12" d="M 428.5,81.3 L 428.7,82.0" style="fill:none;fill-rule:evenodd;stroke:#000000;stroke-width:1.0px;stroke-linecap:butt;stroke-linejoin:miter;stroke-opacity:1" />
<path class="bond-13 atom-14 atom-12" d="M 424.8,82.1 L 425.2,83.4" style="fill:none;fill-rule:evenodd;stroke:#000000;stroke-width:1.0px;stroke-linecap:butt;stroke-linejoin:miter;stroke-opacity:1" />
<path class="bond-13 atom-14 atom-12" d="M 421.1,82.9 L 421.7,84.9" style="fill:none;fill-rule:evenodd;stroke:#000000;stroke-width:1.0px;stroke-linecap:butt;stroke-linejoin:miter;stroke-opacity:1" />
<path class="bond-13 atom-14 atom-12" d="M 417.3,83.7 L 418.2,86.4" style="fill:none;fill-rule:evenodd;stroke:#000000;stroke-width:1.0px;stroke-linecap:butt;stroke-linejoin:miter;stroke-opacity:1" />
<path class="bond-14 atom-14 atom-15" d="M 432.3,80.5 L 438.3,62.4" style="fill:none;fill-rule:evenodd;stroke:#000000;stroke-width:2.0px;stroke-linecap:butt;stroke-linejoin:miter;stroke-opacity:1" />
<path class="bond-15 atom-15 atom-16" d="M 438.3,62.4 L 457.4,62.7" style="fill:none;fill-rule:evenodd;stroke:#000000;stroke-width:2.0px;stroke-linecap:butt;stroke-linejoin:miter;stroke-opacity:1" />
<path class="bond-16 atom-16 atom-17" d="M 457.4,62.7 L 461.0,56.6 L 462.1,57.5 Z" style="fill:#000000;fill-rule:evenodd;fill-opacity:1;stroke:#000000;stroke-width:0.5px;stroke-linecap:butt;stroke-linejoin:miter;stroke-miterlimit:10;stroke-opacity:1;" />
<path class="bond-16 atom-16 atom-17" d="M 466.8,52.3 L 464.6,50.6 L 461.0,56.6 L 462.1,57.5 Z" style="fill:#FF0000;fill-rule:evenodd;fill-opacity:1;stroke:#FF0000;stroke-width:0.5px;stroke-linecap:butt;stroke-linejoin:miter;stroke-miterlimit:10;stroke-opacity:1;" />
<path class="bond-17 atom-16 atom-18" d="M 457.4,62.7 L 463.0,80.8" style="fill:none;fill-rule:evenodd;stroke:#000000;stroke-width:2.0px;stroke-linecap:butt;stroke-linejoin:miter;stroke-opacity:1" />
<path class="bond-18 atom-18 atom-19" d="M 463.0,80.8 L 456.6,85.4" style="fill:none;fill-rule:evenodd;stroke:#000000;stroke-width:2.0px;stroke-linecap:butt;stroke-linejoin:miter;stroke-opacity:1" />
<path class="bond-18 atom-18 atom-19" d="M 456.6,85.4 L 450.2,89.9" style="fill:none;fill-rule:evenodd;stroke:#0000FF;stroke-width:2.0px;stroke-linecap:butt;stroke-linejoin:miter;stroke-opacity:1" />
<path class="bond-19 atom-19 atom-20" d="M 447.5,95.2 L 447.4,103.0" style="fill:none;fill-rule:evenodd;stroke:#0000FF;stroke-width:2.0px;stroke-linecap:butt;stroke-linejoin:miter;stroke-opacity:1" />
<path class="bond-19 atom-19 atom-20" d="M 447.4,103.0 L 447.3,110.9" style="fill:none;fill-rule:evenodd;stroke:#000000;stroke-width:2.0px;stroke-linecap:butt;stroke-linejoin:miter;stroke-opacity:1" />
<path class="bond-20 atom-20 atom-21" d="M 447.3,109.2 L 440.2,113.2" style="fill:none;fill-rule:evenodd;stroke:#000000;stroke-width:2.0px;stroke-linecap:butt;stroke-linejoin:miter;stroke-opacity:1" />
<path class="bond-20 atom-20 atom-21" d="M 440.2,113.2 L 433.1,117.2" style="fill:none;fill-rule:evenodd;stroke:#FF0000;stroke-width:2.0px;stroke-linecap:butt;stroke-linejoin:miter;stroke-opacity:1" />
<path class="bond-20 atom-20 atom-21" d="M 448.7,111.7 L 441.6,115.7" style="fill:none;fill-rule:evenodd;stroke:#000000;stroke-width:2.0px;stroke-linecap:butt;stroke-linejoin:miter;stroke-opacity:1" />
<path class="bond-20 atom-20 atom-21" d="M 441.6,115.7 L 434.5,119.7" style="fill:none;fill-rule:evenodd;stroke:#FF0000;stroke-width:2.0px;stroke-linecap:butt;stroke-linejoin:miter;stroke-opacity:1" />
<path class="bond-21 atom-20 atom-22" d="M 447.3,110.9 L 463.7,120.6" style="fill:none;fill-rule:evenodd;stroke:#000000;stroke-width:2.0px;stroke-linecap:butt;stroke-linejoin:miter;stroke-opacity:1" />
<path class="bond-22 atom-22 atom-23" d="M 463.7,120.6 L 470.0,116.2 L 470.7,117.4 Z" style="fill:#000000;fill-rule:evenodd;fill-opacity:1;stroke:#000000;stroke-width:0.5px;stroke-linecap:butt;stroke-linejoin:miter;stroke-miterlimit:10;stroke-opacity:1;" />
<path class="bond-22 atom-22 atom-23" d="M 477.7,114.3 L 476.3,111.8 L 470.0,116.2 L 470.7,117.4 Z" style="fill:#0000FF;fill-rule:evenodd;fill-opacity:1;stroke:#0000FF;stroke-width:0.5px;stroke-linecap:butt;stroke-linejoin:miter;stroke-miterlimit:10;stroke-opacity:1;" />
<path class="bond-23 atom-23 atom-24" d="M 482.9,112.8 L 489.8,116.9" style="fill:none;fill-rule:evenodd;stroke:#0000FF;stroke-width:2.0px;stroke-linecap:butt;stroke-linejoin:miter;stroke-opacity:1" />
<path class="bond-23 atom-23 atom-24" d="M 489.8,116.9 L 496.6,120.9" style="fill:none;fill-rule:evenodd;stroke:#000000;stroke-width:2.0px;stroke-linecap:butt;stroke-linejoin:miter;stroke-opacity:1" />
<path class="bond-24 atom-24 atom-25" d="M 495.2,120.1 L 495.1,128.3" style="fill:none;fill-rule:evenodd;stroke:#000000;stroke-width:2.0px;stroke-linecap:butt;stroke-linejoin:miter;stroke-opacity:1" />
<path class="bond-24 atom-24 atom-25" d="M 495.1,128.3 L 495.0,136.6" style="fill:none;fill-rule:evenodd;stroke:#FF0000;stroke-width:2.0px;stroke-linecap:butt;stroke-linejoin:miter;stroke-opacity:1" />
<path class="bond-24 atom-24 atom-25" d="M 498.1,120.1 L 498.0,128.4" style="fill:none;fill-rule:evenodd;stroke:#000000;stroke-width:2.0px;stroke-linecap:butt;stroke-linejoin:miter;stroke-opacity:1" />
<path class="bond-24 atom-24 atom-25" d="M 498.0,128.4 L 497.9,136.6" style="fill:none;fill-rule:evenodd;stroke:#FF0000;stroke-width:2.0px;stroke-linecap:butt;stroke-linejoin:miter;stroke-opacity:1" />
<path class="bond-25 atom-24 atom-26" d="M 496.6,120.9 L 513.2,111.6" style="fill:none;fill-rule:evenodd;stroke:#000000;stroke-width:2.0px;stroke-linecap:butt;stroke-linejoin:miter;stroke-opacity:1" />
<path class="bond-26 atom-26 atom-27" d="M 513.2,111.6 L 510.7,104.3" style="fill:none;fill-rule:evenodd;stroke:#000000;stroke-width:2.0px;stroke-linecap:butt;stroke-linejoin:miter;stroke-opacity:1" />
<path class="bond-26 atom-26 atom-27" d="M 510.7,104.3 L 508.1,97.0" style="fill:none;fill-rule:evenodd;stroke:#33CCCC;stroke-width:2.0px;stroke-linecap:butt;stroke-linejoin:miter;stroke-opacity:1" />
<path class="bond-27 atom-26 atom-28" d="M 513.2,111.6 L 532.0,108.5" style="fill:none;fill-rule:evenodd;stroke:#000000;stroke-width:2.0px;stroke-linecap:butt;stroke-linejoin:miter;stroke-opacity:1" />
<path class="bond-28 atom-28 atom-29" d="M 532.0,108.5 L 525.3,126.3" style="fill:none;fill-rule:evenodd;stroke:#000000;stroke-width:2.0px;stroke-linecap:butt;stroke-linejoin:miter;stroke-opacity:1" />
<path class="bond-29 atom-22 atom-30" d="M 463.7,120.6 L 463.5,139.6" style="fill:none;fill-rule:evenodd;stroke:#000000;stroke-width:2.0px;stroke-linecap:butt;stroke-linejoin:miter;stroke-opacity:1" />
<path class="bond-30 atom-30 atom-31" d="M 463.5,139.6 L 482.5,139.8" style="fill:none;fill-rule:evenodd;stroke:#000000;stroke-width:2.0px;stroke-linecap:butt;stroke-linejoin:miter;stroke-opacity:1" />
<path class="bond-31 atom-30 atom-32" d="M 463.5,139.6 L 444.4,139.4" style="fill:none;fill-rule:evenodd;stroke:#000000;stroke-width:2.0px;stroke-linecap:butt;stroke-linejoin:miter;stroke-opacity:1" />
<path class="bond-32 atom-30 atom-33" d="M 463.5,139.6 L 463.3,158.6" style="fill:none;fill-rule:evenodd;stroke:#000000;stroke-width:2.0px;stroke-linecap:butt;stroke-linejoin:miter;stroke-opacity:1" />
<path class="bond-33 atom-9 atom-34" d="M 387.6,129.0 L 369.4,134.6" style="fill:none;fill-rule:evenodd;stroke:#000000;stroke-width:2.0px;stroke-linecap:butt;stroke-linejoin:miter;stroke-opacity:1" />
<path class="bond-33 atom-9 atom-34" d="M 386.9,132.2 L 371.8,136.9" style="fill:none;fill-rule:evenodd;stroke:#000000;stroke-width:2.0px;stroke-linecap:butt;stroke-linejoin:miter;stroke-opacity:1" />
<path class="bond-34 atom-34 atom-35" d="M 369.4,134.6 L 364.0,129.6" style="fill:none;fill-rule:evenodd;stroke:#000000;stroke-width:2.0px;stroke-linecap:butt;stroke-linejoin:miter;stroke-opacity:1" />
<path class="bond-34 atom-34 atom-35" d="M 364.0,129.6 L 358.5,124.6" style="fill:none;fill-rule:evenodd;stroke:#FF0000;stroke-width:2.0px;stroke-linecap:butt;stroke-linejoin:miter;stroke-opacity:1" />
<path class="bond-35 atom-35 atom-36" d="M 352.3,122.7 L 344.8,125.1" style="fill:none;fill-rule:evenodd;stroke:#FF0000;stroke-width:2.0px;stroke-linecap:butt;stroke-linejoin:miter;stroke-opacity:1" />
<path class="bond-35 atom-35 atom-36" d="M 344.8,125.1 L 337.3,127.4" style="fill:none;fill-rule:evenodd;stroke:#000000;stroke-width:2.0px;stroke-linecap:butt;stroke-linejoin:miter;stroke-opacity:1" />
<path class="bond-36 atom-36 atom-37" d="M 337.3,127.4 L 323.3,114.5" style="fill:none;fill-rule:evenodd;stroke:#000000;stroke-width:2.0px;stroke-linecap:butt;stroke-linejoin:miter;stroke-opacity:1" />
<path class="bond-37 atom-37 atom-38" d="M 323.3,114.5 L 315.7,116.9" style="fill:none;fill-rule:evenodd;stroke:#000000;stroke-width:2.0px;stroke-linecap:butt;stroke-linejoin:miter;stroke-opacity:1" />
<path class="bond-37 atom-37 atom-38" d="M 315.7,116.9 L 308.2,119.3" style="fill:none;fill-rule:evenodd;stroke:#FF0000;stroke-width:2.0px;stroke-linecap:butt;stroke-linejoin:miter;stroke-opacity:1" />
<path class="bond-38 atom-38 atom-39" d="M 302.0,117.4 L 296.6,112.3" style="fill:none;fill-rule:evenodd;stroke:#FF0000;stroke-width:2.0px;stroke-linecap:butt;stroke-linejoin:miter;stroke-opacity:1" />
<path class="bond-38 atom-38 atom-39" d="M 296.6,112.3 L 291.1,107.3" style="fill:none;fill-rule:evenodd;stroke:#000000;stroke-width:2.0px;stroke-linecap:butt;stroke-linejoin:miter;stroke-opacity:1" />
<path class="bond-39 atom-39 atom-40" d="M 291.1,107.3 L 272.9,113.0" style="fill:none;fill-rule:evenodd;stroke:#000000;stroke-width:2.0px;stroke-linecap:butt;stroke-linejoin:miter;stroke-opacity:1" />
<path class="bond-40 atom-40 atom-41" d="M 272.9,113.0 L 267.5,108.0" style="fill:none;fill-rule:evenodd;stroke:#000000;stroke-width:2.0px;stroke-linecap:butt;stroke-linejoin:miter;stroke-opacity:1" />
<path class="bond-40 atom-40 atom-41" d="M 267.5,108.0 L 262.0,103.0" style="fill:none;fill-rule:evenodd;stroke:#FF0000;stroke-width:2.0px;stroke-linecap:butt;stroke-linejoin:miter;stroke-opacity:1" />
<path class="bond-41 atom-41 atom-42" d="M 255.9,101.1 L 248.3,103.4" style="fill:none;fill-rule:evenodd;stroke:#FF0000;stroke-width:2.0px;stroke-linecap:butt;stroke-linejoin:miter;stroke-opacity:1" />
<path class="bond-41 atom-41 atom-42" d="M 248.3,103.4 L 240.8,105.8" style="fill:none;fill-rule:evenodd;stroke:#000000;stroke-width:2.0px;stroke-linecap:butt;stroke-linejoin:miter;stroke-opacity:1" />
<path class="bond-42 atom-42 atom-43" d="M 240.8,105.8 L 226.8,92.9" style="fill:none;fill-rule:evenodd;stroke:#000000;stroke-width:2.0px;stroke-linecap:butt;stroke-linejoin:miter;stroke-opacity:1" />
<path class="bond-43 atom-43 atom-44" d="M 226.8,92.9 L 219.3,95.3" style="fill:none;fill-rule:evenodd;stroke:#000000;stroke-width:2.0px;stroke-linecap:butt;stroke-linejoin:miter;stroke-opacity:1" />
<path class="bond-43 atom-43 atom-44" d="M 219.3,95.3 L 211.7,97.6" style="fill:none;fill-rule:evenodd;stroke:#FF0000;stroke-width:2.0px;stroke-linecap:butt;stroke-linejoin:miter;stroke-opacity:1" />
<path class="bond-44 atom-44 atom-45" d="M 205.5,95.7 L 200.1,90.7" style="fill:none;fill-rule:evenodd;stroke:#FF0000;stroke-width:2.0px;stroke-linecap:butt;stroke-linejoin:miter;stroke-opacity:1" />
<path class="bond-44 atom-44 atom-45" d="M 200.1,90.7 L 194.6,85.7" style="fill:none;fill-rule:evenodd;stroke:#000000;stroke-width:2.0px;stroke-linecap:butt;stroke-linejoin:miter;stroke-opacity:1" />
<path class="bond-45 atom-45 atom-46" d="M 194.6,85.7 L 176.5,91.4" style="fill:none;fill-rule:evenodd;stroke:#000000;stroke-width:2.0px;stroke-linecap:butt;stroke-linejoin:miter;stroke-opacity:1" />
<path class="bond-46 atom-46 atom-47" d="M 176.5,91.4 L 171.0,86.3" style="fill:none;fill-rule:evenodd;stroke:#000000;stroke-width:2.0px;stroke-linecap:butt;stroke-linejoin:miter;stroke-opacity:1" />
<path class="bond-46 atom-46 atom-47" d="M 171.0,86.3 L 165.6,81.3" style="fill:none;fill-rule:evenodd;stroke:#FF0000;stroke-width:2.0px;stroke-linecap:butt;stroke-linejoin:miter;stroke-opacity:1" />
<path class="bond-47 atom-47 atom-48" d="M 159.4,79.4 L 151.8,81.8" style="fill:none;fill-rule:evenodd;stroke:#FF0000;stroke-width:2.0px;stroke-linecap:butt;stroke-linejoin:miter;stroke-opacity:1" />
<path class="bond-47 atom-47 atom-48" d="M 151.8,81.8 L 144.3,84.2" style="fill:none;fill-rule:evenodd;stroke:#000000;stroke-width:2.0px;stroke-linecap:butt;stroke-linejoin:miter;stroke-opacity:1" />
<path class="bond-48 atom-48 atom-49" d="M 144.3,84.2 L 130.3,71.3" style="fill:none;fill-rule:evenodd;stroke:#000000;stroke-width:2.0px;stroke-linecap:butt;stroke-linejoin:miter;stroke-opacity:1" />
<path class="bond-49 atom-49 atom-50" d="M 130.3,71.3 L 112.1,76.9" style="fill:none;fill-rule:evenodd;stroke:#000000;stroke-width:2.0px;stroke-linecap:butt;stroke-linejoin:miter;stroke-opacity:1" />
<path class="bond-49 atom-49 atom-50" d="M 129.6,74.5 L 114.6,79.2" style="fill:none;fill-rule:evenodd;stroke:#000000;stroke-width:2.0px;stroke-linecap:butt;stroke-linejoin:miter;stroke-opacity:1" />
<path class="bond-50 atom-50 atom-51" d="M 112.1,76.9 L 108.0,95.5" style="fill:none;fill-rule:evenodd;stroke:#000000;stroke-width:2.0px;stroke-linecap:butt;stroke-linejoin:miter;stroke-opacity:1" />
<path class="bond-51 atom-51 atom-52" d="M 108.0,95.5 L 89.8,101.2" style="fill:none;fill-rule:evenodd;stroke:#000000;stroke-width:2.0px;stroke-linecap:butt;stroke-linejoin:miter;stroke-opacity:1" />
<path class="bond-52 atom-52 atom-53" d="M 89.8,101.2 L 85.6,119.8" style="fill:none;fill-rule:evenodd;stroke:#000000;stroke-width:2.0px;stroke-linecap:butt;stroke-linejoin:miter;stroke-opacity:1" />
<path class="bond-52 atom-52 atom-53" d="M 86.7,102.2 L 83.2,117.5" style="fill:none;fill-rule:evenodd;stroke:#000000;stroke-width:2.0px;stroke-linecap:butt;stroke-linejoin:miter;stroke-opacity:1" />
<path class="bond-53 atom-53 atom-54" d="M 85.6,119.8 L 67.5,125.4" style="fill:none;fill-rule:evenodd;stroke:#000000;stroke-width:2.0px;stroke-linecap:butt;stroke-linejoin:miter;stroke-opacity:1" />
<path class="bond-54 atom-54 atom-55" d="M 67.5,125.4 L 53.5,112.5" style="fill:none;fill-rule:evenodd;stroke:#000000;stroke-width:2.0px;stroke-linecap:butt;stroke-linejoin:miter;stroke-opacity:1" />
<path class="bond-54 atom-54 atom-55" d="M 68.2,122.2 L 56.6,111.6" style="fill:none;fill-rule:evenodd;stroke:#000000;stroke-width:2.0px;stroke-linecap:butt;stroke-linejoin:miter;stroke-opacity:1" />
<path class="bond-55 atom-55 atom-56" d="M 53.5,112.5 L 55.2,104.9" style="fill:none;fill-rule:evenodd;stroke:#000000;stroke-width:2.0px;stroke-linecap:butt;stroke-linejoin:miter;stroke-opacity:1" />
<path class="bond-55 atom-55 atom-56" d="M 55.2,104.9 L 56.9,97.3" style="fill:none;fill-rule:evenodd;stroke:#0000FF;stroke-width:2.0px;stroke-linecap:butt;stroke-linejoin:miter;stroke-opacity:1" />
<path class="bond-56 atom-56 atom-57" d="M 60.3,93.1 L 73.1,89.1" style="fill:none;fill-rule:evenodd;stroke:#0000FF;stroke-width:2.0px;stroke-linecap:butt;stroke-linejoin:miter;stroke-opacity:1" />
<path class="bond-56 atom-56 atom-57" d="M 61.2,95.8 L 74.0,91.8" style="fill:none;fill-rule:evenodd;stroke:#0000FF;stroke-width:2.0px;stroke-linecap:butt;stroke-linejoin:miter;stroke-opacity:1" />
<path class="bond-57 atom-55 atom-58" d="M 53.5,112.5 L 45.7,115.0" style="fill:none;fill-rule:evenodd;stroke:#000000;stroke-width:2.0px;stroke-linecap:butt;stroke-linejoin:miter;stroke-opacity:1" />
<path class="bond-57 atom-55 atom-58" d="M 45.7,115.0 L 38.0,117.4" style="fill:none;fill-rule:evenodd;stroke:#0000FF;stroke-width:2.0px;stroke-linecap:butt;stroke-linejoin:miter;stroke-opacity:1" />
<path class="bond-58 atom-58 atom-59" d="M 34.6,121.5 L 32.9,129.2" style="fill:none;fill-rule:evenodd;stroke:#0000FF;stroke-width:2.0px;stroke-linecap:butt;stroke-linejoin:miter;stroke-opacity:1" />
<path class="bond-58 atom-58 atom-59" d="M 32.9,129.2 L 31.2,136.8" style="fill:none;fill-rule:evenodd;stroke:#000000;stroke-width:2.0px;stroke-linecap:butt;stroke-linejoin:miter;stroke-opacity:1" />
<path class="bond-59 atom-59 atom-60" d="M 31.2,136.8 L 45.2,149.7" style="fill:none;fill-rule:evenodd;stroke:#000000;stroke-width:2.0px;stroke-linecap:butt;stroke-linejoin:miter;stroke-opacity:1" />
<path class="bond-60 atom-60 atom-61" d="M 45.2,149.7 L 41.0,168.2" style="fill:none;fill-rule:evenodd;stroke:#000000;stroke-width:2.0px;stroke-linecap:butt;stroke-linejoin:miter;stroke-opacity:1" />
<path class="bond-61 atom-61 atom-62" d="M 41.0,168.2 L 46.7,173.5" style="fill:none;fill-rule:evenodd;stroke:#000000;stroke-width:2.0px;stroke-linecap:butt;stroke-linejoin:miter;stroke-opacity:1" />
<path class="bond-61 atom-61 atom-62" d="M 46.7,173.5 L 52.3,178.7" style="fill:none;fill-rule:evenodd;stroke:#0000FF;stroke-width:2.0px;stroke-linecap:butt;stroke-linejoin:miter;stroke-opacity:1" />
<path class="bond-62 atom-62 atom-63" d="M 57.7,180.3 L 65.4,177.9" style="fill:none;fill-rule:evenodd;stroke:#0000FF;stroke-width:2.0px;stroke-linecap:butt;stroke-linejoin:miter;stroke-opacity:1" />
<path class="bond-62 atom-62 atom-63" d="M 65.4,177.9 L 73.2,175.5" style="fill:none;fill-rule:evenodd;stroke:#000000;stroke-width:2.0px;stroke-linecap:butt;stroke-linejoin:miter;stroke-opacity:1" />
<path class="bond-63 atom-63 atom-64" d="M 73.2,175.5 L 77.3,156.9" style="fill:none;fill-rule:evenodd;stroke:#000000;stroke-width:2.0px;stroke-linecap:butt;stroke-linejoin:miter;stroke-opacity:1" />
<path class="bond-64 atom-64 atom-65" d="M 77.3,156.9 L 71.7,151.7" style="fill:none;fill-rule:evenodd;stroke:#000000;stroke-width:2.0px;stroke-linecap:butt;stroke-linejoin:miter;stroke-opacity:1" />
<path class="bond-64 atom-64 atom-65" d="M 71.7,151.7 L 66.0,146.5" style="fill:none;fill-rule:evenodd;stroke:#0000FF;stroke-width:2.0px;stroke-linecap:butt;stroke-linejoin:miter;stroke-opacity:1" />
<path class="bond-65 atom-51 atom-66" d="M 108.0,95.5 L 122.0,108.4" style="fill:none;fill-rule:evenodd;stroke:#000000;stroke-width:2.0px;stroke-linecap:butt;stroke-linejoin:miter;stroke-opacity:1" />
<path class="bond-65 atom-51 atom-66" d="M 111.1,94.5 L 122.7,105.2" style="fill:none;fill-rule:evenodd;stroke:#000000;stroke-width:2.0px;stroke-linecap:butt;stroke-linejoin:miter;stroke-opacity:1" />
<path class="bond-66 atom-66 atom-67" d="M 122.0,108.4 L 120.3,116.0" style="fill:none;fill-rule:evenodd;stroke:#000000;stroke-width:2.0px;stroke-linecap:butt;stroke-linejoin:miter;stroke-opacity:1" />
<path class="bond-66 atom-66 atom-67" d="M 120.3,116.0 L 118.6,123.6" style="fill:none;fill-rule:evenodd;stroke:#FF0000;stroke-width:2.0px;stroke-linecap:butt;stroke-linejoin:miter;stroke-opacity:1" />
<path class="bond-67 atom-66 atom-68" d="M 122.0,108.4 L 140.1,102.7" style="fill:none;fill-rule:evenodd;stroke:#000000;stroke-width:2.0px;stroke-linecap:butt;stroke-linejoin:miter;stroke-opacity:1" />
<path class="bond-68 atom-34 atom-69" d="M 369.4,134.6 L 365.3,153.2" style="fill:none;fill-rule:evenodd;stroke:#000000;stroke-width:2.0px;stroke-linecap:butt;stroke-linejoin:miter;stroke-opacity:1" />
<path class="bond-69 atom-5 atom-1" d="M 375.1,184.7 L 357.6,192.2" style="fill:none;fill-rule:evenodd;stroke:#000000;stroke-width:2.0px;stroke-linecap:butt;stroke-linejoin:miter;stroke-opacity:1" />
<path class="bond-69 atom-5 atom-1" d="M 374.3,188.1 L 360.7,194.0" style="fill:none;fill-rule:evenodd;stroke:#000000;stroke-width:2.0px;stroke-linecap:butt;stroke-linejoin:miter;stroke-opacity:1" />
<path class="bond-70 atom-69 atom-6" d="M 365.3,153.2 L 379.3,166.1" style="fill:none;fill-rule:evenodd;stroke:#000000;stroke-width:2.0px;stroke-linecap:butt;stroke-linejoin:miter;stroke-opacity:1" />
<path class="bond-70 atom-69 atom-6" d="M 368.4,152.2 L 380.0,162.9" style="fill:none;fill-rule:evenodd;stroke:#000000;stroke-width:2.0px;stroke-linecap:butt;stroke-linejoin:miter;stroke-opacity:1" />
<path class="bond-71 atom-19 atom-14" d="M 444.9,89.9 L 438.6,85.2" style="fill:none;fill-rule:evenodd;stroke:#0000FF;stroke-width:2.0px;stroke-linecap:butt;stroke-linejoin:miter;stroke-opacity:1" />
<path class="bond-71 atom-19 atom-14" d="M 438.6,85.2 L 432.3,80.5" style="fill:none;fill-rule:evenodd;stroke:#000000;stroke-width:2.0px;stroke-linecap:butt;stroke-linejoin:miter;stroke-opacity:1" />
<path class="bond-72 atom-29 atom-26" d="M 525.3,126.3 L 513.2,111.6" style="fill:none;fill-rule:evenodd;stroke:#000000;stroke-width:2.0px;stroke-linecap:butt;stroke-linejoin:miter;stroke-opacity:1" />
<path class="bond-73 atom-68 atom-48" d="M 140.1,102.7 L 144.3,84.2" style="fill:none;fill-rule:evenodd;stroke:#000000;stroke-width:2.0px;stroke-linecap:butt;stroke-linejoin:miter;stroke-opacity:1" />
<path class="bond-73 atom-68 atom-48" d="M 137.7,100.5 L 141.2,85.1" style="fill:none;fill-rule:evenodd;stroke:#000000;stroke-width:2.0px;stroke-linecap:butt;stroke-linejoin:miter;stroke-opacity:1" />
<path class="bond-74 atom-57 atom-52" d="M 78.5,90.7 L 84.1,96.0" style="fill:none;fill-rule:evenodd;stroke:#0000FF;stroke-width:2.0px;stroke-linecap:butt;stroke-linejoin:miter;stroke-opacity:1" />
<path class="bond-74 atom-57 atom-52" d="M 84.1,96.0 L 89.8,101.2" style="fill:none;fill-rule:evenodd;stroke:#000000;stroke-width:2.0px;stroke-linecap:butt;stroke-linejoin:miter;stroke-opacity:1" />
<path class="bond-75 atom-65 atom-60" d="M 60.7,144.8 L 52.9,147.3" style="fill:none;fill-rule:evenodd;stroke:#0000FF;stroke-width:2.0px;stroke-linecap:butt;stroke-linejoin:miter;stroke-opacity:1" />
<path class="bond-75 atom-65 atom-60" d="M 52.9,147.3 L 45.2,149.7" style="fill:none;fill-rule:evenodd;stroke:#000000;stroke-width:2.0px;stroke-linecap:butt;stroke-linejoin:miter;stroke-opacity:1" />
<path class="bond-76 atom-65 atom-54" d="M 64.1,140.7 L 65.8,133.1" style="fill:none;fill-rule:evenodd;stroke:#0000FF;stroke-width:2.0px;stroke-linecap:butt;stroke-linejoin:miter;stroke-opacity:1" />
<path class="bond-76 atom-65 atom-54" d="M 65.8,133.1 L 67.5,125.4" style="fill:none;fill-rule:evenodd;stroke:#000000;stroke-width:2.0px;stroke-linecap:butt;stroke-linejoin:miter;stroke-opacity:1" />
<path class="bond-77 atom-60 atom-70" d="M 42.4,151.0 L 42.1,150.1" style="fill:none;fill-rule:evenodd;stroke:#000000;stroke-width:1.0px;stroke-linecap:butt;stroke-linejoin:miter;stroke-opacity:1" />
<path class="bond-77 atom-60 atom-70" d="M 39.6,152.4 L 39.0,150.6" style="fill:none;fill-rule:evenodd;stroke:#000000;stroke-width:1.0px;stroke-linecap:butt;stroke-linejoin:miter;stroke-opacity:1" />
<path class="bond-77 atom-60 atom-70" d="M 36.8,153.8 L 36.0,151.1" style="fill:none;fill-rule:evenodd;stroke:#000000;stroke-width:1.0px;stroke-linecap:butt;stroke-linejoin:miter;stroke-opacity:1" />
<path d="M 377.6,215.2 L 378.0,215.3 L 378.2,215.0" style="fill:none;stroke:#000000;stroke-width:2.0px;stroke-linecap:butt;stroke-linejoin:miter;stroke-miterlimit:10;stroke-opacity:1;" />
<path d="M 396.5,160.7 L 397.4,160.4 L 397.6,159.5" style="fill:none;stroke:#000000;stroke-width:2.0px;stroke-linecap:butt;stroke-linejoin:miter;stroke-miterlimit:10;stroke-opacity:1;" />
<path d="M 401.4,142.8 L 401.6,141.9 L 400.9,141.2" style="fill:none;stroke:#000000;stroke-width:2.0px;stroke-linecap:butt;stroke-linejoin:miter;stroke-miterlimit:10;stroke-opacity:1;" />
<path d="M 391.6,111.3 L 391.8,110.4 L 392.1,110.3" style="fill:none;stroke:#000000;stroke-width:2.0px;stroke-linecap:butt;stroke-linejoin:miter;stroke-miterlimit:10;stroke-opacity:1;" />
<path d="M 432.6,79.6 L 432.3,80.5 L 432.6,80.7" style="fill:none;stroke:#000000;stroke-width:2.0px;stroke-linecap:butt;stroke-linejoin:miter;stroke-miterlimit:10;stroke-opacity:1;" />
<path d="M 438.0,63.3 L 438.3,62.4 L 439.3,62.5" style="fill:none;stroke:#000000;stroke-width:2.0px;stroke-linecap:butt;stroke-linejoin:miter;stroke-miterlimit:10;stroke-opacity:1;" />
<path d="M 456.4,62.7 L 457.4,62.7 L 457.6,63.6" style="fill:none;stroke:#000000;stroke-width:2.0px;stroke-linecap:butt;stroke-linejoin:miter;stroke-miterlimit:10;stroke-opacity:1;" />
<path d="M 462.8,79.9 L 463.0,80.8 L 462.7,81.1" style="fill:none;stroke:#000000;stroke-width:2.0px;stroke-linecap:butt;stroke-linejoin:miter;stroke-miterlimit:10;stroke-opacity:1;" />
<path d="M 447.3,110.5 L 447.3,110.9 L 448.1,111.4" style="fill:none;stroke:#000000;stroke-width:2.0px;stroke-linecap:butt;stroke-linejoin:miter;stroke-miterlimit:10;stroke-opacity:1;" />
<path d="M 462.9,120.1 L 463.7,120.6 L 463.7,121.5" style="fill:none;stroke:#000000;stroke-width:2.0px;stroke-linecap:butt;stroke-linejoin:miter;stroke-miterlimit:10;stroke-opacity:1;" />
<path d="M 496.3,120.7 L 496.6,120.9 L 497.5,120.5" style="fill:none;stroke:#000000;stroke-width:2.0px;stroke-linecap:butt;stroke-linejoin:miter;stroke-miterlimit:10;stroke-opacity:1;" />
<path d="M 531.1,108.7 L 532.0,108.5 L 531.7,109.4" style="fill:none;stroke:#000000;stroke-width:2.0px;stroke-linecap:butt;stroke-linejoin:miter;stroke-miterlimit:10;stroke-opacity:1;" />
<path d="M 525.6,125.4 L 525.3,126.3 L 524.7,125.6" style="fill:none;stroke:#000000;stroke-width:2.0px;stroke-linecap:butt;stroke-linejoin:miter;stroke-miterlimit:10;stroke-opacity:1;" />
<path d="M 337.6,127.3 L 337.3,127.4 L 336.6,126.8" style="fill:none;stroke:#000000;stroke-width:2.0px;stroke-linecap:butt;stroke-linejoin:miter;stroke-miterlimit:10;stroke-opacity:1;" />
<path d="M 324.0,115.2 L 323.3,114.5 L 322.9,114.7" style="fill:none;stroke:#000000;stroke-width:2.0px;stroke-linecap:butt;stroke-linejoin:miter;stroke-miterlimit:10;stroke-opacity:1;" />
<path d="M 291.4,107.6 L 291.1,107.3 L 290.2,107.6" style="fill:none;stroke:#000000;stroke-width:2.0px;stroke-linecap:butt;stroke-linejoin:miter;stroke-miterlimit:10;stroke-opacity:1;" />
<path d="M 273.9,112.7 L 272.9,113.0 L 272.7,112.8" style="fill:none;stroke:#000000;stroke-width:2.0px;stroke-linecap:butt;stroke-linejoin:miter;stroke-miterlimit:10;stroke-opacity:1;" />
<path d="M 241.2,105.7 L 240.8,105.8 L 240.1,105.1" style="fill:none;stroke:#000000;stroke-width:2.0px;stroke-linecap:butt;stroke-linejoin:miter;stroke-miterlimit:10;stroke-opacity:1;" />
<path d="M 227.5,93.5 L 226.8,92.9 L 226.4,93.0" style="fill:none;stroke:#000000;stroke-width:2.0px;stroke-linecap:butt;stroke-linejoin:miter;stroke-miterlimit:10;stroke-opacity:1;" />
<path d="M 194.9,85.9 L 194.6,85.7 L 193.7,86.0" style="fill:none;stroke:#000000;stroke-width:2.0px;stroke-linecap:butt;stroke-linejoin:miter;stroke-miterlimit:10;stroke-opacity:1;" />
<path d="M 177.4,91.1 L 176.5,91.4 L 176.2,91.1" style="fill:none;stroke:#000000;stroke-width:2.0px;stroke-linecap:butt;stroke-linejoin:miter;stroke-miterlimit:10;stroke-opacity:1;" />
<path d="M 131.0,71.9 L 130.3,71.3 L 129.4,71.5" style="fill:none;stroke:#000000;stroke-width:2.0px;stroke-linecap:butt;stroke-linejoin:miter;stroke-miterlimit:10;stroke-opacity:1;" />
<path d="M 113.0,76.7 L 112.1,76.9 L 111.9,77.9" style="fill:none;stroke:#000000;stroke-width:2.0px;stroke-linecap:butt;stroke-linejoin:miter;stroke-miterlimit:10;stroke-opacity:1;" />
<path d="M 85.9,118.8 L 85.6,119.8 L 84.7,120.0" style="fill:none;stroke:#000000;stroke-width:2.0px;stroke-linecap:butt;stroke-linejoin:miter;stroke-miterlimit:10;stroke-opacity:1;" />
<path d="M 31.2,136.4 L 31.2,136.8 L 31.9,137.4" style="fill:none;stroke:#000000;stroke-width:2.0px;stroke-linecap:butt;stroke-linejoin:miter;stroke-miterlimit:10;stroke-opacity:1;" />
<path d="M 41.2,167.3 L 41.0,168.2 L 41.3,168.5" style="fill:none;stroke:#000000;stroke-width:2.0px;stroke-linecap:butt;stroke-linejoin:miter;stroke-miterlimit:10;stroke-opacity:1;" />
<path d="M 72.8,175.6 L 73.2,175.5 L 73.4,174.5" style="fill:none;stroke:#000000;stroke-width:2.0px;stroke-linecap:butt;stroke-linejoin:miter;stroke-miterlimit:10;stroke-opacity:1;" />
<path d="M 77.1,157.8 L 77.3,156.9 L 77.0,156.6" style="fill:none;stroke:#000000;stroke-width:2.0px;stroke-linecap:butt;stroke-linejoin:miter;stroke-miterlimit:10;stroke-opacity:1;" />
<path d="M 139.2,103.0 L 140.1,102.7 L 140.3,101.8" style="fill:none;stroke:#000000;stroke-width:2.0px;stroke-linecap:butt;stroke-linejoin:miter;stroke-miterlimit:10;stroke-opacity:1;" />
<path d="M 365.5,152.3 L 365.3,153.2 L 366.0,153.9" style="fill:none;stroke:#000000;stroke-width:2.0px;stroke-linecap:butt;stroke-linejoin:miter;stroke-miterlimit:10;stroke-opacity:1;" />
<path class="atom-2" d="M 358.2 208.5 L 360.0 211.3 Q 360.2 211.6, 360.4 212.1 Q 360.7 212.6, 360.7 212.7 L 360.7 208.5 L 361.5 208.5 L 361.5 213.9 L 360.7 213.9 L 358.8 210.7 Q 358.6 210.4, 358.4 210.0 Q 358.1 209.5, 358.1 209.4 L 358.1 213.9 L 357.4 213.9 L 357.4 208.5 L 358.2 208.5 " fill="#0000FF" />
<path class="atom-4" d="M 386.2 200.8 Q 386.2 200.8, 386.5 200.9 Q 386.7 201.0, 387.0 201.1 Q 387.3 201.2, 387.5 201.2 Q 388.1 201.2, 388.4 200.9 Q 388.6 200.7, 388.6 200.2 Q 388.6 199.9, 388.5 199.8 Q 388.4 199.6, 388.1 199.5 Q 387.9 199.4, 387.5 199.3 Q 387.0 199.1, 386.7 199.0 Q 386.5 198.9, 386.3 198.6 Q 386.1 198.3, 386.1 197.8 Q 386.1 197.1, 386.5 196.7 Q 387.0 196.3, 387.9 196.3 Q 388.5 196.3, 389.2 196.6 L 389.1 197.2 Q 388.4 196.9, 387.9 196.9 Q 387.4 196.9, 387.1 197.1 Q 386.8 197.3, 386.8 197.7 Q 386.8 198.0, 387.0 198.2 Q 387.1 198.3, 387.3 198.4 Q 387.6 198.5, 387.9 198.6 Q 388.4 198.8, 388.7 199.0 Q 389.0 199.1, 389.2 199.4 Q 389.4 199.7, 389.4 200.2 Q 389.4 201.0, 388.9 201.4 Q 388.4 201.8, 387.6 201.8 Q 387.1 201.8, 386.7 201.7 Q 386.4 201.6, 385.9 201.4 L 386.2 200.8 " fill="#CCCC00" />
<path class="atom-11" d="M 408.7 102.0 L 410.5 104.9 Q 410.7 105.2, 411.0 105.7 Q 411.2 106.2, 411.3 106.2 L 411.3 102.0 L 412.0 102.0 L 412.0 107.4 L 411.2 107.4 L 409.3 104.3 Q 409.1 103.9, 408.9 103.5 Q 408.6 103.1, 408.6 103.0 L 408.6 107.4 L 407.9 107.4 L 407.9 102.0 L 408.7 102.0 " fill="#0000FF" />
<path class="atom-11" d="M 413.0 102.0 L 413.7 102.0 L 413.7 104.3 L 416.5 104.3 L 416.5 102.0 L 417.2 102.0 L 417.2 107.4 L 416.5 107.4 L 416.5 104.9 L 413.7 104.9 L 413.7 107.4 L 413.0 107.4 L 413.0 102.0 " fill="#0000FF" />
<path class="atom-13" d="M 397.6 73.3 Q 397.6 72.0, 398.3 71.3 Q 398.9 70.5, 400.1 70.5 Q 401.3 70.5, 401.9 71.3 Q 402.6 72.0, 402.6 73.3 Q 402.6 74.6, 401.9 75.3 Q 401.3 76.1, 400.1 76.1 Q 398.9 76.1, 398.3 75.3 Q 397.6 74.6, 397.6 73.3 M 400.1 75.5 Q 400.9 75.5, 401.4 74.9 Q 401.8 74.4, 401.8 73.3 Q 401.8 72.2, 401.4 71.7 Q 400.9 71.1, 400.1 71.1 Q 399.3 71.1, 398.8 71.7 Q 398.4 72.2, 398.4 73.3 Q 398.4 74.4, 398.8 74.9 Q 399.3 75.5, 400.1 75.5 " fill="#FF0000" />
<path class="atom-17" d="M 466.2 47.4 Q 466.2 46.1, 466.9 45.4 Q 467.5 44.7, 468.7 44.7 Q 469.9 44.7, 470.6 45.4 Q 471.2 46.1, 471.2 47.4 Q 471.2 48.7, 470.5 49.5 Q 469.9 50.2, 468.7 50.2 Q 467.5 50.2, 466.9 49.5 Q 466.2 48.7, 466.2 47.4 M 468.7 49.6 Q 469.5 49.6, 470.0 49.0 Q 470.4 48.5, 470.4 47.4 Q 470.4 46.3, 470.0 45.8 Q 469.5 45.3, 468.7 45.3 Q 467.9 45.3, 467.4 45.8 Q 467.0 46.3, 467.0 47.4 Q 467.0 48.5, 467.4 49.0 Q 467.9 49.6, 468.7 49.6 " fill="#FF0000" />
<path class="atom-17" d="M 472.0 44.7 L 472.8 44.7 L 472.8 47.0 L 475.5 47.0 L 475.5 44.7 L 476.2 44.7 L 476.2 50.1 L 475.5 50.1 L 475.5 47.6 L 472.8 47.6 L 472.8 50.1 L 472.0 50.1 L 472.0 44.7 " fill="#FF0000" />
<path class="atom-19" d="M 446.3 89.1 L 448.1 92.0 Q 448.3 92.3, 448.6 92.8 Q 448.8 93.3, 448.8 93.3 L 448.8 89.1 L 449.6 89.1 L 449.6 94.5 L 448.8 94.5 L 446.9 91.4 Q 446.7 91.0, 446.5 90.6 Q 446.2 90.2, 446.2 90.1 L 446.2 94.5 L 445.5 94.5 L 445.5 89.1 L 446.3 89.1 " fill="#0000FF" />
<path class="atom-21" d="M 428.2 120.2 Q 428.2 118.9, 428.9 118.2 Q 429.5 117.5, 430.7 117.5 Q 431.9 117.5, 432.6 118.2 Q 433.2 118.9, 433.2 120.2 Q 433.2 121.5, 432.5 122.3 Q 431.9 123.0, 430.7 123.0 Q 429.5 123.0, 428.9 122.3 Q 428.2 121.5, 428.2 120.2 M 430.7 122.4 Q 431.5 122.4, 432.0 121.8 Q 432.4 121.3, 432.4 120.2 Q 432.4 119.2, 432.0 118.6 Q 431.5 118.1, 430.7 118.1 Q 429.9 118.1, 429.4 118.6 Q 429.0 119.1, 429.0 120.2 Q 429.0 121.3, 429.4 121.8 Q 429.9 122.4, 430.7 122.4 " fill="#FF0000" />
<path class="atom-23" d="M 479.1 108.5 L 480.8 111.4 Q 481.0 111.7, 481.3 112.2 Q 481.6 112.7, 481.6 112.7 L 481.6 108.5 L 482.3 108.5 L 482.3 113.9 L 481.6 113.9 L 479.7 110.8 Q 479.5 110.4, 479.2 110.0 Q 479.0 109.6, 478.9 109.5 L 478.9 113.9 L 478.2 113.9 L 478.2 108.5 L 479.1 108.5 " fill="#0000FF" />
<path class="atom-23" d="M 478.2 102.6 L 478.9 102.6 L 478.9 104.9 L 481.6 104.9 L 481.6 102.6 L 482.4 102.6 L 482.4 108.0 L 481.6 108.0 L 481.6 105.5 L 478.9 105.5 L 478.9 108.0 L 478.2 108.0 L 478.2 102.6 " fill="#0000FF" />
<path class="atom-25" d="M 494.0 140.0 Q 494.0 138.7, 494.6 138.0 Q 495.2 137.2, 496.4 137.2 Q 497.6 137.2, 498.3 138.0 Q 498.9 138.7, 498.9 140.0 Q 498.9 141.3, 498.3 142.0 Q 497.6 142.8, 496.4 142.8 Q 495.2 142.8, 494.6 142.0 Q 494.0 141.3, 494.0 140.0 M 496.4 142.2 Q 497.2 142.2, 497.7 141.6 Q 498.1 141.1, 498.1 140.0 Q 498.1 138.9, 497.7 138.4 Q 497.2 137.8, 496.4 137.8 Q 495.6 137.8, 495.2 138.4 Q 494.7 138.9, 494.7 140.0 Q 494.7 141.1, 495.2 141.6 Q 495.6 142.2, 496.4 142.2 " fill="#FF0000" />
<path class="atom-27" d="M 505.3 91.0 L 508.5 91.0 L 508.5 91.6 L 506.0 91.6 L 506.0 93.2 L 508.2 93.2 L 508.2 93.8 L 506.0 93.8 L 506.0 96.3 L 505.3 96.3 L 505.3 91.0 " fill="#33CCCC" />
<path class="atom-35" d="M 353.0 121.8 Q 353.0 120.5, 353.6 119.8 Q 354.2 119.0, 355.4 119.0 Q 356.6 119.0, 357.3 119.8 Q 357.9 120.5, 357.9 121.8 Q 357.9 123.1, 357.3 123.8 Q 356.6 124.6, 355.4 124.6 Q 354.2 124.6, 353.6 123.8 Q 353.0 123.1, 353.0 121.8 M 355.4 124.0 Q 356.3 124.0, 356.7 123.4 Q 357.1 122.9, 357.1 121.8 Q 357.1 120.7, 356.7 120.2 Q 356.3 119.6, 355.4 119.6 Q 354.6 119.6, 354.2 120.2 Q 353.7 120.7, 353.7 121.8 Q 353.7 122.9, 354.2 123.4 Q 354.6 124.0, 355.4 124.0 " fill="#FF0000" />
<path class="atom-38" d="M 302.6 120.2 Q 302.6 118.9, 303.3 118.2 Q 303.9 117.5, 305.1 117.5 Q 306.3 117.5, 306.9 118.2 Q 307.6 118.9, 307.6 120.2 Q 307.6 121.5, 306.9 122.3 Q 306.3 123.0, 305.1 123.0 Q 303.9 123.0, 303.3 122.3 Q 302.6 121.6, 302.6 120.2 M 305.1 122.4 Q 305.9 122.4, 306.4 121.9 Q 306.8 121.3, 306.8 120.2 Q 306.8 119.2, 306.4 118.6 Q 305.9 118.1, 305.1 118.1 Q 304.3 118.1, 303.8 118.6 Q 303.4 119.2, 303.4 120.2 Q 303.4 121.3, 303.8 121.9 Q 304.3 122.4, 305.1 122.4 " fill="#FF0000" />
<path class="atom-41" d="M 256.5 100.1 Q 256.5 98.8, 257.1 98.1 Q 257.8 97.4, 258.9 97.4 Q 260.1 97.4, 260.8 98.1 Q 261.4 98.8, 261.4 100.1 Q 261.4 101.4, 260.8 102.2 Q 260.1 102.9, 258.9 102.9 Q 257.8 102.9, 257.1 102.2 Q 256.5 101.4, 256.5 100.1 M 258.9 102.3 Q 259.8 102.3, 260.2 101.8 Q 260.7 101.2, 260.7 100.1 Q 260.7 99.1, 260.2 98.5 Q 259.8 98.0, 258.9 98.0 Q 258.1 98.0, 257.7 98.5 Q 257.2 99.1, 257.2 100.1 Q 257.2 101.2, 257.7 101.8 Q 258.1 102.3, 258.9 102.3 " fill="#FF0000" />
<path class="atom-44" d="M 206.2 98.6 Q 206.2 97.3, 206.8 96.6 Q 207.4 95.9, 208.6 95.9 Q 209.8 95.9, 210.5 96.6 Q 211.1 97.3, 211.1 98.6 Q 211.1 99.9, 210.5 100.6 Q 209.8 101.4, 208.6 101.4 Q 207.4 101.4, 206.8 100.6 Q 206.2 99.9, 206.2 98.6 M 208.6 100.8 Q 209.4 100.8, 209.9 100.2 Q 210.3 99.7, 210.3 98.6 Q 210.3 97.5, 209.9 97.0 Q 209.4 96.5, 208.6 96.5 Q 207.8 96.5, 207.4 97.0 Q 206.9 97.5, 206.9 98.6 Q 206.9 99.7, 207.4 100.2 Q 207.8 100.8, 208.6 100.8 " fill="#FF0000" />
<path class="atom-47" d="M 160.0 78.5 Q 160.0 77.2, 160.6 76.5 Q 161.3 75.7, 162.5 75.7 Q 163.7 75.7, 164.3 76.5 Q 164.9 77.2, 164.9 78.5 Q 164.9 79.8, 164.3 80.5 Q 163.6 81.3, 162.5 81.3 Q 161.3 81.3, 160.6 80.5 Q 160.0 79.8, 160.0 78.5 M 162.5 80.7 Q 163.3 80.7, 163.7 80.1 Q 164.2 79.6, 164.2 78.5 Q 164.2 77.4, 163.7 76.9 Q 163.3 76.4, 162.5 76.4 Q 161.6 76.4, 161.2 76.9 Q 160.8 77.4, 160.8 78.5 Q 160.8 79.6, 161.2 80.1 Q 161.6 80.7, 162.5 80.7 " fill="#FF0000" />
<path class="atom-56" d="M 56.5 91.3 L 58.2 94.1 Q 58.4 94.4, 58.7 94.9 Q 59.0 95.4, 59.0 95.5 L 59.0 91.3 L 59.7 91.3 L 59.7 96.7 L 59.0 96.7 L 57.1 93.5 Q 56.8 93.2, 56.6 92.8 Q 56.4 92.3, 56.3 92.2 L 56.3 96.7 L 55.6 96.7 L 55.6 91.3 L 56.5 91.3 " fill="#0000FF" />
<path class="atom-57" d="M 74.6 85.6 L 76.4 88.5 Q 76.6 88.7, 76.8 89.2 Q 77.1 89.8, 77.1 89.8 L 77.1 85.6 L 77.9 85.6 L 77.9 91.0 L 77.1 91.0 L 75.2 87.9 Q 75.0 87.5, 74.8 87.1 Q 74.5 86.7, 74.5 86.5 L 74.5 91.0 L 73.8 91.0 L 73.8 85.6 L 74.6 85.6 " fill="#0000FF" />
<path class="atom-58" d="M 28.0 115.5 L 28.7 115.5 L 28.7 117.8 L 31.5 117.8 L 31.5 115.5 L 32.2 115.5 L 32.2 120.9 L 31.5 120.9 L 31.5 118.4 L 28.7 118.4 L 28.7 120.9 L 28.0 120.9 L 28.0 115.5 " fill="#0000FF" />
<path class="atom-58" d="M 34.1 115.5 L 35.9 118.4 Q 36.1 118.7, 36.4 119.2 Q 36.6 119.7, 36.7 119.7 L 36.7 115.5 L 37.4 115.5 L 37.4 120.9 L 36.6 120.9 L 34.7 117.8 Q 34.5 117.4, 34.3 117.0 Q 34.0 116.6, 34.0 116.5 L 34.0 120.9 L 33.3 120.9 L 33.3 115.5 L 34.1 115.5 " fill="#0000FF" />
<path class="atom-62" d="M 53.8 178.4 L 55.6 181.3 Q 55.7 181.6, 56.0 182.1 Q 56.3 182.6, 56.3 182.6 L 56.3 178.4 L 57.0 178.4 L 57.0 183.8 L 56.3 183.8 L 54.4 180.7 Q 54.2 180.3, 53.9 179.9 Q 53.7 179.5, 53.6 179.4 L 53.6 183.8 L 52.9 183.8 L 52.9 178.4 L 53.8 178.4 " fill="#0000FF" />
<path class="atom-62" d="M 52.9 184.4 L 53.6 184.4 L 53.6 186.7 L 56.4 186.7 L 56.4 184.4 L 57.1 184.4 L 57.1 189.8 L 56.4 189.8 L 56.4 187.3 L 53.6 187.3 L 53.6 189.8 L 52.9 189.8 L 52.9 184.4 " fill="#0000FF" />
<path class="atom-65" d="M 62.1 141.3 L 63.9 144.2 Q 64.1 144.4, 64.4 144.9 Q 64.6 145.5, 64.6 145.5 L 64.6 141.3 L 65.4 141.3 L 65.4 146.7 L 64.6 146.7 L 62.7 143.6 Q 62.5 143.2, 62.3 142.8 Q 62.0 142.4, 62.0 142.2 L 62.0 146.7 L 61.3 146.7 L 61.3 141.3 L 62.1 141.3 " fill="#0000FF" />
<path class="atom-67" d="M 115.3 127.0 Q 115.3 125.7, 116.0 125.0 Q 116.6 124.2, 117.8 124.2 Q 119.0 124.2, 119.6 125.0 Q 120.3 125.7, 120.3 127.0 Q 120.3 128.3, 119.6 129.0 Q 119.0 129.8, 117.8 129.8 Q 116.6 129.8, 116.0 129.0 Q 115.3 128.3, 115.3 127.0 M 117.8 129.2 Q 118.6 129.2, 119.1 128.6 Q 119.5 128.1, 119.5 127.0 Q 119.5 125.9, 119.1 125.4 Q 118.6 124.8, 117.8 124.8 Q 117.0 124.8, 116.5 125.4 Q 116.1 125.9, 116.1 127.0 Q 116.1 128.1, 116.5 128.6 Q 117.0 129.2, 117.8 129.2 " fill="#FF0000" />
<path class="atom-67" d="M 121.1 124.3 L 121.9 124.3 L 121.9 126.6 L 124.6 126.6 L 124.6 124.3 L 125.3 124.3 L 125.3 129.7 L 124.6 129.7 L 124.6 127.2 L 121.9 127.2 L 121.9 129.7 L 121.1 129.7 L 121.1 124.3 " fill="#FF0000" />
<path class="atom-70" d="M 30.9 150.8 L 31.7 150.8 L 31.7 153.1 L 34.4 153.1 L 34.4 150.8 L 35.2 150.8 L 35.2 156.2 L 34.4 156.2 L 34.4 153.7 L 31.7 153.7 L 31.7 156.2 L 30.9 156.2 L 30.9 150.8 " fill="#000000" />
</svg>