<?xml version='1.0' encoding='utf-8'?>
<svg xmlns="http://www.w3.org/2000/svg" baseProfile="full" height="260px" version="1.1" viewBox="0 0 560 260" width="560px" xml:space="preserve">

<path class="bond-0 atom-0 atom-1" d="M 237.0,165.6 L 255.2,186.2" style="fill:none;fill-rule:evenodd;stroke:#000000;stroke-width:2.0px;stroke-linecap:butt;stroke-linejoin:miter;stroke-opacity:1" />
<path class="bond-1 atom-1 atom-2" d="M 255.2,186.2 L 252.7,197.2" style="fill:none;fill-rule:evenodd;stroke:#000000;stroke-width:2.0px;stroke-linecap:butt;stroke-linejoin:miter;stroke-opacity:1" />
<path class="bond-1 atom-1 atom-2" d="M 252.7,197.2 L 250.2,208.2" style="fill:none;fill-rule:evenodd;stroke:#0000FF;stroke-width:2.0px;stroke-linecap:butt;stroke-linejoin:miter;stroke-opacity:1" />
<path class="bond-2 atom-2 atom-3" d="M 253.0,215.3 L 262.9,221.2" style="fill:none;fill-rule:evenodd;stroke:#0000FF;stroke-width:2.0px;stroke-linecap:butt;stroke-linejoin:miter;stroke-opacity:1" />
<path class="bond-2 atom-2 atom-3" d="M 262.9,221.2 L 272.8,227.0" style="fill:none;fill-rule:evenodd;stroke:#000000;stroke-width:2.0px;stroke-linecap:butt;stroke-linejoin:miter;stroke-opacity:1" />
<path class="bond-2 atom-2 atom-3" d="M 255.1,211.8 L 263.7,216.9" style="fill:none;fill-rule:evenodd;stroke:#0000FF;stroke-width:2.0px;stroke-linecap:butt;stroke-linejoin:miter;stroke-opacity:1" />
<path class="bond-2 atom-2 atom-3" d="M 263.7,216.9 L 272.3,222.0" style="fill:none;fill-rule:evenodd;stroke:#000000;stroke-width:2.0px;stroke-linecap:butt;stroke-linejoin:miter;stroke-opacity:1" />
<path class="bond-3 atom-3 atom-4" d="M 272.8,227.0 L 281.4,219.5" style="fill:none;fill-rule:evenodd;stroke:#000000;stroke-width:2.0px;stroke-linecap:butt;stroke-linejoin:miter;stroke-opacity:1" />
<path class="bond-3 atom-3 atom-4" d="M 281.4,219.5 L 290.0,211.9" style="fill:none;fill-rule:evenodd;stroke:#CCCC00;stroke-width:2.0px;stroke-linecap:butt;stroke-linejoin:miter;stroke-opacity:1" />
<path class="bond-4 atom-4 atom-5" d="M 291.4,204.1 L 286.9,193.9" style="fill:none;fill-rule:evenodd;stroke:#CCCC00;stroke-width:2.0px;stroke-linecap:butt;stroke-linejoin:miter;stroke-opacity:1" />
<path class="bond-4 atom-4 atom-5" d="M 286.9,193.9 L 282.5,183.7" style="fill:none;fill-rule:evenodd;stroke:#000000;stroke-width:2.0px;stroke-linecap:butt;stroke-linejoin:miter;stroke-opacity:1" />
<path class="bond-5 atom-5 atom-6" d="M 282.5,183.7 L 296.5,160.0" style="fill:none;fill-rule:evenodd;stroke:#000000;stroke-width:2.0px;stroke-linecap:butt;stroke-linejoin:miter;stroke-opacity:1" />
<path class="bond-6 atom-6 atom-7" d="M 296.5,160.0 L 324.0,160.3" style="fill:none;fill-rule:evenodd;stroke:#000000;stroke-width:2.0px;stroke-linecap:butt;stroke-linejoin:miter;stroke-opacity:1" />
<path class="bond-7 atom-7 atom-8" d="M 324.0,160.3 L 338.0,136.7" style="fill:none;fill-rule:evenodd;stroke:#000000;stroke-width:2.0px;stroke-linecap:butt;stroke-linejoin:miter;stroke-opacity:1" />
<path class="bond-7 atom-7 atom-8" d="M 321.7,156.2 L 333.3,136.6" style="fill:none;fill-rule:evenodd;stroke:#000000;stroke-width:2.0px;stroke-linecap:butt;stroke-linejoin:miter;stroke-opacity:1" />
<path class="bond-8 atom-8 atom-9" d="M 338.0,136.7 L 324.5,112.7" style="fill:none;fill-rule:evenodd;stroke:#000000;stroke-width:2.0px;stroke-linecap:butt;stroke-linejoin:miter;stroke-opacity:1" />
<path class="bond-9 atom-9 atom-10" d="M 324.5,112.7 L 338.6,89.1" style="fill:none;fill-rule:evenodd;stroke:#000000;stroke-width:2.0px;stroke-linecap:butt;stroke-linejoin:miter;stroke-opacity:1" />
<path class="bond-10 atom-10 atom-11" d="M 338.6,89.1 L 350.4,89.2" style="fill:none;fill-rule:evenodd;stroke:#000000;stroke-width:2.0px;stroke-linecap:butt;stroke-linejoin:miter;stroke-opacity:1" />
<path class="bond-10 atom-10 atom-11" d="M 350.4,89.2 L 362.2,89.4" style="fill:none;fill-rule:evenodd;stroke:#0000FF;stroke-width:2.0px;stroke-linecap:butt;stroke-linejoin:miter;stroke-opacity:1" />
<path class="bond-11 atom-11 atom-12" d="M 368.9,84.6 L 374.5,75.2" style="fill:none;fill-rule:evenodd;stroke:#0000FF;stroke-width:2.0px;stroke-linecap:butt;stroke-linejoin:miter;stroke-opacity:1" />
<path class="bond-11 atom-11 atom-12" d="M 374.5,75.2 L 380.0,65.8" style="fill:none;fill-rule:evenodd;stroke:#000000;stroke-width:2.0px;stroke-linecap:butt;stroke-linejoin:miter;stroke-opacity:1" />
<path class="bond-12 atom-12 atom-13" d="M 382.4,65.8 L 376.8,55.8" style="fill:none;fill-rule:evenodd;stroke:#000000;stroke-width:2.0px;stroke-linecap:butt;stroke-linejoin:miter;stroke-opacity:1" />
<path class="bond-12 atom-12 atom-13" d="M 376.8,55.8 L 371.2,45.8" style="fill:none;fill-rule:evenodd;stroke:#FF0000;stroke-width:2.0px;stroke-linecap:butt;stroke-linejoin:miter;stroke-opacity:1" />
<path class="bond-12 atom-12 atom-13" d="M 378.8,67.8 L 373.2,57.8" style="fill:none;fill-rule:evenodd;stroke:#000000;stroke-width:2.0px;stroke-linecap:butt;stroke-linejoin:miter;stroke-opacity:1" />
<path class="bond-12 atom-12 atom-13" d="M 373.2,57.8 L 367.6,47.8" style="fill:none;fill-rule:evenodd;stroke:#FF0000;stroke-width:2.0px;stroke-linecap:butt;stroke-linejoin:miter;stroke-opacity:1" />
<path class="bond-13 atom-14 atom-12" d="M 404.1,65.7 L 404.1,66.3" style="fill:none;fill-rule:evenodd;stroke:#000000;stroke-width:1.0px;stroke-linecap:butt;stroke-linejoin:miter;stroke-opacity:1" />
<path class="bond-13 atom-14 atom-12" d="M 400.7,65.4 L 400.6,66.6" style="fill:none;fill-rule:evenodd;stroke:#000000;stroke-width:1.0px;stroke-linecap:butt;stroke-linejoin:miter;stroke-opacity:1" />
<path class="bond-13 atom-14 atom-12" d="M 397.2,65.1 L 397.2,66.8" style="fill:none;fill-rule:evenodd;stroke:#000000;stroke-width:1.0px;stroke-linecap:butt;stroke-linejoin:miter;stroke-opacity:1" />
<path class="bond-13 atom-14 atom-12" d="M 393.8,64.7 L 393.8,67.1" style="fill:none;fill-rule:evenodd;stroke:#000000;stroke-width:1.0px;stroke-linecap:butt;stroke-linejoin:miter;stroke-opacity:1" />
<path class="bond-13 atom-14 atom-12" d="M 390.4,64.4 L 390.3,67.3" style="fill:none;fill-rule:evenodd;stroke:#000000;stroke-width:1.0px;stroke-linecap:butt;stroke-linejoin:miter;stroke-opacity:1" />
<path class="bond-13 atom-14 atom-12" d="M 386.9,64.1 L 386.9,67.6" style="fill:none;fill-rule:evenodd;stroke:#000000;stroke-width:1.0px;stroke-linecap:butt;stroke-linejoin:miter;stroke-opacity:1" />
<path class="bond-13 atom-14 atom-12" d="M 383.5,63.7 L 383.5,67.8" style="fill:none;fill-rule:evenodd;stroke:#000000;stroke-width:1.0px;stroke-linecap:butt;stroke-linejoin:miter;stroke-opacity:1" />
<path class="bond-14 atom-14 atom-15" d="M 407.5,66.1 L 423.9,44.0" style="fill:none;fill-rule:evenodd;stroke:#000000;stroke-width:2.0px;stroke-linecap:butt;stroke-linejoin:miter;stroke-opacity:1" />
<path class="bond-15 atom-15 atom-16" d="M 423.9,44.0 L 450.0,52.8" style="fill:none;fill-rule:evenodd;stroke:#000000;stroke-width:2.0px;stroke-linecap:butt;stroke-linejoin:miter;stroke-opacity:1" />
<path class="bond-16 atom-16 atom-17" d="M 450.0,52.8 L 457.9,45.9 L 459.1,47.6 Z" style="fill:#000000;fill-rule:evenodd;fill-opacity:1;stroke:#000000;stroke-width:0.5px;stroke-linecap:butt;stroke-linejoin:miter;stroke-miterlimit:10;stroke-opacity:1;" />
<path class="bond-16 atom-16 atom-17" d="M 468.2,42.4 L 465.8,39.0 L 457.9,45.9 L 459.1,47.6 Z" style="fill:#FF0000;fill-rule:evenodd;fill-opacity:1;stroke:#FF0000;stroke-width:0.5px;stroke-linecap:butt;stroke-linejoin:miter;stroke-miterlimit:10;stroke-opacity:1;" />
<path class="bond-17 atom-16 atom-18" d="M 450.0,52.8 L 449.7,80.3" style="fill:none;fill-rule:evenodd;stroke:#000000;stroke-width:2.0px;stroke-linecap:butt;stroke-linejoin:miter;stroke-opacity:1" />
<path class="bond-18 atom-18 atom-19" d="M 449.7,80.3 L 438.5,83.8" style="fill:none;fill-rule:evenodd;stroke:#000000;stroke-width:2.0px;stroke-linecap:butt;stroke-linejoin:miter;stroke-opacity:1" />
<path class="bond-18 atom-18 atom-19" d="M 438.5,83.8 L 427.3,87.3" style="fill:none;fill-rule:evenodd;stroke:#0000FF;stroke-width:2.0px;stroke-linecap:butt;stroke-linejoin:miter;stroke-opacity:1" />
<path class="bond-19 atom-19 atom-20" d="M 421.8,93.3 L 418.2,103.9" style="fill:none;fill-rule:evenodd;stroke:#0000FF;stroke-width:2.0px;stroke-linecap:butt;stroke-linejoin:miter;stroke-opacity:1" />
<path class="bond-19 atom-19 atom-20" d="M 418.2,103.9 L 414.6,114.5" style="fill:none;fill-rule:evenodd;stroke:#000000;stroke-width:2.0px;stroke-linecap:butt;stroke-linejoin:miter;stroke-opacity:1" />
<path class="bond-20 atom-20 atom-21" d="M 415.4,112.3 L 403.6,114.6" style="fill:none;fill-rule:evenodd;stroke:#000000;stroke-width:2.0px;stroke-linecap:butt;stroke-linejoin:miter;stroke-opacity:1" />
<path class="bond-20 atom-20 atom-21" d="M 403.6,114.6 L 391.8,117.0" style="fill:none;fill-rule:evenodd;stroke:#FF0000;stroke-width:2.0px;stroke-linecap:butt;stroke-linejoin:miter;stroke-opacity:1" />
<path class="bond-20 atom-20 atom-21" d="M 416.2,116.3 L 404.4,118.7" style="fill:none;fill-rule:evenodd;stroke:#000000;stroke-width:2.0px;stroke-linecap:butt;stroke-linejoin:miter;stroke-opacity:1" />
<path class="bond-20 atom-20 atom-21" d="M 404.4,118.7 L 392.6,121.0" style="fill:none;fill-rule:evenodd;stroke:#FF0000;stroke-width:2.0px;stroke-linecap:butt;stroke-linejoin:miter;stroke-opacity:1" />
<path class="bond-21 atom-20 atom-22" d="M 414.6,114.5 L 432.8,135.1" style="fill:none;fill-rule:evenodd;stroke:#000000;stroke-width:2.0px;stroke-linecap:butt;stroke-linejoin:miter;stroke-opacity:1" />
<path class="bond-22 atom-22 atom-23" d="M 432.8,135.1 L 443.7,131.9 L 444.1,133.9 Z" style="fill:#000000;fill-rule:evenodd;fill-opacity:1;stroke:#000000;stroke-width:0.5px;stroke-linecap:butt;stroke-linejoin:miter;stroke-miterlimit:10;stroke-opacity:1;" />
<path class="bond-22 atom-22 atom-23" d="M 455.4,132.7 L 454.6,128.7 L 443.7,131.9 L 444.1,133.9 Z" style="fill:#0000FF;fill-rule:evenodd;fill-opacity:1;stroke:#0000FF;stroke-width:0.5px;stroke-linecap:butt;stroke-linejoin:miter;stroke-miterlimit:10;stroke-opacity:1;" />
<path class="bond-23 atom-23 atom-24" d="M 463.6,134.1 L 470.7,142.2" style="fill:none;fill-rule:evenodd;stroke:#0000FF;stroke-width:2.0px;stroke-linecap:butt;stroke-linejoin:miter;stroke-opacity:1" />
<path class="bond-23 atom-23 atom-24" d="M 470.7,142.2 L 477.9,150.4" style="fill:none;fill-rule:evenodd;stroke:#000000;stroke-width:2.0px;stroke-linecap:butt;stroke-linejoin:miter;stroke-opacity:1" />
<path class="bond-24 atom-24 atom-25" d="M 476.3,148.6 L 472.6,159.7" style="fill:none;fill-rule:evenodd;stroke:#000000;stroke-width:2.0px;stroke-linecap:butt;stroke-linejoin:miter;stroke-opacity:1" />
<path class="bond-24 atom-24 atom-25" d="M 472.6,159.7 L 468.8,170.9" style="fill:none;fill-rule:evenodd;stroke:#FF0000;stroke-width:2.0px;stroke-linecap:butt;stroke-linejoin:miter;stroke-opacity:1" />
<path class="bond-24 atom-24 atom-25" d="M 480.2,149.9 L 476.5,161.1" style="fill:none;fill-rule:evenodd;stroke:#000000;stroke-width:2.0px;stroke-linecap:butt;stroke-linejoin:miter;stroke-opacity:1" />
<path class="bond-24 atom-24 atom-25" d="M 476.5,161.1 L 472.7,172.2" style="fill:none;fill-rule:evenodd;stroke:#FF0000;stroke-width:2.0px;stroke-linecap:butt;stroke-linejoin:miter;stroke-opacity:1" />
<path class="bond-25 atom-24 atom-26" d="M 477.9,150.4 L 504.8,144.9" style="fill:none;fill-rule:evenodd;stroke:#000000;stroke-width:2.0px;stroke-linecap:butt;stroke-linejoin:miter;stroke-opacity:1" />
<path class="bond-26 atom-26 atom-27" d="M 504.8,144.9 L 504.6,133.6" style="fill:none;fill-rule:evenodd;stroke:#000000;stroke-width:2.0px;stroke-linecap:butt;stroke-linejoin:miter;stroke-opacity:1" />
<path class="bond-26 atom-26 atom-27" d="M 504.6,133.6 L 504.3,122.3" style="fill:none;fill-rule:evenodd;stroke:#33CCCC;stroke-width:2.0px;stroke-linecap:butt;stroke-linejoin:miter;stroke-opacity:1" />
<path class="bond-27 atom-26 atom-28" d="M 504.8,144.9 L 532.0,149.1" style="fill:none;fill-rule:evenodd;stroke:#000000;stroke-width:2.0px;stroke-linecap:butt;stroke-linejoin:miter;stroke-opacity:1" />
<path class="bond-28 atom-28 atom-29" d="M 532.0,149.1 L 514.8,170.5" style="fill:none;fill-rule:evenodd;stroke:#000000;stroke-width:2.0px;stroke-linecap:butt;stroke-linejoin:miter;stroke-opacity:1" />
<path class="bond-29 atom-22 atom-30" d="M 432.8,135.1 L 424.0,161.2" style="fill:none;fill-rule:evenodd;stroke:#000000;stroke-width:2.0px;stroke-linecap:butt;stroke-linejoin:miter;stroke-opacity:1" />
<path class="bond-30 atom-30 atom-31" d="M 424.0,161.2 L 450.0,170.0" style="fill:none;fill-rule:evenodd;stroke:#000000;stroke-width:2.0px;stroke-linecap:butt;stroke-linejoin:miter;stroke-opacity:1" />
<path class="bond-31 atom-30 atom-32" d="M 424.0,161.2 L 398.0,152.4" style="fill:none;fill-rule:evenodd;stroke:#000000;stroke-width:2.0px;stroke-linecap:butt;stroke-linejoin:miter;stroke-opacity:1" />
<path class="bond-32 atom-30 atom-33" d="M 424.0,161.2 L 415.2,187.2" style="fill:none;fill-rule:evenodd;stroke:#000000;stroke-width:2.0px;stroke-linecap:butt;stroke-linejoin:miter;stroke-opacity:1" />
<path class="bond-33 atom-9 atom-34" d="M 324.5,112.7 L 297.1,112.4" style="fill:none;fill-rule:evenodd;stroke:#000000;stroke-width:2.0px;stroke-linecap:butt;stroke-linejoin:miter;stroke-opacity:1" />
<path class="bond-33 atom-9 atom-34" d="M 322.1,116.8 L 299.4,116.6" style="fill:none;fill-rule:evenodd;stroke:#000000;stroke-width:2.0px;stroke-linecap:butt;stroke-linejoin:miter;stroke-opacity:1" />
<path class="bond-34 atom-34 atom-35" d="M 297.1,112.4 L 291.7,102.9" style="fill:none;fill-rule:evenodd;stroke:#000000;stroke-width:2.0px;stroke-linecap:butt;stroke-linejoin:miter;stroke-opacity:1" />
<path class="bond-34 atom-34 atom-35" d="M 291.7,102.9 L 286.4,93.4" style="fill:none;fill-rule:evenodd;stroke:#FF0000;stroke-width:2.0px;stroke-linecap:butt;stroke-linejoin:miter;stroke-opacity:1" />
<path class="bond-35 atom-35 atom-36" d="M 279.1,88.4 L 267.6,88.3" style="fill:none;fill-rule:evenodd;stroke:#FF0000;stroke-width:2.0px;stroke-linecap:butt;stroke-linejoin:miter;stroke-opacity:1" />
<path class="bond-35 atom-35 atom-36" d="M 267.6,88.3 L 256.1,88.2" style="fill:none;fill-rule:evenodd;stroke:#000000;stroke-width:2.0px;stroke-linecap:butt;stroke-linejoin:miter;stroke-opacity:1" />
<path class="bond-36 atom-36 atom-37" d="M 256.1,88.2 L 242.7,64.2" style="fill:none;fill-rule:evenodd;stroke:#000000;stroke-width:2.0px;stroke-linecap:butt;stroke-linejoin:miter;stroke-opacity:1" />
<path class="bond-37 atom-37 atom-38" d="M 242.7,64.2 L 215.2,63.9" style="fill:none;fill-rule:evenodd;stroke:#000000;stroke-width:2.0px;stroke-linecap:butt;stroke-linejoin:miter;stroke-opacity:1" />
<path class="bond-38 atom-38 atom-39" d="M 215.2,63.9 L 198.8,85.9" style="fill:none;fill-rule:evenodd;stroke:#000000;stroke-width:2.0px;stroke-linecap:butt;stroke-linejoin:miter;stroke-opacity:1" />
<path class="bond-38 atom-38 atom-39" d="M 210.1,63.8 L 197.2,81.1" style="fill:none;fill-rule:evenodd;stroke:#000000;stroke-width:2.0px;stroke-linecap:butt;stroke-linejoin:miter;stroke-opacity:1" />
<path class="bond-39 atom-39 atom-40" d="M 198.8,85.9 L 187.7,82.2" style="fill:none;fill-rule:evenodd;stroke:#000000;stroke-width:2.0px;stroke-linecap:butt;stroke-linejoin:miter;stroke-opacity:1" />
<path class="bond-39 atom-39 atom-40" d="M 187.7,82.2 L 176.6,78.5" style="fill:none;fill-rule:evenodd;stroke:#0000FF;stroke-width:2.0px;stroke-linecap:butt;stroke-linejoin:miter;stroke-opacity:1" />
<path class="bond-40 atom-40 atom-41" d="M 168.9,79.9 L 159.6,86.5" style="fill:none;fill-rule:evenodd;stroke:#0000FF;stroke-width:2.0px;stroke-linecap:butt;stroke-linejoin:miter;stroke-opacity:1" />
<path class="bond-40 atom-40 atom-41" d="M 159.6,86.5 L 150.3,93.1" style="fill:none;fill-rule:evenodd;stroke:#000000;stroke-width:2.0px;stroke-linecap:butt;stroke-linejoin:miter;stroke-opacity:1" />
<path class="bond-41 atom-41 atom-42" d="M 150.3,93.1 L 125.3,81.6" style="fill:none;fill-rule:evenodd;stroke:#000000;stroke-width:2.0px;stroke-linecap:butt;stroke-linejoin:miter;stroke-opacity:1" />
<path class="bond-42 atom-42 atom-43" d="M 125.3,81.6 L 116.4,88.0" style="fill:none;fill-rule:evenodd;stroke:#000000;stroke-width:2.0px;stroke-linecap:butt;stroke-linejoin:miter;stroke-opacity:1" />
<path class="bond-42 atom-42 atom-43" d="M 116.4,88.0 L 107.4,94.3" style="fill:none;fill-rule:evenodd;stroke:#FF0000;stroke-width:2.0px;stroke-linecap:butt;stroke-linejoin:miter;stroke-opacity:1" />
<path class="bond-43 atom-43 atom-44" d="M 98.5,95.4 L 88.2,90.7" style="fill:none;fill-rule:evenodd;stroke:#FF0000;stroke-width:2.0px;stroke-linecap:butt;stroke-linejoin:miter;stroke-opacity:1" />
<path class="bond-43 atom-43 atom-44" d="M 88.2,90.7 L 78.0,86.0" style="fill:none;fill-rule:evenodd;stroke:#000000;stroke-width:2.0px;stroke-linecap:butt;stroke-linejoin:miter;stroke-opacity:1" />
<path class="bond-44 atom-44 atom-45" d="M 78.0,86.0 L 75.4,58.7" style="fill:none;fill-rule:evenodd;stroke:#000000;stroke-width:2.0px;stroke-linecap:butt;stroke-linejoin:miter;stroke-opacity:1" />
<path class="bond-44 atom-44 atom-45" d="M 73.6,84.1 L 71.5,61.4" style="fill:none;fill-rule:evenodd;stroke:#000000;stroke-width:2.0px;stroke-linecap:butt;stroke-linejoin:miter;stroke-opacity:1" />
<path class="bond-45 atom-45 atom-46" d="M 75.4,58.7 L 50.4,47.2" style="fill:none;fill-rule:evenodd;stroke:#000000;stroke-width:2.0px;stroke-linecap:butt;stroke-linejoin:miter;stroke-opacity:1" />
<path class="bond-46 atom-46 atom-47" d="M 50.4,47.2 L 28.0,63.1" style="fill:none;fill-rule:evenodd;stroke:#000000;stroke-width:2.0px;stroke-linecap:butt;stroke-linejoin:miter;stroke-opacity:1" />
<path class="bond-46 atom-46 atom-47" d="M 50.9,52.0 L 32.3,65.1" style="fill:none;fill-rule:evenodd;stroke:#000000;stroke-width:2.0px;stroke-linecap:butt;stroke-linejoin:miter;stroke-opacity:1" />
<path class="bond-47 atom-47 atom-48" d="M 28.0,63.1 L 30.6,90.5" style="fill:none;fill-rule:evenodd;stroke:#000000;stroke-width:2.0px;stroke-linecap:butt;stroke-linejoin:miter;stroke-opacity:1" />
<path class="bond-48 atom-48 atom-49" d="M 30.6,90.5 L 55.5,101.9" style="fill:none;fill-rule:evenodd;stroke:#000000;stroke-width:2.0px;stroke-linecap:butt;stroke-linejoin:miter;stroke-opacity:1" />
<path class="bond-48 atom-48 atom-49" d="M 34.4,87.7 L 55.1,97.2" style="fill:none;fill-rule:evenodd;stroke:#000000;stroke-width:2.0px;stroke-linecap:butt;stroke-linejoin:miter;stroke-opacity:1" />
<path class="bond-49 atom-49 atom-50" d="M 55.5,101.9 L 58.1,129.3" style="fill:none;fill-rule:evenodd;stroke:#000000;stroke-width:2.0px;stroke-linecap:butt;stroke-linejoin:miter;stroke-opacity:1" />
<path class="bond-50 atom-50 atom-51" d="M 58.1,129.3 L 83.1,140.8" style="fill:none;fill-rule:evenodd;stroke:#000000;stroke-width:2.0px;stroke-linecap:butt;stroke-linejoin:miter;stroke-opacity:1" />
<path class="bond-51 atom-51 atom-52" d="M 83.1,140.8 L 92.4,134.2" style="fill:none;fill-rule:evenodd;stroke:#000000;stroke-width:2.0px;stroke-linecap:butt;stroke-linejoin:miter;stroke-opacity:1" />
<path class="bond-51 atom-51 atom-52" d="M 92.4,134.2 L 101.6,127.6" style="fill:none;fill-rule:evenodd;stroke:#0000FF;stroke-width:2.0px;stroke-linecap:butt;stroke-linejoin:miter;stroke-opacity:1" />
<path class="bond-51 atom-51 atom-52" d="M 87.4,142.7 L 95.7,136.8" style="fill:none;fill-rule:evenodd;stroke:#000000;stroke-width:2.0px;stroke-linecap:butt;stroke-linejoin:miter;stroke-opacity:1" />
<path class="bond-51 atom-51 atom-52" d="M 95.7,136.8 L 104.0,131.0" style="fill:none;fill-rule:evenodd;stroke:#0000FF;stroke-width:2.0px;stroke-linecap:butt;stroke-linejoin:miter;stroke-opacity:1" />
<path class="bond-52 atom-52 atom-53" d="M 109.4,126.6 L 119.9,131.5" style="fill:none;fill-rule:evenodd;stroke:#0000FF;stroke-width:2.0px;stroke-linecap:butt;stroke-linejoin:miter;stroke-opacity:1" />
<path class="bond-52 atom-52 atom-53" d="M 119.9,131.5 L 130.5,136.3" style="fill:none;fill-rule:evenodd;stroke:#000000;stroke-width:2.0px;stroke-linecap:butt;stroke-linejoin:miter;stroke-opacity:1" />
<path class="bond-53 atom-53 atom-54" d="M 130.7,138.7 L 140.1,132.0" style="fill:none;fill-rule:evenodd;stroke:#000000;stroke-width:2.0px;stroke-linecap:butt;stroke-linejoin:miter;stroke-opacity:1" />
<path class="bond-53 atom-53 atom-54" d="M 140.1,132.0 L 149.6,125.3" style="fill:none;fill-rule:evenodd;stroke:#FF0000;stroke-width:2.0px;stroke-linecap:butt;stroke-linejoin:miter;stroke-opacity:1" />
<path class="bond-53 atom-53 atom-54" d="M 128.3,135.3 L 137.8,128.6" style="fill:none;fill-rule:evenodd;stroke:#000000;stroke-width:2.0px;stroke-linecap:butt;stroke-linejoin:miter;stroke-opacity:1" />
<path class="bond-53 atom-53 atom-54" d="M 137.8,128.6 L 147.2,121.9" style="fill:none;fill-rule:evenodd;stroke:#FF0000;stroke-width:2.0px;stroke-linecap:butt;stroke-linejoin:miter;stroke-opacity:1" />
<path class="bond-54 atom-53 atom-55" d="M 130.5,136.3 L 133.0,163.7" style="fill:none;fill-rule:evenodd;stroke:#000000;stroke-width:2.0px;stroke-linecap:butt;stroke-linejoin:miter;stroke-opacity:1" />
<path class="bond-55 atom-55 atom-56" d="M 133.0,163.7 L 110.6,179.6" style="fill:none;fill-rule:evenodd;stroke:#000000;stroke-width:2.0px;stroke-linecap:butt;stroke-linejoin:miter;stroke-opacity:1" />
<path class="bond-55 atom-55 atom-56" d="M 128.7,161.7 L 110.2,174.8" style="fill:none;fill-rule:evenodd;stroke:#000000;stroke-width:2.0px;stroke-linecap:butt;stroke-linejoin:miter;stroke-opacity:1" />
<path class="bond-56 atom-56 atom-57" d="M 110.6,179.6 L 100.1,174.7" style="fill:none;fill-rule:evenodd;stroke:#000000;stroke-width:2.0px;stroke-linecap:butt;stroke-linejoin:miter;stroke-opacity:1" />
<path class="bond-56 atom-56 atom-57" d="M 100.1,174.7 L 89.5,169.9" style="fill:none;fill-rule:evenodd;stroke:#0000FF;stroke-width:2.0px;stroke-linecap:butt;stroke-linejoin:miter;stroke-opacity:1" />
<path class="bond-57 atom-56 atom-58" d="M 110.6,179.6 L 114.0,190.3" style="fill:none;fill-rule:evenodd;stroke:#000000;stroke-width:2.0px;stroke-linecap:butt;stroke-linejoin:miter;stroke-opacity:1" />
<path class="bond-57 atom-56 atom-58" d="M 114.0,190.3 L 117.3,201.0" style="fill:none;fill-rule:evenodd;stroke:#0000FF;stroke-width:2.0px;stroke-linecap:butt;stroke-linejoin:miter;stroke-opacity:1" />
<path class="bond-58 atom-58 atom-59" d="M 122.7,205.9 L 134.5,206.0" style="fill:none;fill-rule:evenodd;stroke:#0000FF;stroke-width:2.0px;stroke-linecap:butt;stroke-linejoin:miter;stroke-opacity:1" />
<path class="bond-58 atom-58 atom-59" d="M 134.5,206.0 L 146.3,206.1" style="fill:none;fill-rule:evenodd;stroke:#000000;stroke-width:2.0px;stroke-linecap:butt;stroke-linejoin:miter;stroke-opacity:1" />
<path class="bond-59 atom-59 atom-60" d="M 146.3,206.1 L 164.5,226.7" style="fill:none;fill-rule:evenodd;stroke:#000000;stroke-width:2.0px;stroke-linecap:butt;stroke-linejoin:miter;stroke-opacity:1" />
<path class="bond-59 atom-59 atom-60" d="M 151.0,205.2 L 166.0,222.2" style="fill:none;fill-rule:evenodd;stroke:#000000;stroke-width:2.0px;stroke-linecap:butt;stroke-linejoin:miter;stroke-opacity:1" />
<path class="bond-60 atom-60 atom-61" d="M 164.5,226.7 L 191.4,221.3" style="fill:none;fill-rule:evenodd;stroke:#000000;stroke-width:2.0px;stroke-linecap:butt;stroke-linejoin:miter;stroke-opacity:1" />
<path class="bond-61 atom-61 atom-62" d="M 191.4,221.3 L 200.2,195.3" style="fill:none;fill-rule:evenodd;stroke:#000000;stroke-width:2.0px;stroke-linecap:butt;stroke-linejoin:miter;stroke-opacity:1" />
<path class="bond-61 atom-61 atom-62" d="M 188.3,217.8 L 195.5,196.2" style="fill:none;fill-rule:evenodd;stroke:#000000;stroke-width:2.0px;stroke-linecap:butt;stroke-linejoin:miter;stroke-opacity:1" />
<path class="bond-62 atom-62 atom-63" d="M 200.2,195.3 L 182.0,174.7" style="fill:none;fill-rule:evenodd;stroke:#000000;stroke-width:2.0px;stroke-linecap:butt;stroke-linejoin:miter;stroke-opacity:1" />
<path class="bond-63 atom-63 atom-64" d="M 182.0,174.7 L 185.6,164.1" style="fill:none;fill-rule:evenodd;stroke:#000000;stroke-width:2.0px;stroke-linecap:butt;stroke-linejoin:miter;stroke-opacity:1" />
<path class="bond-63 atom-63 atom-64" d="M 185.6,164.1 L 189.1,153.6" style="fill:none;fill-rule:evenodd;stroke:#FF0000;stroke-width:2.0px;stroke-linecap:butt;stroke-linejoin:miter;stroke-opacity:1" />
<path class="bond-64 atom-63 atom-65" d="M 182.0,174.7 L 155.1,180.1" style="fill:none;fill-rule:evenodd;stroke:#000000;stroke-width:2.0px;stroke-linecap:butt;stroke-linejoin:miter;stroke-opacity:1" />
<path class="bond-64 atom-63 atom-65" d="M 180.5,179.2 L 158.2,183.7" style="fill:none;fill-rule:evenodd;stroke:#000000;stroke-width:2.0px;stroke-linecap:butt;stroke-linejoin:miter;stroke-opacity:1" />
<path class="bond-65 atom-40 atom-66" d="M 172.8,72.4 L 173.0,54.5" style="fill:none;fill-rule:evenodd;stroke:#0000FF;stroke-width:2.0px;stroke-linecap:butt;stroke-linejoin:miter;stroke-opacity:1" />
<path class="bond-66 atom-66 atom-67" d="M 176.9,48.5 L 195.4,42.7" style="fill:none;fill-rule:evenodd;stroke:#0000FF;stroke-width:2.0px;stroke-linecap:butt;stroke-linejoin:miter;stroke-opacity:1" />
<path class="bond-66 atom-66 atom-67" d="M 178.1,52.4 L 196.6,46.6" style="fill:none;fill-rule:evenodd;stroke:#0000FF;stroke-width:2.0px;stroke-linecap:butt;stroke-linejoin:miter;stroke-opacity:1" />
<path class="bond-67 atom-34 atom-68" d="M 297.1,112.4 L 283.1,136.1" style="fill:none;fill-rule:evenodd;stroke:#000000;stroke-width:2.0px;stroke-linecap:butt;stroke-linejoin:miter;stroke-opacity:1" />
<path class="bond-68 atom-5 atom-1" d="M 282.5,183.7 L 255.2,186.2" style="fill:none;fill-rule:evenodd;stroke:#000000;stroke-width:2.0px;stroke-linecap:butt;stroke-linejoin:miter;stroke-opacity:1" />
<path class="bond-68 atom-5 atom-1" d="M 279.9,188.0 L 258.5,190.0" style="fill:none;fill-rule:evenodd;stroke:#000000;stroke-width:2.0px;stroke-linecap:butt;stroke-linejoin:miter;stroke-opacity:1" />
<path class="bond-69 atom-68 atom-6" d="M 283.1,136.1 L 296.5,160.0" style="fill:none;fill-rule:evenodd;stroke:#000000;stroke-width:2.0px;stroke-linecap:butt;stroke-linejoin:miter;stroke-opacity:1" />
<path class="bond-69 atom-68 atom-6" d="M 287.8,136.1 L 299.0,155.9" style="fill:none;fill-rule:evenodd;stroke:#000000;stroke-width:2.0px;stroke-linecap:butt;stroke-linejoin:miter;stroke-opacity:1" />
<path class="bond-70 atom-19 atom-14" d="M 420.0,83.7 L 413.8,74.9" style="fill:none;fill-rule:evenodd;stroke:#0000FF;stroke-width:2.0px;stroke-linecap:butt;stroke-linejoin:miter;stroke-opacity:1" />
<path class="bond-70 atom-19 atom-14" d="M 413.8,74.9 L 407.5,66.1" style="fill:none;fill-rule:evenodd;stroke:#000000;stroke-width:2.0px;stroke-linecap:butt;stroke-linejoin:miter;stroke-opacity:1" />
<path class="bond-71 atom-29 atom-26" d="M 514.8,170.5 L 504.8,144.9" style="fill:none;fill-rule:evenodd;stroke:#000000;stroke-width:2.0px;stroke-linecap:butt;stroke-linejoin:miter;stroke-opacity:1" />
<path class="bond-72 atom-67 atom-38" d="M 202.7,46.3 L 208.9,55.1" style="fill:none;fill-rule:evenodd;stroke:#0000FF;stroke-width:2.0px;stroke-linecap:butt;stroke-linejoin:miter;stroke-opacity:1" />
<path class="bond-72 atom-67 atom-38" d="M 208.9,55.1 L 215.2,63.9" style="fill:none;fill-rule:evenodd;stroke:#000000;stroke-width:2.0px;stroke-linecap:butt;stroke-linejoin:miter;stroke-opacity:1" />
<path class="bond-73 atom-49 atom-44" d="M 55.5,101.9 L 78.0,86.0" style="fill:none;fill-rule:evenodd;stroke:#000000;stroke-width:2.0px;stroke-linecap:butt;stroke-linejoin:miter;stroke-opacity:1" />
<path class="bond-74 atom-57 atom-51" d="M 85.2,163.3 L 84.1,152.0" style="fill:none;fill-rule:evenodd;stroke:#0000FF;stroke-width:2.0px;stroke-linecap:butt;stroke-linejoin:miter;stroke-opacity:1" />
<path class="bond-74 atom-57 atom-51" d="M 84.1,152.0 L 83.1,140.8" style="fill:none;fill-rule:evenodd;stroke:#000000;stroke-width:2.0px;stroke-linecap:butt;stroke-linejoin:miter;stroke-opacity:1" />
<path class="bond-75 atom-65 atom-59" d="M 155.1,180.1 L 146.3,206.1" style="fill:none;fill-rule:evenodd;stroke:#000000;stroke-width:2.0px;stroke-linecap:butt;stroke-linejoin:miter;stroke-opacity:1" />
<path class="bond-76 atom-65 atom-55" d="M 155.1,180.1 L 133.0,163.7" style="fill:none;fill-rule:evenodd;stroke:#000000;stroke-width:2.0px;stroke-linecap:butt;stroke-linejoin:miter;stroke-opacity:1" />
<path d="M 272.3,226.7 L 272.8,227.0 L 273.2,226.7" style="fill:none;stroke:#000000;stroke-width:2.0px;stroke-linecap:butt;stroke-linejoin:miter;stroke-miterlimit:10;stroke-opacity:1;" />
<path d="M 322.6,160.3 L 324.0,160.3 L 324.7,159.1" style="fill:none;stroke:#000000;stroke-width:2.0px;stroke-linecap:butt;stroke-linejoin:miter;stroke-miterlimit:10;stroke-opacity:1;" />
<path d="M 337.3,137.9 L 338.0,136.7 L 337.3,135.5" style="fill:none;stroke:#000000;stroke-width:2.0px;stroke-linecap:butt;stroke-linejoin:miter;stroke-miterlimit:10;stroke-opacity:1;" />
<path d="M 337.9,90.3 L 338.6,89.1 L 339.1,89.1" style="fill:none;stroke:#000000;stroke-width:2.0px;stroke-linecap:butt;stroke-linejoin:miter;stroke-miterlimit:10;stroke-opacity:1;" />
<path d="M 408.3,65.0 L 407.5,66.1 L 407.8,66.5" style="fill:none;stroke:#000000;stroke-width:2.0px;stroke-linecap:butt;stroke-linejoin:miter;stroke-miterlimit:10;stroke-opacity:1;" />
<path d="M 423.1,45.1 L 423.9,44.0 L 425.2,44.5" style="fill:none;stroke:#000000;stroke-width:2.0px;stroke-linecap:butt;stroke-linejoin:miter;stroke-miterlimit:10;stroke-opacity:1;" />
<path d="M 448.7,52.4 L 450.0,52.8 L 449.9,54.2" style="fill:none;stroke:#000000;stroke-width:2.0px;stroke-linecap:butt;stroke-linejoin:miter;stroke-miterlimit:10;stroke-opacity:1;" />
<path d="M 449.7,78.9 L 449.7,80.3 L 449.1,80.5" style="fill:none;stroke:#000000;stroke-width:2.0px;stroke-linecap:butt;stroke-linejoin:miter;stroke-miterlimit:10;stroke-opacity:1;" />
<path d="M 414.8,114.0 L 414.6,114.5 L 415.5,115.5" style="fill:none;stroke:#000000;stroke-width:2.0px;stroke-linecap:butt;stroke-linejoin:miter;stroke-miterlimit:10;stroke-opacity:1;" />
<path d="M 431.9,134.1 L 432.8,135.1 L 432.4,136.4" style="fill:none;stroke:#000000;stroke-width:2.0px;stroke-linecap:butt;stroke-linejoin:miter;stroke-miterlimit:10;stroke-opacity:1;" />
<path d="M 477.5,150.0 L 477.9,150.4 L 479.2,150.1" style="fill:none;stroke:#000000;stroke-width:2.0px;stroke-linecap:butt;stroke-linejoin:miter;stroke-miterlimit:10;stroke-opacity:1;" />
<path d="M 530.6,148.9 L 532.0,149.1 L 531.1,150.2" style="fill:none;stroke:#000000;stroke-width:2.0px;stroke-linecap:butt;stroke-linejoin:miter;stroke-miterlimit:10;stroke-opacity:1;" />
<path d="M 515.7,169.5 L 514.8,170.5 L 514.3,169.3" style="fill:none;stroke:#000000;stroke-width:2.0px;stroke-linecap:butt;stroke-linejoin:miter;stroke-miterlimit:10;stroke-opacity:1;" />
<path d="M 256.7,88.2 L 256.1,88.2 L 255.4,87.0" style="fill:none;stroke:#000000;stroke-width:2.0px;stroke-linecap:butt;stroke-linejoin:miter;stroke-miterlimit:10;stroke-opacity:1;" />
<path d="M 243.3,65.4 L 242.7,64.2 L 241.3,64.2" style="fill:none;stroke:#000000;stroke-width:2.0px;stroke-linecap:butt;stroke-linejoin:miter;stroke-miterlimit:10;stroke-opacity:1;" />
<path d="M 199.6,84.8 L 198.8,85.9 L 198.2,85.8" style="fill:none;stroke:#000000;stroke-width:2.0px;stroke-linecap:butt;stroke-linejoin:miter;stroke-miterlimit:10;stroke-opacity:1;" />
<path d="M 150.8,92.7 L 150.3,93.1 L 149.1,92.5" style="fill:none;stroke:#000000;stroke-width:2.0px;stroke-linecap:butt;stroke-linejoin:miter;stroke-miterlimit:10;stroke-opacity:1;" />
<path d="M 126.6,82.2 L 125.3,81.6 L 124.9,81.9" style="fill:none;stroke:#000000;stroke-width:2.0px;stroke-linecap:butt;stroke-linejoin:miter;stroke-miterlimit:10;stroke-opacity:1;" />
<path d="M 75.5,60.0 L 75.4,58.7 L 74.1,58.1" style="fill:none;stroke:#000000;stroke-width:2.0px;stroke-linecap:butt;stroke-linejoin:miter;stroke-miterlimit:10;stroke-opacity:1;" />
<path d="M 51.7,47.8 L 50.4,47.2 L 49.3,48.0" style="fill:none;stroke:#000000;stroke-width:2.0px;stroke-linecap:butt;stroke-linejoin:miter;stroke-miterlimit:10;stroke-opacity:1;" />
<path d="M 29.1,62.3 L 28.0,63.1 L 28.1,64.5" style="fill:none;stroke:#000000;stroke-width:2.0px;stroke-linecap:butt;stroke-linejoin:miter;stroke-miterlimit:10;stroke-opacity:1;" />
<path d="M 30.4,89.1 L 30.6,90.5 L 31.8,91.1" style="fill:none;stroke:#000000;stroke-width:2.0px;stroke-linecap:butt;stroke-linejoin:miter;stroke-miterlimit:10;stroke-opacity:1;" />
<path d="M 58.0,127.9 L 58.1,129.3 L 59.4,129.9" style="fill:none;stroke:#000000;stroke-width:2.0px;stroke-linecap:butt;stroke-linejoin:miter;stroke-miterlimit:10;stroke-opacity:1;" />
<path d="M 129.9,136.1 L 130.5,136.3 L 130.6,137.7" style="fill:none;stroke:#000000;stroke-width:2.0px;stroke-linecap:butt;stroke-linejoin:miter;stroke-miterlimit:10;stroke-opacity:1;" />
<path d="M 163.5,225.7 L 164.5,226.7 L 165.8,226.5" style="fill:none;stroke:#000000;stroke-width:2.0px;stroke-linecap:butt;stroke-linejoin:miter;stroke-miterlimit:10;stroke-opacity:1;" />
<path d="M 190.0,221.6 L 191.4,221.3 L 191.8,220.0" style="fill:none;stroke:#000000;stroke-width:2.0px;stroke-linecap:butt;stroke-linejoin:miter;stroke-miterlimit:10;stroke-opacity:1;" />
<path d="M 199.7,196.6 L 200.2,195.3 L 199.3,194.3" style="fill:none;stroke:#000000;stroke-width:2.0px;stroke-linecap:butt;stroke-linejoin:miter;stroke-miterlimit:10;stroke-opacity:1;" />
<path d="M 283.8,134.9 L 283.1,136.1 L 283.7,137.3" style="fill:none;stroke:#000000;stroke-width:2.0px;stroke-linecap:butt;stroke-linejoin:miter;stroke-miterlimit:10;stroke-opacity:1;" />
<path class="atom-2" d="M 247.4 209.1 L 250.0 213.3 Q 250.2 213.7, 250.6 214.4 Q 251.0 215.1, 251.1 215.2 L 251.1 209.1 L 252.1 209.1 L 252.1 216.9 L 251.0 216.9 L 248.3 212.4 Q 248.0 211.9, 247.6 211.3 Q 247.3 210.7, 247.2 210.5 L 247.2 216.9 L 246.2 216.9 L 246.2 209.1 L 247.4 209.1 " fill="#0000FF" />
<path class="atom-4" d="M 291.2 211.6 Q 291.3 211.6, 291.7 211.7 Q 292.0 211.9, 292.4 212.0 Q 292.8 212.1, 293.2 212.1 Q 294.0 212.1, 294.4 211.7 Q 294.8 211.4, 294.8 210.7 Q 294.8 210.3, 294.6 210.0 Q 294.4 209.8, 294.1 209.6 Q 293.7 209.5, 293.2 209.3 Q 292.5 209.1, 292.1 208.9 Q 291.7 208.7, 291.4 208.3 Q 291.1 207.9, 291.1 207.2 Q 291.1 206.2, 291.7 205.6 Q 292.4 205.0, 293.7 205.0 Q 294.6 205.0, 295.7 205.4 L 295.4 206.3 Q 294.5 205.9, 293.8 205.9 Q 293.0 205.9, 292.6 206.2 Q 292.2 206.5, 292.2 207.1 Q 292.2 207.5, 292.4 207.7 Q 292.6 208.0, 292.9 208.1 Q 293.2 208.3, 293.8 208.4 Q 294.5 208.6, 294.9 208.9 Q 295.3 209.1, 295.6 209.5 Q 295.9 210.0, 295.9 210.7 Q 295.9 211.8, 295.2 212.4 Q 294.5 213.0, 293.3 213.0 Q 292.6 213.0, 292.1 212.8 Q 291.5 212.7, 290.9 212.4 L 291.2 211.6 " fill="#CCCC00" />
<path class="atom-11" d="M 364.3 85.5 L 366.9 89.6 Q 367.1 90.0, 367.5 90.8 Q 367.9 91.5, 368.0 91.5 L 368.0 85.5 L 369.0 85.5 L 369.0 93.3 L 367.9 93.3 L 365.2 88.8 Q 364.9 88.3, 364.5 87.6 Q 364.2 87.0, 364.1 86.9 L 364.1 93.3 L 363.1 93.3 L 363.1 85.5 L 364.3 85.5 " fill="#0000FF" />
<path class="atom-11" d="M 370.5 85.5 L 371.6 85.5 L 371.6 88.8 L 375.5 88.8 L 375.5 85.5 L 376.6 85.5 L 376.6 93.3 L 375.5 93.3 L 375.5 89.7 L 371.6 89.7 L 371.6 93.3 L 370.5 93.3 L 370.5 85.5 " fill="#0000FF" />
<path class="atom-13" d="M 363.0 41.8 Q 363.0 40.0, 363.9 38.9 Q 364.8 37.9, 366.6 37.9 Q 368.3 37.9, 369.2 38.9 Q 370.1 40.0, 370.1 41.8 Q 370.1 43.7, 369.2 44.8 Q 368.3 45.9, 366.6 45.9 Q 364.9 45.9, 363.9 44.8 Q 363.0 43.7, 363.0 41.8 M 366.6 45.0 Q 367.8 45.0, 368.4 44.2 Q 369.0 43.4, 369.0 41.8 Q 369.0 40.3, 368.4 39.5 Q 367.8 38.7, 366.6 38.7 Q 365.4 38.7, 364.7 39.5 Q 364.1 40.3, 364.1 41.8 Q 364.1 43.4, 364.7 44.2 Q 365.4 45.0, 366.6 45.0 " fill="#FF0000" />
<path class="atom-17" d="M 468.8 36.9 Q 468.8 35.1, 469.7 34.0 Q 470.6 33.0, 472.4 33.0 Q 474.1 33.0, 475.0 34.0 Q 475.9 35.1, 475.9 36.9 Q 475.9 38.8, 475.0 39.9 Q 474.1 41.0, 472.4 41.0 Q 470.7 41.0, 469.7 39.9 Q 468.8 38.8, 468.8 36.9 M 472.4 40.1 Q 473.6 40.1, 474.2 39.3 Q 474.8 38.5, 474.8 36.9 Q 474.8 35.4, 474.2 34.6 Q 473.6 33.8, 472.4 33.8 Q 471.2 33.8, 470.5 34.6 Q 469.9 35.4, 469.9 36.9 Q 469.9 38.5, 470.5 39.3 Q 471.2 40.1, 472.4 40.1 " fill="#FF0000" />
<path class="atom-17" d="M 477.2 33.1 L 478.2 33.1 L 478.2 36.4 L 482.2 36.4 L 482.2 33.1 L 483.2 33.1 L 483.2 40.8 L 482.2 40.8 L 482.2 37.2 L 478.2 37.2 L 478.2 40.8 L 477.2 40.8 L 477.2 33.1 " fill="#FF0000" />
<path class="atom-19" d="M 421.7 84.6 L 424.3 88.7 Q 424.5 89.1, 424.9 89.8 Q 425.3 90.6, 425.3 90.6 L 425.3 84.6 L 426.4 84.6 L 426.4 92.4 L 425.3 92.4 L 422.6 87.9 Q 422.3 87.3, 421.9 86.7 Q 421.6 86.1, 421.5 85.9 L 421.5 92.4 L 420.5 92.4 L 420.5 84.6 L 421.7 84.6 " fill="#0000FF" />
<path class="atom-21" d="M 384.1 119.9 Q 384.1 118.1, 385.0 117.0 Q 386.0 116.0, 387.7 116.0 Q 389.4 116.0, 390.3 117.0 Q 391.3 118.1, 391.3 119.9 Q 391.3 121.8, 390.3 122.9 Q 389.4 124.0, 387.7 124.0 Q 386.0 124.0, 385.0 122.9 Q 384.1 121.8, 384.1 119.9 M 387.7 123.1 Q 388.9 123.1, 389.5 122.3 Q 390.2 121.5, 390.2 119.9 Q 390.2 118.4, 389.5 117.6 Q 388.9 116.9, 387.7 116.9 Q 386.5 116.9, 385.9 117.6 Q 385.2 118.4, 385.2 119.9 Q 385.2 121.5, 385.9 122.3 Q 386.5 123.1, 387.7 123.1 " fill="#FF0000" />
<path class="atom-23" d="M 458.0 125.8 L 460.6 130.0 Q 460.8 130.4, 461.2 131.1 Q 461.6 131.8, 461.7 131.9 L 461.7 125.8 L 462.7 125.8 L 462.7 133.6 L 461.6 133.6 L 458.9 129.1 Q 458.6 128.6, 458.2 128.0 Q 457.9 127.4, 457.8 127.2 L 457.8 133.6 L 456.8 133.6 L 456.8 125.8 L 458.0 125.8 " fill="#0000FF" />
<path class="atom-23" d="M 456.7 117.3 L 457.7 117.3 L 457.7 120.6 L 461.7 120.6 L 461.7 117.3 L 462.8 117.3 L 462.8 125.1 L 461.7 125.1 L 461.7 121.5 L 457.7 121.5 L 457.7 125.1 L 456.7 125.1 L 456.7 117.3 " fill="#0000FF" />
<path class="atom-25" d="M 465.5 176.4 Q 465.5 174.5, 466.5 173.5 Q 467.4 172.5, 469.1 172.5 Q 470.8 172.5, 471.8 173.5 Q 472.7 174.5, 472.7 176.4 Q 472.7 178.3, 471.7 179.4 Q 470.8 180.5, 469.1 180.5 Q 467.4 180.5, 466.5 179.4 Q 465.5 178.3, 465.5 176.4 M 469.1 179.6 Q 470.3 179.6, 470.9 178.8 Q 471.6 178.0, 471.6 176.4 Q 471.6 174.9, 470.9 174.1 Q 470.3 173.3, 469.1 173.3 Q 467.9 173.3, 467.3 174.1 Q 466.6 174.9, 466.6 176.4 Q 466.6 178.0, 467.3 178.8 Q 467.9 179.6, 469.1 179.6 " fill="#FF0000" />
<path class="atom-27" d="M 501.9 113.6 L 506.5 113.6 L 506.5 114.5 L 502.9 114.5 L 502.9 116.8 L 506.1 116.8 L 506.1 117.7 L 502.9 117.7 L 502.9 121.4 L 501.9 121.4 L 501.9 113.6 " fill="#33CCCC" />
<path class="atom-35" d="M 280.0 88.5 Q 280.0 86.6, 281.0 85.6 Q 281.9 84.5, 283.6 84.5 Q 285.3 84.5, 286.2 85.6 Q 287.2 86.6, 287.2 88.5 Q 287.2 90.4, 286.2 91.5 Q 285.3 92.5, 283.6 92.5 Q 281.9 92.5, 281.0 91.5 Q 280.0 90.4, 280.0 88.5 M 283.6 91.6 Q 284.8 91.6, 285.4 90.8 Q 286.1 90.0, 286.1 88.5 Q 286.1 87.0, 285.4 86.2 Q 284.8 85.4, 283.6 85.4 Q 282.4 85.4, 281.8 86.2 Q 281.1 86.9, 281.1 88.5 Q 281.1 90.1, 281.8 90.8 Q 282.4 91.6, 283.6 91.6 " fill="#FF0000" />
<path class="atom-40" d="M 171.0 73.3 L 173.6 77.4 Q 173.8 77.8, 174.2 78.5 Q 174.6 79.3, 174.7 79.3 L 174.7 73.3 L 175.7 73.3 L 175.7 81.0 L 174.6 81.0 L 171.9 76.5 Q 171.6 76.0, 171.2 75.4 Q 170.9 74.8, 170.8 74.6 L 170.8 81.0 L 169.8 81.0 L 169.8 73.3 L 171.0 73.3 " fill="#0000FF" />
<path class="atom-43" d="M 99.4 97.5 Q 99.4 95.7, 100.3 94.6 Q 101.2 93.6, 102.9 93.6 Q 104.7 93.6, 105.6 94.6 Q 106.5 95.7, 106.5 97.5 Q 106.5 99.4, 105.6 100.5 Q 104.6 101.6, 102.9 101.6 Q 101.2 101.6, 100.3 100.5 Q 99.4 99.4, 99.4 97.5 M 102.9 100.7 Q 104.1 100.7, 104.8 99.9 Q 105.4 99.1, 105.4 97.5 Q 105.4 96.0, 104.8 95.2 Q 104.1 94.4, 102.9 94.4 Q 101.7 94.4, 101.1 95.2 Q 100.5 96.0, 100.5 97.5 Q 100.5 99.1, 101.1 99.9 Q 101.7 100.7, 102.9 100.7 " fill="#FF0000" />
<path class="atom-52" d="M 103.8 121.0 L 106.3 125.1 Q 106.6 125.5, 107.0 126.2 Q 107.4 127.0, 107.4 127.0 L 107.4 121.0 L 108.4 121.0 L 108.4 128.7 L 107.4 128.7 L 104.6 124.2 Q 104.3 123.7, 104.0 123.1 Q 103.7 122.5, 103.6 122.3 L 103.6 128.7 L 102.5 128.7 L 102.5 121.0 L 103.8 121.0 " fill="#0000FF" />
<path class="atom-54" d="M 149.3 120.4 Q 149.3 118.6, 150.2 117.5 Q 151.2 116.5, 152.9 116.5 Q 154.6 116.5, 155.5 117.5 Q 156.5 118.6, 156.5 120.4 Q 156.5 122.3, 155.5 123.4 Q 154.6 124.5, 152.9 124.5 Q 151.2 124.5, 150.2 123.4 Q 149.3 122.3, 149.3 120.4 M 152.9 123.6 Q 154.1 123.6, 154.7 122.8 Q 155.4 122.0, 155.4 120.4 Q 155.4 118.9, 154.7 118.1 Q 154.1 117.4, 152.9 117.4 Q 151.7 117.4, 151.0 118.1 Q 150.4 118.9, 150.4 120.4 Q 150.4 122.0, 151.0 122.8 Q 151.7 123.6, 152.9 123.6 " fill="#FF0000" />
<path class="atom-57" d="M 75.1 164.2 L 76.1 164.2 L 76.1 167.5 L 80.1 167.5 L 80.1 164.2 L 81.2 164.2 L 81.2 172.0 L 80.1 172.0 L 80.1 168.4 L 76.1 168.4 L 76.1 172.0 L 75.1 172.0 L 75.1 164.2 " fill="#0000FF" />
<path class="atom-57" d="M 83.9 164.2 L 86.5 168.3 Q 86.7 168.8, 87.1 169.5 Q 87.5 170.2, 87.6 170.3 L 87.6 164.2 L 88.6 164.2 L 88.6 172.0 L 87.5 172.0 L 84.8 167.5 Q 84.5 167.0, 84.1 166.4 Q 83.8 165.8, 83.7 165.6 L 83.7 172.0 L 82.7 172.0 L 82.7 164.2 L 83.9 164.2 " fill="#0000FF" />
<path class="atom-58" d="M 108.2 201.9 L 109.3 201.9 L 109.3 205.2 L 113.3 205.2 L 113.3 201.9 L 114.3 201.9 L 114.3 209.7 L 113.3 209.7 L 113.3 206.1 L 109.3 206.1 L 109.3 209.7 L 108.2 209.7 L 108.2 201.9 " fill="#0000FF" />
<path class="atom-58" d="M 117.1 201.9 L 119.6 206.0 Q 119.9 206.4, 120.3 207.2 Q 120.7 207.9, 120.7 208.0 L 120.7 201.9 L 121.8 201.9 L 121.8 209.7 L 120.7 209.7 L 118.0 205.2 Q 117.6 204.7, 117.3 204.1 Q 117.0 203.5, 116.9 203.3 L 116.9 209.7 L 115.9 209.7 L 115.9 201.9 L 117.1 201.9 " fill="#0000FF" />
<path class="atom-64" d="M 187.2 148.7 Q 187.2 146.8, 188.2 145.7 Q 189.1 144.7, 190.8 144.7 Q 192.5 144.7, 193.5 145.7 Q 194.4 146.8, 194.4 148.7 Q 194.4 150.5, 193.4 151.6 Q 192.5 152.7, 190.8 152.7 Q 189.1 152.7, 188.2 151.6 Q 187.2 150.6, 187.2 148.7 M 190.8 151.8 Q 192.0 151.8, 192.6 151.0 Q 193.3 150.2, 193.3 148.7 Q 193.3 147.1, 192.6 146.4 Q 192.0 145.6, 190.8 145.6 Q 189.6 145.6, 189.0 146.3 Q 188.3 147.1, 188.3 148.7 Q 188.3 150.2, 189.0 151.0 Q 189.6 151.8, 190.8 151.8 " fill="#FF0000" />
<path class="atom-64" d="M 195.6 144.8 L 196.7 144.8 L 196.7 148.1 L 200.6 148.1 L 200.6 144.8 L 201.7 144.8 L 201.7 152.6 L 200.6 152.6 L 200.6 149.0 L 196.7 149.0 L 196.7 152.6 L 195.6 152.6 L 195.6 144.8 " fill="#FF0000" />
<path class="atom-66" d="M 171.3 45.8 L 173.9 49.9 Q 174.1 50.3, 174.5 51.1 Q 174.9 51.8, 175.0 51.8 L 175.0 45.8 L 176.0 45.8 L 176.0 53.6 L 174.9 53.6 L 172.2 49.1 Q 171.9 48.5, 171.5 47.9 Q 171.2 47.3, 171.1 47.1 L 171.1 53.6 L 170.1 53.6 L 170.1 45.8 L 171.3 45.8 " fill="#0000FF" />
<path class="atom-67" d="M 197.6 37.6 L 200.1 41.7 Q 200.4 42.1, 200.8 42.9 Q 201.2 43.6, 201.2 43.6 L 201.2 37.6 L 202.2 37.6 L 202.2 45.4 L 201.2 45.4 L 198.4 40.9 Q 198.1 40.3, 197.8 39.7 Q 197.4 39.1, 197.3 38.9 L 197.3 45.4 L 196.3 45.4 L 196.3 37.6 L 197.6 37.6 " fill="#0000FF" />
</svg>