<?xml version='1.0' encoding='utf-8'?>
<svg xmlns="http://www.w3.org/2000/svg" baseProfile="full" height="260px" version="1.1" viewBox="0 0 560 260" width="560px" xml:space="preserve">

<path class="bond-0 atom-0 atom-1" d="M 160.9,193.0 L 154.2,188.2" style="fill:none;fill-rule:evenodd;stroke:#000000;stroke-width:2.0px;stroke-linecap:butt;stroke-linejoin:miter;stroke-opacity:1" />
<path class="bond-0 atom-0 atom-1" d="M 154.2,188.2 L 147.6,183.3" style="fill:none;fill-rule:evenodd;stroke:#FF0000;stroke-width:2.0px;stroke-linecap:butt;stroke-linejoin:miter;stroke-opacity:1" />
<path class="bond-1 atom-1 atom-2" d="M 144.6,177.3 L 145.5,168.9" style="fill:none;fill-rule:evenodd;stroke:#FF0000;stroke-width:2.0px;stroke-linecap:butt;stroke-linejoin:miter;stroke-opacity:1" />
<path class="bond-1 atom-1 atom-2" d="M 145.5,168.9 L 146.4,160.5" style="fill:none;fill-rule:evenodd;stroke:#000000;stroke-width:2.0px;stroke-linecap:butt;stroke-linejoin:miter;stroke-opacity:1" />
<path class="bond-2 atom-2 atom-3" d="M 146.4,160.5 L 129.7,148.4" style="fill:none;fill-rule:evenodd;stroke:#000000;stroke-width:2.0px;stroke-linecap:butt;stroke-linejoin:miter;stroke-opacity:1" />
<path class="bond-3 atom-3 atom-4" d="M 129.7,148.4 L 130.6,140.0" style="fill:none;fill-rule:evenodd;stroke:#000000;stroke-width:2.0px;stroke-linecap:butt;stroke-linejoin:miter;stroke-opacity:1" />
<path class="bond-3 atom-3 atom-4" d="M 130.6,140.0 L 131.5,131.7" style="fill:none;fill-rule:evenodd;stroke:#FF0000;stroke-width:2.0px;stroke-linecap:butt;stroke-linejoin:miter;stroke-opacity:1" />
<path class="bond-4 atom-4 atom-5" d="M 128.5,125.5 L 121.9,120.7" style="fill:none;fill-rule:evenodd;stroke:#FF0000;stroke-width:2.0px;stroke-linecap:butt;stroke-linejoin:miter;stroke-opacity:1" />
<path class="bond-4 atom-4 atom-5" d="M 121.9,120.7 L 115.2,115.9" style="fill:none;fill-rule:evenodd;stroke:#000000;stroke-width:2.0px;stroke-linecap:butt;stroke-linejoin:miter;stroke-opacity:1" />
<path class="bond-5 atom-5 atom-6" d="M 115.2,115.9 L 96.5,124.3" style="fill:none;fill-rule:evenodd;stroke:#000000;stroke-width:2.0px;stroke-linecap:butt;stroke-linejoin:miter;stroke-opacity:1" />
<path class="bond-6 atom-6 atom-7" d="M 96.5,124.3 L 79.8,112.2" style="fill:none;fill-rule:evenodd;stroke:#000000;stroke-width:2.0px;stroke-linecap:butt;stroke-linejoin:miter;stroke-opacity:1" />
<path class="bond-6 atom-6 atom-7" d="M 96.8,120.8 L 83.1,110.8" style="fill:none;fill-rule:evenodd;stroke:#000000;stroke-width:2.0px;stroke-linecap:butt;stroke-linejoin:miter;stroke-opacity:1" />
<path class="bond-7 atom-7 atom-8" d="M 79.8,112.2 L 71.9,115.8" style="fill:none;fill-rule:evenodd;stroke:#000000;stroke-width:2.0px;stroke-linecap:butt;stroke-linejoin:miter;stroke-opacity:1" />
<path class="bond-7 atom-7 atom-8" d="M 71.9,115.8 L 63.9,119.3" style="fill:none;fill-rule:evenodd;stroke:#0000FF;stroke-width:2.0px;stroke-linecap:butt;stroke-linejoin:miter;stroke-opacity:1" />
<path class="bond-8 atom-8 atom-9" d="M 60.3,124.2 L 58.6,132.4" style="fill:none;fill-rule:evenodd;stroke:#0000FF;stroke-width:2.0px;stroke-linecap:butt;stroke-linejoin:miter;stroke-opacity:1" />
<path class="bond-8 atom-8 atom-9" d="M 58.6,132.4 L 56.8,140.7" style="fill:none;fill-rule:evenodd;stroke:#000000;stroke-width:2.0px;stroke-linecap:butt;stroke-linejoin:miter;stroke-opacity:1" />
<path class="bond-9 atom-9 atom-10" d="M 56.8,140.7 L 36.4,142.9" style="fill:none;fill-rule:evenodd;stroke:#000000;stroke-width:2.0px;stroke-linecap:butt;stroke-linejoin:miter;stroke-opacity:1" />
<path class="bond-10 atom-10 atom-11" d="M 36.4,142.9 L 28.0,124.1" style="fill:none;fill-rule:evenodd;stroke:#000000;stroke-width:2.0px;stroke-linecap:butt;stroke-linejoin:miter;stroke-opacity:1" />
<path class="bond-11 atom-11 atom-12" d="M 28.0,124.1 L 43.3,110.3" style="fill:none;fill-rule:evenodd;stroke:#000000;stroke-width:2.0px;stroke-linecap:butt;stroke-linejoin:miter;stroke-opacity:1" />
<path class="bond-12 atom-12 atom-13" d="M 43.3,110.3 L 61.1,99.8" style="fill:none;fill-rule:evenodd;stroke:#000000;stroke-width:2.0px;stroke-linecap:butt;stroke-linejoin:miter;stroke-opacity:1" />
<path class="bond-13 atom-13 atom-14" d="M 61.1,99.8 L 67.9,104.8" style="fill:none;fill-rule:evenodd;stroke:#000000;stroke-width:2.0px;stroke-linecap:butt;stroke-linejoin:miter;stroke-opacity:1" />
<path class="bond-13 atom-13 atom-14" d="M 67.9,104.8 L 74.8,109.8" style="fill:none;fill-rule:evenodd;stroke:#0000FF;stroke-width:2.0px;stroke-linecap:butt;stroke-linejoin:miter;stroke-opacity:1" />
<path class="bond-14 atom-14 atom-15" d="M 80.6,110.6 L 88.5,107.1" style="fill:none;fill-rule:evenodd;stroke:#0000FF;stroke-width:2.0px;stroke-linecap:butt;stroke-linejoin:miter;stroke-opacity:1" />
<path class="bond-14 atom-14 atom-15" d="M 88.5,107.1 L 96.5,103.5" style="fill:none;fill-rule:evenodd;stroke:#000000;stroke-width:2.0px;stroke-linecap:butt;stroke-linejoin:miter;stroke-opacity:1" />
<path class="bond-15 atom-15 atom-16" d="M 96.5,103.5 L 113.1,115.6" style="fill:none;fill-rule:evenodd;stroke:#000000;stroke-width:2.0px;stroke-linecap:butt;stroke-linejoin:miter;stroke-opacity:1" />
<path class="bond-16 atom-16 atom-17" d="M 113.1,115.6 L 131.9,107.2" style="fill:none;fill-rule:evenodd;stroke:#000000;stroke-width:2.0px;stroke-linecap:butt;stroke-linejoin:miter;stroke-opacity:1" />
<path class="bond-16 atom-16 atom-17" d="M 113.5,112.1 L 129.0,105.1" style="fill:none;fill-rule:evenodd;stroke:#000000;stroke-width:2.0px;stroke-linecap:butt;stroke-linejoin:miter;stroke-opacity:1" />
<path class="bond-17 atom-17 atom-18" d="M 131.9,107.2 L 148.5,119.3" style="fill:none;fill-rule:evenodd;stroke:#000000;stroke-width:2.0px;stroke-linecap:butt;stroke-linejoin:miter;stroke-opacity:1" />
<path class="bond-18 atom-18 atom-19" d="M 148.5,119.3 L 146.4,139.7" style="fill:none;fill-rule:evenodd;stroke:#000000;stroke-width:2.0px;stroke-linecap:butt;stroke-linejoin:miter;stroke-opacity:1" />
<path class="bond-18 atom-18 atom-19" d="M 151.4,121.3 L 149.6,138.3" style="fill:none;fill-rule:evenodd;stroke:#000000;stroke-width:2.0px;stroke-linecap:butt;stroke-linejoin:miter;stroke-opacity:1" />
<path class="bond-19 atom-19 atom-20" d="M 146.4,139.7 L 163.0,151.8" style="fill:none;fill-rule:evenodd;stroke:#000000;stroke-width:2.0px;stroke-linecap:butt;stroke-linejoin:miter;stroke-opacity:1" />
<path class="bond-20 atom-20 atom-21" d="M 163.0,151.8 L 181.8,143.4" style="fill:none;fill-rule:evenodd;stroke:#000000;stroke-width:2.0px;stroke-linecap:butt;stroke-linejoin:miter;stroke-opacity:1" />
<path class="bond-20 atom-20 atom-21" d="M 163.4,148.3 L 178.9,141.3" style="fill:none;fill-rule:evenodd;stroke:#000000;stroke-width:2.0px;stroke-linecap:butt;stroke-linejoin:miter;stroke-opacity:1" />
<path class="bond-21 atom-21 atom-22" d="M 181.8,143.4 L 183.9,123.0" style="fill:none;fill-rule:evenodd;stroke:#000000;stroke-width:2.0px;stroke-linecap:butt;stroke-linejoin:miter;stroke-opacity:1" />
<path class="bond-22 atom-22 atom-23" d="M 183.9,123.0 L 191.6,119.5" style="fill:none;fill-rule:evenodd;stroke:#000000;stroke-width:2.0px;stroke-linecap:butt;stroke-linejoin:miter;stroke-opacity:1" />
<path class="bond-22 atom-22 atom-23" d="M 191.6,119.5 L 199.3,116.1" style="fill:none;fill-rule:evenodd;stroke:#FF0000;stroke-width:2.0px;stroke-linecap:butt;stroke-linejoin:miter;stroke-opacity:1" />
<path class="bond-23 atom-23 atom-24" d="M 206.0,117.0 L 212.7,121.8" style="fill:none;fill-rule:evenodd;stroke:#FF0000;stroke-width:2.0px;stroke-linecap:butt;stroke-linejoin:miter;stroke-opacity:1" />
<path class="bond-23 atom-23 atom-24" d="M 212.7,121.8 L 219.3,126.6" style="fill:none;fill-rule:evenodd;stroke:#000000;stroke-width:2.0px;stroke-linecap:butt;stroke-linejoin:miter;stroke-opacity:1" />
<path class="bond-24 atom-24 atom-25" d="M 219.3,126.6 L 238.1,118.3" style="fill:none;fill-rule:evenodd;stroke:#000000;stroke-width:2.0px;stroke-linecap:butt;stroke-linejoin:miter;stroke-opacity:1" />
<path class="bond-25 atom-25 atom-26" d="M 238.1,118.3 L 244.7,123.1" style="fill:none;fill-rule:evenodd;stroke:#000000;stroke-width:2.0px;stroke-linecap:butt;stroke-linejoin:miter;stroke-opacity:1" />
<path class="bond-25 atom-25 atom-26" d="M 244.7,123.1 L 251.4,127.9" style="fill:none;fill-rule:evenodd;stroke:#FF0000;stroke-width:2.0px;stroke-linecap:butt;stroke-linejoin:miter;stroke-opacity:1" />
<path class="bond-26 atom-26 atom-27" d="M 258.1,128.8 L 265.8,125.4" style="fill:none;fill-rule:evenodd;stroke:#FF0000;stroke-width:2.0px;stroke-linecap:butt;stroke-linejoin:miter;stroke-opacity:1" />
<path class="bond-26 atom-26 atom-27" d="M 265.8,125.4 L 273.5,122.0" style="fill:none;fill-rule:evenodd;stroke:#000000;stroke-width:2.0px;stroke-linecap:butt;stroke-linejoin:miter;stroke-opacity:1" />
<path class="bond-27 atom-27 atom-28" d="M 273.5,122.0 L 290.1,134.0" style="fill:none;fill-rule:evenodd;stroke:#000000;stroke-width:2.0px;stroke-linecap:butt;stroke-linejoin:miter;stroke-opacity:1" />
<path class="bond-28 atom-28 atom-29" d="M 290.1,134.0 L 308.9,125.6" style="fill:none;fill-rule:evenodd;stroke:#000000;stroke-width:2.0px;stroke-linecap:butt;stroke-linejoin:miter;stroke-opacity:1" />
<path class="bond-29 atom-29 atom-30" d="M 308.9,125.6 L 325.5,137.7" style="fill:none;fill-rule:evenodd;stroke:#000000;stroke-width:2.0px;stroke-linecap:butt;stroke-linejoin:miter;stroke-opacity:1" />
<path class="bond-30 atom-30 atom-31" d="M 325.5,137.7 L 333.2,134.3" style="fill:none;fill-rule:evenodd;stroke:#000000;stroke-width:2.0px;stroke-linecap:butt;stroke-linejoin:miter;stroke-opacity:1" />
<path class="bond-30 atom-30 atom-31" d="M 333.2,134.3 L 340.9,130.8" style="fill:none;fill-rule:evenodd;stroke:#FF0000;stroke-width:2.0px;stroke-linecap:butt;stroke-linejoin:miter;stroke-opacity:1" />
<path class="bond-31 atom-31 atom-32" d="M 347.6,131.8 L 354.3,136.6" style="fill:none;fill-rule:evenodd;stroke:#FF0000;stroke-width:2.0px;stroke-linecap:butt;stroke-linejoin:miter;stroke-opacity:1" />
<path class="bond-31 atom-31 atom-32" d="M 354.3,136.6 L 360.9,141.4" style="fill:none;fill-rule:evenodd;stroke:#000000;stroke-width:2.0px;stroke-linecap:butt;stroke-linejoin:miter;stroke-opacity:1" />
<path class="bond-32 atom-32 atom-33" d="M 360.9,141.4 L 358.8,161.8" style="fill:none;fill-rule:evenodd;stroke:#000000;stroke-width:2.0px;stroke-linecap:butt;stroke-linejoin:miter;stroke-opacity:1" />
<path class="bond-33 atom-33 atom-34" d="M 358.8,161.8 L 375.4,173.9" style="fill:none;fill-rule:evenodd;stroke:#000000;stroke-width:2.0px;stroke-linecap:butt;stroke-linejoin:miter;stroke-opacity:1" />
<path class="bond-33 atom-33 atom-34" d="M 362.0,160.4 L 375.8,170.4" style="fill:none;fill-rule:evenodd;stroke:#000000;stroke-width:2.0px;stroke-linecap:butt;stroke-linejoin:miter;stroke-opacity:1" />
<path class="bond-34 atom-34 atom-35" d="M 375.4,173.9 L 373.3,194.3" style="fill:none;fill-rule:evenodd;stroke:#000000;stroke-width:2.0px;stroke-linecap:butt;stroke-linejoin:miter;stroke-opacity:1" />
<path class="bond-35 atom-35 atom-36" d="M 373.3,194.3 L 379.7,200.1" style="fill:none;fill-rule:evenodd;stroke:#000000;stroke-width:2.0px;stroke-linecap:butt;stroke-linejoin:miter;stroke-opacity:1" />
<path class="bond-35 atom-35 atom-36" d="M 379.7,200.1 L 386.1,205.8" style="fill:none;fill-rule:evenodd;stroke:#CCCC00;stroke-width:2.0px;stroke-linecap:butt;stroke-linejoin:miter;stroke-opacity:1" />
<path class="bond-36 atom-36 atom-37" d="M 386.9,211.8 L 383.6,219.3" style="fill:none;fill-rule:evenodd;stroke:#CCCC00;stroke-width:2.0px;stroke-linecap:butt;stroke-linejoin:miter;stroke-opacity:1" />
<path class="bond-36 atom-36 atom-37" d="M 383.6,219.3 L 380.3,226.9" style="fill:none;fill-rule:evenodd;stroke:#000000;stroke-width:2.0px;stroke-linecap:butt;stroke-linejoin:miter;stroke-opacity:1" />
<path class="bond-37 atom-37 atom-38" d="M 380.3,226.9 L 371.5,225.9" style="fill:none;fill-rule:evenodd;stroke:#000000;stroke-width:2.0px;stroke-linecap:butt;stroke-linejoin:miter;stroke-opacity:1" />
<path class="bond-37 atom-37 atom-38" d="M 371.5,225.9 L 362.7,225.0" style="fill:none;fill-rule:evenodd;stroke:#0000FF;stroke-width:2.0px;stroke-linecap:butt;stroke-linejoin:miter;stroke-opacity:1" />
<path class="bond-37 atom-37 atom-38" d="M 378.4,223.6 L 370.7,222.8" style="fill:none;fill-rule:evenodd;stroke:#000000;stroke-width:2.0px;stroke-linecap:butt;stroke-linejoin:miter;stroke-opacity:1" />
<path class="bond-37 atom-37 atom-38" d="M 370.7,222.8 L 363.0,222.0" style="fill:none;fill-rule:evenodd;stroke:#0000FF;stroke-width:2.0px;stroke-linecap:butt;stroke-linejoin:miter;stroke-opacity:1" />
<path class="bond-38 atom-38 atom-39" d="M 359.0,221.1 L 357.3,212.9" style="fill:none;fill-rule:evenodd;stroke:#0000FF;stroke-width:2.0px;stroke-linecap:butt;stroke-linejoin:miter;stroke-opacity:1" />
<path class="bond-38 atom-38 atom-39" d="M 357.3,212.9 L 355.5,204.6" style="fill:none;fill-rule:evenodd;stroke:#000000;stroke-width:2.0px;stroke-linecap:butt;stroke-linejoin:miter;stroke-opacity:1" />
<path class="bond-39 atom-39 atom-40" d="M 355.5,204.6 L 336.7,196.3" style="fill:none;fill-rule:evenodd;stroke:#000000;stroke-width:2.0px;stroke-linecap:butt;stroke-linejoin:miter;stroke-opacity:1" />
<path class="bond-40 atom-34 atom-41" d="M 375.4,173.9 L 394.2,165.5" style="fill:none;fill-rule:evenodd;stroke:#000000;stroke-width:2.0px;stroke-linecap:butt;stroke-linejoin:miter;stroke-opacity:1" />
<path class="bond-41 atom-41 atom-42" d="M 394.2,165.5 L 396.3,145.1" style="fill:none;fill-rule:evenodd;stroke:#000000;stroke-width:2.0px;stroke-linecap:butt;stroke-linejoin:miter;stroke-opacity:1" />
<path class="bond-41 atom-41 atom-42" d="M 391.3,163.4 L 393.1,146.5" style="fill:none;fill-rule:evenodd;stroke:#000000;stroke-width:2.0px;stroke-linecap:butt;stroke-linejoin:miter;stroke-opacity:1" />
<path class="bond-42 atom-42 atom-43" d="M 396.3,145.1 L 379.7,133.0" style="fill:none;fill-rule:evenodd;stroke:#000000;stroke-width:2.0px;stroke-linecap:butt;stroke-linejoin:miter;stroke-opacity:1" />
<path class="bond-43 atom-43 atom-44" d="M 379.7,133.0 L 381.8,112.6" style="fill:none;fill-rule:evenodd;stroke:#000000;stroke-width:2.0px;stroke-linecap:butt;stroke-linejoin:miter;stroke-opacity:1" />
<path class="bond-44 atom-44 atom-45" d="M 381.8,112.6 L 389.8,109.0" style="fill:none;fill-rule:evenodd;stroke:#000000;stroke-width:2.0px;stroke-linecap:butt;stroke-linejoin:miter;stroke-opacity:1" />
<path class="bond-44 atom-44 atom-45" d="M 389.8,109.0 L 397.7,105.5" style="fill:none;fill-rule:evenodd;stroke:#0000FF;stroke-width:2.0px;stroke-linecap:butt;stroke-linejoin:miter;stroke-opacity:1" />
<path class="bond-45 atom-45 atom-46" d="M 401.0,100.6 L 401.8,92.2" style="fill:none;fill-rule:evenodd;stroke:#0000FF;stroke-width:2.0px;stroke-linecap:butt;stroke-linejoin:miter;stroke-opacity:1" />
<path class="bond-45 atom-45 atom-46" d="M 401.8,92.2 L 402.7,83.8" style="fill:none;fill-rule:evenodd;stroke:#000000;stroke-width:2.0px;stroke-linecap:butt;stroke-linejoin:miter;stroke-opacity:1" />
<path class="bond-46 atom-46 atom-47" d="M 404.3,83.0 L 397.3,78.0" style="fill:none;fill-rule:evenodd;stroke:#000000;stroke-width:2.0px;stroke-linecap:butt;stroke-linejoin:miter;stroke-opacity:1" />
<path class="bond-46 atom-46 atom-47" d="M 397.3,78.0 L 390.3,72.9" style="fill:none;fill-rule:evenodd;stroke:#FF0000;stroke-width:2.0px;stroke-linecap:butt;stroke-linejoin:miter;stroke-opacity:1" />
<path class="bond-46 atom-46 atom-47" d="M 402.5,85.5 L 395.5,80.4" style="fill:none;fill-rule:evenodd;stroke:#000000;stroke-width:2.0px;stroke-linecap:butt;stroke-linejoin:miter;stroke-opacity:1" />
<path class="bond-46 atom-46 atom-47" d="M 395.5,80.4 L 388.5,75.4" style="fill:none;fill-rule:evenodd;stroke:#FF0000;stroke-width:2.0px;stroke-linecap:butt;stroke-linejoin:miter;stroke-opacity:1" />
<path class="bond-47 atom-48 atom-46" d="M 418.2,76.5 L 418.5,77.1" style="fill:none;fill-rule:evenodd;stroke:#000000;stroke-width:1.0px;stroke-linecap:butt;stroke-linejoin:miter;stroke-opacity:1" />
<path class="bond-47 atom-48 atom-46" d="M 415.0,77.6 L 415.5,78.7" style="fill:none;fill-rule:evenodd;stroke:#000000;stroke-width:1.0px;stroke-linecap:butt;stroke-linejoin:miter;stroke-opacity:1" />
<path class="bond-47 atom-48 atom-46" d="M 411.7,78.7 L 412.5,80.4" style="fill:none;fill-rule:evenodd;stroke:#000000;stroke-width:1.0px;stroke-linecap:butt;stroke-linejoin:miter;stroke-opacity:1" />
<path class="bond-47 atom-48 atom-46" d="M 408.5,79.8 L 409.5,82.1" style="fill:none;fill-rule:evenodd;stroke:#000000;stroke-width:1.0px;stroke-linecap:butt;stroke-linejoin:miter;stroke-opacity:1" />
<path class="bond-47 atom-48 atom-46" d="M 405.2,81.0 L 406.5,83.8" style="fill:none;fill-rule:evenodd;stroke:#000000;stroke-width:1.0px;stroke-linecap:butt;stroke-linejoin:miter;stroke-opacity:1" />
<path class="bond-48 atom-48 atom-49" d="M 421.5,75.4 L 425.7,55.3" style="fill:none;fill-rule:evenodd;stroke:#000000;stroke-width:2.0px;stroke-linecap:butt;stroke-linejoin:miter;stroke-opacity:1" />
<path class="bond-49 atom-49 atom-50" d="M 425.7,55.3 L 446.2,53.1" style="fill:none;fill-rule:evenodd;stroke:#000000;stroke-width:2.0px;stroke-linecap:butt;stroke-linejoin:miter;stroke-opacity:1" />
<path class="bond-50 atom-50 atom-51" d="M 446.2,53.1 L 449.4,46.0 L 450.7,46.8 Z" style="fill:#000000;fill-rule:evenodd;fill-opacity:1;stroke:#000000;stroke-width:0.5px;stroke-linecap:butt;stroke-linejoin:miter;stroke-miterlimit:10;stroke-opacity:1;" />
<path class="bond-50 atom-50 atom-51" d="M 455.2,40.5 L 452.6,38.9 L 449.4,46.0 L 450.7,46.8 Z" style="fill:#FF0000;fill-rule:evenodd;fill-opacity:1;stroke:#FF0000;stroke-width:0.5px;stroke-linecap:butt;stroke-linejoin:miter;stroke-miterlimit:10;stroke-opacity:1;" />
<path class="bond-51 atom-50 atom-52" d="M 446.2,53.1 L 454.6,71.9" style="fill:none;fill-rule:evenodd;stroke:#000000;stroke-width:2.0px;stroke-linecap:butt;stroke-linejoin:miter;stroke-opacity:1" />
<path class="bond-52 atom-52 atom-53" d="M 454.6,71.9 L 448.4,77.5" style="fill:none;fill-rule:evenodd;stroke:#000000;stroke-width:2.0px;stroke-linecap:butt;stroke-linejoin:miter;stroke-opacity:1" />
<path class="bond-52 atom-52 atom-53" d="M 448.4,77.5 L 442.2,83.0" style="fill:none;fill-rule:evenodd;stroke:#0000FF;stroke-width:2.0px;stroke-linecap:butt;stroke-linejoin:miter;stroke-opacity:1" />
<path class="bond-53 atom-53 atom-54" d="M 439.7,89.2 L 440.6,97.7" style="fill:none;fill-rule:evenodd;stroke:#0000FF;stroke-width:2.0px;stroke-linecap:butt;stroke-linejoin:miter;stroke-opacity:1" />
<path class="bond-53 atom-53 atom-54" d="M 440.6,97.7 L 441.5,106.1" style="fill:none;fill-rule:evenodd;stroke:#000000;stroke-width:2.0px;stroke-linecap:butt;stroke-linejoin:miter;stroke-opacity:1" />
<path class="bond-54 atom-54 atom-55" d="M 441.3,104.3 L 434.3,109.4" style="fill:none;fill-rule:evenodd;stroke:#000000;stroke-width:2.0px;stroke-linecap:butt;stroke-linejoin:miter;stroke-opacity:1" />
<path class="bond-54 atom-54 atom-55" d="M 434.3,109.4 L 427.3,114.5" style="fill:none;fill-rule:evenodd;stroke:#FF0000;stroke-width:2.0px;stroke-linecap:butt;stroke-linejoin:miter;stroke-opacity:1" />
<path class="bond-54 atom-54 atom-55" d="M 443.1,106.8 L 436.1,111.9" style="fill:none;fill-rule:evenodd;stroke:#000000;stroke-width:2.0px;stroke-linecap:butt;stroke-linejoin:miter;stroke-opacity:1" />
<path class="bond-54 atom-54 atom-55" d="M 436.1,111.9 L 429.1,117.0" style="fill:none;fill-rule:evenodd;stroke:#FF0000;stroke-width:2.0px;stroke-linecap:butt;stroke-linejoin:miter;stroke-opacity:1" />
<path class="bond-55 atom-54 atom-56" d="M 441.5,106.1 L 460.2,114.4" style="fill:none;fill-rule:evenodd;stroke:#000000;stroke-width:2.0px;stroke-linecap:butt;stroke-linejoin:miter;stroke-opacity:1" />
<path class="bond-56 atom-56 atom-57" d="M 460.2,114.4 L 466.3,109.0 L 467.2,110.3 Z" style="fill:#000000;fill-rule:evenodd;fill-opacity:1;stroke:#000000;stroke-width:0.5px;stroke-linecap:butt;stroke-linejoin:miter;stroke-miterlimit:10;stroke-opacity:1;" />
<path class="bond-56 atom-56 atom-57" d="M 474.2,106.2 L 472.4,103.7 L 466.3,109.0 L 467.2,110.3 Z" style="fill:#0000FF;fill-rule:evenodd;fill-opacity:1;stroke:#0000FF;stroke-width:0.5px;stroke-linecap:butt;stroke-linejoin:miter;stroke-miterlimit:10;stroke-opacity:1;" />
<path class="bond-57 atom-57 atom-58" d="M 479.7,103.6 L 487.7,107.1" style="fill:none;fill-rule:evenodd;stroke:#0000FF;stroke-width:2.0px;stroke-linecap:butt;stroke-linejoin:miter;stroke-opacity:1" />
<path class="bond-57 atom-57 atom-58" d="M 487.7,107.1 L 495.6,110.7" style="fill:none;fill-rule:evenodd;stroke:#000000;stroke-width:2.0px;stroke-linecap:butt;stroke-linejoin:miter;stroke-opacity:1" />
<path class="bond-58 atom-58 atom-59" d="M 494.0,110.0 L 495.0,118.8" style="fill:none;fill-rule:evenodd;stroke:#000000;stroke-width:2.0px;stroke-linecap:butt;stroke-linejoin:miter;stroke-opacity:1" />
<path class="bond-58 atom-58 atom-59" d="M 495.0,118.8 L 495.9,127.7" style="fill:none;fill-rule:evenodd;stroke:#FF0000;stroke-width:2.0px;stroke-linecap:butt;stroke-linejoin:miter;stroke-opacity:1" />
<path class="bond-58 atom-58 atom-59" d="M 497.1,109.6 L 498.0,118.5" style="fill:none;fill-rule:evenodd;stroke:#000000;stroke-width:2.0px;stroke-linecap:butt;stroke-linejoin:miter;stroke-opacity:1" />
<path class="bond-58 atom-58 atom-59" d="M 498.0,118.5 L 498.9,127.3" style="fill:none;fill-rule:evenodd;stroke:#FF0000;stroke-width:2.0px;stroke-linecap:butt;stroke-linejoin:miter;stroke-opacity:1" />
<path class="bond-59 atom-58 atom-60" d="M 495.6,110.7 L 512.3,98.6" style="fill:none;fill-rule:evenodd;stroke:#000000;stroke-width:2.0px;stroke-linecap:butt;stroke-linejoin:miter;stroke-opacity:1" />
<path class="bond-60 atom-60 atom-61" d="M 512.3,98.6 L 508.6,91.1" style="fill:none;fill-rule:evenodd;stroke:#000000;stroke-width:2.0px;stroke-linecap:butt;stroke-linejoin:miter;stroke-opacity:1" />
<path class="bond-60 atom-60 atom-61" d="M 508.6,91.1 L 505.0,83.7" style="fill:none;fill-rule:evenodd;stroke:#33CCCC;stroke-width:2.0px;stroke-linecap:butt;stroke-linejoin:miter;stroke-opacity:1" />
<path class="bond-61 atom-60 atom-62" d="M 512.3,98.6 L 532.0,92.9" style="fill:none;fill-rule:evenodd;stroke:#000000;stroke-width:2.0px;stroke-linecap:butt;stroke-linejoin:miter;stroke-opacity:1" />
<path class="bond-62 atom-62 atom-63" d="M 532.0,92.9 L 527.0,112.8" style="fill:none;fill-rule:evenodd;stroke:#000000;stroke-width:2.0px;stroke-linecap:butt;stroke-linejoin:miter;stroke-opacity:1" />
<path class="bond-63 atom-56 atom-64" d="M 460.2,114.4 L 462.4,134.9" style="fill:none;fill-rule:evenodd;stroke:#000000;stroke-width:2.0px;stroke-linecap:butt;stroke-linejoin:miter;stroke-opacity:1" />
<path class="bond-64 atom-64 atom-65" d="M 462.4,134.9 L 482.8,132.7" style="fill:none;fill-rule:evenodd;stroke:#000000;stroke-width:2.0px;stroke-linecap:butt;stroke-linejoin:miter;stroke-opacity:1" />
<path class="bond-65 atom-64 atom-66" d="M 462.4,134.9 L 442.0,137.0" style="fill:none;fill-rule:evenodd;stroke:#000000;stroke-width:2.0px;stroke-linecap:butt;stroke-linejoin:miter;stroke-opacity:1" />
<path class="bond-66 atom-64 atom-67" d="M 462.4,134.9 L 464.6,155.3" style="fill:none;fill-rule:evenodd;stroke:#000000;stroke-width:2.0px;stroke-linecap:butt;stroke-linejoin:miter;stroke-opacity:1" />
<path class="bond-67 atom-22 atom-68" d="M 183.9,123.0 L 167.3,110.9" style="fill:none;fill-rule:evenodd;stroke:#000000;stroke-width:2.0px;stroke-linecap:butt;stroke-linejoin:miter;stroke-opacity:1" />
<path class="bond-67 atom-22 atom-68" d="M 180.7,124.4 L 166.9,114.4" style="fill:none;fill-rule:evenodd;stroke:#000000;stroke-width:2.0px;stroke-linecap:butt;stroke-linejoin:miter;stroke-opacity:1" />
<path class="bond-68 atom-68 atom-69" d="M 167.3,110.9 L 168.2,102.5" style="fill:none;fill-rule:evenodd;stroke:#000000;stroke-width:2.0px;stroke-linecap:butt;stroke-linejoin:miter;stroke-opacity:1" />
<path class="bond-68 atom-68 atom-69" d="M 168.2,102.5 L 169.0,94.2" style="fill:none;fill-rule:evenodd;stroke:#FF0000;stroke-width:2.0px;stroke-linecap:butt;stroke-linejoin:miter;stroke-opacity:1" />
<path class="bond-69 atom-17 atom-70" d="M 131.9,107.2 L 132.8,98.8" style="fill:none;fill-rule:evenodd;stroke:#000000;stroke-width:2.0px;stroke-linecap:butt;stroke-linejoin:miter;stroke-opacity:1" />
<path class="bond-69 atom-17 atom-70" d="M 132.8,98.8 L 133.6,90.3" style="fill:none;fill-rule:evenodd;stroke:#0000FF;stroke-width:2.0px;stroke-linecap:butt;stroke-linejoin:miter;stroke-opacity:1" />
<path class="bond-70 atom-70 atom-71" d="M 131.1,84.7 L 120.2,76.8" style="fill:none;fill-rule:evenodd;stroke:#0000FF;stroke-width:2.0px;stroke-linecap:butt;stroke-linejoin:miter;stroke-opacity:1" />
<path class="bond-70 atom-70 atom-71" d="M 129.3,87.1 L 118.5,79.3" style="fill:none;fill-rule:evenodd;stroke:#0000FF;stroke-width:2.0px;stroke-linecap:butt;stroke-linejoin:miter;stroke-opacity:1" />
<path class="bond-71 atom-71 atom-72" d="M 114.5,76.0 L 106.5,79.5" style="fill:none;fill-rule:evenodd;stroke:#0000FF;stroke-width:2.0px;stroke-linecap:butt;stroke-linejoin:miter;stroke-opacity:1" />
<path class="bond-71 atom-71 atom-72" d="M 106.5,79.5 L 98.6,83.1" style="fill:none;fill-rule:evenodd;stroke:#000000;stroke-width:2.0px;stroke-linecap:butt;stroke-linejoin:miter;stroke-opacity:1" />
<path class="bond-72 atom-72 atom-73" d="M 98.6,83.1 L 91.7,78.1" style="fill:none;fill-rule:evenodd;stroke:#000000;stroke-width:2.0px;stroke-linecap:butt;stroke-linejoin:miter;stroke-opacity:1" />
<path class="bond-72 atom-72 atom-73" d="M 91.7,78.1 L 84.8,73.1" style="fill:none;fill-rule:evenodd;stroke:#0000FF;stroke-width:2.0px;stroke-linecap:butt;stroke-linejoin:miter;stroke-opacity:1" />
<path class="bond-73 atom-14 atom-74" d="M 77.3,115.5 L 76.5,123.9" style="fill:none;fill-rule:evenodd;stroke:#0000FF;stroke-width:2.0px;stroke-linecap:butt;stroke-linejoin:miter;stroke-opacity:1" />
<path class="bond-73 atom-14 atom-74" d="M 76.5,123.9 L 75.6,132.3" style="fill:none;fill-rule:evenodd;stroke:#000000;stroke-width:2.0px;stroke-linecap:butt;stroke-linejoin:miter;stroke-opacity:1" />
<path class="bond-74 atom-7 atom-75" d="M 79.8,112.2 L 82.0,91.8" style="fill:none;fill-rule:evenodd;stroke:#000000;stroke-width:2.0px;stroke-linecap:butt;stroke-linejoin:miter;stroke-opacity:1" />
<path class="bond-75 atom-75 atom-76" d="M 82.0,91.8 L 100.7,83.4" style="fill:none;fill-rule:evenodd;stroke:#000000;stroke-width:2.0px;stroke-linecap:butt;stroke-linejoin:miter;stroke-opacity:1" />
<path class="bond-75 atom-75 atom-76" d="M 84.8,93.9 L 100.4,86.9" style="fill:none;fill-rule:evenodd;stroke:#000000;stroke-width:2.0px;stroke-linecap:butt;stroke-linejoin:miter;stroke-opacity:1" />
<path class="bond-76 atom-76 atom-77" d="M 100.7,83.4 L 107.6,88.4" style="fill:none;fill-rule:evenodd;stroke:#000000;stroke-width:2.0px;stroke-linecap:butt;stroke-linejoin:miter;stroke-opacity:1" />
<path class="bond-76 atom-76 atom-77" d="M 107.6,88.4 L 114.5,93.4" style="fill:none;fill-rule:evenodd;stroke:#0000FF;stroke-width:2.0px;stroke-linecap:butt;stroke-linejoin:miter;stroke-opacity:1" />
<path class="bond-77 atom-77 atom-5" d="M 117.0,99.1 L 116.1,107.5" style="fill:none;fill-rule:evenodd;stroke:#0000FF;stroke-width:2.0px;stroke-linecap:butt;stroke-linejoin:miter;stroke-opacity:1" />
<path class="bond-77 atom-77 atom-5" d="M 116.1,107.5 L 115.2,115.9" style="fill:none;fill-rule:evenodd;stroke:#000000;stroke-width:2.0px;stroke-linecap:butt;stroke-linejoin:miter;stroke-opacity:1" />
<path class="bond-77 atom-77 atom-5" d="M 113.9,98.7 L 113.2,106.3" style="fill:none;fill-rule:evenodd;stroke:#0000FF;stroke-width:2.0px;stroke-linecap:butt;stroke-linejoin:miter;stroke-opacity:1" />
<path class="bond-77 atom-77 atom-5" d="M 113.2,106.3 L 112.4,113.8" style="fill:none;fill-rule:evenodd;stroke:#000000;stroke-width:2.0px;stroke-linecap:butt;stroke-linejoin:miter;stroke-opacity:1" />
<path class="bond-78 atom-12 atom-8" d="M 43.3,110.3 L 50.7,114.6" style="fill:none;fill-rule:evenodd;stroke:#000000;stroke-width:2.0px;stroke-linecap:butt;stroke-linejoin:miter;stroke-opacity:1" />
<path class="bond-78 atom-12 atom-8" d="M 50.7,114.6 L 58.2,118.9" style="fill:none;fill-rule:evenodd;stroke:#0000FF;stroke-width:2.0px;stroke-linecap:butt;stroke-linejoin:miter;stroke-opacity:1" />
<path class="bond-79 atom-72 atom-15" d="M 98.6,83.1 L 96.5,103.5" style="fill:none;fill-rule:evenodd;stroke:#000000;stroke-width:2.0px;stroke-linecap:butt;stroke-linejoin:miter;stroke-opacity:1" />
<path class="bond-79 atom-72 atom-15" d="M 101.5,85.1 L 99.7,102.1" style="fill:none;fill-rule:evenodd;stroke:#000000;stroke-width:2.0px;stroke-linecap:butt;stroke-linejoin:miter;stroke-opacity:1" />
<path class="bond-80 atom-74 atom-9" d="M 75.6,132.3 L 56.8,140.7" style="fill:none;fill-rule:evenodd;stroke:#000000;stroke-width:2.0px;stroke-linecap:butt;stroke-linejoin:miter;stroke-opacity:1" />
<path class="bond-81 atom-68 atom-18" d="M 167.3,110.9 L 148.5,119.3" style="fill:none;fill-rule:evenodd;stroke:#000000;stroke-width:2.0px;stroke-linecap:butt;stroke-linejoin:miter;stroke-opacity:1" />
<path class="bond-82 atom-43 atom-32" d="M 379.7,133.0 L 360.9,141.4" style="fill:none;fill-rule:evenodd;stroke:#000000;stroke-width:2.0px;stroke-linecap:butt;stroke-linejoin:miter;stroke-opacity:1" />
<path class="bond-82 atom-43 atom-32" d="M 379.3,136.5 L 363.8,143.5" style="fill:none;fill-rule:evenodd;stroke:#000000;stroke-width:2.0px;stroke-linecap:butt;stroke-linejoin:miter;stroke-opacity:1" />
<path class="bond-83 atom-53 atom-48" d="M 436.4,84.0 L 428.9,79.7" style="fill:none;fill-rule:evenodd;stroke:#0000FF;stroke-width:2.0px;stroke-linecap:butt;stroke-linejoin:miter;stroke-opacity:1" />
<path class="bond-83 atom-53 atom-48" d="M 428.9,79.7 L 421.5,75.4" style="fill:none;fill-rule:evenodd;stroke:#000000;stroke-width:2.0px;stroke-linecap:butt;stroke-linejoin:miter;stroke-opacity:1" />
<path class="bond-84 atom-63 atom-60" d="M 527.0,112.8 L 512.3,98.6" style="fill:none;fill-rule:evenodd;stroke:#000000;stroke-width:2.0px;stroke-linecap:butt;stroke-linejoin:miter;stroke-opacity:1" />
<path class="bond-85 atom-39 atom-35" d="M 355.5,204.6 L 373.3,194.3" style="fill:none;fill-rule:evenodd;stroke:#000000;stroke-width:2.0px;stroke-linecap:butt;stroke-linejoin:miter;stroke-opacity:1" />
<path class="bond-85 atom-39 atom-35" d="M 359.0,206.2 L 372.9,198.1" style="fill:none;fill-rule:evenodd;stroke:#000000;stroke-width:2.0px;stroke-linecap:butt;stroke-linejoin:miter;stroke-opacity:1" />
<path class="bond-86 atom-9 atom-78" d="M 58.1,143.6 L 57.1,143.8" style="fill:none;fill-rule:evenodd;stroke:#000000;stroke-width:1.0px;stroke-linecap:butt;stroke-linejoin:miter;stroke-opacity:1" />
<path class="bond-86 atom-9 atom-78" d="M 59.4,146.4 L 57.4,147.0" style="fill:none;fill-rule:evenodd;stroke:#000000;stroke-width:1.0px;stroke-linecap:butt;stroke-linejoin:miter;stroke-opacity:1" />
<path class="bond-86 atom-9 atom-78" d="M 60.7,149.3 L 57.7,150.1" style="fill:none;fill-rule:evenodd;stroke:#000000;stroke-width:1.0px;stroke-linecap:butt;stroke-linejoin:miter;stroke-opacity:1" />
<path class="bond-87 atom-12 atom-79" d="M 41.2,108.4 L 42.0,107.8" style="fill:none;fill-rule:evenodd;stroke:#000000;stroke-width:1.0px;stroke-linecap:butt;stroke-linejoin:miter;stroke-opacity:1" />
<path class="bond-87 atom-12 atom-79" d="M 39.1,106.4 L 40.8,105.2" style="fill:none;fill-rule:evenodd;stroke:#000000;stroke-width:1.0px;stroke-linecap:butt;stroke-linejoin:miter;stroke-opacity:1" />
<path class="bond-87 atom-12 atom-79" d="M 37.0,104.5 L 39.5,102.6" style="fill:none;fill-rule:evenodd;stroke:#000000;stroke-width:1.0px;stroke-linecap:butt;stroke-linejoin:miter;stroke-opacity:1" />
<path d="M 146.3,160.9 L 146.4,160.5 L 145.5,159.9" style="fill:none;stroke:#000000;stroke-width:2.0px;stroke-linecap:butt;stroke-linejoin:miter;stroke-miterlimit:10;stroke-opacity:1;" />
<path d="M 130.6,149.0 L 129.7,148.4 L 129.8,148.0" style="fill:none;stroke:#000000;stroke-width:2.0px;stroke-linecap:butt;stroke-linejoin:miter;stroke-miterlimit:10;stroke-opacity:1;" />
<path d="M 97.4,123.9 L 96.5,124.3 L 95.6,123.7" style="fill:none;stroke:#000000;stroke-width:2.0px;stroke-linecap:butt;stroke-linejoin:miter;stroke-miterlimit:10;stroke-opacity:1;" />
<path d="M 37.4,142.8 L 36.4,142.9 L 36.0,141.9" style="fill:none;stroke:#000000;stroke-width:2.0px;stroke-linecap:butt;stroke-linejoin:miter;stroke-miterlimit:10;stroke-opacity:1;" />
<path d="M 28.4,125.0 L 28.0,124.1 L 28.8,123.4" style="fill:none;stroke:#000000;stroke-width:2.0px;stroke-linecap:butt;stroke-linejoin:miter;stroke-miterlimit:10;stroke-opacity:1;" />
<path d="M 60.2,100.3 L 61.1,99.8 L 61.4,100.1" style="fill:none;stroke:#000000;stroke-width:2.0px;stroke-linecap:butt;stroke-linejoin:miter;stroke-miterlimit:10;stroke-opacity:1;" />
<path d="M 112.3,115.0 L 113.1,115.6 L 114.0,115.2" style="fill:none;stroke:#000000;stroke-width:2.0px;stroke-linecap:butt;stroke-linejoin:miter;stroke-miterlimit:10;stroke-opacity:1;" />
<path d="M 146.5,138.7 L 146.4,139.7 L 147.2,140.3" style="fill:none;stroke:#000000;stroke-width:2.0px;stroke-linecap:butt;stroke-linejoin:miter;stroke-miterlimit:10;stroke-opacity:1;" />
<path d="M 162.2,151.2 L 163.0,151.8 L 164.0,151.3" style="fill:none;stroke:#000000;stroke-width:2.0px;stroke-linecap:butt;stroke-linejoin:miter;stroke-miterlimit:10;stroke-opacity:1;" />
<path d="M 180.8,143.8 L 181.8,143.4 L 181.9,142.4" style="fill:none;stroke:#000000;stroke-width:2.0px;stroke-linecap:butt;stroke-linejoin:miter;stroke-miterlimit:10;stroke-opacity:1;" />
<path d="M 219.0,126.4 L 219.3,126.6 L 220.3,126.2" style="fill:none;stroke:#000000;stroke-width:2.0px;stroke-linecap:butt;stroke-linejoin:miter;stroke-miterlimit:10;stroke-opacity:1;" />
<path d="M 237.1,118.7 L 238.1,118.3 L 238.4,118.5" style="fill:none;stroke:#000000;stroke-width:2.0px;stroke-linecap:butt;stroke-linejoin:miter;stroke-miterlimit:10;stroke-opacity:1;" />
<path d="M 273.1,122.1 L 273.5,122.0 L 274.3,122.6" style="fill:none;stroke:#000000;stroke-width:2.0px;stroke-linecap:butt;stroke-linejoin:miter;stroke-miterlimit:10;stroke-opacity:1;" />
<path d="M 289.3,133.4 L 290.1,134.0 L 291.1,133.6" style="fill:none;stroke:#000000;stroke-width:2.0px;stroke-linecap:butt;stroke-linejoin:miter;stroke-miterlimit:10;stroke-opacity:1;" />
<path d="M 308.0,126.1 L 308.9,125.6 L 309.7,126.2" style="fill:none;stroke:#000000;stroke-width:2.0px;stroke-linecap:butt;stroke-linejoin:miter;stroke-miterlimit:10;stroke-opacity:1;" />
<path d="M 324.7,137.1 L 325.5,137.7 L 325.9,137.5" style="fill:none;stroke:#000000;stroke-width:2.0px;stroke-linecap:butt;stroke-linejoin:miter;stroke-miterlimit:10;stroke-opacity:1;" />
<path d="M 358.9,160.8 L 358.8,161.8 L 359.6,162.4" style="fill:none;stroke:#000000;stroke-width:2.0px;stroke-linecap:butt;stroke-linejoin:miter;stroke-miterlimit:10;stroke-opacity:1;" />
<path d="M 380.4,226.5 L 380.3,226.9 L 379.8,226.8" style="fill:none;stroke:#000000;stroke-width:2.0px;stroke-linecap:butt;stroke-linejoin:miter;stroke-miterlimit:10;stroke-opacity:1;" />
<path d="M 393.3,165.9 L 394.2,165.5 L 394.3,164.5" style="fill:none;stroke:#000000;stroke-width:2.0px;stroke-linecap:butt;stroke-linejoin:miter;stroke-miterlimit:10;stroke-opacity:1;" />
<path d="M 396.2,146.1 L 396.3,145.1 L 395.5,144.5" style="fill:none;stroke:#000000;stroke-width:2.0px;stroke-linecap:butt;stroke-linejoin:miter;stroke-miterlimit:10;stroke-opacity:1;" />
<path d="M 381.7,113.6 L 381.8,112.6 L 382.2,112.4" style="fill:none;stroke:#000000;stroke-width:2.0px;stroke-linecap:butt;stroke-linejoin:miter;stroke-miterlimit:10;stroke-opacity:1;" />
<path d="M 421.7,74.4 L 421.5,75.4 L 421.9,75.6" style="fill:none;stroke:#000000;stroke-width:2.0px;stroke-linecap:butt;stroke-linejoin:miter;stroke-miterlimit:10;stroke-opacity:1;" />
<path d="M 425.5,56.3 L 425.7,55.3 L 426.8,55.2" style="fill:none;stroke:#000000;stroke-width:2.0px;stroke-linecap:butt;stroke-linejoin:miter;stroke-miterlimit:10;stroke-opacity:1;" />
<path d="M 445.2,53.2 L 446.2,53.1 L 446.6,54.1" style="fill:none;stroke:#000000;stroke-width:2.0px;stroke-linecap:butt;stroke-linejoin:miter;stroke-miterlimit:10;stroke-opacity:1;" />
<path d="M 454.1,70.9 L 454.6,71.9 L 454.2,72.2" style="fill:none;stroke:#000000;stroke-width:2.0px;stroke-linecap:butt;stroke-linejoin:miter;stroke-miterlimit:10;stroke-opacity:1;" />
<path d="M 441.4,105.7 L 441.5,106.1 L 442.4,106.5" style="fill:none;stroke:#000000;stroke-width:2.0px;stroke-linecap:butt;stroke-linejoin:miter;stroke-miterlimit:10;stroke-opacity:1;" />
<path d="M 459.3,114.0 L 460.2,114.4 L 460.3,115.4" style="fill:none;stroke:#000000;stroke-width:2.0px;stroke-linecap:butt;stroke-linejoin:miter;stroke-miterlimit:10;stroke-opacity:1;" />
<path d="M 495.2,110.5 L 495.6,110.7 L 496.5,110.1" style="fill:none;stroke:#000000;stroke-width:2.0px;stroke-linecap:butt;stroke-linejoin:miter;stroke-miterlimit:10;stroke-opacity:1;" />
<path d="M 531.0,93.2 L 532.0,92.9 L 531.8,93.9" style="fill:none;stroke:#000000;stroke-width:2.0px;stroke-linecap:butt;stroke-linejoin:miter;stroke-miterlimit:10;stroke-opacity:1;" />
<path d="M 527.3,111.8 L 527.0,112.8 L 526.3,112.1" style="fill:none;stroke:#000000;stroke-width:2.0px;stroke-linecap:butt;stroke-linejoin:miter;stroke-miterlimit:10;stroke-opacity:1;" />
<path d="M 75.6,131.9 L 75.6,132.3 L 74.6,132.7" style="fill:none;stroke:#000000;stroke-width:2.0px;stroke-linecap:butt;stroke-linejoin:miter;stroke-miterlimit:10;stroke-opacity:1;" />
<path d="M 81.9,92.8 L 82.0,91.8 L 82.9,91.4" style="fill:none;stroke:#000000;stroke-width:2.0px;stroke-linecap:butt;stroke-linejoin:miter;stroke-miterlimit:10;stroke-opacity:1;" />
<path d="M 99.8,83.8 L 100.7,83.4 L 101.1,83.7" style="fill:none;stroke:#000000;stroke-width:2.0px;stroke-linecap:butt;stroke-linejoin:miter;stroke-miterlimit:10;stroke-opacity:1;" />
<path class="atom-1" d="M 141.6 180.9 Q 141.6 179.5, 142.3 178.8 Q 143.0 178.0, 144.2 178.0 Q 145.5 178.0, 146.2 178.8 Q 146.9 179.5, 146.9 180.9 Q 146.9 182.3, 146.2 183.2 Q 145.5 184.0, 144.2 184.0 Q 143.0 184.0, 142.3 183.2 Q 141.6 182.4, 141.6 180.9 M 144.2 183.3 Q 145.1 183.3, 145.6 182.7 Q 146.1 182.1, 146.1 180.9 Q 146.1 179.8, 145.6 179.2 Q 145.1 178.6, 144.2 178.6 Q 143.4 178.6, 142.9 179.2 Q 142.4 179.8, 142.4 180.9 Q 142.4 182.1, 142.9 182.7 Q 143.4 183.3, 144.2 183.3 " fill="#FF0000" />
<path class="atom-4" d="M 129.2 128.0 Q 129.2 126.6, 129.9 125.8 Q 130.6 125.0, 131.9 125.0 Q 133.2 125.0, 133.9 125.8 Q 134.5 126.6, 134.5 128.0 Q 134.5 129.4, 133.8 130.2 Q 133.1 131.0, 131.9 131.0 Q 130.6 131.0, 129.9 130.2 Q 129.2 129.4, 129.2 128.0 M 131.9 130.4 Q 132.8 130.4, 133.2 129.8 Q 133.7 129.2, 133.7 128.0 Q 133.7 126.8, 133.2 126.3 Q 132.8 125.7, 131.9 125.7 Q 131.0 125.7, 130.5 126.3 Q 130.0 126.8, 130.0 128.0 Q 130.0 129.2, 130.5 129.8 Q 131.0 130.4, 131.9 130.4 " fill="#FF0000" />
<path class="atom-8" d="M 59.8 117.7 L 61.7 120.8 Q 61.9 121.1, 62.2 121.6 Q 62.5 122.2, 62.5 122.2 L 62.5 117.7 L 63.3 117.7 L 63.3 123.5 L 62.5 123.5 L 60.4 120.1 Q 60.2 119.7, 59.9 119.3 Q 59.7 118.8, 59.6 118.7 L 59.6 123.5 L 58.9 123.5 L 58.9 117.7 L 59.8 117.7 " fill="#0000FF" />
<path class="atom-14" d="M 76.4 109.0 L 78.3 112.1 Q 78.5 112.4, 78.8 112.9 Q 79.1 113.5, 79.1 113.5 L 79.1 109.0 L 79.9 109.0 L 79.9 114.8 L 79.1 114.8 L 77.1 111.4 Q 76.8 111.0, 76.6 110.6 Q 76.3 110.1, 76.3 110.0 L 76.3 114.8 L 75.5 114.8 L 75.5 109.0 L 76.4 109.0 " fill="#0000FF" />
<path class="atom-23" d="M 200.0 114.6 Q 200.0 113.2, 200.7 112.4 Q 201.4 111.6, 202.7 111.6 Q 204.0 111.6, 204.7 112.4 Q 205.4 113.2, 205.4 114.6 Q 205.4 116.0, 204.7 116.8 Q 204.0 117.6, 202.7 117.6 Q 201.4 117.6, 200.7 116.8 Q 200.0 116.0, 200.0 114.6 M 202.7 117.0 Q 203.6 117.0, 204.0 116.4 Q 204.5 115.8, 204.5 114.6 Q 204.5 113.5, 204.0 112.9 Q 203.6 112.3, 202.7 112.3 Q 201.8 112.3, 201.3 112.9 Q 200.8 113.4, 200.8 114.6 Q 200.8 115.8, 201.3 116.4 Q 201.8 117.0, 202.7 117.0 " fill="#FF0000" />
<path class="atom-26" d="M 252.0 130.3 Q 252.0 128.9, 252.7 128.2 Q 253.4 127.4, 254.7 127.4 Q 256.0 127.4, 256.7 128.2 Q 257.4 128.9, 257.4 130.3 Q 257.4 131.8, 256.7 132.6 Q 256.0 133.4, 254.7 133.4 Q 253.4 133.4, 252.7 132.6 Q 252.0 131.8, 252.0 130.3 M 254.7 132.7 Q 255.6 132.7, 256.1 132.1 Q 256.6 131.5, 256.6 130.3 Q 256.6 129.2, 256.1 128.6 Q 255.6 128.0, 254.7 128.0 Q 253.8 128.0, 253.3 128.6 Q 252.9 129.2, 252.9 130.3 Q 252.9 131.5, 253.3 132.1 Q 253.8 132.7, 254.7 132.7 " fill="#FF0000" />
<path class="atom-31" d="M 341.6 129.3 Q 341.6 127.9, 342.3 127.2 Q 343.0 126.4, 344.3 126.4 Q 345.6 126.4, 346.3 127.2 Q 347.0 127.9, 347.0 129.3 Q 347.0 130.8, 346.3 131.6 Q 345.6 132.4, 344.3 132.4 Q 343.0 132.4, 342.3 131.6 Q 341.6 130.8, 341.6 129.3 M 344.3 131.7 Q 345.2 131.7, 345.7 131.1 Q 346.1 130.5, 346.1 129.3 Q 346.1 128.2, 345.7 127.6 Q 345.2 127.0, 344.3 127.0 Q 343.4 127.0, 342.9 127.6 Q 342.4 128.2, 342.4 129.3 Q 342.4 130.5, 342.9 131.1 Q 343.4 131.7, 344.3 131.7 " fill="#FF0000" />
<path class="atom-36" d="M 386.9 210.1 Q 387.0 210.1, 387.3 210.2 Q 387.6 210.3, 387.9 210.4 Q 388.2 210.5, 388.5 210.5 Q 389.0 210.5, 389.3 210.2 Q 389.6 209.9, 389.6 209.5 Q 389.6 209.1, 389.5 208.9 Q 389.3 208.7, 389.1 208.6 Q 388.8 208.5, 388.4 208.4 Q 387.9 208.3, 387.6 208.1 Q 387.3 208.0, 387.1 207.6 Q 386.8 207.3, 386.8 206.8 Q 386.8 206.1, 387.3 205.6 Q 387.8 205.2, 388.8 205.2 Q 389.5 205.2, 390.3 205.5 L 390.1 206.1 Q 389.4 205.8, 388.9 205.8 Q 388.3 205.8, 388.0 206.1 Q 387.7 206.3, 387.7 206.7 Q 387.7 207.0, 387.8 207.2 Q 388.0 207.4, 388.2 207.5 Q 388.5 207.6, 388.9 207.7 Q 389.4 207.9, 389.7 208.1 Q 390.0 208.2, 390.2 208.6 Q 390.5 208.9, 390.5 209.5 Q 390.5 210.3, 389.9 210.7 Q 389.4 211.1, 388.5 211.1 Q 388.0 211.1, 387.6 211.0 Q 387.2 210.9, 386.7 210.7 L 386.9 210.1 " fill="#CCCC00" />
<path class="atom-38" d="M 358.5 221.8 L 360.4 224.9 Q 360.6 225.2, 360.9 225.8 Q 361.2 226.3, 361.2 226.3 L 361.2 221.8 L 362.0 221.8 L 362.0 227.6 L 361.2 227.6 L 359.2 224.3 Q 358.9 223.9, 358.7 223.4 Q 358.4 223.0, 358.4 222.8 L 358.4 227.6 L 357.6 227.6 L 357.6 221.8 L 358.5 221.8 " fill="#0000FF" />
<path class="atom-45" d="M 399.3 101.3 L 401.2 104.4 Q 401.4 104.7, 401.7 105.2 Q 402.0 105.8, 402.0 105.8 L 402.0 101.3 L 402.8 101.3 L 402.8 107.1 L 402.0 107.1 L 400.0 103.7 Q 399.7 103.3, 399.5 102.9 Q 399.2 102.4, 399.1 102.3 L 399.1 107.1 L 398.4 107.1 L 398.4 101.3 L 399.3 101.3 " fill="#0000FF" />
<path class="atom-45" d="M 403.9 101.3 L 404.7 101.3 L 404.7 103.8 L 407.7 103.8 L 407.7 101.3 L 408.5 101.3 L 408.5 107.1 L 407.7 107.1 L 407.7 104.4 L 404.7 104.4 L 404.7 107.1 L 403.9 107.1 L 403.9 101.3 " fill="#0000FF" />
<path class="atom-47" d="M 383.4 71.7 Q 383.4 70.3, 384.1 69.5 Q 384.8 68.8, 386.1 68.8 Q 387.4 68.8, 388.1 69.5 Q 388.8 70.3, 388.8 71.7 Q 388.8 73.1, 388.1 73.9 Q 387.4 74.7, 386.1 74.7 Q 384.8 74.7, 384.1 73.9 Q 383.4 73.1, 383.4 71.7 M 386.1 74.1 Q 387.0 74.1, 387.4 73.5 Q 387.9 72.9, 387.9 71.7 Q 387.9 70.6, 387.4 70.0 Q 387.0 69.4, 386.1 69.4 Q 385.2 69.4, 384.7 70.0 Q 384.2 70.6, 384.2 71.7 Q 384.2 72.9, 384.7 73.5 Q 385.2 74.1, 386.1 74.1 " fill="#FF0000" />
<path class="atom-51" d="M 453.8 35.3 Q 453.8 33.9, 454.5 33.1 Q 455.1 32.4, 456.4 32.4 Q 457.7 32.4, 458.4 33.1 Q 459.1 33.9, 459.1 35.3 Q 459.1 36.7, 458.4 37.5 Q 457.7 38.3, 456.4 38.3 Q 455.2 38.3, 454.5 37.5 Q 453.8 36.7, 453.8 35.3 M 456.4 37.7 Q 457.3 37.7, 457.8 37.1 Q 458.3 36.5, 458.3 35.3 Q 458.3 34.2, 457.8 33.6 Q 457.3 33.0, 456.4 33.0 Q 455.5 33.0, 455.1 33.6 Q 454.6 34.2, 454.6 35.3 Q 454.6 36.5, 455.1 37.1 Q 455.5 37.7, 456.4 37.7 " fill="#FF0000" />
<path class="atom-51" d="M 460.0 32.4 L 460.8 32.4 L 460.8 34.9 L 463.8 34.9 L 463.8 32.4 L 464.6 32.4 L 464.6 38.3 L 463.8 38.3 L 463.8 35.6 L 460.8 35.6 L 460.8 38.3 L 460.0 38.3 L 460.0 32.4 " fill="#FF0000" />
<path class="atom-53" d="M 438.0 82.7 L 439.9 85.8 Q 440.1 86.1, 440.4 86.7 Q 440.7 87.2, 440.7 87.3 L 440.7 82.7 L 441.5 82.7 L 441.5 88.6 L 440.7 88.6 L 438.7 85.2 Q 438.4 84.8, 438.2 84.3 Q 437.9 83.9, 437.8 83.7 L 437.8 88.6 L 437.1 88.6 L 437.1 82.7 L 438.0 82.7 " fill="#0000FF" />
<path class="atom-55" d="M 422.2 118.2 Q 422.2 116.8, 422.9 116.0 Q 423.6 115.2, 424.8 115.2 Q 426.1 115.2, 426.8 116.0 Q 427.5 116.8, 427.5 118.2 Q 427.5 119.6, 426.8 120.4 Q 426.1 121.2, 424.8 121.2 Q 423.6 121.2, 422.9 120.4 Q 422.2 119.6, 422.2 118.2 M 424.8 120.6 Q 425.7 120.6, 426.2 120.0 Q 426.7 119.4, 426.7 118.2 Q 426.7 117.0, 426.2 116.5 Q 425.7 115.9, 424.8 115.9 Q 424.0 115.9, 423.5 116.5 Q 423.0 117.0, 423.0 118.2 Q 423.0 119.4, 423.5 120.0 Q 424.0 120.6, 424.8 120.6 " fill="#FF0000" />
<path class="atom-57" d="M 475.6 99.4 L 477.5 102.5 Q 477.7 102.8, 478.0 103.4 Q 478.3 103.9, 478.3 103.9 L 478.3 99.4 L 479.1 99.4 L 479.1 105.2 L 478.3 105.2 L 476.2 101.9 Q 476.0 101.5, 475.7 101.0 Q 475.5 100.6, 475.4 100.4 L 475.4 105.2 L 474.6 105.2 L 474.6 99.4 L 475.6 99.4 " fill="#0000FF" />
<path class="atom-57" d="M 474.6 93.0 L 475.4 93.0 L 475.4 95.5 L 478.3 95.5 L 478.3 93.0 L 479.1 93.0 L 479.1 98.8 L 478.3 98.8 L 478.3 96.1 L 475.4 96.1 L 475.4 98.8 L 474.6 98.8 L 474.6 93.0 " fill="#0000FF" />
<path class="atom-59" d="M 495.1 131.1 Q 495.1 129.7, 495.8 128.9 Q 496.5 128.2, 497.8 128.2 Q 499.1 128.2, 499.8 128.9 Q 500.5 129.7, 500.5 131.1 Q 500.5 132.5, 499.8 133.3 Q 499.1 134.1, 497.8 134.1 Q 496.5 134.1, 495.8 133.3 Q 495.1 132.5, 495.1 131.1 M 497.8 133.5 Q 498.7 133.5, 499.2 132.9 Q 499.7 132.3, 499.7 131.1 Q 499.7 130.0, 499.2 129.4 Q 498.7 128.8, 497.8 128.8 Q 496.9 128.8, 496.4 129.4 Q 496.0 130.0, 496.0 131.1 Q 496.0 132.3, 496.4 132.9 Q 496.9 133.5, 497.8 133.5 " fill="#FF0000" />
<path class="atom-61" d="M 501.5 77.2 L 505.0 77.2 L 505.0 77.9 L 502.3 77.9 L 502.3 79.6 L 504.7 79.6 L 504.7 80.3 L 502.3 80.3 L 502.3 83.0 L 501.5 83.0 L 501.5 77.2 " fill="#33CCCC" />
<path class="atom-69" d="M 166.7 90.5 Q 166.7 89.1, 167.4 88.3 Q 168.1 87.5, 169.4 87.5 Q 170.7 87.5, 171.4 88.3 Q 172.1 89.1, 172.1 90.5 Q 172.1 91.9, 171.4 92.7 Q 170.7 93.5, 169.4 93.5 Q 168.1 93.5, 167.4 92.7 Q 166.7 91.9, 166.7 90.5 M 169.4 92.8 Q 170.3 92.8, 170.8 92.2 Q 171.3 91.6, 171.3 90.5 Q 171.3 89.3, 170.8 88.7 Q 170.3 88.2, 169.4 88.2 Q 168.5 88.2, 168.0 88.7 Q 167.6 89.3, 167.6 90.5 Q 167.6 91.6, 168.0 92.2 Q 168.5 92.8, 169.4 92.8 " fill="#FF0000" />
<path class="atom-69" d="M 173.0 87.6 L 173.8 87.6 L 173.8 90.0 L 176.8 90.0 L 176.8 87.6 L 177.5 87.6 L 177.5 93.4 L 176.8 93.4 L 176.8 90.7 L 173.8 90.7 L 173.8 93.4 L 173.0 93.4 L 173.0 87.6 " fill="#FF0000" />
<path class="atom-70" d="M 132.7 83.9 L 134.6 86.9 Q 134.8 87.2, 135.1 87.8 Q 135.4 88.3, 135.4 88.4 L 135.4 83.9 L 136.2 83.9 L 136.2 89.7 L 135.4 89.7 L 133.4 86.3 Q 133.1 85.9, 132.9 85.5 Q 132.6 85.0, 132.6 84.9 L 132.6 89.7 L 131.8 89.7 L 131.8 83.9 L 132.7 83.9 " fill="#0000FF" />
<path class="atom-71" d="M 116.1 71.8 L 118.0 74.9 Q 118.2 75.2, 118.5 75.7 Q 118.8 76.3, 118.8 76.3 L 118.8 71.8 L 119.6 71.8 L 119.6 77.6 L 118.8 77.6 L 116.7 74.2 Q 116.5 73.8, 116.2 73.4 Q 116.0 72.9, 115.9 72.8 L 115.9 77.6 L 115.2 77.6 L 115.2 71.8 L 116.1 71.8 " fill="#0000FF" />
<path class="atom-73" d="M 70.7 68.1 L 71.5 68.1 L 71.5 70.6 L 74.5 70.6 L 74.5 68.1 L 75.3 68.1 L 75.3 73.9 L 74.5 73.9 L 74.5 71.2 L 71.5 71.2 L 71.5 73.9 L 70.7 73.9 L 70.7 68.1 " fill="#0000FF" />
<path class="atom-73" d="M 76.4 73.7 Q 76.6 73.4, 76.9 73.2 Q 77.2 72.9, 77.7 72.9 Q 78.3 72.9, 78.6 73.3 Q 78.9 73.6, 78.9 74.1 Q 78.9 74.7, 78.5 75.2 Q 78.1 75.8, 77.2 76.4 L 79.0 76.4 L 79.0 76.8 L 76.4 76.8 L 76.4 76.5 Q 77.1 76.0, 77.6 75.6 Q 78.0 75.2, 78.2 74.9 Q 78.4 74.5, 78.4 74.2 Q 78.4 73.8, 78.2 73.6 Q 78.0 73.4, 77.7 73.4 Q 77.4 73.4, 77.2 73.5 Q 77.0 73.6, 76.8 73.9 L 76.4 73.7 " fill="#0000FF" />
<path class="atom-73" d="M 80.7 68.1 L 82.6 71.2 Q 82.8 71.5, 83.1 72.0 Q 83.4 72.6, 83.4 72.6 L 83.4 68.1 L 84.2 68.1 L 84.2 73.9 L 83.4 73.9 L 81.3 70.5 Q 81.1 70.2, 80.8 69.7 Q 80.6 69.2, 80.5 69.1 L 80.5 73.9 L 79.8 73.9 L 79.8 68.1 L 80.7 68.1 " fill="#0000FF" />
<path class="atom-77" d="M 116.1 92.6 L 118.0 95.6 Q 118.2 95.9, 118.5 96.5 Q 118.8 97.0, 118.8 97.1 L 118.8 92.6 L 119.6 92.6 L 119.6 98.4 L 118.8 98.4 L 116.7 95.0 Q 116.5 94.6, 116.2 94.2 Q 116.0 93.7, 115.9 93.6 L 115.9 98.4 L 115.2 98.4 L 115.2 92.6 L 116.1 92.6 " fill="#0000FF" />
<path class="atom-78" d="M 58.1 151.0 L 58.9 151.0 L 58.9 153.5 L 61.9 153.5 L 61.9 151.0 L 62.6 151.0 L 62.6 156.8 L 61.9 156.8 L 61.9 154.2 L 58.9 154.2 L 58.9 156.8 L 58.1 156.8 L 58.1 151.0 " fill="#000000" />
<path class="atom-79" d="M 32.9 96.4 L 33.7 96.4 L 33.7 98.9 L 36.6 98.9 L 36.6 96.4 L 37.4 96.4 L 37.4 102.2 L 36.6 102.2 L 36.6 99.5 L 33.7 99.5 L 33.7 102.2 L 32.9 102.2 L 32.9 96.4 " fill="#000000" />
<path class="atom-5" d="M 113.9,114.5 L 113.9,117.3 L 116.6,117.3 L 116.6,114.5 L 113.9,114.5" style="fill:none;stroke:#FF0000;stroke-width:2.0px;stroke-linecap:butt;stroke-linejoin:miter;stroke-miterlimit:10;stroke-opacity:1;" />
<path class="atom-7" d="M 78.5,110.9 L 78.5,113.6 L 81.2,113.6 L 81.2,110.9 L 78.5,110.9" style="fill:none;stroke:#FF0000;stroke-width:2.0px;stroke-linecap:butt;stroke-linejoin:miter;stroke-miterlimit:10;stroke-opacity:1;" />
<path class="atom-72" d="M 97.2,81.7 L 97.2,84.4 L 100.0,84.4 L 100.0,81.7 L 97.2,81.7" style="fill:none;stroke:#FF0000;stroke-width:2.0px;stroke-linecap:butt;stroke-linejoin:miter;stroke-miterlimit:10;stroke-opacity:1;" />
</svg>