<?xml version='1.0' encoding='utf-8'?>
<svg xmlns="http://www.w3.org/2000/svg" baseProfile="full" height="260px" version="1.1" viewBox="0 0 560 260" width="560px" xml:space="preserve">

<path class="bond-0 atom-0 atom-1" d="M 33.2,192.9 L 39.4,185.5" style="fill:none;fill-rule:evenodd;stroke:#FF0000;stroke-width:2.0px;stroke-linecap:butt;stroke-linejoin:miter;stroke-opacity:1" />
<path class="bond-0 atom-0 atom-1" d="M 39.4,185.5 L 45.5,178.1" style="fill:none;fill-rule:evenodd;stroke:#000000;stroke-width:2.0px;stroke-linecap:butt;stroke-linejoin:miter;stroke-opacity:1" />
<path class="bond-0 atom-0 atom-1" d="M 35.9,195.2 L 42.1,187.8" style="fill:none;fill-rule:evenodd;stroke:#FF0000;stroke-width:2.0px;stroke-linecap:butt;stroke-linejoin:miter;stroke-opacity:1" />
<path class="bond-0 atom-0 atom-1" d="M 42.1,187.8 L 48.3,180.4" style="fill:none;fill-rule:evenodd;stroke:#000000;stroke-width:2.0px;stroke-linecap:butt;stroke-linejoin:miter;stroke-opacity:1" />
<path class="bond-1 atom-1 atom-2" d="M 46.2,180.0 L 38.1,157.8" style="fill:none;fill-rule:evenodd;stroke:#000000;stroke-width:2.0px;stroke-linecap:butt;stroke-linejoin:miter;stroke-opacity:1" />
<path class="bond-2 atom-2 atom-3" d="M 38.1,157.8 L 53.2,139.6" style="fill:none;fill-rule:evenodd;stroke:#000000;stroke-width:2.0px;stroke-linecap:butt;stroke-linejoin:miter;stroke-opacity:1" />
<path class="bond-3 atom-3 atom-4" d="M 53.2,139.6 L 76.6,143.6" style="fill:none;fill-rule:evenodd;stroke:#000000;stroke-width:2.0px;stroke-linecap:butt;stroke-linejoin:miter;stroke-opacity:1" />
<path class="bond-4 atom-4 atom-5" d="M 79.1,141.2 L 78.4,140.7" style="fill:none;fill-rule:evenodd;stroke:#000000;stroke-width:1.0px;stroke-linecap:butt;stroke-linejoin:miter;stroke-opacity:1" />
<path class="bond-4 atom-4 atom-5" d="M 81.7,138.9 L 80.3,137.7" style="fill:none;fill-rule:evenodd;stroke:#000000;stroke-width:1.0px;stroke-linecap:butt;stroke-linejoin:miter;stroke-opacity:1" />
<path class="bond-4 atom-4 atom-5" d="M 84.2,136.5 L 82.2,134.8" style="fill:none;fill-rule:evenodd;stroke:#0000FF;stroke-width:1.0px;stroke-linecap:butt;stroke-linejoin:miter;stroke-opacity:1" />
<path class="bond-4 atom-4 atom-5" d="M 86.7,134.1 L 84.0,131.9" style="fill:none;fill-rule:evenodd;stroke:#0000FF;stroke-width:1.0px;stroke-linecap:butt;stroke-linejoin:miter;stroke-opacity:1" />
<path class="bond-5 atom-5 atom-6" d="M 90.7,121.3 L 88.3,111.9" style="fill:none;fill-rule:evenodd;stroke:#0000FF;stroke-width:2.0px;stroke-linecap:butt;stroke-linejoin:miter;stroke-opacity:1" />
<path class="bond-5 atom-5 atom-6" d="M 88.3,111.9 L 85.9,102.4" style="fill:none;fill-rule:evenodd;stroke:#000000;stroke-width:2.0px;stroke-linecap:butt;stroke-linejoin:miter;stroke-opacity:1" />
<path class="bond-6 atom-6 atom-7" d="M 87.8,101.3 L 78.1,97.4" style="fill:none;fill-rule:evenodd;stroke:#000000;stroke-width:2.0px;stroke-linecap:butt;stroke-linejoin:miter;stroke-opacity:1" />
<path class="bond-6 atom-6 atom-7" d="M 78.1,97.4 L 68.4,93.5" style="fill:none;fill-rule:evenodd;stroke:#FF0000;stroke-width:2.0px;stroke-linecap:butt;stroke-linejoin:miter;stroke-opacity:1" />
<path class="bond-6 atom-6 atom-7" d="M 86.4,104.6 L 76.8,100.7" style="fill:none;fill-rule:evenodd;stroke:#000000;stroke-width:2.0px;stroke-linecap:butt;stroke-linejoin:miter;stroke-opacity:1" />
<path class="bond-6 atom-6 atom-7" d="M 76.8,100.7 L 67.1,96.8" style="fill:none;fill-rule:evenodd;stroke:#FF0000;stroke-width:2.0px;stroke-linecap:butt;stroke-linejoin:miter;stroke-opacity:1" />
<path class="bond-7 atom-6 atom-8" d="M 85.9,102.4 L 105.9,89.8" style="fill:none;fill-rule:evenodd;stroke:#000000;stroke-width:2.0px;stroke-linecap:butt;stroke-linejoin:miter;stroke-opacity:1" />
<path class="bond-8 atom-8 atom-9" d="M 105.9,89.8 L 110.0,66.5" style="fill:none;fill-rule:evenodd;stroke:#000000;stroke-width:2.0px;stroke-linecap:butt;stroke-linejoin:miter;stroke-opacity:1" />
<path class="bond-8 atom-8 atom-9" d="M 109.8,88.4 L 113.1,69.1" style="fill:none;fill-rule:evenodd;stroke:#000000;stroke-width:2.0px;stroke-linecap:butt;stroke-linejoin:miter;stroke-opacity:1" />
<path class="bond-9 atom-9 atom-10" d="M 110.0,66.5 L 132.2,58.3" style="fill:none;fill-rule:evenodd;stroke:#000000;stroke-width:2.0px;stroke-linecap:butt;stroke-linejoin:miter;stroke-opacity:1" />
<path class="bond-10 atom-10 atom-11" d="M 132.2,58.3 L 150.4,73.4" style="fill:none;fill-rule:evenodd;stroke:#000000;stroke-width:2.0px;stroke-linecap:butt;stroke-linejoin:miter;stroke-opacity:1" />
<path class="bond-10 atom-10 atom-11" d="M 131.5,62.3 L 146.6,74.8" style="fill:none;fill-rule:evenodd;stroke:#000000;stroke-width:2.0px;stroke-linecap:butt;stroke-linejoin:miter;stroke-opacity:1" />
<path class="bond-11 atom-11 atom-12" d="M 150.4,73.4 L 146.4,96.8" style="fill:none;fill-rule:evenodd;stroke:#000000;stroke-width:2.0px;stroke-linecap:butt;stroke-linejoin:miter;stroke-opacity:1" />
<path class="bond-12 atom-12 atom-13" d="M 146.4,96.8 L 153.6,102.8" style="fill:none;fill-rule:evenodd;stroke:#000000;stroke-width:2.0px;stroke-linecap:butt;stroke-linejoin:miter;stroke-opacity:1" />
<path class="bond-12 atom-12 atom-13" d="M 153.6,102.8 L 160.7,108.7" style="fill:none;fill-rule:evenodd;stroke:#FF0000;stroke-width:2.0px;stroke-linecap:butt;stroke-linejoin:miter;stroke-opacity:1" />
<path class="bond-13 atom-13 atom-14" d="M 168.5,110.5 L 177.6,107.1" style="fill:none;fill-rule:evenodd;stroke:#FF0000;stroke-width:2.0px;stroke-linecap:butt;stroke-linejoin:miter;stroke-opacity:1" />
<path class="bond-13 atom-13 atom-14" d="M 177.6,107.1 L 186.8,103.8" style="fill:none;fill-rule:evenodd;stroke:#000000;stroke-width:2.0px;stroke-linecap:butt;stroke-linejoin:miter;stroke-opacity:1" />
<path class="bond-14 atom-14 atom-15" d="M 186.8,103.8 L 205.0,118.9" style="fill:none;fill-rule:evenodd;stroke:#000000;stroke-width:2.0px;stroke-linecap:butt;stroke-linejoin:miter;stroke-opacity:1" />
<path class="bond-15 atom-15 atom-16" d="M 205.0,118.9 L 214.5,115.4" style="fill:none;fill-rule:evenodd;stroke:#000000;stroke-width:2.0px;stroke-linecap:butt;stroke-linejoin:miter;stroke-opacity:1" />
<path class="bond-15 atom-15 atom-16" d="M 214.5,115.4 L 223.9,111.9" style="fill:none;fill-rule:evenodd;stroke:#0000FF;stroke-width:2.0px;stroke-linecap:butt;stroke-linejoin:miter;stroke-opacity:1" />
<path class="bond-16 atom-16 atom-17" d="M 230.6,113.5 L 238.0,119.7" style="fill:none;fill-rule:evenodd;stroke:#0000FF;stroke-width:2.0px;stroke-linecap:butt;stroke-linejoin:miter;stroke-opacity:1" />
<path class="bond-16 atom-16 atom-17" d="M 238.0,119.7 L 245.5,125.9" style="fill:none;fill-rule:evenodd;stroke:#000000;stroke-width:2.0px;stroke-linecap:butt;stroke-linejoin:miter;stroke-opacity:1" />
<path class="bond-17 atom-17 atom-18" d="M 245.5,125.9 L 267.7,117.7" style="fill:none;fill-rule:evenodd;stroke:#000000;stroke-width:2.0px;stroke-linecap:butt;stroke-linejoin:miter;stroke-opacity:1" />
<path class="bond-18 atom-18 atom-19" d="M 267.7,117.7 L 269.4,108.1" style="fill:none;fill-rule:evenodd;stroke:#000000;stroke-width:2.0px;stroke-linecap:butt;stroke-linejoin:miter;stroke-opacity:1" />
<path class="bond-18 atom-18 atom-19" d="M 269.4,108.1 L 271.0,98.5" style="fill:none;fill-rule:evenodd;stroke:#0000FF;stroke-width:2.0px;stroke-linecap:butt;stroke-linejoin:miter;stroke-opacity:1" />
<path class="bond-19 atom-19 atom-20" d="M 275.1,93.1 L 284.5,89.6" style="fill:none;fill-rule:evenodd;stroke:#0000FF;stroke-width:2.0px;stroke-linecap:butt;stroke-linejoin:miter;stroke-opacity:1" />
<path class="bond-19 atom-19 atom-20" d="M 284.5,89.6 L 294.0,86.2" style="fill:none;fill-rule:evenodd;stroke:#000000;stroke-width:2.0px;stroke-linecap:butt;stroke-linejoin:miter;stroke-opacity:1" />
<path class="bond-20 atom-20 atom-21" d="M 294.0,86.2 L 312.2,101.3" style="fill:none;fill-rule:evenodd;stroke:#000000;stroke-width:2.0px;stroke-linecap:butt;stroke-linejoin:miter;stroke-opacity:1" />
<path class="bond-21 atom-21 atom-22" d="M 312.2,101.3 L 321.4,97.9" style="fill:none;fill-rule:evenodd;stroke:#000000;stroke-width:2.0px;stroke-linecap:butt;stroke-linejoin:miter;stroke-opacity:1" />
<path class="bond-21 atom-21 atom-22" d="M 321.4,97.9 L 330.5,94.6" style="fill:none;fill-rule:evenodd;stroke:#FF0000;stroke-width:2.0px;stroke-linecap:butt;stroke-linejoin:miter;stroke-opacity:1" />
<path class="bond-22 atom-22 atom-23" d="M 338.3,96.3 L 345.4,102.3" style="fill:none;fill-rule:evenodd;stroke:#FF0000;stroke-width:2.0px;stroke-linecap:butt;stroke-linejoin:miter;stroke-opacity:1" />
<path class="bond-22 atom-22 atom-23" d="M 345.4,102.3 L 352.6,108.3" style="fill:none;fill-rule:evenodd;stroke:#000000;stroke-width:2.0px;stroke-linecap:butt;stroke-linejoin:miter;stroke-opacity:1" />
<path class="bond-23 atom-23 atom-24" d="M 352.6,108.3 L 348.6,131.6" style="fill:none;fill-rule:evenodd;stroke:#000000;stroke-width:2.0px;stroke-linecap:butt;stroke-linejoin:miter;stroke-opacity:1" />
<path class="bond-24 atom-24 atom-25" d="M 348.6,131.6 L 366.8,146.8" style="fill:none;fill-rule:evenodd;stroke:#000000;stroke-width:2.0px;stroke-linecap:butt;stroke-linejoin:miter;stroke-opacity:1" />
<path class="bond-24 atom-24 atom-25" d="M 352.4,130.2 L 367.5,142.8" style="fill:none;fill-rule:evenodd;stroke:#000000;stroke-width:2.0px;stroke-linecap:butt;stroke-linejoin:miter;stroke-opacity:1" />
<path class="bond-25 atom-25 atom-26" d="M 366.8,146.8 L 389.0,138.6" style="fill:none;fill-rule:evenodd;stroke:#000000;stroke-width:2.0px;stroke-linecap:butt;stroke-linejoin:miter;stroke-opacity:1" />
<path class="bond-26 atom-26 atom-27" d="M 389.0,138.6 L 397.8,143.3" style="fill:none;fill-rule:evenodd;stroke:#000000;stroke-width:2.0px;stroke-linecap:butt;stroke-linejoin:miter;stroke-opacity:1" />
<path class="bond-26 atom-26 atom-27" d="M 397.8,143.3 L 406.7,147.9" style="fill:none;fill-rule:evenodd;stroke:#0000FF;stroke-width:2.0px;stroke-linecap:butt;stroke-linejoin:miter;stroke-opacity:1" />
<path class="bond-27 atom-27 atom-28" d="M 413.3,146.4 L 420.1,139.8" style="fill:none;fill-rule:evenodd;stroke:#0000FF;stroke-width:2.0px;stroke-linecap:butt;stroke-linejoin:miter;stroke-opacity:1" />
<path class="bond-27 atom-27 atom-28" d="M 420.1,139.8 L 427.0,133.1" style="fill:none;fill-rule:evenodd;stroke:#000000;stroke-width:2.0px;stroke-linecap:butt;stroke-linejoin:miter;stroke-opacity:1" />
<path class="bond-28 atom-28 atom-29" d="M 427.0,133.1 L 437.1,133.8" style="fill:none;fill-rule:evenodd;stroke:#000000;stroke-width:2.0px;stroke-linecap:butt;stroke-linejoin:miter;stroke-opacity:1" />
<path class="bond-28 atom-28 atom-29" d="M 437.1,133.8 L 447.3,134.5" style="fill:none;fill-rule:evenodd;stroke:#0000FF;stroke-width:2.0px;stroke-linecap:butt;stroke-linejoin:miter;stroke-opacity:1" />
<path class="bond-29 atom-29 atom-30" d="M 453.4,130.6 L 458.6,122.8" style="fill:none;fill-rule:evenodd;stroke:#0000FF;stroke-width:2.0px;stroke-linecap:butt;stroke-linejoin:miter;stroke-opacity:1" />
<path class="bond-29 atom-29 atom-30" d="M 458.6,122.8 L 463.8,115.0" style="fill:none;fill-rule:evenodd;stroke:#000000;stroke-width:2.0px;stroke-linecap:butt;stroke-linejoin:miter;stroke-opacity:1" />
<path class="bond-30 atom-30 atom-31" d="M 463.8,115.0 L 487.4,116.6" style="fill:none;fill-rule:evenodd;stroke:#000000;stroke-width:2.0px;stroke-linecap:butt;stroke-linejoin:miter;stroke-opacity:1" />
<path class="bond-31 atom-31 atom-32" d="M 487.4,116.6 L 497.9,137.8" style="fill:none;fill-rule:evenodd;stroke:#000000;stroke-width:2.0px;stroke-linecap:butt;stroke-linejoin:miter;stroke-opacity:1" />
<path class="bond-32 atom-32 atom-33" d="M 497.9,137.8 L 484.7,157.5" style="fill:none;fill-rule:evenodd;stroke:#000000;stroke-width:2.0px;stroke-linecap:butt;stroke-linejoin:miter;stroke-opacity:1" />
<path class="bond-32 atom-32 atom-33" d="M 499.7,141.5 L 488.8,157.8" style="fill:none;fill-rule:evenodd;stroke:#000000;stroke-width:2.0px;stroke-linecap:butt;stroke-linejoin:miter;stroke-opacity:1" />
<path class="bond-33 atom-33 atom-34" d="M 484.7,157.5 L 495.2,178.8" style="fill:none;fill-rule:evenodd;stroke:#000000;stroke-width:2.0px;stroke-linecap:butt;stroke-linejoin:miter;stroke-opacity:1" />
<path class="bond-34 atom-34 atom-35" d="M 495.2,178.8 L 518.8,180.3" style="fill:none;fill-rule:evenodd;stroke:#000000;stroke-width:2.0px;stroke-linecap:butt;stroke-linejoin:miter;stroke-opacity:1" />
<path class="bond-34 atom-34 atom-35" d="M 497.5,175.4 L 517.0,176.7" style="fill:none;fill-rule:evenodd;stroke:#000000;stroke-width:2.0px;stroke-linecap:butt;stroke-linejoin:miter;stroke-opacity:1" />
<path class="bond-35 atom-35 atom-36" d="M 518.8,180.3 L 532.0,160.6" style="fill:none;fill-rule:evenodd;stroke:#000000;stroke-width:2.0px;stroke-linecap:butt;stroke-linejoin:miter;stroke-opacity:1" />
<path class="bond-36 atom-36 atom-37" d="M 532.0,160.6 L 521.5,139.4" style="fill:none;fill-rule:evenodd;stroke:#000000;stroke-width:2.0px;stroke-linecap:butt;stroke-linejoin:miter;stroke-opacity:1" />
<path class="bond-36 atom-36 atom-37" d="M 527.9,160.4 L 519.3,142.8" style="fill:none;fill-rule:evenodd;stroke:#000000;stroke-width:2.0px;stroke-linecap:butt;stroke-linejoin:miter;stroke-opacity:1" />
<path class="bond-37 atom-30 atom-38" d="M 463.8,115.0 L 459.6,106.4" style="fill:none;fill-rule:evenodd;stroke:#000000;stroke-width:2.0px;stroke-linecap:butt;stroke-linejoin:miter;stroke-opacity:1" />
<path class="bond-37 atom-30 atom-38" d="M 459.6,106.4 L 455.4,97.9" style="fill:none;fill-rule:evenodd;stroke:#0000FF;stroke-width:2.0px;stroke-linecap:butt;stroke-linejoin:miter;stroke-opacity:1" />
<path class="bond-37 atom-30 atom-38" d="M 459.7,114.7 L 455.9,107.1" style="fill:none;fill-rule:evenodd;stroke:#000000;stroke-width:2.0px;stroke-linecap:butt;stroke-linejoin:miter;stroke-opacity:1" />
<path class="bond-37 atom-30 atom-38" d="M 455.9,107.1 L 452.2,99.5" style="fill:none;fill-rule:evenodd;stroke:#0000FF;stroke-width:2.0px;stroke-linecap:butt;stroke-linejoin:miter;stroke-opacity:1" />
<path class="bond-38 atom-38 atom-39" d="M 450.0,93.5 L 439.8,92.9" style="fill:none;fill-rule:evenodd;stroke:#0000FF;stroke-width:2.0px;stroke-linecap:butt;stroke-linejoin:miter;stroke-opacity:1" />
<path class="bond-38 atom-38 atom-39" d="M 439.8,92.9 L 429.7,92.2" style="fill:none;fill-rule:evenodd;stroke:#000000;stroke-width:2.0px;stroke-linecap:butt;stroke-linejoin:miter;stroke-opacity:1" />
<path class="bond-39 atom-39 atom-40" d="M 431.7,92.3 L 427.3,83.4" style="fill:none;fill-rule:evenodd;stroke:#000000;stroke-width:2.0px;stroke-linecap:butt;stroke-linejoin:miter;stroke-opacity:1" />
<path class="bond-39 atom-39 atom-40" d="M 427.3,83.4 L 422.9,74.4" style="fill:none;fill-rule:evenodd;stroke:#FF0000;stroke-width:2.0px;stroke-linecap:butt;stroke-linejoin:miter;stroke-opacity:1" />
<path class="bond-39 atom-39 atom-40" d="M 428.5,93.9 L 424.1,84.9" style="fill:none;fill-rule:evenodd;stroke:#000000;stroke-width:2.0px;stroke-linecap:butt;stroke-linejoin:miter;stroke-opacity:1" />
<path class="bond-39 atom-39 atom-40" d="M 424.1,84.9 L 419.7,76.0" style="fill:none;fill-rule:evenodd;stroke:#FF0000;stroke-width:2.0px;stroke-linecap:butt;stroke-linejoin:miter;stroke-opacity:1" />
<path class="bond-40 atom-39 atom-41" d="M 429.7,92.2 L 416.5,111.9" style="fill:none;fill-rule:evenodd;stroke:#000000;stroke-width:2.0px;stroke-linecap:butt;stroke-linejoin:miter;stroke-opacity:1" />
<path class="bond-41 atom-41 atom-42" d="M 416.5,111.9 L 393.1,115.3" style="fill:none;fill-rule:evenodd;stroke:#000000;stroke-width:2.0px;stroke-linecap:butt;stroke-linejoin:miter;stroke-opacity:1" />
<path class="bond-42 atom-42 atom-43" d="M 393.1,115.3 L 374.8,100.1" style="fill:none;fill-rule:evenodd;stroke:#000000;stroke-width:2.0px;stroke-linecap:butt;stroke-linejoin:miter;stroke-opacity:1" />
<path class="bond-43 atom-43 atom-44" d="M 374.8,100.1 L 376.5,90.6" style="fill:none;fill-rule:evenodd;stroke:#000000;stroke-width:2.0px;stroke-linecap:butt;stroke-linejoin:miter;stroke-opacity:1" />
<path class="bond-43 atom-43 atom-44" d="M 376.5,90.6 L 378.1,81.0" style="fill:none;fill-rule:evenodd;stroke:#FF0000;stroke-width:2.0px;stroke-linecap:butt;stroke-linejoin:miter;stroke-opacity:1" />
<path class="bond-44 atom-19 atom-45" d="M 268.4,91.6 L 261.0,85.4" style="fill:none;fill-rule:evenodd;stroke:#0000FF;stroke-width:2.0px;stroke-linecap:butt;stroke-linejoin:miter;stroke-opacity:1" />
<path class="bond-44 atom-19 atom-45" d="M 261.0,85.4 L 253.5,79.2" style="fill:none;fill-rule:evenodd;stroke:#000000;stroke-width:2.0px;stroke-linecap:butt;stroke-linejoin:miter;stroke-opacity:1" />
<path class="bond-45 atom-45 atom-46" d="M 253.5,79.2 L 231.3,87.4" style="fill:none;fill-rule:evenodd;stroke:#000000;stroke-width:2.0px;stroke-linecap:butt;stroke-linejoin:miter;stroke-opacity:1" />
<path class="bond-46 atom-12 atom-47" d="M 146.4,96.8 L 124.2,105.0" style="fill:none;fill-rule:evenodd;stroke:#000000;stroke-width:2.0px;stroke-linecap:butt;stroke-linejoin:miter;stroke-opacity:1" />
<path class="bond-46 atom-12 atom-47" d="M 143.2,94.2 L 124.9,100.9" style="fill:none;fill-rule:evenodd;stroke:#000000;stroke-width:2.0px;stroke-linecap:butt;stroke-linejoin:miter;stroke-opacity:1" />
<path class="bond-47 atom-47 atom-48" d="M 124.2,105.0 L 115.4,127.0" style="fill:none;fill-rule:evenodd;stroke:#000000;stroke-width:2.0px;stroke-linecap:butt;stroke-linejoin:miter;stroke-opacity:1" />
<path class="bond-48 atom-48 atom-49" d="M 113.2,126.8 L 118.5,135.3" style="fill:none;fill-rule:evenodd;stroke:#000000;stroke-width:2.0px;stroke-linecap:butt;stroke-linejoin:miter;stroke-opacity:1" />
<path class="bond-48 atom-48 atom-49" d="M 118.5,135.3 L 123.9,143.8" style="fill:none;fill-rule:evenodd;stroke:#FF0000;stroke-width:2.0px;stroke-linecap:butt;stroke-linejoin:miter;stroke-opacity:1" />
<path class="bond-48 atom-48 atom-49" d="M 116.2,124.9 L 121.5,133.4" style="fill:none;fill-rule:evenodd;stroke:#000000;stroke-width:2.0px;stroke-linecap:butt;stroke-linejoin:miter;stroke-opacity:1" />
<path class="bond-48 atom-48 atom-49" d="M 121.5,133.4 L 126.9,141.9" style="fill:none;fill-rule:evenodd;stroke:#FF0000;stroke-width:2.0px;stroke-linecap:butt;stroke-linejoin:miter;stroke-opacity:1" />
<path class="bond-49 atom-4 atom-50" d="M 76.6,143.6 L 84.7,165.8" style="fill:none;fill-rule:evenodd;stroke:#000000;stroke-width:2.0px;stroke-linecap:butt;stroke-linejoin:miter;stroke-opacity:1" />
<path class="bond-50 atom-50 atom-51" d="M 83.4,167.4 L 93.7,169.2" style="fill:none;fill-rule:evenodd;stroke:#000000;stroke-width:2.0px;stroke-linecap:butt;stroke-linejoin:miter;stroke-opacity:1" />
<path class="bond-50 atom-50 atom-51" d="M 93.7,169.2 L 103.9,171.0" style="fill:none;fill-rule:evenodd;stroke:#FF0000;stroke-width:2.0px;stroke-linecap:butt;stroke-linejoin:miter;stroke-opacity:1" />
<path class="bond-50 atom-50 atom-51" d="M 84.0,163.9 L 94.3,165.7" style="fill:none;fill-rule:evenodd;stroke:#000000;stroke-width:2.0px;stroke-linecap:butt;stroke-linejoin:miter;stroke-opacity:1" />
<path class="bond-50 atom-50 atom-51" d="M 94.3,165.7 L 104.5,167.5" style="fill:none;fill-rule:evenodd;stroke:#FF0000;stroke-width:2.0px;stroke-linecap:butt;stroke-linejoin:miter;stroke-opacity:1" />
<path class="bond-51 atom-50 atom-52" d="M 84.7,165.8 L 78.9,172.9" style="fill:none;fill-rule:evenodd;stroke:#000000;stroke-width:2.0px;stroke-linecap:butt;stroke-linejoin:miter;stroke-opacity:1" />
<path class="bond-51 atom-50 atom-52" d="M 78.9,172.9 L 73.0,179.9" style="fill:none;fill-rule:evenodd;stroke:#0000FF;stroke-width:2.0px;stroke-linecap:butt;stroke-linejoin:miter;stroke-opacity:1" />
<path class="bond-52 atom-52 atom-1" d="M 66.3,183.5 L 56.3,181.8" style="fill:none;fill-rule:evenodd;stroke:#0000FF;stroke-width:2.0px;stroke-linecap:butt;stroke-linejoin:miter;stroke-opacity:1" />
<path class="bond-52 atom-52 atom-1" d="M 56.3,181.8 L 46.2,180.0" style="fill:none;fill-rule:evenodd;stroke:#000000;stroke-width:2.0px;stroke-linecap:butt;stroke-linejoin:miter;stroke-opacity:1" />
<path class="bond-53 atom-48 atom-5" d="M 115.4,127.0 L 105.2,126.3" style="fill:none;fill-rule:evenodd;stroke:#000000;stroke-width:2.0px;stroke-linecap:butt;stroke-linejoin:miter;stroke-opacity:1" />
<path class="bond-53 atom-48 atom-5" d="M 105.2,126.3 L 95.0,125.6" style="fill:none;fill-rule:evenodd;stroke:#0000FF;stroke-width:2.0px;stroke-linecap:butt;stroke-linejoin:miter;stroke-opacity:1" />
<path class="bond-54 atom-47 atom-8" d="M 124.2,105.0 L 105.9,89.8" style="fill:none;fill-rule:evenodd;stroke:#000000;stroke-width:2.0px;stroke-linecap:butt;stroke-linejoin:miter;stroke-opacity:1" />
<path class="bond-55 atom-46 atom-16" d="M 231.3,87.4 L 229.6,97.0" style="fill:none;fill-rule:evenodd;stroke:#000000;stroke-width:2.0px;stroke-linecap:butt;stroke-linejoin:miter;stroke-opacity:1" />
<path class="bond-55 atom-46 atom-16" d="M 229.6,97.0 L 228.0,106.6" style="fill:none;fill-rule:evenodd;stroke:#0000FF;stroke-width:2.0px;stroke-linecap:butt;stroke-linejoin:miter;stroke-opacity:1" />
<path class="bond-56 atom-43 atom-23" d="M 374.8,100.1 L 352.6,108.3" style="fill:none;fill-rule:evenodd;stroke:#000000;stroke-width:2.0px;stroke-linecap:butt;stroke-linejoin:miter;stroke-opacity:1" />
<path class="bond-56 atom-43 atom-23" d="M 374.1,104.1 L 355.8,110.9" style="fill:none;fill-rule:evenodd;stroke:#000000;stroke-width:2.0px;stroke-linecap:butt;stroke-linejoin:miter;stroke-opacity:1" />
<path class="bond-57 atom-42 atom-26" d="M 393.1,115.3 L 389.0,138.6" style="fill:none;fill-rule:evenodd;stroke:#000000;stroke-width:2.0px;stroke-linecap:butt;stroke-linejoin:miter;stroke-opacity:1" />
<path class="bond-57 atom-42 atom-26" d="M 389.2,116.7 L 385.9,136.0" style="fill:none;fill-rule:evenodd;stroke:#000000;stroke-width:2.0px;stroke-linecap:butt;stroke-linejoin:miter;stroke-opacity:1" />
<path class="bond-58 atom-41 atom-28" d="M 416.5,111.9 L 427.0,133.1" style="fill:none;fill-rule:evenodd;stroke:#000000;stroke-width:2.0px;stroke-linecap:butt;stroke-linejoin:miter;stroke-opacity:1" />
<path class="bond-58 atom-41 atom-28" d="M 414.5,115.8 L 422.6,132.4" style="fill:none;fill-rule:evenodd;stroke:#000000;stroke-width:2.0px;stroke-linecap:butt;stroke-linejoin:miter;stroke-opacity:1" />
<path class="bond-59 atom-37 atom-32" d="M 521.5,139.4 L 497.9,137.8" style="fill:none;fill-rule:evenodd;stroke:#000000;stroke-width:2.0px;stroke-linecap:butt;stroke-linejoin:miter;stroke-opacity:1" />
<path d="M 45.8,178.9 L 46.2,180.0 L 46.7,180.1" style="fill:none;stroke:#000000;stroke-width:2.0px;stroke-linecap:butt;stroke-linejoin:miter;stroke-miterlimit:10;stroke-opacity:1;" />
<path d="M 38.5,158.9 L 38.1,157.8 L 38.8,156.9" style="fill:none;stroke:#000000;stroke-width:2.0px;stroke-linecap:butt;stroke-linejoin:miter;stroke-miterlimit:10;stroke-opacity:1;" />
<path d="M 52.5,140.5 L 53.2,139.6 L 54.4,139.8" style="fill:none;stroke:#000000;stroke-width:2.0px;stroke-linecap:butt;stroke-linejoin:miter;stroke-miterlimit:10;stroke-opacity:1;" />
<path d="M 75.4,143.4 L 76.6,143.6 L 77.0,144.7" style="fill:none;stroke:#000000;stroke-width:2.0px;stroke-linecap:butt;stroke-linejoin:miter;stroke-miterlimit:10;stroke-opacity:1;" />
<path d="M 86.0,102.9 L 85.9,102.4 L 86.9,101.8" style="fill:none;stroke:#000000;stroke-width:2.0px;stroke-linecap:butt;stroke-linejoin:miter;stroke-miterlimit:10;stroke-opacity:1;" />
<path d="M 109.8,67.6 L 110.0,66.5 L 111.1,66.0" style="fill:none;stroke:#000000;stroke-width:2.0px;stroke-linecap:butt;stroke-linejoin:miter;stroke-miterlimit:10;stroke-opacity:1;" />
<path d="M 131.1,58.7 L 132.2,58.3 L 133.1,59.0" style="fill:none;stroke:#000000;stroke-width:2.0px;stroke-linecap:butt;stroke-linejoin:miter;stroke-miterlimit:10;stroke-opacity:1;" />
<path d="M 149.5,72.7 L 150.4,73.4 L 150.2,74.6" style="fill:none;stroke:#000000;stroke-width:2.0px;stroke-linecap:butt;stroke-linejoin:miter;stroke-miterlimit:10;stroke-opacity:1;" />
<path d="M 186.4,103.9 L 186.8,103.8 L 187.7,104.5" style="fill:none;stroke:#000000;stroke-width:2.0px;stroke-linecap:butt;stroke-linejoin:miter;stroke-miterlimit:10;stroke-opacity:1;" />
<path d="M 204.1,118.2 L 205.0,118.9 L 205.5,118.7" style="fill:none;stroke:#000000;stroke-width:2.0px;stroke-linecap:butt;stroke-linejoin:miter;stroke-miterlimit:10;stroke-opacity:1;" />
<path d="M 245.1,125.6 L 245.5,125.9 L 246.6,125.5" style="fill:none;stroke:#000000;stroke-width:2.0px;stroke-linecap:butt;stroke-linejoin:miter;stroke-miterlimit:10;stroke-opacity:1;" />
<path d="M 266.6,118.1 L 267.7,117.7 L 267.8,117.2" style="fill:none;stroke:#000000;stroke-width:2.0px;stroke-linecap:butt;stroke-linejoin:miter;stroke-miterlimit:10;stroke-opacity:1;" />
<path d="M 293.5,86.3 L 294.0,86.2 L 294.9,86.9" style="fill:none;stroke:#000000;stroke-width:2.0px;stroke-linecap:butt;stroke-linejoin:miter;stroke-miterlimit:10;stroke-opacity:1;" />
<path d="M 311.3,100.6 L 312.2,101.3 L 312.6,101.2" style="fill:none;stroke:#000000;stroke-width:2.0px;stroke-linecap:butt;stroke-linejoin:miter;stroke-miterlimit:10;stroke-opacity:1;" />
<path d="M 348.8,130.5 L 348.6,131.6 L 349.5,132.4" style="fill:none;stroke:#000000;stroke-width:2.0px;stroke-linecap:butt;stroke-linejoin:miter;stroke-miterlimit:10;stroke-opacity:1;" />
<path d="M 365.9,146.0 L 366.8,146.8 L 367.9,146.4" style="fill:none;stroke:#000000;stroke-width:2.0px;stroke-linecap:butt;stroke-linejoin:miter;stroke-miterlimit:10;stroke-opacity:1;" />
<path d="M 486.2,116.5 L 487.4,116.6 L 487.9,117.6" style="fill:none;stroke:#000000;stroke-width:2.0px;stroke-linecap:butt;stroke-linejoin:miter;stroke-miterlimit:10;stroke-opacity:1;" />
<path d="M 485.4,156.5 L 484.7,157.5 L 485.2,158.6" style="fill:none;stroke:#000000;stroke-width:2.0px;stroke-linecap:butt;stroke-linejoin:miter;stroke-miterlimit:10;stroke-opacity:1;" />
<path d="M 494.7,177.7 L 495.2,178.8 L 496.4,178.8" style="fill:none;stroke:#000000;stroke-width:2.0px;stroke-linecap:butt;stroke-linejoin:miter;stroke-miterlimit:10;stroke-opacity:1;" />
<path d="M 517.6,180.3 L 518.8,180.3 L 519.5,179.3" style="fill:none;stroke:#000000;stroke-width:2.0px;stroke-linecap:butt;stroke-linejoin:miter;stroke-miterlimit:10;stroke-opacity:1;" />
<path d="M 531.3,161.6 L 532.0,160.6 L 531.5,159.6" style="fill:none;stroke:#000000;stroke-width:2.0px;stroke-linecap:butt;stroke-linejoin:miter;stroke-miterlimit:10;stroke-opacity:1;" />
<path d="M 522.1,140.4 L 521.5,139.4 L 520.4,139.3" style="fill:none;stroke:#000000;stroke-width:2.0px;stroke-linecap:butt;stroke-linejoin:miter;stroke-miterlimit:10;stroke-opacity:1;" />
<path d="M 430.2,92.2 L 429.7,92.2 L 429.0,93.2" style="fill:none;stroke:#000000;stroke-width:2.0px;stroke-linecap:butt;stroke-linejoin:miter;stroke-miterlimit:10;stroke-opacity:1;" />
<path d="M 253.9,79.5 L 253.5,79.2 L 252.4,79.6" style="fill:none;stroke:#000000;stroke-width:2.0px;stroke-linecap:butt;stroke-linejoin:miter;stroke-miterlimit:10;stroke-opacity:1;" />
<path d="M 232.4,87.0 L 231.3,87.4 L 231.2,87.9" style="fill:none;stroke:#000000;stroke-width:2.0px;stroke-linecap:butt;stroke-linejoin:miter;stroke-miterlimit:10;stroke-opacity:1;" />
<path d="M 115.8,125.9 L 115.4,127.0 L 114.9,126.9" style="fill:none;stroke:#000000;stroke-width:2.0px;stroke-linecap:butt;stroke-linejoin:miter;stroke-miterlimit:10;stroke-opacity:1;" />
<path d="M 84.3,164.7 L 84.7,165.8 L 84.5,166.2" style="fill:none;stroke:#000000;stroke-width:2.0px;stroke-linecap:butt;stroke-linejoin:miter;stroke-miterlimit:10;stroke-opacity:1;" />
<path class="atom-0" d="M 28.0 198.3 Q 28.0 196.6, 28.8 195.7 Q 29.6 194.8, 31.1 194.8 Q 32.6 194.8, 33.4 195.7 Q 34.2 196.6, 34.2 198.3 Q 34.2 199.9, 33.4 200.8 Q 32.5 201.7, 31.1 201.7 Q 29.6 201.7, 28.8 200.8 Q 28.0 199.9, 28.0 198.3 M 31.1 201.0 Q 32.1 201.0, 32.7 200.3 Q 33.2 199.6, 33.2 198.3 Q 33.2 196.9, 32.7 196.3 Q 32.1 195.6, 31.1 195.6 Q 30.1 195.6, 29.5 196.3 Q 28.9 196.9, 28.9 198.3 Q 28.9 199.6, 29.5 200.3 Q 30.1 201.0, 31.1 201.0 " fill="#FF0000" />
<path class="atom-5" d="M 90.2 122.0 L 92.4 125.6 Q 92.7 126.0, 93.0 126.6 Q 93.4 127.2, 93.4 127.3 L 93.4 122.0 L 94.3 122.0 L 94.3 128.8 L 93.3 128.8 L 91.0 124.9 Q 90.7 124.4, 90.4 123.9 Q 90.1 123.4, 90.0 123.2 L 90.0 128.8 L 89.2 128.8 L 89.2 122.0 L 90.2 122.0 " fill="#0000FF" />
<path class="atom-7" d="M 60.8 93.7 Q 60.8 92.1, 61.6 91.2 Q 62.4 90.3, 63.9 90.3 Q 65.4 90.3, 66.2 91.2 Q 67.0 92.1, 67.0 93.7 Q 67.0 95.3, 66.2 96.2 Q 65.4 97.1, 63.9 97.1 Q 62.4 97.1, 61.6 96.2 Q 60.8 95.3, 60.8 93.7 M 63.9 96.4 Q 64.9 96.4, 65.5 95.7 Q 66.0 95.0, 66.0 93.7 Q 66.0 92.3, 65.5 91.7 Q 64.9 91.0, 63.9 91.0 Q 62.9 91.0, 62.3 91.7 Q 61.8 92.3, 61.8 93.7 Q 61.8 95.0, 62.3 95.7 Q 62.9 96.4, 63.9 96.4 " fill="#FF0000" />
<path class="atom-13" d="M 161.5 112.0 Q 161.5 110.3, 162.3 109.4 Q 163.1 108.5, 164.6 108.5 Q 166.1 108.5, 166.9 109.4 Q 167.7 110.3, 167.7 112.0 Q 167.7 113.6, 166.9 114.5 Q 166.1 115.4, 164.6 115.4 Q 163.1 115.4, 162.3 114.5 Q 161.5 113.6, 161.5 112.0 M 164.6 114.7 Q 165.6 114.7, 166.2 114.0 Q 166.7 113.3, 166.7 112.0 Q 166.7 110.6, 166.2 110.0 Q 165.6 109.3, 164.6 109.3 Q 163.6 109.3, 163.0 110.0 Q 162.5 110.6, 162.5 112.0 Q 162.5 113.3, 163.0 114.0 Q 163.6 114.7, 164.6 114.7 " fill="#FF0000" />
<path class="atom-16" d="M 225.8 107.4 L 228.0 110.9 Q 228.2 111.3, 228.6 111.9 Q 228.9 112.5, 228.9 112.6 L 228.9 107.4 L 229.8 107.4 L 229.8 114.1 L 228.9 114.1 L 226.5 110.2 Q 226.3 109.7, 226.0 109.2 Q 225.7 108.7, 225.6 108.5 L 225.6 114.1 L 224.7 114.1 L 224.7 107.4 L 225.8 107.4 " fill="#0000FF" />
<path class="atom-19" d="M 270.2 91.0 L 272.4 94.5 Q 272.7 94.9, 273.0 95.5 Q 273.4 96.2, 273.4 96.2 L 273.4 91.0 L 274.3 91.0 L 274.3 97.7 L 273.4 97.7 L 271.0 93.8 Q 270.7 93.4, 270.4 92.8 Q 270.1 92.3, 270.1 92.2 L 270.1 97.7 L 269.2 97.7 L 269.2 91.0 L 270.2 91.0 " fill="#0000FF" />
<path class="atom-22" d="M 331.3 93.2 Q 331.3 91.5, 332.1 90.6 Q 332.9 89.7, 334.4 89.7 Q 335.9 89.7, 336.7 90.6 Q 337.5 91.5, 337.5 93.2 Q 337.5 94.8, 336.7 95.7 Q 335.9 96.6, 334.4 96.6 Q 332.9 96.6, 332.1 95.7 Q 331.3 94.8, 331.3 93.2 M 334.4 95.9 Q 335.4 95.9, 336.0 95.2 Q 336.5 94.5, 336.5 93.2 Q 336.5 91.8, 336.0 91.2 Q 335.4 90.5, 334.4 90.5 Q 333.4 90.5, 332.8 91.2 Q 332.3 91.8, 332.3 93.2 Q 332.3 94.5, 332.8 95.2 Q 333.4 95.9, 334.4 95.9 " fill="#FF0000" />
<path class="atom-27" d="M 408.5 146.3 L 410.7 149.9 Q 410.9 150.2, 411.3 150.8 Q 411.6 151.5, 411.6 151.5 L 411.6 146.3 L 412.5 146.3 L 412.5 153.0 L 411.6 153.0 L 409.3 149.1 Q 409.0 148.7, 408.7 148.1 Q 408.4 147.6, 408.3 147.5 L 408.3 153.0 L 407.4 153.0 L 407.4 146.3 L 408.5 146.3 " fill="#0000FF" />
<path class="atom-27" d="M 407.4 153.7 L 408.3 153.7 L 408.3 156.5 L 411.7 156.5 L 411.7 153.7 L 412.6 153.7 L 412.6 160.4 L 411.7 160.4 L 411.7 157.3 L 408.3 157.3 L 408.3 160.4 L 407.4 160.4 L 407.4 153.7 " fill="#0000FF" />
<path class="atom-29" d="M 449.1 131.3 L 451.3 134.9 Q 451.5 135.2, 451.9 135.9 Q 452.2 136.5, 452.3 136.6 L 452.3 131.3 L 453.2 131.3 L 453.2 138.1 L 452.2 138.1 L 449.9 134.2 Q 449.6 133.7, 449.3 133.2 Q 449.0 132.7, 448.9 132.5 L 448.9 138.1 L 448.1 138.1 L 448.1 131.3 L 449.1 131.3 " fill="#0000FF" />
<path class="atom-29" d="M 454.5 131.3 L 455.4 131.3 L 455.4 134.2 L 458.8 134.2 L 458.8 131.3 L 459.7 131.3 L 459.7 138.1 L 458.8 138.1 L 458.8 135.0 L 455.4 135.0 L 455.4 138.1 L 454.5 138.1 L 454.5 131.3 " fill="#0000FF" />
<path class="atom-38" d="M 451.8 90.4 L 454.0 93.9 Q 454.3 94.3, 454.6 94.9 Q 455.0 95.6, 455.0 95.6 L 455.0 90.4 L 455.9 90.4 L 455.9 97.1 L 454.9 97.1 L 452.6 93.2 Q 452.3 92.8, 452.0 92.2 Q 451.7 91.7, 451.6 91.6 L 451.6 97.1 L 450.8 97.1 L 450.8 90.4 L 451.8 90.4 " fill="#0000FF" />
<path class="atom-40" d="M 416.1 71.0 Q 416.1 69.3, 416.9 68.4 Q 417.7 67.5, 419.2 67.5 Q 420.7 67.5, 421.5 68.4 Q 422.3 69.3, 422.3 71.0 Q 422.3 72.6, 421.5 73.5 Q 420.7 74.4, 419.2 74.4 Q 417.7 74.4, 416.9 73.5 Q 416.1 72.6, 416.1 71.0 M 419.2 73.7 Q 420.2 73.7, 420.8 73.0 Q 421.3 72.3, 421.3 71.0 Q 421.3 69.6, 420.8 69.0 Q 420.2 68.3, 419.2 68.3 Q 418.2 68.3, 417.6 69.0 Q 417.1 69.6, 417.1 71.0 Q 417.1 72.3, 417.6 73.0 Q 418.2 73.7, 419.2 73.7 " fill="#FF0000" />
<path class="atom-44" d="M 375.8 76.8 Q 375.8 75.2, 376.6 74.3 Q 377.4 73.4, 378.9 73.4 Q 380.4 73.4, 381.2 74.3 Q 382.0 75.2, 382.0 76.8 Q 382.0 78.4, 381.1 79.3 Q 380.3 80.3, 378.9 80.3 Q 377.4 80.3, 376.6 79.3 Q 375.8 78.4, 375.8 76.8 M 378.9 79.5 Q 379.9 79.5, 380.4 78.8 Q 381.0 78.1, 381.0 76.8 Q 381.0 75.5, 380.4 74.8 Q 379.9 74.1, 378.9 74.1 Q 377.8 74.1, 377.3 74.8 Q 376.7 75.4, 376.7 76.8 Q 376.7 78.1, 377.3 78.8 Q 377.8 79.5, 378.9 79.5 " fill="#FF0000" />
<path class="atom-44" d="M 383.0 73.4 L 383.9 73.4 L 383.9 76.3 L 387.3 76.3 L 387.3 73.4 L 388.2 73.4 L 388.2 80.1 L 387.3 80.1 L 387.3 77.1 L 383.9 77.1 L 383.9 80.1 L 383.0 80.1 L 383.0 73.4 " fill="#FF0000" />
<path class="atom-49" d="M 124.9 147.0 Q 124.9 145.4, 125.7 144.5 Q 126.5 143.6, 128.0 143.6 Q 129.5 143.6, 130.3 144.5 Q 131.1 145.4, 131.1 147.0 Q 131.1 148.7, 130.3 149.6 Q 129.5 150.5, 128.0 150.5 Q 126.5 150.5, 125.7 149.6 Q 124.9 148.7, 124.9 147.0 M 128.0 149.8 Q 129.0 149.8, 129.6 149.1 Q 130.1 148.4, 130.1 147.0 Q 130.1 145.7, 129.6 145.0 Q 129.0 144.4, 128.0 144.4 Q 127.0 144.4, 126.4 145.0 Q 125.9 145.7, 125.9 147.0 Q 125.9 148.4, 126.4 149.1 Q 127.0 149.8, 128.0 149.8 " fill="#FF0000" />
<path class="atom-51" d="M 105.0 169.9 Q 105.0 168.3, 105.8 167.4 Q 106.6 166.5, 108.1 166.5 Q 109.6 166.5, 110.4 167.4 Q 111.2 168.3, 111.2 169.9 Q 111.2 171.5, 110.4 172.4 Q 109.6 173.4, 108.1 173.4 Q 106.6 173.4, 105.8 172.4 Q 105.0 171.5, 105.0 169.9 M 108.1 172.6 Q 109.1 172.6, 109.7 171.9 Q 110.2 171.2, 110.2 169.9 Q 110.2 168.6, 109.7 167.9 Q 109.1 167.2, 108.1 167.2 Q 107.1 167.2, 106.5 167.9 Q 106.0 168.6, 106.0 169.9 Q 106.0 171.2, 106.5 171.9 Q 107.1 172.6, 108.1 172.6 " fill="#FF0000" />
<path class="atom-52" d="M 68.1 180.7 L 70.3 184.3 Q 70.5 184.6, 70.9 185.2 Q 71.2 185.9, 71.2 185.9 L 71.2 180.7 L 72.1 180.7 L 72.1 187.4 L 71.2 187.4 L 68.9 183.5 Q 68.6 183.1, 68.3 182.5 Q 68.0 182.0, 67.9 181.9 L 67.9 187.4 L 67.0 187.4 L 67.0 180.7 L 68.1 180.7 " fill="#0000FF" />
<path class="atom-52" d="M 73.4 180.7 L 74.3 180.7 L 74.3 183.5 L 77.8 183.5 L 77.8 180.7 L 78.7 180.7 L 78.7 187.4 L 77.8 187.4 L 77.8 184.3 L 74.3 184.3 L 74.3 187.4 L 73.4 187.4 L 73.4 180.7 " fill="#0000FF" />
</svg>